<?xml version="1.0" encoding="utf-8"?>
<svg xmlns="http://www.w3.org/2000/svg" xmlns:xlink="http://www.w3.org/1999/xlink" width="600" height="400" viewBox="0 0 2400 1600">
<defs>
  <clipPath id="clip660">
    <rect x="0" y="0" width="2400" height="1600"/>
  </clipPath>
</defs>
<path clip-path="url(#clip660)" d="M0 1600 L2400 1600 L2400 0 L0 0  Z" fill="#ffffff" fill-rule="evenodd" fill-opacity="1"/>
<defs>
  <clipPath id="clip661">
    <rect x="480" y="0" width="1681" height="1600"/>
  </clipPath>
</defs>
<path clip-path="url(#clip660)" d="M156.112 1423.18 L2352.76 1423.18 L2352.76 47.2441 L156.112 47.2441  Z" fill="#ffffff" fill-rule="evenodd" fill-opacity="1"/>
<defs>
  <clipPath id="clip662">
    <rect x="156" y="47" width="2198" height="1377"/>
  </clipPath>
</defs>
<polyline clip-path="url(#clip662)" style="stroke:#000000; stroke-linecap:round; stroke-linejoin:round; stroke-width:2; stroke-opacity:0.1; fill:none" points="156.112,1423.18 156.112,47.2441 "/>
<polyline clip-path="url(#clip662)" style="stroke:#000000; stroke-linecap:round; stroke-linejoin:round; stroke-width:2; stroke-opacity:0.1; fill:none" points="595.441,1423.18 595.441,47.2441 "/>
<polyline clip-path="url(#clip662)" style="stroke:#000000; stroke-linecap:round; stroke-linejoin:round; stroke-width:2; stroke-opacity:0.1; fill:none" points="1034.77,1423.18 1034.77,47.2441 "/>
<polyline clip-path="url(#clip662)" style="stroke:#000000; stroke-linecap:round; stroke-linejoin:round; stroke-width:2; stroke-opacity:0.1; fill:none" points="1474.1,1423.18 1474.1,47.2441 "/>
<polyline clip-path="url(#clip662)" style="stroke:#000000; stroke-linecap:round; stroke-linejoin:round; stroke-width:2; stroke-opacity:0.1; fill:none" points="1913.43,1423.18 1913.43,47.2441 "/>
<polyline clip-path="url(#clip662)" style="stroke:#000000; stroke-linecap:round; stroke-linejoin:round; stroke-width:2; stroke-opacity:0.1; fill:none" points="2352.76,1423.18 2352.76,47.2441 "/>
<polyline clip-path="url(#clip660)" style="stroke:#000000; stroke-linecap:round; stroke-linejoin:round; stroke-width:4; stroke-opacity:1; fill:none" points="156.112,1423.18 2352.76,1423.18 "/>
<polyline clip-path="url(#clip660)" style="stroke:#000000; stroke-linecap:round; stroke-linejoin:round; stroke-width:4; stroke-opacity:1; fill:none" points="156.112,1423.18 156.112,1404.28 "/>
<polyline clip-path="url(#clip660)" style="stroke:#000000; stroke-linecap:round; stroke-linejoin:round; stroke-width:4; stroke-opacity:1; fill:none" points="595.441,1423.18 595.441,1404.28 "/>
<polyline clip-path="url(#clip660)" style="stroke:#000000; stroke-linecap:round; stroke-linejoin:round; stroke-width:4; stroke-opacity:1; fill:none" points="1034.77,1423.18 1034.77,1404.28 "/>
<polyline clip-path="url(#clip660)" style="stroke:#000000; stroke-linecap:round; stroke-linejoin:round; stroke-width:4; stroke-opacity:1; fill:none" points="1474.1,1423.18 1474.1,1404.28 "/>
<polyline clip-path="url(#clip660)" style="stroke:#000000; stroke-linecap:round; stroke-linejoin:round; stroke-width:4; stroke-opacity:1; fill:none" points="1913.43,1423.18 1913.43,1404.28 "/>
<polyline clip-path="url(#clip660)" style="stroke:#000000; stroke-linecap:round; stroke-linejoin:round; stroke-width:4; stroke-opacity:1; fill:none" points="2352.76,1423.18 2352.76,1404.28 "/>
<path clip-path="url(#clip660)" d="M133.497 1454.1 Q129.885 1454.1 128.057 1457.66 Q126.251 1461.2 126.251 1468.33 Q126.251 1475.44 128.057 1479.01 Q129.885 1482.55 133.497 1482.55 Q137.131 1482.55 138.936 1479.01 Q140.765 1475.44 140.765 1468.33 Q140.765 1461.2 138.936 1457.66 Q137.131 1454.1 133.497 1454.1 M133.497 1450.39 Q139.307 1450.39 142.362 1455 Q145.441 1459.58 145.441 1468.33 Q145.441 1477.06 142.362 1481.67 Q139.307 1486.25 133.497 1486.25 Q127.686 1486.25 124.608 1481.67 Q121.552 1477.06 121.552 1468.33 Q121.552 1459.58 124.608 1455 Q127.686 1450.39 133.497 1450.39 Z" fill="#000000" fill-rule="evenodd" fill-opacity="1" /><path clip-path="url(#clip660)" d="M153.658 1479.7 L158.543 1479.7 L158.543 1485.58 L153.658 1485.58 L153.658 1479.7 Z" fill="#000000" fill-rule="evenodd" fill-opacity="1" /><path clip-path="url(#clip660)" d="M178.728 1454.1 Q175.117 1454.1 173.288 1457.66 Q171.482 1461.2 171.482 1468.33 Q171.482 1475.44 173.288 1479.01 Q175.117 1482.55 178.728 1482.55 Q182.362 1482.55 184.168 1479.01 Q185.996 1475.44 185.996 1468.33 Q185.996 1461.2 184.168 1457.66 Q182.362 1454.1 178.728 1454.1 M178.728 1450.39 Q184.538 1450.39 187.593 1455 Q190.672 1459.58 190.672 1468.33 Q190.672 1477.06 187.593 1481.67 Q184.538 1486.25 178.728 1486.25 Q172.918 1486.25 169.839 1481.67 Q166.783 1477.06 166.783 1468.33 Q166.783 1459.58 169.839 1455 Q172.918 1450.39 178.728 1450.39 Z" fill="#000000" fill-rule="evenodd" fill-opacity="1" /><path clip-path="url(#clip660)" d="M573.624 1454.1 Q570.013 1454.1 568.184 1457.66 Q566.379 1461.2 566.379 1468.33 Q566.379 1475.44 568.184 1479.01 Q570.013 1482.55 573.624 1482.55 Q577.258 1482.55 579.064 1479.01 Q580.892 1475.44 580.892 1468.33 Q580.892 1461.2 579.064 1457.66 Q577.258 1454.1 573.624 1454.1 M573.624 1450.39 Q579.434 1450.39 582.49 1455 Q585.568 1459.58 585.568 1468.33 Q585.568 1477.06 582.49 1481.67 Q579.434 1486.25 573.624 1486.25 Q567.814 1486.25 564.735 1481.67 Q561.679 1477.06 561.679 1468.33 Q561.679 1459.58 564.735 1455 Q567.814 1450.39 573.624 1450.39 Z" fill="#000000" fill-rule="evenodd" fill-opacity="1" /><path clip-path="url(#clip660)" d="M593.786 1479.7 L598.67 1479.7 L598.67 1485.58 L593.786 1485.58 L593.786 1479.7 Z" fill="#000000" fill-rule="evenodd" fill-opacity="1" /><path clip-path="url(#clip660)" d="M612.883 1481.64 L629.202 1481.64 L629.202 1485.58 L607.258 1485.58 L607.258 1481.64 Q609.92 1478.89 614.503 1474.26 Q619.11 1469.61 620.29 1468.27 Q622.536 1465.74 623.415 1464.01 Q624.318 1462.25 624.318 1460.56 Q624.318 1457.8 622.374 1456.07 Q620.452 1454.33 617.35 1454.33 Q615.151 1454.33 612.698 1455.09 Q610.267 1455.86 607.489 1457.41 L607.489 1452.69 Q610.313 1451.55 612.767 1450.97 Q615.221 1450.39 617.258 1450.39 Q622.628 1450.39 625.823 1453.08 Q629.017 1455.77 629.017 1460.26 Q629.017 1462.39 628.207 1464.31 Q627.42 1466.2 625.313 1468.8 Q624.735 1469.47 621.633 1472.69 Q618.531 1475.88 612.883 1481.64 Z" fill="#000000" fill-rule="evenodd" fill-opacity="1" /><path clip-path="url(#clip660)" d="M1011.91 1454.1 Q1008.3 1454.1 1006.47 1457.66 Q1004.67 1461.2 1004.67 1468.33 Q1004.67 1475.44 1006.47 1479.01 Q1008.3 1482.55 1011.91 1482.55 Q1015.55 1482.55 1017.35 1479.01 Q1019.18 1475.44 1019.18 1468.33 Q1019.18 1461.2 1017.35 1457.66 Q1015.55 1454.1 1011.91 1454.1 M1011.91 1450.39 Q1017.72 1450.39 1020.78 1455 Q1023.86 1459.58 1023.86 1468.33 Q1023.86 1477.06 1020.78 1481.67 Q1017.72 1486.25 1011.91 1486.25 Q1006.1 1486.25 1003.02 1481.67 Q999.967 1477.06 999.967 1468.33 Q999.967 1459.58 1003.02 1455 Q1006.1 1450.39 1011.91 1450.39 Z" fill="#000000" fill-rule="evenodd" fill-opacity="1" /><path clip-path="url(#clip660)" d="M1032.07 1479.7 L1036.96 1479.7 L1036.96 1485.58 L1032.07 1485.58 L1032.07 1479.7 Z" fill="#000000" fill-rule="evenodd" fill-opacity="1" /><path clip-path="url(#clip660)" d="M1059.99 1455.09 L1048.18 1473.54 L1059.99 1473.54 L1059.99 1455.09 M1058.76 1451.02 L1064.64 1451.02 L1064.64 1473.54 L1069.57 1473.54 L1069.57 1477.43 L1064.64 1477.43 L1064.64 1485.58 L1059.99 1485.58 L1059.99 1477.43 L1044.39 1477.43 L1044.39 1472.92 L1058.76 1451.02 Z" fill="#000000" fill-rule="evenodd" fill-opacity="1" /><path clip-path="url(#clip660)" d="M1451.4 1454.1 Q1447.79 1454.1 1445.96 1457.66 Q1444.16 1461.2 1444.16 1468.33 Q1444.16 1475.44 1445.96 1479.01 Q1447.79 1482.55 1451.4 1482.55 Q1455.04 1482.55 1456.84 1479.01 Q1458.67 1475.44 1458.67 1468.33 Q1458.67 1461.2 1456.84 1457.66 Q1455.04 1454.1 1451.4 1454.1 M1451.4 1450.39 Q1457.21 1450.39 1460.27 1455 Q1463.35 1459.58 1463.35 1468.33 Q1463.35 1477.06 1460.27 1481.67 Q1457.21 1486.25 1451.4 1486.25 Q1445.59 1486.25 1442.51 1481.67 Q1439.46 1477.06 1439.46 1468.33 Q1439.46 1459.58 1442.51 1455 Q1445.59 1450.39 1451.4 1450.39 Z" fill="#000000" fill-rule="evenodd" fill-opacity="1" /><path clip-path="url(#clip660)" d="M1471.56 1479.7 L1476.45 1479.7 L1476.45 1485.58 L1471.56 1485.58 L1471.56 1479.7 Z" fill="#000000" fill-rule="evenodd" fill-opacity="1" /><path clip-path="url(#clip660)" d="M1497.21 1466.44 Q1494.06 1466.44 1492.21 1468.59 Q1490.38 1470.74 1490.38 1474.49 Q1490.38 1478.22 1492.21 1480.39 Q1494.06 1482.55 1497.21 1482.55 Q1500.36 1482.55 1502.19 1480.39 Q1504.04 1478.22 1504.04 1474.49 Q1504.04 1470.74 1502.19 1468.59 Q1500.36 1466.44 1497.21 1466.44 M1506.49 1451.78 L1506.49 1456.04 Q1504.73 1455.21 1502.93 1454.77 Q1501.15 1454.33 1499.39 1454.33 Q1494.76 1454.33 1492.3 1457.45 Q1489.87 1460.58 1489.53 1466.9 Q1490.89 1464.89 1492.95 1463.82 Q1495.01 1462.73 1497.49 1462.73 Q1502.7 1462.73 1505.71 1465.9 Q1508.74 1469.05 1508.74 1474.49 Q1508.74 1479.82 1505.59 1483.03 Q1502.44 1486.25 1497.21 1486.25 Q1491.22 1486.25 1488.05 1481.67 Q1484.87 1477.06 1484.87 1468.33 Q1484.87 1460.14 1488.76 1455.28 Q1492.65 1450.39 1499.2 1450.39 Q1500.96 1450.39 1502.74 1450.74 Q1504.55 1451.09 1506.49 1451.78 Z" fill="#000000" fill-rule="evenodd" fill-opacity="1" /><path clip-path="url(#clip660)" d="M1890.86 1454.1 Q1887.25 1454.1 1885.42 1457.66 Q1883.61 1461.2 1883.61 1468.33 Q1883.61 1475.44 1885.42 1479.01 Q1887.25 1482.55 1890.86 1482.55 Q1894.49 1482.55 1896.3 1479.01 Q1898.13 1475.44 1898.13 1468.33 Q1898.13 1461.2 1896.3 1457.66 Q1894.49 1454.1 1890.86 1454.1 M1890.86 1450.39 Q1896.67 1450.39 1899.72 1455 Q1902.8 1459.58 1902.8 1468.33 Q1902.8 1477.06 1899.72 1481.67 Q1896.67 1486.25 1890.86 1486.25 Q1885.05 1486.25 1881.97 1481.67 Q1878.91 1477.06 1878.91 1468.33 Q1878.91 1459.58 1881.97 1455 Q1885.05 1450.39 1890.86 1450.39 Z" fill="#000000" fill-rule="evenodd" fill-opacity="1" /><path clip-path="url(#clip660)" d="M1911.02 1479.7 L1915.9 1479.7 L1915.9 1485.58 L1911.02 1485.58 L1911.02 1479.7 Z" fill="#000000" fill-rule="evenodd" fill-opacity="1" /><path clip-path="url(#clip660)" d="M1936.09 1469.17 Q1932.76 1469.17 1930.83 1470.95 Q1928.94 1472.73 1928.94 1475.86 Q1928.94 1478.98 1930.83 1480.77 Q1932.76 1482.55 1936.09 1482.55 Q1939.42 1482.55 1941.34 1480.77 Q1943.26 1478.96 1943.26 1475.86 Q1943.26 1472.73 1941.34 1470.95 Q1939.45 1469.17 1936.09 1469.17 M1931.41 1467.18 Q1928.4 1466.44 1926.71 1464.38 Q1925.05 1462.32 1925.05 1459.35 Q1925.05 1455.21 1927.99 1452.8 Q1930.95 1450.39 1936.09 1450.39 Q1941.25 1450.39 1944.19 1452.8 Q1947.13 1455.21 1947.13 1459.35 Q1947.13 1462.32 1945.44 1464.38 Q1943.77 1466.44 1940.79 1467.18 Q1944.17 1467.96 1946.04 1470.26 Q1947.94 1472.55 1947.94 1475.86 Q1947.94 1480.88 1944.86 1483.57 Q1941.81 1486.25 1936.09 1486.25 Q1930.37 1486.25 1927.29 1483.57 Q1924.24 1480.88 1924.24 1475.86 Q1924.24 1472.55 1926.14 1470.26 Q1928.03 1467.96 1931.41 1467.18 M1929.7 1459.79 Q1929.7 1462.48 1931.37 1463.98 Q1933.06 1465.49 1936.09 1465.49 Q1939.1 1465.49 1940.79 1463.98 Q1942.5 1462.48 1942.5 1459.79 Q1942.5 1457.11 1940.79 1455.6 Q1939.1 1454.1 1936.09 1454.1 Q1933.06 1454.1 1931.37 1455.6 Q1929.7 1457.11 1929.7 1459.79 Z" fill="#000000" fill-rule="evenodd" fill-opacity="1" /><path clip-path="url(#clip660)" d="M2319.91 1481.64 L2327.55 1481.64 L2327.55 1455.28 L2319.24 1456.95 L2319.24 1452.69 L2327.5 1451.02 L2332.18 1451.02 L2332.18 1481.64 L2339.82 1481.64 L2339.82 1485.58 L2319.91 1485.58 L2319.91 1481.64 Z" fill="#000000" fill-rule="evenodd" fill-opacity="1" /><path clip-path="url(#clip660)" d="M2349.26 1479.7 L2354.14 1479.7 L2354.14 1485.58 L2349.26 1485.58 L2349.26 1479.7 Z" fill="#000000" fill-rule="evenodd" fill-opacity="1" /><path clip-path="url(#clip660)" d="M2374.33 1454.1 Q2370.72 1454.1 2368.89 1457.66 Q2367.08 1461.2 2367.08 1468.33 Q2367.08 1475.44 2368.89 1479.01 Q2370.72 1482.55 2374.33 1482.55 Q2377.96 1482.55 2379.77 1479.01 Q2381.6 1475.44 2381.6 1468.33 Q2381.6 1461.2 2379.77 1457.66 Q2377.96 1454.1 2374.33 1454.1 M2374.33 1450.39 Q2380.14 1450.39 2383.2 1455 Q2386.27 1459.58 2386.27 1468.33 Q2386.27 1477.06 2383.2 1481.67 Q2380.14 1486.25 2374.33 1486.25 Q2368.52 1486.25 2365.44 1481.67 Q2362.39 1477.06 2362.39 1468.33 Q2362.39 1459.58 2365.44 1455 Q2368.52 1450.39 2374.33 1450.39 Z" fill="#000000" fill-rule="evenodd" fill-opacity="1" /><path clip-path="url(#clip660)" d="M1207.17 1545.76 Q1209.24 1546.46 1211.18 1548.76 Q1213.15 1551.05 1215.13 1555.06 L1221.65 1568.04 L1214.74 1568.04 L1208.66 1555.85 Q1206.31 1551.08 1204.08 1549.52 Q1201.89 1547.96 1198.07 1547.96 L1191.06 1547.96 L1191.06 1568.04 L1184.63 1568.04 L1184.63 1520.52 L1199.15 1520.52 Q1207.3 1520.52 1211.31 1523.93 Q1215.32 1527.34 1215.32 1534.21 Q1215.32 1538.7 1213.22 1541.66 Q1211.15 1544.62 1207.17 1545.76 M1191.06 1525.81 L1191.06 1542.68 L1199.15 1542.68 Q1203.79 1542.68 1206.15 1540.54 Q1208.54 1538.38 1208.54 1534.21 Q1208.54 1530.04 1206.15 1527.94 Q1203.79 1525.81 1199.15 1525.81 L1191.06 1525.81 Z" fill="#000000" fill-rule="evenodd" fill-opacity="1" /><path clip-path="url(#clip660)" d="M1244.44 1550.12 Q1237.34 1550.12 1234.6 1551.75 Q1231.87 1553.37 1231.87 1557.29 Q1231.87 1560.4 1233.9 1562.25 Q1235.97 1564.07 1239.51 1564.07 Q1244.38 1564.07 1247.3 1560.63 Q1250.26 1557.16 1250.26 1551.43 L1250.26 1550.12 L1244.44 1550.12 M1256.12 1547.71 L1256.12 1568.04 L1250.26 1568.04 L1250.26 1562.63 Q1248.26 1565.88 1245.27 1567.44 Q1242.28 1568.97 1237.95 1568.97 Q1232.47 1568.97 1229.23 1565.91 Q1226.01 1562.82 1226.01 1557.67 Q1226.01 1551.65 1230.02 1548.6 Q1234.06 1545.54 1242.05 1545.54 L1250.26 1545.54 L1250.26 1544.97 Q1250.26 1540.93 1247.59 1538.73 Q1244.95 1536.5 1240.14 1536.5 Q1237.09 1536.5 1234.19 1537.23 Q1231.29 1537.97 1228.62 1539.43 L1228.62 1534.02 Q1231.84 1532.78 1234.86 1532.17 Q1237.88 1531.54 1240.75 1531.54 Q1248.48 1531.54 1252.3 1535.55 Q1256.12 1539.56 1256.12 1547.71 Z" fill="#000000" fill-rule="evenodd" fill-opacity="1" /><path clip-path="url(#clip660)" d="M1273.98 1522.27 L1273.98 1532.4 L1286.04 1532.4 L1286.04 1536.95 L1273.98 1536.95 L1273.98 1556.3 Q1273.98 1560.66 1275.15 1561.9 Q1276.36 1563.14 1280.02 1563.14 L1286.04 1563.14 L1286.04 1568.04 L1280.02 1568.04 Q1273.24 1568.04 1270.67 1565.53 Q1268.09 1562.98 1268.09 1556.3 L1268.09 1536.95 L1263.79 1536.95 L1263.79 1532.4 L1268.09 1532.4 L1268.09 1522.27 L1273.98 1522.27 Z" fill="#000000" fill-rule="evenodd" fill-opacity="1" /><path clip-path="url(#clip660)" d="M1324.23 1548.76 L1324.23 1551.62 L1297.31 1551.62 Q1297.69 1557.67 1300.94 1560.85 Q1304.21 1564 1310.04 1564 Q1313.41 1564 1316.56 1563.17 Q1319.75 1562.35 1322.87 1560.69 L1322.87 1566.23 Q1319.71 1567.57 1316.4 1568.27 Q1313.09 1568.97 1309.69 1568.97 Q1301.16 1568.97 1296.16 1564 Q1291.2 1559.04 1291.2 1550.57 Q1291.2 1541.82 1295.91 1536.69 Q1300.65 1531.54 1308.67 1531.54 Q1315.86 1531.54 1320.03 1536.18 Q1324.23 1540.8 1324.23 1548.76 M1318.38 1547.04 Q1318.31 1542.23 1315.67 1539.37 Q1313.06 1536.5 1308.73 1536.5 Q1303.83 1536.5 1300.87 1539.27 Q1297.94 1542.04 1297.5 1547.07 L1318.38 1547.04 Z" fill="#000000" fill-rule="evenodd" fill-opacity="1" /><polyline clip-path="url(#clip662)" style="stroke:#000000; stroke-linecap:round; stroke-linejoin:round; stroke-width:2; stroke-opacity:0.1; fill:none" points="156.112,1384.24 2352.76,1384.24 "/>
<polyline clip-path="url(#clip662)" style="stroke:#000000; stroke-linecap:round; stroke-linejoin:round; stroke-width:2; stroke-opacity:0.1; fill:none" points="156.112,1152.44 2352.76,1152.44 "/>
<polyline clip-path="url(#clip662)" style="stroke:#000000; stroke-linecap:round; stroke-linejoin:round; stroke-width:2; stroke-opacity:0.1; fill:none" points="156.112,920.648 2352.76,920.648 "/>
<polyline clip-path="url(#clip662)" style="stroke:#000000; stroke-linecap:round; stroke-linejoin:round; stroke-width:2; stroke-opacity:0.1; fill:none" points="156.112,688.853 2352.76,688.853 "/>
<polyline clip-path="url(#clip662)" style="stroke:#000000; stroke-linecap:round; stroke-linejoin:round; stroke-width:2; stroke-opacity:0.1; fill:none" points="156.112,457.058 2352.76,457.058 "/>
<polyline clip-path="url(#clip662)" style="stroke:#000000; stroke-linecap:round; stroke-linejoin:round; stroke-width:2; stroke-opacity:0.1; fill:none" points="156.112,225.263 2352.76,225.263 "/>
<polyline clip-path="url(#clip660)" style="stroke:#000000; stroke-linecap:round; stroke-linejoin:round; stroke-width:4; stroke-opacity:1; fill:none" points="156.112,1423.18 156.112,47.2441 "/>
<polyline clip-path="url(#clip660)" style="stroke:#000000; stroke-linecap:round; stroke-linejoin:round; stroke-width:4; stroke-opacity:1; fill:none" points="156.112,1384.24 175.01,1384.24 "/>
<polyline clip-path="url(#clip660)" style="stroke:#000000; stroke-linecap:round; stroke-linejoin:round; stroke-width:4; stroke-opacity:1; fill:none" points="156.112,1152.44 175.01,1152.44 "/>
<polyline clip-path="url(#clip660)" style="stroke:#000000; stroke-linecap:round; stroke-linejoin:round; stroke-width:4; stroke-opacity:1; fill:none" points="156.112,920.648 175.01,920.648 "/>
<polyline clip-path="url(#clip660)" style="stroke:#000000; stroke-linecap:round; stroke-linejoin:round; stroke-width:4; stroke-opacity:1; fill:none" points="156.112,688.853 175.01,688.853 "/>
<polyline clip-path="url(#clip660)" style="stroke:#000000; stroke-linecap:round; stroke-linejoin:round; stroke-width:4; stroke-opacity:1; fill:none" points="156.112,457.058 175.01,457.058 "/>
<polyline clip-path="url(#clip660)" style="stroke:#000000; stroke-linecap:round; stroke-linejoin:round; stroke-width:4; stroke-opacity:1; fill:none" points="156.112,225.263 175.01,225.263 "/>
<path clip-path="url(#clip660)" d="M62.9365 1370.04 Q59.3254 1370.04 57.4967 1373.6 Q55.6912 1377.14 55.6912 1384.27 Q55.6912 1391.38 57.4967 1394.94 Q59.3254 1398.49 62.9365 1398.49 Q66.5707 1398.49 68.3763 1394.94 Q70.205 1391.38 70.205 1384.27 Q70.205 1377.14 68.3763 1373.6 Q66.5707 1370.04 62.9365 1370.04 M62.9365 1366.33 Q68.7467 1366.33 71.8022 1370.94 Q74.8809 1375.52 74.8809 1384.27 Q74.8809 1393 71.8022 1397.61 Q68.7467 1402.19 62.9365 1402.19 Q57.1264 1402.19 54.0477 1397.61 Q50.9921 1393 50.9921 1384.27 Q50.9921 1375.52 54.0477 1370.94 Q57.1264 1366.33 62.9365 1366.33 Z" fill="#000000" fill-rule="evenodd" fill-opacity="1" /><path clip-path="url(#clip660)" d="M83.0984 1395.64 L87.9827 1395.64 L87.9827 1401.52 L83.0984 1401.52 L83.0984 1395.64 Z" fill="#000000" fill-rule="evenodd" fill-opacity="1" /><path clip-path="url(#clip660)" d="M108.168 1370.04 Q104.557 1370.04 102.728 1373.6 Q100.922 1377.14 100.922 1384.27 Q100.922 1391.38 102.728 1394.94 Q104.557 1398.49 108.168 1398.49 Q111.802 1398.49 113.608 1394.94 Q115.436 1391.38 115.436 1384.27 Q115.436 1377.14 113.608 1373.6 Q111.802 1370.04 108.168 1370.04 M108.168 1366.33 Q113.978 1366.33 117.033 1370.94 Q120.112 1375.52 120.112 1384.27 Q120.112 1393 117.033 1397.61 Q113.978 1402.19 108.168 1402.19 Q102.358 1402.19 99.2789 1397.61 Q96.2234 1393 96.2234 1384.27 Q96.2234 1375.52 99.2789 1370.94 Q102.358 1366.33 108.168 1366.33 Z" fill="#000000" fill-rule="evenodd" fill-opacity="1" /><path clip-path="url(#clip660)" d="M63.9319 1138.24 Q60.3208 1138.24 58.4921 1141.81 Q56.6865 1145.35 56.6865 1152.48 Q56.6865 1159.58 58.4921 1163.15 Q60.3208 1166.69 63.9319 1166.69 Q67.5661 1166.69 69.3717 1163.15 Q71.2004 1159.58 71.2004 1152.48 Q71.2004 1145.35 69.3717 1141.81 Q67.5661 1138.24 63.9319 1138.24 M63.9319 1134.54 Q69.742 1134.54 72.7976 1139.14 Q75.8763 1143.73 75.8763 1152.48 Q75.8763 1161.2 72.7976 1165.81 Q69.742 1170.39 63.9319 1170.39 Q58.1217 1170.39 55.043 1165.81 Q51.9875 1161.2 51.9875 1152.48 Q51.9875 1143.73 55.043 1139.14 Q58.1217 1134.54 63.9319 1134.54 Z" fill="#000000" fill-rule="evenodd" fill-opacity="1" /><path clip-path="url(#clip660)" d="M84.0938 1163.84 L88.978 1163.84 L88.978 1169.72 L84.0938 1169.72 L84.0938 1163.84 Z" fill="#000000" fill-rule="evenodd" fill-opacity="1" /><path clip-path="url(#clip660)" d="M99.2095 1135.16 L117.566 1135.16 L117.566 1139.1 L103.492 1139.1 L103.492 1147.57 Q104.51 1147.22 105.529 1147.06 Q106.547 1146.88 107.566 1146.88 Q113.353 1146.88 116.733 1150.05 Q120.112 1153.22 120.112 1158.64 Q120.112 1164.21 116.64 1167.32 Q113.168 1170.39 106.848 1170.39 Q104.672 1170.39 102.404 1170.02 Q100.159 1169.65 97.7511 1168.91 L97.7511 1164.21 Q99.8345 1165.35 102.057 1165.9 Q104.279 1166.46 106.756 1166.46 Q110.76 1166.46 113.098 1164.35 Q115.436 1162.25 115.436 1158.64 Q115.436 1155.02 113.098 1152.92 Q110.76 1150.81 106.756 1150.81 Q104.881 1150.81 103.006 1151.23 Q101.154 1151.64 99.2095 1152.52 L99.2095 1135.16 Z" fill="#000000" fill-rule="evenodd" fill-opacity="1" /><path clip-path="url(#clip660)" d="M53.7467 933.993 L61.3856 933.993 L61.3856 907.627 L53.0754 909.294 L53.0754 905.035 L61.3393 903.368 L66.0152 903.368 L66.0152 933.993 L73.654 933.993 L73.654 937.928 L53.7467 937.928 L53.7467 933.993 Z" fill="#000000" fill-rule="evenodd" fill-opacity="1" /><path clip-path="url(#clip660)" d="M83.0984 932.048 L87.9827 932.048 L87.9827 937.928 L83.0984 937.928 L83.0984 932.048 Z" fill="#000000" fill-rule="evenodd" fill-opacity="1" /><path clip-path="url(#clip660)" d="M108.168 906.447 Q104.557 906.447 102.728 910.012 Q100.922 913.553 100.922 920.683 Q100.922 927.789 102.728 931.354 Q104.557 934.896 108.168 934.896 Q111.802 934.896 113.608 931.354 Q115.436 927.789 115.436 920.683 Q115.436 913.553 113.608 910.012 Q111.802 906.447 108.168 906.447 M108.168 902.743 Q113.978 902.743 117.033 907.35 Q120.112 911.933 120.112 920.683 Q120.112 929.41 117.033 934.016 Q113.978 938.599 108.168 938.599 Q102.358 938.599 99.2789 934.016 Q96.2234 929.41 96.2234 920.683 Q96.2234 911.933 99.2789 907.35 Q102.358 902.743 108.168 902.743 Z" fill="#000000" fill-rule="evenodd" fill-opacity="1" /><path clip-path="url(#clip660)" d="M54.7421 702.198 L62.381 702.198 L62.381 675.832 L54.0708 677.499 L54.0708 673.24 L62.3347 671.573 L67.0106 671.573 L67.0106 702.198 L74.6494 702.198 L74.6494 706.133 L54.7421 706.133 L54.7421 702.198 Z" fill="#000000" fill-rule="evenodd" fill-opacity="1" /><path clip-path="url(#clip660)" d="M84.0938 700.253 L88.978 700.253 L88.978 706.133 L84.0938 706.133 L84.0938 700.253 Z" fill="#000000" fill-rule="evenodd" fill-opacity="1" /><path clip-path="url(#clip660)" d="M99.2095 671.573 L117.566 671.573 L117.566 675.508 L103.492 675.508 L103.492 683.98 Q104.51 683.633 105.529 683.471 Q106.547 683.286 107.566 683.286 Q113.353 683.286 116.733 686.457 Q120.112 689.628 120.112 695.045 Q120.112 700.624 116.64 703.726 Q113.168 706.804 106.848 706.804 Q104.672 706.804 102.404 706.434 Q100.159 706.064 97.7511 705.323 L97.7511 700.624 Q99.8345 701.758 102.057 702.314 Q104.279 702.869 106.756 702.869 Q110.76 702.869 113.098 700.763 Q115.436 698.656 115.436 695.045 Q115.436 691.434 113.098 689.327 Q110.76 687.221 106.756 687.221 Q104.881 687.221 103.006 687.638 Q101.154 688.054 99.2095 688.934 L99.2095 671.573 Z" fill="#000000" fill-rule="evenodd" fill-opacity="1" /><path clip-path="url(#clip660)" d="M56.9643 470.403 L73.2837 470.403 L73.2837 474.338 L51.3393 474.338 L51.3393 470.403 Q54.0014 467.648 58.5847 463.018 Q63.1911 458.366 64.3717 457.023 Q66.617 454.5 67.4967 452.764 Q68.3994 451.005 68.3994 449.315 Q68.3994 446.56 66.455 444.824 Q64.5337 443.088 61.4319 443.088 Q59.2328 443.088 56.7791 443.852 Q54.3486 444.616 51.5708 446.167 L51.5708 441.444 Q54.3949 440.31 56.8486 439.732 Q59.3023 439.153 61.3393 439.153 Q66.7096 439.153 69.9041 441.838 Q73.0985 444.523 73.0985 449.014 Q73.0985 451.144 72.2883 453.065 Q71.5013 454.963 69.3948 457.556 Q68.8161 458.227 65.7143 461.444 Q62.6124 464.639 56.9643 470.403 Z" fill="#000000" fill-rule="evenodd" fill-opacity="1" /><path clip-path="url(#clip660)" d="M83.0984 468.458 L87.9827 468.458 L87.9827 474.338 L83.0984 474.338 L83.0984 468.458 Z" fill="#000000" fill-rule="evenodd" fill-opacity="1" /><path clip-path="url(#clip660)" d="M108.168 442.857 Q104.557 442.857 102.728 446.421 Q100.922 449.963 100.922 457.093 Q100.922 464.199 102.728 467.764 Q104.557 471.305 108.168 471.305 Q111.802 471.305 113.608 467.764 Q115.436 464.199 115.436 457.093 Q115.436 449.963 113.608 446.421 Q111.802 442.857 108.168 442.857 M108.168 439.153 Q113.978 439.153 117.033 443.759 Q120.112 448.343 120.112 457.093 Q120.112 465.819 117.033 470.426 Q113.978 475.009 108.168 475.009 Q102.358 475.009 99.2789 470.426 Q96.2234 465.819 96.2234 457.093 Q96.2234 448.343 99.2789 443.759 Q102.358 439.153 108.168 439.153 Z" fill="#000000" fill-rule="evenodd" fill-opacity="1" /><path clip-path="url(#clip660)" d="M57.9597 238.608 L74.279 238.608 L74.279 242.543 L52.3347 242.543 L52.3347 238.608 Q54.9967 235.853 59.58 231.223 Q64.1865 226.571 65.367 225.228 Q67.6124 222.705 68.492 220.969 Q69.3948 219.21 69.3948 217.52 Q69.3948 214.765 67.4504 213.029 Q65.5291 211.293 62.4272 211.293 Q60.2282 211.293 57.7745 212.057 Q55.344 212.821 52.5662 214.372 L52.5662 209.649 Q55.3903 208.515 57.8439 207.936 Q60.2976 207.358 62.3347 207.358 Q67.705 207.358 70.8994 210.043 Q74.0939 212.728 74.0939 217.219 Q74.0939 219.348 73.2837 221.27 Q72.4966 223.168 70.3902 225.76 Q69.8115 226.432 66.7096 229.649 Q63.6078 232.844 57.9597 238.608 Z" fill="#000000" fill-rule="evenodd" fill-opacity="1" /><path clip-path="url(#clip660)" d="M84.0938 236.663 L88.978 236.663 L88.978 242.543 L84.0938 242.543 L84.0938 236.663 Z" fill="#000000" fill-rule="evenodd" fill-opacity="1" /><path clip-path="url(#clip660)" d="M99.2095 207.983 L117.566 207.983 L117.566 211.918 L103.492 211.918 L103.492 220.39 Q104.51 220.043 105.529 219.881 Q106.547 219.696 107.566 219.696 Q113.353 219.696 116.733 222.867 Q120.112 226.038 120.112 231.455 Q120.112 237.034 116.64 240.135 Q113.168 243.214 106.848 243.214 Q104.672 243.214 102.404 242.844 Q100.159 242.473 97.7511 241.733 L97.7511 237.034 Q99.8345 238.168 102.057 238.723 Q104.279 239.279 106.756 239.279 Q110.76 239.279 113.098 237.172 Q115.436 235.066 115.436 231.455 Q115.436 227.844 113.098 225.737 Q110.76 223.631 106.756 223.631 Q104.881 223.631 103.006 224.047 Q101.154 224.464 99.2095 225.344 L99.2095 207.983 Z" fill="#000000" fill-rule="evenodd" fill-opacity="1" /><path clip-path="url(#clip662)" d="M375.777 1319.34 L375.777 1384.24 L485.609 1384.24 L485.609 1319.34 L375.777 1319.34 L375.777 1319.34  Z" fill="#009af9" fill-rule="evenodd" fill-opacity="1"/>
<polyline clip-path="url(#clip662)" style="stroke:#000000; stroke-linecap:round; stroke-linejoin:round; stroke-width:4; stroke-opacity:1; fill:none" points="375.777,1319.34 375.777,1384.24 485.609,1384.24 485.609,1319.34 375.777,1319.34 "/>
<path clip-path="url(#clip662)" d="M485.609 1300.79 L485.609 1384.24 L595.441 1384.24 L595.441 1300.79 L485.609 1300.79 L485.609 1300.79  Z" fill="#009af9" fill-rule="evenodd" fill-opacity="1"/>
<polyline clip-path="url(#clip662)" style="stroke:#000000; stroke-linecap:round; stroke-linejoin:round; stroke-width:4; stroke-opacity:1; fill:none" points="485.609,1300.79 485.609,1384.24 595.441,1384.24 595.441,1300.79 485.609,1300.79 "/>
<path clip-path="url(#clip662)" d="M595.441 1096.81 L595.441 1384.24 L705.273 1384.24 L705.273 1096.81 L595.441 1096.81 L595.441 1096.81  Z" fill="#009af9" fill-rule="evenodd" fill-opacity="1"/>
<polyline clip-path="url(#clip662)" style="stroke:#000000; stroke-linecap:round; stroke-linejoin:round; stroke-width:4; stroke-opacity:1; fill:none" points="595.441,1096.81 595.441,1384.24 705.273,1384.24 705.273,1096.81 595.441,1096.81 "/>
<path clip-path="url(#clip662)" d="M705.273 994.822 L705.273 1384.24 L815.105 1384.24 L815.105 994.822 L705.273 994.822 L705.273 994.822  Z" fill="#009af9" fill-rule="evenodd" fill-opacity="1"/>
<polyline clip-path="url(#clip662)" style="stroke:#000000; stroke-linecap:round; stroke-linejoin:round; stroke-width:4; stroke-opacity:1; fill:none" points="705.273,994.822 705.273,1384.24 815.105,1384.24 815.105,994.822 705.273,994.822 "/>
<path clip-path="url(#clip662)" d="M815.105 827.93 L815.105 1384.24 L924.937 1384.24 L924.937 827.93 L815.105 827.93 L815.105 827.93  Z" fill="#009af9" fill-rule="evenodd" fill-opacity="1"/>
<polyline clip-path="url(#clip662)" style="stroke:#000000; stroke-linecap:round; stroke-linejoin:round; stroke-width:4; stroke-opacity:1; fill:none" points="815.105,827.93 815.105,1384.24 924.937,1384.24 924.937,827.93 815.105,827.93 "/>
<path clip-path="url(#clip662)" d="M924.937 586.863 L924.937 1384.24 L1034.77 1384.24 L1034.77 586.863 L924.937 586.863 L924.937 586.863  Z" fill="#009af9" fill-rule="evenodd" fill-opacity="1"/>
<polyline clip-path="url(#clip662)" style="stroke:#000000; stroke-linecap:round; stroke-linejoin:round; stroke-width:4; stroke-opacity:1; fill:none" points="924.937,586.863 924.937,1384.24 1034.77,1384.24 1034.77,586.863 924.937,586.863 "/>
<path clip-path="url(#clip662)" d="M1034.77 457.058 L1034.77 1384.24 L1144.6 1384.24 L1144.6 457.058 L1034.77 457.058 L1034.77 457.058  Z" fill="#009af9" fill-rule="evenodd" fill-opacity="1"/>
<polyline clip-path="url(#clip662)" style="stroke:#000000; stroke-linecap:round; stroke-linejoin:round; stroke-width:4; stroke-opacity:1; fill:none" points="1034.77,457.058 1034.77,1384.24 1144.6,1384.24 1144.6,457.058 1034.77,457.058 "/>
<path clip-path="url(#clip662)" d="M1144.6 86.1857 L1144.6 1384.24 L1254.43 1384.24 L1254.43 86.1857 L1144.6 86.1857 L1144.6 86.1857  Z" fill="#009af9" fill-rule="evenodd" fill-opacity="1"/>
<polyline clip-path="url(#clip662)" style="stroke:#000000; stroke-linecap:round; stroke-linejoin:round; stroke-width:4; stroke-opacity:1; fill:none" points="1144.6,86.1857 1144.6,1384.24 1254.43,1384.24 1254.43,86.1857 1144.6,86.1857 "/>
<path clip-path="url(#clip662)" d="M1254.43 234.535 L1254.43 1384.24 L1364.27 1384.24 L1364.27 234.535 L1254.43 234.535 L1254.43 234.535  Z" fill="#009af9" fill-rule="evenodd" fill-opacity="1"/>
<polyline clip-path="url(#clip662)" style="stroke:#000000; stroke-linecap:round; stroke-linejoin:round; stroke-width:4; stroke-opacity:1; fill:none" points="1254.43,234.535 1254.43,1384.24 1364.27,1384.24 1364.27,234.535 1254.43,234.535 "/>
<path clip-path="url(#clip662)" d="M1364.27 215.991 L1364.27 1384.24 L1474.1 1384.24 L1474.1 215.991 L1364.27 215.991 L1364.27 215.991  Z" fill="#009af9" fill-rule="evenodd" fill-opacity="1"/>
<polyline clip-path="url(#clip662)" style="stroke:#000000; stroke-linecap:round; stroke-linejoin:round; stroke-width:4; stroke-opacity:1; fill:none" points="1364.27,215.991 1364.27,1384.24 1474.1,1384.24 1474.1,215.991 1364.27,215.991 "/>
<path clip-path="url(#clip662)" d="M1474.1 475.601 L1474.1 1384.24 L1583.93 1384.24 L1583.93 475.601 L1474.1 475.601 L1474.1 475.601  Z" fill="#009af9" fill-rule="evenodd" fill-opacity="1"/>
<polyline clip-path="url(#clip662)" style="stroke:#000000; stroke-linecap:round; stroke-linejoin:round; stroke-width:4; stroke-opacity:1; fill:none" points="1474.1,475.601 1474.1,1384.24 1583.93,1384.24 1583.93,475.601 1474.1,475.601 "/>
<path clip-path="url(#clip662)" d="M1583.93 651.766 L1583.93 1384.24 L1693.76 1384.24 L1693.76 651.766 L1583.93 651.766 L1583.93 651.766  Z" fill="#009af9" fill-rule="evenodd" fill-opacity="1"/>
<polyline clip-path="url(#clip662)" style="stroke:#000000; stroke-linecap:round; stroke-linejoin:round; stroke-width:4; stroke-opacity:1; fill:none" points="1583.93,651.766 1583.93,1384.24 1693.76,1384.24 1693.76,651.766 1583.93,651.766 "/>
<path clip-path="url(#clip662)" d="M1693.76 837.202 L1693.76 1384.24 L1803.59 1384.24 L1803.59 837.202 L1693.76 837.202 L1693.76 837.202  Z" fill="#009af9" fill-rule="evenodd" fill-opacity="1"/>
<polyline clip-path="url(#clip662)" style="stroke:#000000; stroke-linecap:round; stroke-linejoin:round; stroke-width:4; stroke-opacity:1; fill:none" points="1693.76,837.202 1693.76,1384.24 1803.59,1384.24 1803.59,837.202 1693.76,837.202 "/>
<path clip-path="url(#clip662)" d="M1803.59 1170.99 L1803.59 1384.24 L1913.43 1384.24 L1913.43 1170.99 L1803.59 1170.99 L1803.59 1170.99  Z" fill="#009af9" fill-rule="evenodd" fill-opacity="1"/>
<polyline clip-path="url(#clip662)" style="stroke:#000000; stroke-linecap:round; stroke-linejoin:round; stroke-width:4; stroke-opacity:1; fill:none" points="1803.59,1170.99 1803.59,1384.24 1913.43,1384.24 1913.43,1170.99 1803.59,1170.99 "/>
<path clip-path="url(#clip662)" d="M1913.43 1263.7 L1913.43 1384.24 L2023.26 1384.24 L2023.26 1263.7 L1913.43 1263.7 L1913.43 1263.7  Z" fill="#009af9" fill-rule="evenodd" fill-opacity="1"/>
<polyline clip-path="url(#clip662)" style="stroke:#000000; stroke-linecap:round; stroke-linejoin:round; stroke-width:4; stroke-opacity:1; fill:none" points="1913.43,1263.7 1913.43,1384.24 2023.26,1384.24 2023.26,1263.7 1913.43,1263.7 "/>
<path clip-path="url(#clip662)" d="M2023.26 1356.42 L2023.26 1384.24 L2133.09 1384.24 L2133.09 1356.42 L2023.26 1356.42 L2023.26 1356.42  Z" fill="#009af9" fill-rule="evenodd" fill-opacity="1"/>
<polyline clip-path="url(#clip662)" style="stroke:#000000; stroke-linecap:round; stroke-linejoin:round; stroke-width:4; stroke-opacity:1; fill:none" points="2023.26,1356.42 2023.26,1384.24 2133.09,1384.24 2133.09,1356.42 2023.26,1356.42 "/>
<circle clip-path="url(#clip662)" style="fill:#009af9; stroke:none; fill-opacity:0" cx="430.693" cy="1319.34" r="2"/>
<circle clip-path="url(#clip662)" style="fill:#009af9; stroke:none; fill-opacity:0" cx="540.525" cy="1300.79" r="2"/>
<circle clip-path="url(#clip662)" style="fill:#009af9; stroke:none; fill-opacity:0" cx="650.357" cy="1096.81" r="2"/>
<circle clip-path="url(#clip662)" style="fill:#009af9; stroke:none; fill-opacity:0" cx="760.189" cy="994.822" r="2"/>
<circle clip-path="url(#clip662)" style="fill:#009af9; stroke:none; fill-opacity:0" cx="870.021" cy="827.93" r="2"/>
<circle clip-path="url(#clip662)" style="fill:#009af9; stroke:none; fill-opacity:0" cx="979.854" cy="586.863" r="2"/>
<circle clip-path="url(#clip662)" style="fill:#009af9; stroke:none; fill-opacity:0" cx="1089.69" cy="457.058" r="2"/>
<circle clip-path="url(#clip662)" style="fill:#009af9; stroke:none; fill-opacity:0" cx="1199.52" cy="86.1857" r="2"/>
<circle clip-path="url(#clip662)" style="fill:#009af9; stroke:none; fill-opacity:0" cx="1309.35" cy="234.535" r="2"/>
<circle clip-path="url(#clip662)" style="fill:#009af9; stroke:none; fill-opacity:0" cx="1419.18" cy="215.991" r="2"/>
<circle clip-path="url(#clip662)" style="fill:#009af9; stroke:none; fill-opacity:0" cx="1529.01" cy="475.601" r="2"/>
<circle clip-path="url(#clip662)" style="fill:#009af9; stroke:none; fill-opacity:0" cx="1638.85" cy="651.766" r="2"/>
<circle clip-path="url(#clip662)" style="fill:#009af9; stroke:none; fill-opacity:0" cx="1748.68" cy="837.202" r="2"/>
<circle clip-path="url(#clip662)" style="fill:#009af9; stroke:none; fill-opacity:0" cx="1858.51" cy="1170.99" r="2"/>
<circle clip-path="url(#clip662)" style="fill:#009af9; stroke:none; fill-opacity:0" cx="1968.34" cy="1263.7" r="2"/>
<circle clip-path="url(#clip662)" style="fill:#009af9; stroke:none; fill-opacity:0" cx="2078.18" cy="1356.42" r="2"/>
<polyline clip-path="url(#clip662)" style="stroke:#e26f46; stroke-linecap:round; stroke-linejoin:round; stroke-width:20; stroke-opacity:1; fill:none" points="110.553,1384.23 122.043,1384.23 133.534,1384.23 145.024,1384.22 156.514,1384.21 168.005,1384.19 179.495,1384.15 190.985,1384.09 202.476,1384 213.966,1383.86 225.456,1383.65 236.947,1383.34 248.437,1382.89 259.928,1382.27 271.418,1381.43 282.908,1380.3 294.399,1378.85 305.889,1377 317.379,1374.71 328.87,1371.94 340.36,1368.68 351.851,1364.93 363.341,1360.71 374.831,1356.09 386.322,1351.15 397.812,1345.97 409.302,1340.66 420.793,1335.31 432.283,1329.99 443.773,1324.74 455.264,1319.56 466.754,1314.39 478.245,1309.13 489.735,1303.62 501.225,1297.68 512.716,1291.1 524.206,1283.66 535.696,1275.16 547.187,1265.43 558.677,1254.34 570.168,1241.83 581.658,1227.9 593.148,1212.62 604.639,1196.13 616.129,1178.62 627.619,1160.32 639.11,1141.48 650.6,1122.36 662.09,1103.17 673.581,1084.12 685.071,1065.36 696.562,1046.98 708.052,1029.03 719.542,1011.53 731.033,994.457 742.523,977.78 754.013,961.472 765.504,945.507 776.994,929.87 788.485,914.549 799.975,899.527 811.465,884.771 822.956,870.218 834.446,855.765 845.936,841.268 857.427,826.544 868.917,811.391 880.407,795.605 891.898,779.007 903.388,761.472 914.879,742.946 926.369,723.463 937.859,703.14 949.35,682.169 960.84,660.785 972.33,639.238 983.821,617.751 995.311,596.491 1006.8,575.537 1018.29,554.872 1029.78,534.383 1041.27,513.875 1052.76,493.103 1064.25,471.809 1075.74,449.761 1087.23,426.795 1098.72,402.844 1110.21,377.966 1121.71,352.35 1133.2,326.323 1144.69,300.327 1156.18,274.907 1167.67,250.664 1179.16,228.227 1190.65,208.196 1202.14,191.101 1213.63,177.355 1225.12,167.222 1236.61,160.789 1248.1,157.961 1259.59,158.469 1271.08,161.899 1282.57,167.732 1294.06,175.399 1305.55,184.332 1317.04,194.019 1328.53,204.052 1340.02,214.149 1351.51,224.172 1363,234.118 1374.49,244.099 1385.98,254.304 1397.47,264.959 1408.96,276.283 1420.45,288.452 1431.95,301.572 1443.44,315.67 1454.93,330.699 1466.42,346.556 1477.91,363.112 1489.4,380.239 1500.89,397.84 1512.38,415.862 1523.87,434.298 1535.36,453.178 1546.85,472.539 1558.34,492.404 1569.83,512.757 1581.32,533.525 1592.81,554.584 1604.3,575.775 1615.79,596.933 1627.28,617.933 1638.77,638.721 1650.26,659.348 1661.75,679.976 1673.24,700.868 1684.73,722.359 1696.22,744.801 1707.71,768.508 1719.2,793.699 1730.69,820.454 1742.19,848.684 1753.68,878.135 1765.17,908.402 1776.66,938.978 1788.15,969.307 1799.64,998.845 1811.13,1027.11 1822.62,1053.74 1834.11,1078.51 1845.6,1101.34 1857.09,1122.26 1868.58,1141.46 1880.07,1159.16 1891.56,1175.63 1903.05,1191.13 1914.54,1205.9 1926.03,1220.1 1937.52,1233.83 1949.01,1247.12 1960.5,1259.95 1971.99,1272.25 1983.48,1283.92 1994.97,1294.87 2006.46,1305.02 2017.95,1314.32 2029.44,1322.74 2040.93,1330.31 2052.43,1337.05 2063.92,1343.05 2075.41,1348.38 2086.9,1353.13 2098.39,1357.36 2109.88,1361.15 2121.37,1364.56 2132.86,1367.61 2144.35,1370.35 2155.84,1372.78 2167.33,1374.91 2178.82,1376.76 2190.31,1378.35 2201.8,1379.68 2213.29,1380.77 2224.78,1381.66 2236.27,1382.35 2247.76,1382.89 2259.25,1383.29 2270.74,1383.59 2282.23,1383.8 2293.72,1383.95 2305.21,1384.06 2316.7,1384.12 2328.19,1384.17 2339.68,1384.2 2351.17,1384.21 2362.66,1384.22 2374.16,1384.23 2385.65,1384.23 2397.14,1384.23 "/>
<path clip-path="url(#clip660)" d="M1510.96 248.629 L2279.53 248.629 L2279.53 93.1086 L1510.96 93.1086  Z" fill="#ffffff" fill-rule="evenodd" fill-opacity="1"/>
<polyline clip-path="url(#clip660)" style="stroke:#000000; stroke-linecap:round; stroke-linejoin:round; stroke-width:4; stroke-opacity:1; fill:none" points="1510.96,248.629 2279.53,248.629 2279.53,93.1086 1510.96,93.1086 1510.96,248.629 "/>
<path clip-path="url(#clip660)" d="M1535.36 165.685 L1681.81 165.685 L1681.81 124.213 L1535.36 124.213 L1535.36 165.685  Z" fill="#009af9" fill-rule="evenodd" fill-opacity="1"/>
<polyline clip-path="url(#clip660)" style="stroke:#000000; stroke-linecap:round; stroke-linejoin:round; stroke-width:4; stroke-opacity:1; fill:none" points="1535.36,165.685 1681.81,165.685 1681.81,124.213 1535.36,124.213 1535.36,165.685 "/>
<path clip-path="url(#clip660)" d="M1730.2 154.825 Q1730.2 155.316 1730.01 155.644 Q1729.82 155.972 1729.47 156.089 Q1729.12 156.206 1728.89 156.23 Q1728.65 156.253 1728.28 156.253 L1720.92 156.253 Q1720.62 156.253 1720.43 156.253 Q1720.27 156.23 1719.94 156.16 Q1719.63 156.089 1719.45 155.949 Q1719.26 155.808 1719.09 155.527 Q1718.95 155.223 1718.95 154.825 Q1718.95 154.309 1719.12 153.981 Q1719.31 153.653 1719.66 153.536 Q1720.01 153.396 1720.27 153.372 Q1720.52 153.326 1720.92 153.326 L1722.8 153.326 L1722.8 142.434 Q1722.8 140.186 1722.12 139.202 Q1721.44 138.218 1719.59 138.218 Q1718.6 138.218 1717.6 138.593 Q1716.61 138.968 1715.67 139.717 Q1714.76 140.467 1714.18 141.802 Q1713.59 143.137 1713.59 144.847 L1713.59 153.326 L1715.7 153.326 Q1716.1 153.326 1716.35 153.372 Q1716.61 153.396 1716.96 153.536 Q1717.31 153.653 1717.48 153.981 Q1717.67 154.309 1717.67 154.825 Q1717.67 155.316 1717.48 155.644 Q1717.29 155.972 1716.94 156.089 Q1716.59 156.206 1716.35 156.23 Q1716.12 156.253 1715.75 156.253 L1708.11 156.253 Q1707.81 156.253 1707.64 156.253 Q1707.48 156.23 1707.15 156.16 Q1706.84 156.089 1706.66 155.949 Q1706.49 155.808 1706.35 155.527 Q1706.21 155.223 1706.21 154.825 Q1706.21 154.309 1706.38 153.981 Q1706.56 153.653 1706.91 153.536 Q1707.27 153.396 1707.52 153.372 Q1707.78 153.326 1708.18 153.326 L1710.29 153.326 L1710.29 129.88 L1708.11 129.88 Q1707.76 129.88 1707.5 129.856 Q1707.27 129.809 1706.91 129.692 Q1706.59 129.575 1706.4 129.247 Q1706.21 128.919 1706.21 128.427 Q1706.21 127.912 1706.38 127.584 Q1706.56 127.256 1706.91 127.139 Q1707.29 126.999 1707.52 126.975 Q1707.76 126.952 1708.18 126.952 L1711.67 126.952 Q1712.86 126.952 1713.22 127.373 Q1713.59 127.772 1713.59 128.919 L1713.59 137.843 Q1714.55 136.883 1716.14 136.087 Q1717.74 135.29 1719.87 135.29 Q1722.82 135.29 1724.46 137 Q1726.1 138.686 1726.1 142.2 L1726.1 153.326 L1728.23 153.326 Q1728.63 153.326 1728.89 153.372 Q1729.14 153.396 1729.49 153.536 Q1729.85 153.653 1730.01 153.981 Q1730.2 154.309 1730.2 154.825 Z" fill="#000000" fill-rule="evenodd" fill-opacity="1" /><path clip-path="url(#clip660)" d="M1747.69 154.825 Q1747.69 155.316 1747.5 155.644 Q1747.32 155.972 1746.94 156.089 Q1746.59 156.206 1746.36 156.23 Q1746.12 156.253 1745.72 156.253 L1731.58 156.253 Q1731.18 156.253 1730.94 156.23 Q1730.71 156.206 1730.34 156.089 Q1729.98 155.972 1729.8 155.644 Q1729.61 155.316 1729.61 154.825 Q1729.61 154.309 1729.77 153.981 Q1729.96 153.653 1730.31 153.536 Q1730.66 153.396 1730.92 153.372 Q1731.18 153.326 1731.58 153.326 L1737.39 153.326 L1737.39 138.499 L1731.95 138.499 Q1731.55 138.499 1731.32 138.476 Q1731.08 138.452 1730.71 138.335 Q1730.36 138.195 1730.17 137.867 Q1729.98 137.539 1729.98 137.023 Q1729.98 136.532 1730.17 136.204 Q1730.36 135.876 1730.71 135.759 Q1731.06 135.642 1731.32 135.618 Q1731.58 135.571 1731.95 135.571 L1738.77 135.571 Q1739.96 135.571 1740.31 135.993 Q1740.69 136.391 1740.69 137.539 L1740.69 153.326 L1745.72 153.326 Q1746.1 153.326 1746.36 153.372 Q1746.61 153.396 1746.97 153.536 Q1747.32 153.653 1747.5 153.981 Q1747.69 154.309 1747.69 154.825 M1740.17 127.936 Q1740.88 128.615 1740.88 129.622 Q1740.88 130.629 1740.17 131.332 Q1739.49 132.034 1738.49 132.034 Q1737.48 132.034 1736.78 131.332 Q1736.07 130.629 1736.07 129.622 Q1736.07 128.615 1736.78 127.936 Q1737.48 127.233 1738.49 127.233 Q1739.49 127.233 1740.17 127.936 Z" fill="#000000" fill-rule="evenodd" fill-opacity="1" /><path clip-path="url(#clip660)" d="M1774.46 150.257 Q1774.46 151.03 1774.25 151.803 Q1774.04 152.576 1773.43 153.466 Q1772.82 154.333 1771.84 154.988 Q1770.88 155.644 1769.19 156.089 Q1767.53 156.534 1765.35 156.534 Q1761.58 156.534 1759.12 154.707 Q1758.86 155.527 1758.49 155.972 Q1758.11 156.394 1757.88 156.464 Q1757.64 156.534 1757.34 156.534 Q1756.94 156.534 1756.64 156.394 Q1756.35 156.253 1756.21 156.089 Q1756.07 155.902 1755.98 155.597 Q1755.91 155.27 1755.89 155.082 Q1755.89 154.871 1755.89 154.567 L1755.89 149.929 Q1755.89 149.437 1755.91 149.203 Q1755.96 148.946 1756.1 148.618 Q1756.24 148.266 1756.59 148.126 Q1756.96 147.962 1757.57 147.962 Q1758.44 147.962 1758.74 148.29 Q1759.05 148.594 1759.26 149.344 Q1759.68 150.679 1760.38 151.592 Q1761.09 152.482 1761.95 152.904 Q1762.84 153.302 1763.62 153.466 Q1764.41 153.607 1765.4 153.607 Q1768.49 153.607 1770.01 152.67 Q1771.53 151.709 1771.53 150.257 Q1771.53 149.648 1771.25 149.156 Q1770.99 148.641 1770.43 148.29 Q1769.87 147.915 1769.33 147.681 Q1768.82 147.423 1767.97 147.236 Q1767.13 147.025 1766.64 146.931 Q1766.15 146.814 1765.35 146.697 Q1764.08 146.51 1763.4 146.392 Q1762.73 146.275 1761.55 146.018 Q1760.41 145.737 1759.75 145.479 Q1759.09 145.221 1758.25 144.776 Q1757.41 144.308 1756.96 143.793 Q1756.52 143.254 1756.19 142.504 Q1755.89 141.731 1755.89 140.818 Q1755.89 140.186 1756.05 139.553 Q1756.21 138.921 1756.8 138.101 Q1757.39 137.258 1758.32 136.649 Q1759.28 136.016 1761.02 135.595 Q1762.75 135.15 1765.02 135.15 Q1768.04 135.15 1770.15 136.157 Q1770.43 135.15 1771.58 135.15 Q1771.98 135.15 1772.26 135.29 Q1772.56 135.431 1772.7 135.618 Q1772.84 135.782 1772.91 136.11 Q1773.01 136.414 1773.01 136.625 Q1773.03 136.813 1773.03 137.117 L1773.03 140.42 Q1773.03 140.912 1772.98 141.169 Q1772.96 141.403 1772.82 141.755 Q1772.68 142.083 1772.31 142.247 Q1771.95 142.387 1771.34 142.387 Q1770.81 142.387 1770.45 142.27 Q1770.13 142.13 1769.96 141.872 Q1769.82 141.591 1769.78 141.357 Q1769.73 141.122 1769.71 140.748 Q1769.64 140.209 1769.42 139.811 Q1769.24 139.389 1768.74 138.968 Q1768.28 138.546 1767.29 138.312 Q1766.33 138.077 1764.9 138.077 Q1761.77 138.077 1760.29 138.897 Q1758.81 139.717 1758.81 140.818 Q1758.81 142.809 1763.47 143.441 L1766.73 144.027 Q1767.25 144.097 1767.67 144.191 Q1768.09 144.261 1768.93 144.495 Q1769.78 144.729 1770.43 145.011 Q1771.11 145.292 1771.88 145.783 Q1772.68 146.275 1773.2 146.884 Q1773.73 147.47 1774.09 148.36 Q1774.46 149.227 1774.46 150.257 Z" fill="#000000" fill-rule="evenodd" fill-opacity="1" /><path clip-path="url(#clip660)" d="M1799.9 150.21 Q1799.9 152.225 1798.75 153.724 Q1797.62 155.199 1795.96 155.879 Q1794.32 156.534 1792.45 156.534 Q1789.54 156.534 1787.6 154.988 Q1785.68 153.443 1785.68 150.21 L1785.68 138.499 L1781.46 138.499 Q1781.16 138.499 1780.97 138.499 Q1780.78 138.476 1780.48 138.405 Q1780.17 138.335 1779.99 138.195 Q1779.82 138.054 1779.68 137.773 Q1779.54 137.469 1779.54 137.07 Q1779.54 136.555 1779.71 136.227 Q1779.89 135.899 1780.24 135.782 Q1780.6 135.642 1780.85 135.618 Q1781.11 135.571 1781.51 135.571 L1785.68 135.571 L1785.68 131.636 Q1785.68 131.144 1785.7 130.91 Q1785.75 130.653 1785.89 130.325 Q1786.03 129.973 1786.38 129.833 Q1786.76 129.669 1787.36 129.669 Q1787.95 129.669 1788.3 129.833 Q1788.68 129.997 1788.79 130.348 Q1788.93 130.676 1788.96 130.934 Q1789 131.168 1789 131.636 L1789 135.571 L1796.87 135.571 Q1797.27 135.571 1797.51 135.618 Q1797.76 135.642 1798.09 135.782 Q1798.42 135.899 1798.58 136.227 Q1798.77 136.555 1798.77 137.07 Q1798.77 137.469 1798.63 137.773 Q1798.49 138.054 1798.33 138.195 Q1798.16 138.335 1797.83 138.405 Q1797.53 138.476 1797.34 138.499 Q1797.18 138.499 1796.87 138.499 L1789 138.499 L1789 149.929 Q1789 150.468 1789.03 150.796 Q1789.05 151.124 1789.24 151.733 Q1789.43 152.318 1789.78 152.67 Q1790.13 153.021 1790.88 153.326 Q1791.63 153.607 1792.68 153.607 Q1793.08 153.607 1793.5 153.536 Q1793.95 153.466 1794.51 153.255 Q1795.07 153.021 1795.49 152.67 Q1795.94 152.318 1796.24 151.663 Q1796.55 151.007 1796.57 150.163 Q1796.57 149.625 1796.62 149.297 Q1796.69 148.969 1797.06 148.664 Q1797.46 148.337 1798.21 148.337 Q1798.82 148.337 1799.17 148.5 Q1799.54 148.641 1799.69 148.969 Q1799.83 149.297 1799.85 149.531 Q1799.9 149.765 1799.9 150.21 Z" fill="#000000" fill-rule="evenodd" fill-opacity="1" /><path clip-path="url(#clip660)" d="M1824.01 145.901 Q1824.01 150.374 1821.11 153.466 Q1818.2 156.534 1814.2 156.534 Q1810.19 156.534 1807.26 153.466 Q1804.36 150.398 1804.36 145.901 Q1804.36 141.427 1807.24 138.288 Q1810.14 135.15 1814.2 135.15 Q1816.84 135.15 1819.09 136.578 Q1821.36 138.007 1822.68 140.49 Q1824.01 142.949 1824.01 145.901 M1820.71 145.549 Q1820.71 142.34 1818.76 140.209 Q1816.84 138.077 1814.2 138.077 Q1811.57 138.077 1809.61 140.232 Q1807.66 142.364 1807.66 145.549 Q1807.66 148.875 1809.58 151.241 Q1811.53 153.607 1814.2 153.607 Q1816.87 153.607 1818.79 151.241 Q1820.71 148.875 1820.71 145.549 Z" fill="#000000" fill-rule="evenodd" fill-opacity="1" /><path clip-path="url(#clip660)" d="M1850.59 137.632 Q1850.59 138.593 1849.98 139.108 Q1849.39 139.6 1848.69 139.6 Q1848.18 139.6 1847.59 139.225 Q1847 138.827 1846.82 137.984 Q1845.25 138.101 1844.03 138.804 Q1845.27 140.818 1845.27 142.973 Q1845.27 146.182 1842.95 148.43 Q1840.66 150.679 1837.35 150.679 Q1836.3 150.679 1835.22 150.374 Q1834.15 150.07 1833.7 149.859 Q1833.26 149.625 1833.04 149.484 Q1832.76 150.187 1832.76 150.843 Q1832.79 151.873 1833.33 152.553 Q1833.72 153.021 1834 153.138 Q1834.31 153.232 1834.92 153.232 Q1835.29 153.326 1836.3 153.326 L1839.65 153.326 Q1843.94 153.326 1846.61 154.707 Q1848.29 155.597 1849.11 157.12 Q1849.93 158.666 1849.93 160.188 Q1849.93 162.179 1848.41 163.795 Q1846.91 165.435 1844.36 166.325 Q1841.8 167.238 1838.76 167.238 Q1835.71 167.238 1833.14 166.348 Q1830.59 165.458 1829.06 163.819 Q1827.56 162.203 1827.56 160.188 Q1827.56 159.86 1827.59 159.556 Q1827.61 159.251 1827.8 158.502 Q1827.99 157.752 1828.31 157.097 Q1828.66 156.441 1829.39 155.644 Q1830.12 154.848 1831.12 154.239 Q1830.02 152.717 1830.02 150.796 Q1830.02 148.899 1830.98 147.517 Q1829.44 145.573 1829.44 142.973 Q1829.44 139.858 1831.73 137.586 Q1834.03 135.29 1837.35 135.29 Q1839.95 135.29 1842.02 136.719 Q1844.24 135.056 1847.1 135.056 Q1848.88 135.056 1849.72 135.852 Q1850.59 136.649 1850.59 137.632 M1841.97 142.973 Q1841.97 141.029 1840.61 139.6 Q1839.27 138.171 1837.35 138.171 Q1835.48 138.171 1834.12 139.577 Q1832.76 140.982 1832.76 143.02 Q1832.76 144.964 1834.1 146.392 Q1835.43 147.821 1837.35 147.821 Q1839.23 147.821 1840.59 146.416 Q1841.97 145.011 1841.97 142.973 M1847.14 160.188 Q1847.14 159.322 1846.79 158.642 Q1846.47 157.987 1846 157.565 Q1845.53 157.143 1844.64 156.839 Q1843.77 156.534 1843.07 156.37 Q1842.39 156.23 1841.2 156.16 Q1840.02 156.089 1839.35 156.089 Q1838.69 156.066 1837.45 156.066 Q1834.71 156.066 1833.93 156.183 Q1833.19 156.277 1832.32 156.839 Q1831.26 157.495 1830.8 158.432 Q1830.35 159.368 1830.35 160.188 Q1830.35 161.828 1832.79 163.093 Q1835.25 164.357 1838.76 164.357 Q1842.27 164.357 1844.71 163.093 Q1847.14 161.828 1847.14 160.188 Z" fill="#000000" fill-rule="evenodd" fill-opacity="1" /><path clip-path="url(#clip660)" d="M1876.41 138.265 Q1876.41 139.202 1875.81 139.764 Q1875.22 140.326 1874.4 140.326 Q1873.53 140.326 1872.95 139.717 Q1872.39 139.108 1872.34 138.218 Q1870.23 138.218 1868.54 139.014 Q1866.86 139.787 1865.83 141.099 Q1864.8 142.387 1864.26 144.003 Q1863.72 145.596 1863.72 147.329 L1863.72 153.326 L1869.04 153.326 Q1869.41 153.326 1869.67 153.372 Q1869.93 153.396 1870.28 153.536 Q1870.63 153.653 1870.82 153.981 Q1871 154.309 1871 154.825 Q1871 155.316 1870.82 155.644 Q1870.63 155.972 1870.25 156.089 Q1869.9 156.206 1869.67 156.23 Q1869.43 156.253 1869.04 156.253 L1856.51 156.253 Q1856.11 156.253 1855.87 156.23 Q1855.64 156.206 1855.29 156.089 Q1854.94 155.949 1854.77 155.621 Q1854.61 155.293 1854.61 154.778 Q1854.61 154.262 1854.77 153.958 Q1854.96 153.63 1855.29 153.513 Q1855.64 153.396 1855.87 153.372 Q1856.13 153.326 1856.51 153.326 L1860.39 153.326 L1860.39 138.499 L1856.51 138.499 Q1856.11 138.499 1855.87 138.476 Q1855.64 138.452 1855.29 138.335 Q1854.94 138.195 1854.77 137.867 Q1854.61 137.539 1854.61 137.023 Q1854.61 136.508 1854.77 136.204 Q1854.96 135.876 1855.29 135.759 Q1855.64 135.642 1855.87 135.618 Q1856.13 135.571 1856.51 135.571 L1861.8 135.571 Q1862.99 135.571 1863.35 135.993 Q1863.72 136.391 1863.72 137.539 L1863.72 139.178 Q1867.12 135.29 1871.87 135.29 Q1873.28 135.29 1874.24 135.618 Q1875.22 135.923 1875.64 136.438 Q1876.09 136.953 1876.25 137.398 Q1876.41 137.82 1876.41 138.265 Z" fill="#000000" fill-rule="evenodd" fill-opacity="1" /><path clip-path="url(#clip660)" d="M1904.1 154.778 Q1904.1 155.199 1903.96 155.504 Q1903.82 155.785 1903.66 155.949 Q1903.5 156.089 1903.12 156.16 Q1902.75 156.23 1902.49 156.253 Q1902.23 156.253 1901.72 156.253 Q1900.85 156.253 1900.24 156.23 Q1899.65 156.183 1898.86 156.043 Q1898.06 155.902 1897.48 155.574 Q1896.89 155.223 1896.52 154.707 Q1893.73 156.534 1889.51 156.534 Q1885.98 156.534 1883.77 154.637 Q1881.6 152.717 1881.6 150.117 Q1881.6 147.868 1883.45 146.275 Q1885.3 144.659 1888.48 143.863 Q1891.69 143.043 1896 142.973 Q1896 140.513 1894.36 139.295 Q1892.72 138.077 1889.86 138.077 Q1888.81 138.077 1888.13 138.124 Q1887.43 138.195 1887.26 138.288 Q1887.12 138.359 1887.12 138.64 Q1887.1 139.834 1886.42 140.349 Q1885.74 140.865 1885.02 140.865 Q1884.1 140.865 1883.47 140.279 Q1882.86 139.67 1882.86 138.64 Q1882.86 137.914 1883.14 137.351 Q1883.45 136.766 1883.84 136.414 Q1884.27 136.04 1884.97 135.782 Q1885.67 135.524 1886.19 135.407 Q1886.72 135.29 1887.54 135.243 Q1888.39 135.173 1888.76 135.173 Q1889.16 135.15 1889.82 135.15 Q1892.3 135.15 1894.2 135.829 Q1896.09 136.485 1897.17 137.609 Q1898.25 138.71 1898.76 139.975 Q1899.3 141.24 1899.3 142.575 L1899.3 152.951 Q1900.31 153.326 1902.18 153.326 Q1902.7 153.326 1903.03 153.372 Q1903.38 153.419 1903.73 153.771 Q1904.1 154.122 1904.1 154.778 M1896 149.836 L1896 145.807 Q1890.87 145.947 1887.9 147.142 Q1884.92 148.337 1884.92 150.117 Q1884.92 151.569 1886.3 152.599 Q1887.69 153.607 1889.86 153.607 Q1892.44 153.607 1894.13 152.81 Q1894.81 152.506 1895.2 152.178 Q1895.6 151.826 1895.77 151.405 Q1895.93 150.96 1895.95 150.679 Q1896 150.374 1896 149.836 Z" fill="#000000" fill-rule="evenodd" fill-opacity="1" /><path clip-path="url(#clip660)" d="M1930.32 154.825 Q1930.32 155.316 1930.13 155.644 Q1929.95 155.972 1929.57 156.089 Q1929.22 156.206 1928.99 156.23 Q1928.75 156.253 1928.35 156.253 L1924.75 156.253 Q1924.44 156.253 1924.25 156.253 Q1924.09 156.23 1923.76 156.16 Q1923.46 156.089 1923.27 155.949 Q1923.08 155.808 1922.92 155.527 Q1922.78 155.223 1922.78 154.825 Q1922.78 154.309 1922.94 153.981 Q1923.13 153.653 1923.51 153.536 Q1923.88 153.396 1924.14 153.372 Q1924.42 153.326 1924.89 153.326 L1924.89 142.153 Q1924.89 139.928 1924.44 139.085 Q1924.02 138.218 1923.13 138.218 Q1921.54 138.218 1920.37 139.975 Q1919.2 141.708 1919.2 144.729 L1919.2 153.326 Q1919.83 153.326 1920.16 153.349 Q1920.48 153.349 1920.88 153.443 Q1921.28 153.513 1921.47 153.677 Q1921.65 153.817 1921.77 154.098 Q1921.91 154.38 1921.91 154.825 Q1921.91 155.316 1921.73 155.644 Q1921.54 155.972 1921.16 156.089 Q1920.81 156.206 1920.58 156.23 Q1920.34 156.253 1919.94 156.253 L1916.36 156.253 Q1916.06 156.253 1915.87 156.253 Q1915.71 156.23 1915.38 156.16 Q1915.07 156.089 1914.89 155.949 Q1914.7 155.808 1914.53 155.527 Q1914.39 155.223 1914.39 154.825 Q1914.39 154.309 1914.56 153.981 Q1914.75 153.653 1915.12 153.536 Q1915.49 153.396 1915.75 153.372 Q1916.03 153.326 1916.5 153.326 L1916.5 142.153 Q1916.5 139.951 1916.06 139.085 Q1915.61 138.218 1914.72 138.218 Q1913.13 138.218 1911.96 139.975 Q1910.79 141.708 1910.79 144.729 L1910.79 153.326 Q1911.58 153.326 1911.96 153.349 Q1912.36 153.372 1912.78 153.513 Q1913.2 153.653 1913.36 153.981 Q1913.53 154.286 1913.53 154.825 Q1913.53 155.316 1913.34 155.644 Q1913.15 155.972 1912.78 156.089 Q1912.43 156.206 1912.19 156.23 Q1911.96 156.253 1911.56 156.253 L1907.34 156.253 Q1907.04 156.253 1906.85 156.253 Q1906.69 156.23 1906.36 156.16 Q1906.06 156.089 1905.87 155.949 Q1905.68 155.808 1905.54 155.527 Q1905.38 155.223 1905.38 154.825 Q1905.38 154.38 1905.52 154.098 Q1905.63 153.817 1905.82 153.677 Q1906.01 153.513 1906.41 153.443 Q1906.83 153.349 1907.16 153.349 Q1907.48 153.326 1908.12 153.326 L1908.12 138.499 Q1907.46 138.499 1907.16 138.499 Q1906.85 138.476 1906.43 138.405 Q1906.01 138.335 1905.82 138.195 Q1905.66 138.031 1905.52 137.75 Q1905.38 137.469 1905.38 137.023 Q1905.38 136.532 1905.56 136.204 Q1905.75 135.876 1906.1 135.759 Q1906.45 135.642 1906.71 135.618 Q1906.97 135.571 1907.34 135.571 L1908.87 135.571 Q1909.29 135.571 1909.52 135.618 Q1909.78 135.642 1910.08 135.759 Q1910.41 135.876 1910.58 136.204 Q1910.76 136.508 1910.79 137.023 Q1912.68 135.29 1914.91 135.29 Q1916.13 135.29 1917.06 135.946 Q1918.02 136.578 1918.56 137.796 Q1919.48 136.508 1920.79 135.899 Q1922.1 135.29 1923.32 135.29 Q1924.18 135.29 1924.89 135.618 Q1925.59 135.923 1926.01 136.391 Q1926.46 136.836 1926.76 137.539 Q1927.09 138.218 1927.23 138.78 Q1927.39 139.319 1927.46 140.022 Q1927.56 140.724 1927.56 141.029 Q1927.58 141.333 1927.58 141.708 L1927.58 153.326 Q1928.38 153.326 1928.75 153.349 Q1929.15 153.372 1929.57 153.513 Q1929.99 153.653 1930.16 153.981 Q1930.32 154.286 1930.32 154.825 Z" fill="#000000" fill-rule="evenodd" fill-opacity="1" /><path clip-path="url(#clip660)" d="M1991.14 145.901 Q1991.14 148.126 1990.32 150.117 Q1989.52 152.108 1988.16 153.513 Q1986.83 154.895 1985.02 155.715 Q1983.22 156.534 1981.28 156.534 Q1978.09 156.534 1975.7 154.098 L1975.7 163.983 L1977.81 163.983 Q1978.23 163.983 1978.46 164.006 Q1978.7 164.03 1979.05 164.147 Q1979.42 164.287 1979.59 164.615 Q1979.78 164.943 1979.78 165.458 Q1979.78 166.114 1979.4 166.465 Q1979.03 166.817 1978.68 166.864 Q1978.35 166.911 1977.86 166.911 L1970.22 166.911 Q1969.87 166.911 1969.61 166.864 Q1969.38 166.84 1969.03 166.723 Q1968.7 166.606 1968.51 166.278 Q1968.32 165.95 1968.32 165.458 Q1968.32 164.943 1968.49 164.615 Q1968.67 164.287 1969.03 164.147 Q1969.4 164.03 1969.63 164.006 Q1969.87 163.983 1970.29 163.983 L1972.4 163.983 L1972.4 138.499 L1970.22 138.499 Q1969.92 138.499 1969.75 138.499 Q1969.59 138.476 1969.26 138.405 Q1968.95 138.335 1968.77 138.195 Q1968.6 138.054 1968.46 137.773 Q1968.32 137.469 1968.32 137.07 Q1968.32 136.555 1968.49 136.227 Q1968.67 135.899 1969.03 135.782 Q1969.38 135.642 1969.63 135.618 Q1969.89 135.571 1970.29 135.571 L1973.78 135.571 Q1975.04 135.571 1975.37 136.016 Q1975.7 136.461 1975.7 137.632 Q1978.3 135.29 1981.79 135.29 Q1984.3 135.29 1986.45 136.696 Q1988.61 138.101 1989.87 140.56 Q1991.14 142.996 1991.14 145.901 M1987.83 145.901 Q1987.83 142.739 1985.98 140.49 Q1984.16 138.218 1981.51 138.218 Q1979.24 138.218 1977.46 139.858 Q1975.7 141.474 1975.7 143.582 L1975.7 147.095 Q1975.7 148.009 1976.03 149.086 Q1976.36 150.163 1976.99 151.217 Q1977.62 152.248 1978.7 152.927 Q1979.78 153.607 1981.11 153.607 Q1983.73 153.607 1985.77 151.428 Q1987.83 149.227 1987.83 145.901 Z" fill="#000000" fill-rule="evenodd" fill-opacity="1" /><path clip-path="url(#clip660)" d="M2016.55 145.901 Q2016.55 150.374 2013.65 153.466 Q2010.75 156.534 2006.74 156.534 Q2002.74 156.534 1999.81 153.466 Q1996.9 150.398 1996.9 145.901 Q1996.9 141.427 1999.78 138.288 Q2002.69 135.15 2006.74 135.15 Q2009.39 135.15 2011.64 136.578 Q2013.91 138.007 2015.22 140.49 Q2016.55 142.949 2016.55 145.901 M2013.25 145.549 Q2013.25 142.34 2011.31 140.209 Q2009.39 138.077 2006.74 138.077 Q2004.12 138.077 2002.15 140.232 Q2000.21 142.364 2000.21 145.549 Q2000.21 148.875 2002.13 151.241 Q2004.07 153.607 2006.74 153.607 Q2009.41 153.607 2011.33 151.241 Q2013.25 148.875 2013.25 145.549 Z" fill="#000000" fill-rule="evenodd" fill-opacity="1" /><path clip-path="url(#clip660)" d="M2040.41 150.257 Q2040.41 151.03 2040.2 151.803 Q2039.99 152.576 2039.38 153.466 Q2038.77 154.333 2037.79 154.988 Q2036.83 155.644 2035.14 156.089 Q2033.48 156.534 2031.3 156.534 Q2027.53 156.534 2025.07 154.707 Q2024.81 155.527 2024.44 155.972 Q2024.06 156.394 2023.83 156.464 Q2023.59 156.534 2023.29 156.534 Q2022.89 156.534 2022.59 156.394 Q2022.3 156.253 2022.16 156.089 Q2022.02 155.902 2021.93 155.597 Q2021.86 155.27 2021.84 155.082 Q2021.84 154.871 2021.84 154.567 L2021.84 149.929 Q2021.84 149.437 2021.86 149.203 Q2021.91 148.946 2022.05 148.618 Q2022.19 148.266 2022.54 148.126 Q2022.91 147.962 2023.52 147.962 Q2024.39 147.962 2024.69 148.29 Q2025 148.594 2025.21 149.344 Q2025.63 150.679 2026.33 151.592 Q2027.04 152.482 2027.9 152.904 Q2028.79 153.302 2029.57 153.466 Q2030.36 153.607 2031.35 153.607 Q2034.44 153.607 2035.96 152.67 Q2037.48 151.709 2037.48 150.257 Q2037.48 149.648 2037.2 149.156 Q2036.94 148.641 2036.38 148.29 Q2035.82 147.915 2035.28 147.681 Q2034.77 147.423 2033.92 147.236 Q2033.08 147.025 2032.59 146.931 Q2032.1 146.814 2031.3 146.697 Q2030.03 146.51 2029.35 146.392 Q2028.68 146.275 2027.5 146.018 Q2026.36 145.737 2025.7 145.479 Q2025.05 145.221 2024.2 144.776 Q2023.36 144.308 2022.91 143.793 Q2022.47 143.254 2022.14 142.504 Q2021.84 141.731 2021.84 140.818 Q2021.84 140.186 2022 139.553 Q2022.16 138.921 2022.75 138.101 Q2023.34 137.258 2024.27 136.649 Q2025.23 136.016 2026.97 135.595 Q2028.7 135.15 2030.97 135.15 Q2033.99 135.15 2036.1 136.157 Q2036.38 135.15 2037.53 135.15 Q2037.93 135.15 2038.21 135.29 Q2038.51 135.431 2038.65 135.618 Q2038.79 135.782 2038.86 136.11 Q2038.96 136.414 2038.96 136.625 Q2038.98 136.813 2038.98 137.117 L2038.98 140.42 Q2038.98 140.912 2038.93 141.169 Q2038.91 141.403 2038.77 141.755 Q2038.63 142.083 2038.26 142.247 Q2037.9 142.387 2037.3 142.387 Q2036.76 142.387 2036.4 142.27 Q2036.08 142.13 2035.91 141.872 Q2035.77 141.591 2035.73 141.357 Q2035.68 141.122 2035.66 140.748 Q2035.59 140.209 2035.37 139.811 Q2035.19 139.389 2034.7 138.968 Q2034.23 138.546 2033.24 138.312 Q2032.28 138.077 2030.85 138.077 Q2027.72 138.077 2026.24 138.897 Q2024.76 139.717 2024.76 140.818 Q2024.76 142.809 2029.43 143.441 L2032.68 144.027 Q2033.2 144.097 2033.62 144.191 Q2034.04 144.261 2034.88 144.495 Q2035.73 144.729 2036.38 145.011 Q2037.06 145.292 2037.83 145.783 Q2038.63 146.275 2039.15 146.884 Q2039.68 147.47 2040.04 148.36 Q2040.41 149.227 2040.41 150.257 Z" fill="#000000" fill-rule="evenodd" fill-opacity="1" /><path clip-path="url(#clip660)" d="M2065.85 150.21 Q2065.85 152.225 2064.7 153.724 Q2063.57 155.199 2061.91 155.879 Q2060.27 156.534 2058.4 156.534 Q2055.49 156.534 2053.55 154.988 Q2051.63 153.443 2051.63 150.21 L2051.63 138.499 L2047.41 138.499 Q2047.11 138.499 2046.92 138.499 Q2046.73 138.476 2046.43 138.405 Q2046.12 138.335 2045.94 138.195 Q2045.77 138.054 2045.63 137.773 Q2045.49 137.469 2045.49 137.07 Q2045.49 136.555 2045.66 136.227 Q2045.84 135.899 2046.19 135.782 Q2046.55 135.642 2046.8 135.618 Q2047.06 135.571 2047.46 135.571 L2051.63 135.571 L2051.63 131.636 Q2051.63 131.144 2051.65 130.91 Q2051.7 130.653 2051.84 130.325 Q2051.98 129.973 2052.33 129.833 Q2052.71 129.669 2053.32 129.669 Q2053.9 129.669 2054.25 129.833 Q2054.63 129.997 2054.74 130.348 Q2054.88 130.676 2054.91 130.934 Q2054.95 131.168 2054.95 131.636 L2054.95 135.571 L2062.82 135.571 Q2063.22 135.571 2063.46 135.618 Q2063.71 135.642 2064.04 135.782 Q2064.37 135.899 2064.53 136.227 Q2064.72 136.555 2064.72 137.07 Q2064.72 137.469 2064.58 137.773 Q2064.44 138.054 2064.28 138.195 Q2064.11 138.335 2063.79 138.405 Q2063.48 138.476 2063.29 138.499 Q2063.13 138.499 2062.82 138.499 L2054.95 138.499 L2054.95 149.929 Q2054.95 150.468 2054.98 150.796 Q2055 151.124 2055.19 151.733 Q2055.38 152.318 2055.73 152.67 Q2056.08 153.021 2056.83 153.326 Q2057.58 153.607 2058.63 153.607 Q2059.03 153.607 2059.45 153.536 Q2059.9 153.466 2060.46 153.255 Q2061.02 153.021 2061.44 152.67 Q2061.89 152.318 2062.19 151.663 Q2062.5 151.007 2062.52 150.163 Q2062.52 149.625 2062.57 149.297 Q2062.64 148.969 2063.01 148.664 Q2063.41 148.337 2064.16 148.337 Q2064.77 148.337 2065.12 148.5 Q2065.49 148.641 2065.64 148.969 Q2065.78 149.297 2065.8 149.531 Q2065.85 149.765 2065.85 150.21 Z" fill="#000000" fill-rule="evenodd" fill-opacity="1" /><path clip-path="url(#clip660)" d="M2089.79 151.03 Q2089.79 151.428 2089.51 152.061 Q2089.25 152.693 2088.57 153.489 Q2087.91 154.262 2086.98 154.942 Q2086.04 155.621 2084.52 156.089 Q2083 156.534 2081.22 156.534 Q2076.6 156.534 2073.39 153.396 Q2070.18 150.257 2070.18 145.854 Q2070.18 141.427 2073.18 138.288 Q2076.2 135.15 2080.49 135.15 Q2082.76 135.15 2084.57 135.969 Q2086.37 136.789 2087.49 138.195 Q2088.62 139.6 2089.2 141.427 Q2089.79 143.23 2089.79 145.315 Q2089.79 145.947 2089.65 146.346 Q2089.51 146.72 2089.18 146.884 Q2088.85 147.025 2088.59 147.072 Q2088.36 147.095 2087.87 147.095 L2073.58 147.095 Q2074.14 150.07 2076.41 151.85 Q2078.71 153.607 2081.54 153.607 Q2082.13 153.607 2082.74 153.489 Q2083.37 153.372 2084.12 153.091 Q2084.87 152.81 2085.5 152.201 Q2086.16 151.592 2086.53 150.726 Q2086.77 150.07 2087.09 149.882 Q2087.45 149.672 2088.13 149.672 Q2089.79 149.672 2089.79 151.03 M2086.39 144.214 Q2086.25 142.457 2085.67 141.193 Q2085.08 139.928 2084.19 139.295 Q2083.32 138.64 2082.41 138.359 Q2081.52 138.077 2080.49 138.077 Q2077.98 138.077 2076.06 139.834 Q2074.14 141.567 2073.63 144.214 L2086.39 144.214 Z" fill="#000000" fill-rule="evenodd" fill-opacity="1" /><path clip-path="url(#clip660)" d="M2115.96 138.265 Q2115.96 139.202 2115.35 139.764 Q2114.77 140.326 2113.95 140.326 Q2113.08 140.326 2112.5 139.717 Q2111.93 139.108 2111.89 138.218 Q2109.78 138.218 2108.09 139.014 Q2106.41 139.787 2105.38 141.099 Q2104.35 142.387 2103.81 144.003 Q2103.27 145.596 2103.27 147.329 L2103.27 153.326 L2108.59 153.326 Q2108.96 153.326 2109.22 153.372 Q2109.48 153.396 2109.83 153.536 Q2110.18 153.653 2110.37 153.981 Q2110.55 154.309 2110.55 154.825 Q2110.55 155.316 2110.37 155.644 Q2110.18 155.972 2109.8 156.089 Q2109.45 156.206 2109.22 156.23 Q2108.98 156.253 2108.59 156.253 L2096.05 156.253 Q2095.66 156.253 2095.42 156.23 Q2095.19 156.206 2094.84 156.089 Q2094.48 155.949 2094.32 155.621 Q2094.16 155.293 2094.16 154.778 Q2094.16 154.262 2094.32 153.958 Q2094.51 153.63 2094.84 153.513 Q2095.19 153.396 2095.42 153.372 Q2095.68 153.326 2096.05 153.326 L2099.94 153.326 L2099.94 138.499 L2096.05 138.499 Q2095.66 138.499 2095.42 138.476 Q2095.19 138.452 2094.84 138.335 Q2094.48 138.195 2094.32 137.867 Q2094.16 137.539 2094.16 137.023 Q2094.16 136.508 2094.32 136.204 Q2094.51 135.876 2094.84 135.759 Q2095.19 135.642 2095.42 135.618 Q2095.68 135.571 2096.05 135.571 L2101.35 135.571 Q2102.54 135.571 2102.89 135.993 Q2103.27 136.391 2103.27 137.539 L2103.27 139.178 Q2106.66 135.29 2111.42 135.29 Q2112.82 135.29 2113.78 135.618 Q2114.77 135.923 2115.19 136.438 Q2115.64 136.953 2115.8 137.398 Q2115.96 137.82 2115.96 138.265 Z" fill="#000000" fill-rule="evenodd" fill-opacity="1" /><path clip-path="url(#clip660)" d="M2137.75 154.825 Q2137.75 155.316 2137.56 155.644 Q2137.37 155.972 2137 156.089 Q2136.65 156.206 2136.41 156.23 Q2136.18 156.253 2135.78 156.253 L2121.63 156.253 Q2121.23 156.253 2121 156.23 Q2120.77 156.206 2120.39 156.089 Q2120.04 155.972 2119.85 155.644 Q2119.67 155.316 2119.67 154.825 Q2119.67 154.309 2119.83 153.981 Q2120.02 153.653 2120.37 153.536 Q2120.72 153.396 2120.98 153.372 Q2121.23 153.326 2121.63 153.326 L2127.44 153.326 L2127.44 138.499 L2122.01 138.499 Q2121.61 138.499 2121.38 138.476 Q2121.14 138.452 2120.77 138.335 Q2120.42 138.195 2120.23 137.867 Q2120.04 137.539 2120.04 137.023 Q2120.04 136.532 2120.23 136.204 Q2120.42 135.876 2120.77 135.759 Q2121.12 135.642 2121.38 135.618 Q2121.63 135.571 2122.01 135.571 L2128.82 135.571 Q2130.02 135.571 2130.37 135.993 Q2130.74 136.391 2130.74 137.539 L2130.74 153.326 L2135.78 153.326 Q2136.16 153.326 2136.41 153.372 Q2136.67 153.396 2137.02 153.536 Q2137.37 153.653 2137.56 153.981 Q2137.75 154.309 2137.75 154.825 M2130.23 127.936 Q2130.93 128.615 2130.93 129.622 Q2130.93 130.629 2130.23 131.332 Q2129.55 132.034 2128.54 132.034 Q2127.54 132.034 2126.83 131.332 Q2126.13 130.629 2126.13 129.622 Q2126.13 128.615 2126.83 127.936 Q2127.54 127.233 2128.54 127.233 Q2129.55 127.233 2130.23 127.936 Z" fill="#000000" fill-rule="evenodd" fill-opacity="1" /><path clip-path="url(#clip660)" d="M2165.59 145.901 Q2165.59 150.374 2162.69 153.466 Q2159.79 156.534 2155.78 156.534 Q2151.77 156.534 2148.85 153.466 Q2145.94 150.398 2145.94 145.901 Q2145.94 141.427 2148.82 138.288 Q2151.73 135.15 2155.78 135.15 Q2158.43 135.15 2160.68 136.578 Q2162.95 138.007 2164.26 140.49 Q2165.59 142.949 2165.59 145.901 M2162.29 145.549 Q2162.29 142.34 2160.35 140.209 Q2158.43 138.077 2155.78 138.077 Q2153.16 138.077 2151.19 140.232 Q2149.25 142.364 2149.25 145.549 Q2149.25 148.875 2151.17 151.241 Q2153.11 153.607 2155.78 153.607 Q2158.45 153.607 2160.37 151.241 Q2162.29 148.875 2162.29 145.549 Z" fill="#000000" fill-rule="evenodd" fill-opacity="1" /><path clip-path="url(#clip660)" d="M2191.72 138.265 Q2191.72 139.202 2191.11 139.764 Q2190.53 140.326 2189.71 140.326 Q2188.84 140.326 2188.26 139.717 Q2187.69 139.108 2187.65 138.218 Q2185.54 138.218 2183.85 139.014 Q2182.17 139.787 2181.13 141.099 Q2180.1 142.387 2179.57 144.003 Q2179.03 145.596 2179.03 147.329 L2179.03 153.326 L2184.34 153.326 Q2184.72 153.326 2184.98 153.372 Q2185.23 153.396 2185.58 153.536 Q2185.94 153.653 2186.12 153.981 Q2186.31 154.309 2186.31 154.825 Q2186.31 155.316 2186.12 155.644 Q2185.94 155.972 2185.56 156.089 Q2185.21 156.206 2184.98 156.23 Q2184.74 156.253 2184.34 156.253 L2171.81 156.253 Q2171.41 156.253 2171.18 156.23 Q2170.95 156.206 2170.59 156.089 Q2170.24 155.949 2170.08 155.621 Q2169.92 155.293 2169.92 154.778 Q2169.92 154.262 2170.08 153.958 Q2170.27 153.63 2170.59 153.513 Q2170.95 153.396 2171.18 153.372 Q2171.44 153.326 2171.81 153.326 L2175.7 153.326 L2175.7 138.499 L2171.81 138.499 Q2171.41 138.499 2171.18 138.476 Q2170.95 138.452 2170.59 138.335 Q2170.24 138.195 2170.08 137.867 Q2169.92 137.539 2169.92 137.023 Q2169.92 136.508 2170.08 136.204 Q2170.27 135.876 2170.59 135.759 Q2170.95 135.642 2171.18 135.618 Q2171.44 135.571 2171.81 135.571 L2177.11 135.571 Q2178.3 135.571 2178.65 135.993 Q2179.03 136.391 2179.03 137.539 L2179.03 139.178 Q2182.42 135.29 2187.18 135.29 Q2188.58 135.29 2189.54 135.618 Q2190.53 135.923 2190.95 136.438 Q2191.39 136.953 2191.56 137.398 Q2191.72 137.82 2191.72 138.265 Z" fill="#000000" fill-rule="evenodd" fill-opacity="1" /><path clip-path="url(#clip660)" d="M2252.68 132.269 Q2252.68 136.204 2251.41 140.631 Q2250.17 145.034 2248.2 148.594 Q2246.24 152.131 2243.66 154.473 Q2241.08 156.792 2238.62 156.792 Q2237.05 156.792 2235.88 155.925 Q2234.74 155.035 2234.1 153.56 Q2233.47 152.061 2233.17 150.421 Q2232.86 148.758 2232.86 146.955 Q2232.86 144.261 2233.45 141.333 Q2234.03 138.382 2235.02 135.712 Q2236 133.018 2237.38 130.582 Q2238.76 128.123 2240.29 126.343 Q2241.83 124.539 2243.57 123.485 Q2245.3 122.431 2246.92 122.431 Q2248.09 122.431 2249.02 122.947 Q2249.98 123.438 2250.59 124.305 Q2251.2 125.148 2251.62 126.155 Q2252.07 127.163 2252.28 128.334 Q2252.49 129.481 2252.58 130.442 Q2252.68 131.379 2252.68 132.269 M2249.52 129.294 Q2249.52 128.1 2249.42 127.209 Q2249.33 126.296 2249.07 125.383 Q2248.81 124.469 2248.25 123.977 Q2247.71 123.485 2246.87 123.485 Q2244.41 123.485 2241.65 128.521 Q2240.76 130.09 2239.96 132.222 Q2239.16 134.353 2238.88 135.36 Q2238.6 136.368 2237.94 138.85 L2247.97 138.85 Q2249.52 132.456 2249.52 129.294 M2247.55 140.373 L2237.57 140.373 Q2236.02 146.229 2236.02 149.882 Q2236.02 153.068 2236.68 154.403 Q2237.36 155.715 2238.62 155.715 Q2240.08 155.715 2241.43 154.262 Q2242.79 152.787 2244.17 150.117 Q2246 146.65 2247.55 140.373 Z" fill="#000000" fill-rule="evenodd" fill-opacity="1" /><polyline clip-path="url(#clip660)" style="stroke:#e26f46; stroke-linecap:round; stroke-linejoin:round; stroke-width:20; stroke-opacity:1; fill:none" points="1535.36,196.789 1681.81,196.789 "/>
<path clip-path="url(#clip660)" d="M1729.05 206.641 Q1729.05 207.156 1728.86 207.484 Q1728.7 207.812 1728.32 207.953 Q1727.97 208.07 1727.74 208.093 Q1727.5 208.117 1727.08 208.117 L1723.57 208.117 Q1722.23 208.117 1721.93 207.648 Q1721.65 207.18 1721.65 205.728 Q1719.07 208.398 1715.6 208.398 Q1711.76 208.398 1708.98 205.329 Q1706.21 202.238 1706.21 197.811 Q1706.21 194.836 1707.57 192.377 Q1708.95 189.918 1711.2 188.536 Q1713.45 187.154 1716.05 187.154 Q1719.16 187.154 1721.65 189.309 L1721.65 181.743 L1719.49 181.743 Q1719 181.743 1718.65 181.696 Q1718.32 181.649 1717.95 181.298 Q1717.57 180.947 1717.57 180.291 Q1717.57 179.776 1717.74 179.448 Q1717.92 179.12 1718.27 179.003 Q1718.65 178.862 1718.88 178.839 Q1719.12 178.815 1719.54 178.815 L1723.05 178.815 Q1724.25 178.815 1724.6 179.237 Q1724.95 179.635 1724.95 180.783 L1724.95 205.189 L1727.13 205.189 Q1727.62 205.189 1727.95 205.236 Q1728.3 205.283 1728.67 205.634 Q1729.05 205.985 1729.05 206.641 M1721.65 198.818 L1721.65 195.398 Q1721.65 193.361 1720.05 191.721 Q1718.49 190.081 1716.24 190.081 Q1713.61 190.081 1711.55 192.283 Q1709.51 194.485 1709.51 197.811 Q1709.51 200.996 1711.37 203.245 Q1713.24 205.47 1715.79 205.47 Q1717.1 205.47 1718.25 204.814 Q1719.4 204.158 1720.1 203.151 Q1720.83 202.144 1721.23 200.996 Q1721.65 199.849 1721.65 198.818 Z" fill="#000000" fill-rule="evenodd" fill-opacity="1" /><path clip-path="url(#clip660)" d="M1750.94 202.894 Q1750.94 203.292 1750.66 203.924 Q1750.4 204.557 1749.72 205.353 Q1749.07 206.126 1748.13 206.805 Q1747.19 207.484 1745.67 207.953 Q1744.15 208.398 1742.37 208.398 Q1737.75 208.398 1734.55 205.259 Q1731.34 202.121 1731.34 197.717 Q1731.34 193.29 1734.34 190.152 Q1737.36 187.013 1741.64 187.013 Q1743.92 187.013 1745.72 187.833 Q1747.52 188.653 1748.65 190.058 Q1749.77 191.463 1750.36 193.29 Q1750.94 195.094 1750.94 197.178 Q1750.94 197.811 1750.8 198.209 Q1750.66 198.584 1750.33 198.748 Q1750 198.888 1749.75 198.935 Q1749.51 198.959 1749.02 198.959 L1734.73 198.959 Q1735.3 201.933 1737.57 203.713 Q1739.86 205.47 1742.7 205.47 Q1743.28 205.47 1743.89 205.353 Q1744.52 205.236 1745.27 204.955 Q1746.02 204.674 1746.66 204.065 Q1747.31 203.456 1747.69 202.589 Q1747.92 201.933 1748.25 201.746 Q1748.6 201.535 1749.28 201.535 Q1750.94 201.535 1750.94 202.894 M1747.55 196.078 Q1747.4 194.321 1746.82 193.056 Q1746.23 191.791 1745.34 191.159 Q1744.48 190.503 1743.56 190.222 Q1742.67 189.941 1741.64 189.941 Q1739.14 189.941 1737.22 191.698 Q1735.3 193.431 1734.78 196.078 L1747.55 196.078 Z" fill="#000000" fill-rule="evenodd" fill-opacity="1" /><path clip-path="url(#clip660)" d="M1779.29 206.688 Q1779.29 207.18 1779.11 207.508 Q1778.92 207.836 1778.57 207.953 Q1778.22 208.07 1777.98 208.093 Q1777.75 208.117 1777.37 208.117 L1770.02 208.117 Q1769.71 208.117 1769.53 208.117 Q1769.36 208.093 1769.04 208.023 Q1768.73 207.953 1768.54 207.812 Q1768.36 207.672 1768.19 207.391 Q1768.05 207.086 1768.05 206.688 Q1768.05 206.173 1768.22 205.845 Q1768.4 205.517 1768.75 205.4 Q1769.11 205.259 1769.36 205.236 Q1769.62 205.189 1770.02 205.189 L1771.89 205.189 L1771.89 194.298 Q1771.89 192.049 1771.21 191.065 Q1770.53 190.081 1768.68 190.081 Q1767.7 190.081 1766.69 190.456 Q1765.71 190.831 1764.77 191.58 Q1763.86 192.33 1763.27 193.665 Q1762.69 195 1762.69 196.71 L1762.69 205.189 L1764.8 205.189 Q1765.19 205.189 1765.45 205.236 Q1765.71 205.259 1766.06 205.4 Q1766.41 205.517 1766.58 205.845 Q1766.76 206.173 1766.76 206.688 Q1766.76 207.18 1766.58 207.508 Q1766.39 207.836 1766.04 207.953 Q1765.69 208.07 1765.45 208.093 Q1765.22 208.117 1764.84 208.117 L1757.21 208.117 Q1756.9 208.117 1756.74 208.117 Q1756.57 208.093 1756.25 208.023 Q1755.94 207.953 1755.76 207.812 Q1755.59 207.672 1755.45 207.391 Q1755.31 207.086 1755.31 206.688 Q1755.31 206.173 1755.47 205.845 Q1755.66 205.517 1756.01 205.4 Q1756.36 205.259 1756.62 205.236 Q1756.88 205.189 1757.28 205.189 L1759.39 205.189 L1759.39 190.363 L1757.21 190.363 Q1756.9 190.363 1756.74 190.363 Q1756.57 190.339 1756.25 190.269 Q1755.94 190.199 1755.76 190.058 Q1755.59 189.918 1755.45 189.636 Q1755.31 189.332 1755.31 188.934 Q1755.31 188.418 1755.47 188.091 Q1755.66 187.763 1756.01 187.646 Q1756.36 187.505 1756.62 187.482 Q1756.88 187.435 1757.28 187.435 L1760.77 187.435 Q1762.1 187.435 1762.38 187.903 Q1762.69 188.372 1762.69 189.707 Q1763.65 188.746 1765.24 187.95 Q1766.83 187.154 1768.97 187.154 Q1771.92 187.154 1773.56 188.863 Q1775.2 190.55 1775.2 194.063 L1775.2 205.189 L1777.33 205.189 Q1777.73 205.189 1777.98 205.236 Q1778.24 205.259 1778.59 205.4 Q1778.94 205.517 1779.11 205.845 Q1779.29 206.173 1779.29 206.688 Z" fill="#000000" fill-rule="evenodd" fill-opacity="1" /><path clip-path="url(#clip660)" d="M1800.16 202.121 Q1800.16 202.894 1799.95 203.666 Q1799.74 204.439 1799.13 205.329 Q1798.52 206.196 1797.54 206.852 Q1796.58 207.508 1794.89 207.953 Q1793.23 208.398 1791.05 208.398 Q1787.28 208.398 1784.82 206.571 Q1784.56 207.391 1784.19 207.836 Q1783.81 208.257 1783.58 208.328 Q1783.34 208.398 1783.04 208.398 Q1782.64 208.398 1782.34 208.257 Q1782.06 208.117 1781.91 207.953 Q1781.77 207.765 1781.68 207.461 Q1781.61 207.133 1781.59 206.946 Q1781.59 206.735 1781.59 206.43 L1781.59 201.793 Q1781.59 201.301 1781.61 201.067 Q1781.66 200.809 1781.8 200.481 Q1781.94 200.13 1782.29 199.989 Q1782.66 199.825 1783.27 199.825 Q1784.14 199.825 1784.44 200.153 Q1784.75 200.458 1784.96 201.207 Q1785.38 202.542 1786.08 203.456 Q1786.79 204.346 1787.65 204.767 Q1788.54 205.166 1789.32 205.329 Q1790.11 205.47 1791.1 205.47 Q1794.19 205.47 1795.71 204.533 Q1797.23 203.573 1797.23 202.121 Q1797.23 201.512 1796.95 201.02 Q1796.69 200.504 1796.13 200.153 Q1795.57 199.778 1795.03 199.544 Q1794.52 199.286 1793.67 199.099 Q1792.83 198.888 1792.34 198.795 Q1791.85 198.677 1791.05 198.56 Q1789.78 198.373 1789.11 198.256 Q1788.43 198.139 1787.26 197.881 Q1786.11 197.6 1785.45 197.342 Q1784.8 197.085 1783.95 196.64 Q1783.11 196.171 1782.66 195.656 Q1782.22 195.117 1781.89 194.368 Q1781.59 193.595 1781.59 192.681 Q1781.59 192.049 1781.75 191.417 Q1781.91 190.784 1782.5 189.964 Q1783.09 189.121 1784.02 188.512 Q1784.98 187.88 1786.72 187.458 Q1788.45 187.013 1790.72 187.013 Q1793.74 187.013 1795.85 188.02 Q1796.13 187.013 1797.28 187.013 Q1797.68 187.013 1797.96 187.154 Q1798.26 187.294 1798.4 187.482 Q1798.54 187.646 1798.62 187.973 Q1798.71 188.278 1798.71 188.489 Q1798.73 188.676 1798.73 188.981 L1798.73 192.283 Q1798.73 192.775 1798.69 193.033 Q1798.66 193.267 1798.52 193.618 Q1798.38 193.946 1798.01 194.11 Q1797.65 194.251 1797.05 194.251 Q1796.51 194.251 1796.16 194.134 Q1795.83 193.993 1795.66 193.735 Q1795.52 193.454 1795.48 193.22 Q1795.43 192.986 1795.41 192.611 Q1795.34 192.072 1795.13 191.674 Q1794.94 191.253 1794.45 190.831 Q1793.98 190.409 1792.99 190.175 Q1792.03 189.941 1790.6 189.941 Q1787.47 189.941 1785.99 190.761 Q1784.51 191.58 1784.51 192.681 Q1784.51 194.672 1789.18 195.305 L1792.43 195.89 Q1792.95 195.96 1793.37 196.054 Q1793.79 196.124 1794.63 196.359 Q1795.48 196.593 1796.13 196.874 Q1796.81 197.155 1797.58 197.647 Q1798.38 198.139 1798.9 198.748 Q1799.43 199.333 1799.79 200.223 Q1800.16 201.09 1800.16 202.121 Z" fill="#000000" fill-rule="evenodd" fill-opacity="1" /><path clip-path="url(#clip660)" d="M1823.45 206.688 Q1823.45 207.18 1823.26 207.508 Q1823.08 207.836 1822.7 207.953 Q1822.35 208.07 1822.11 208.093 Q1821.88 208.117 1821.48 208.117 L1807.34 208.117 Q1806.94 208.117 1806.7 208.093 Q1806.47 208.07 1806.09 207.953 Q1805.74 207.836 1805.56 207.508 Q1805.37 207.18 1805.37 206.688 Q1805.37 206.173 1805.53 205.845 Q1805.72 205.517 1806.07 205.4 Q1806.42 205.259 1806.68 205.236 Q1806.94 205.189 1807.34 205.189 L1813.14 205.189 L1813.14 190.363 L1807.71 190.363 Q1807.31 190.363 1807.08 190.339 Q1806.84 190.316 1806.47 190.199 Q1806.12 190.058 1805.93 189.73 Q1805.74 189.402 1805.74 188.887 Q1805.74 188.395 1805.93 188.067 Q1806.12 187.739 1806.47 187.622 Q1806.82 187.505 1807.08 187.482 Q1807.34 187.435 1807.71 187.435 L1814.53 187.435 Q1815.72 187.435 1816.07 187.856 Q1816.45 188.255 1816.45 189.402 L1816.45 205.189 L1821.48 205.189 Q1821.86 205.189 1822.11 205.236 Q1822.37 205.259 1822.72 205.4 Q1823.08 205.517 1823.26 205.845 Q1823.45 206.173 1823.45 206.688 M1815.93 179.799 Q1816.63 180.478 1816.63 181.485 Q1816.63 182.493 1815.93 183.195 Q1815.25 183.898 1814.24 183.898 Q1813.24 183.898 1812.54 183.195 Q1811.83 182.493 1811.83 181.485 Q1811.83 180.478 1812.54 179.799 Q1813.24 179.096 1814.24 179.096 Q1815.25 179.096 1815.93 179.799 Z" fill="#000000" fill-rule="evenodd" fill-opacity="1" /><path clip-path="url(#clip660)" d="M1851.04 202.074 Q1851.04 204.088 1849.89 205.587 Q1848.77 207.063 1847.1 207.742 Q1845.46 208.398 1843.59 208.398 Q1840.69 208.398 1838.74 206.852 Q1836.82 205.306 1836.82 202.074 L1836.82 190.363 L1832.61 190.363 Q1832.3 190.363 1832.11 190.363 Q1831.93 190.339 1831.62 190.269 Q1831.32 190.199 1831.13 190.058 Q1830.97 189.918 1830.83 189.636 Q1830.68 189.332 1830.68 188.934 Q1830.68 188.418 1830.85 188.091 Q1831.04 187.763 1831.39 187.646 Q1831.74 187.505 1832 187.482 Q1832.25 187.435 1832.65 187.435 L1836.82 187.435 L1836.82 183.5 Q1836.82 183.008 1836.84 182.774 Q1836.89 182.516 1837.03 182.188 Q1837.17 181.837 1837.52 181.696 Q1837.9 181.532 1838.51 181.532 Q1839.09 181.532 1839.44 181.696 Q1839.82 181.86 1839.94 182.212 Q1840.08 182.539 1840.1 182.797 Q1840.15 183.031 1840.15 183.5 L1840.15 187.435 L1848.02 187.435 Q1848.42 187.435 1848.65 187.482 Q1848.91 187.505 1849.24 187.646 Q1849.56 187.763 1849.73 188.091 Q1849.91 188.418 1849.91 188.934 Q1849.91 189.332 1849.77 189.636 Q1849.63 189.918 1849.47 190.058 Q1849.31 190.199 1848.98 190.269 Q1848.67 190.339 1848.49 190.363 Q1848.32 190.363 1848.02 190.363 L1840.15 190.363 L1840.15 201.793 Q1840.15 202.331 1840.17 202.659 Q1840.19 202.987 1840.38 203.596 Q1840.57 204.182 1840.92 204.533 Q1841.27 204.884 1842.02 205.189 Q1842.77 205.47 1843.82 205.47 Q1844.22 205.47 1844.64 205.4 Q1845.09 205.329 1845.65 205.119 Q1846.21 204.884 1846.64 204.533 Q1847.08 204.182 1847.38 203.526 Q1847.69 202.87 1847.71 202.027 Q1847.71 201.488 1847.76 201.16 Q1847.83 200.832 1848.2 200.528 Q1848.6 200.2 1849.35 200.2 Q1849.96 200.2 1850.31 200.364 Q1850.69 200.504 1850.83 200.832 Q1850.97 201.16 1850.99 201.395 Q1851.04 201.629 1851.04 202.074 Z" fill="#000000" fill-rule="evenodd" fill-opacity="1" /><path clip-path="url(#clip660)" d="M1877.98 188.934 Q1877.98 189.332 1877.84 189.636 Q1877.7 189.918 1877.51 190.058 Q1877.34 190.199 1877.04 190.269 Q1876.74 190.339 1876.55 190.363 Q1876.36 190.363 1876.06 190.363 L1874.63 190.363 L1867.18 212.192 Q1867.01 212.661 1866.83 213.129 Q1866.64 213.621 1865.96 214.792 Q1865.31 215.987 1864.56 216.83 Q1863.83 217.673 1862.61 218.352 Q1861.39 219.055 1860.04 219.055 Q1858.33 219.055 1857.18 217.86 Q1856.05 216.689 1856.05 215.12 Q1856.05 214.183 1856.62 213.598 Q1857.2 213.012 1858.16 213.012 Q1859.05 213.012 1859.64 213.598 Q1860.22 214.183 1860.22 215.073 Q1860.22 215.354 1860.15 215.612 Q1860.11 215.893 1860.04 216.01 L1859.99 216.127 Q1860.43 216.104 1860.74 216.034 Q1861.04 215.963 1861.63 215.706 Q1862.21 215.471 1862.78 214.862 Q1863.34 214.277 1863.83 213.34 Q1864.11 212.801 1864.56 211.49 Q1865.02 210.201 1865.33 209.147 L1865.66 208.117 Q1865.63 207.953 1865.45 207.484 L1858.65 190.363 L1857.15 190.363 Q1856.85 190.363 1856.66 190.363 Q1856.47 190.339 1856.17 190.269 Q1855.87 190.199 1855.68 190.058 Q1855.51 189.918 1855.37 189.636 Q1855.23 189.332 1855.23 188.934 Q1855.23 188.418 1855.4 188.091 Q1855.58 187.763 1855.91 187.646 Q1856.26 187.505 1856.5 187.482 Q1856.76 187.435 1857.15 187.435 L1862.78 187.435 Q1863.17 187.435 1863.41 187.482 Q1863.67 187.505 1863.99 187.646 Q1864.34 187.763 1864.51 188.091 Q1864.7 188.418 1864.7 188.934 Q1864.7 189.332 1864.56 189.636 Q1864.42 189.918 1864.23 190.058 Q1864.06 190.199 1863.76 190.269 Q1863.45 190.339 1863.27 190.363 Q1863.08 190.363 1862.78 190.363 L1861.58 190.363 L1866.03 201.886 Q1866.12 202.167 1866.36 202.776 Q1866.59 203.362 1866.76 203.854 Q1866.94 204.322 1867.04 204.72 L1867.09 204.72 Q1867.48 202.987 1868.33 200.575 L1871.79 190.363 L1870.43 190.363 Q1870.04 190.363 1869.8 190.339 Q1869.57 190.316 1869.22 190.199 Q1868.87 190.058 1868.7 189.73 Q1868.54 189.402 1868.54 188.887 Q1868.54 188.372 1868.7 188.067 Q1868.89 187.739 1869.22 187.622 Q1869.57 187.505 1869.8 187.482 Q1870.06 187.435 1870.43 187.435 L1876.06 187.435 Q1876.45 187.435 1876.69 187.482 Q1876.95 187.505 1877.27 187.646 Q1877.63 187.763 1877.79 188.091 Q1877.98 188.418 1877.98 188.934 Z" fill="#000000" fill-rule="evenodd" fill-opacity="1" /><path clip-path="url(#clip660)" d="M1940.99 197.764 Q1940.99 199.989 1940.17 201.98 Q1939.38 203.971 1938.02 205.376 Q1936.68 206.758 1934.88 207.578 Q1933.08 208.398 1931.13 208.398 Q1927.95 208.398 1925.56 205.962 L1925.56 215.846 L1927.67 215.846 Q1928.09 215.846 1928.32 215.87 Q1928.56 215.893 1928.91 216.01 Q1929.28 216.151 1929.45 216.479 Q1929.63 216.806 1929.63 217.322 Q1929.63 217.978 1929.26 218.329 Q1928.88 218.68 1928.53 218.727 Q1928.2 218.774 1927.71 218.774 L1920.08 218.774 Q1919.73 218.774 1919.47 218.727 Q1919.23 218.704 1918.88 218.587 Q1918.55 218.469 1918.37 218.142 Q1918.18 217.814 1918.18 217.322 Q1918.18 216.806 1918.34 216.479 Q1918.53 216.151 1918.88 216.01 Q1919.26 215.893 1919.49 215.87 Q1919.73 215.846 1920.15 215.846 L1922.26 215.846 L1922.26 190.363 L1920.08 190.363 Q1919.77 190.363 1919.61 190.363 Q1919.44 190.339 1919.12 190.269 Q1918.81 190.199 1918.62 190.058 Q1918.46 189.918 1918.32 189.636 Q1918.18 189.332 1918.18 188.934 Q1918.18 188.418 1918.34 188.091 Q1918.53 187.763 1918.88 187.646 Q1919.23 187.505 1919.49 187.482 Q1919.75 187.435 1920.15 187.435 L1923.64 187.435 Q1924.9 187.435 1925.23 187.88 Q1925.56 188.325 1925.56 189.496 Q1928.16 187.154 1931.65 187.154 Q1934.15 187.154 1936.31 188.559 Q1938.46 189.964 1939.73 192.424 Q1940.99 194.86 1940.99 197.764 M1937.69 197.764 Q1937.69 194.602 1935.84 192.353 Q1934.01 190.081 1931.37 190.081 Q1929.09 190.081 1927.31 191.721 Q1925.56 193.337 1925.56 195.445 L1925.56 198.959 Q1925.56 199.872 1925.89 200.949 Q1926.21 202.027 1926.85 203.081 Q1927.48 204.112 1928.56 204.791 Q1929.63 205.47 1930.97 205.47 Q1933.59 205.47 1935.63 203.292 Q1937.69 201.09 1937.69 197.764 Z" fill="#000000" fill-rule="evenodd" fill-opacity="1" /><path clip-path="url(#clip660)" d="M1966.41 197.764 Q1966.41 202.238 1963.51 205.329 Q1960.6 208.398 1956.6 208.398 Q1952.59 208.398 1949.67 205.329 Q1946.76 202.261 1946.76 197.764 Q1946.76 193.29 1949.64 190.152 Q1952.55 187.013 1956.6 187.013 Q1959.24 187.013 1961.49 188.442 Q1963.77 189.871 1965.08 192.353 Q1966.41 194.813 1966.41 197.764 M1963.11 197.413 Q1963.11 194.204 1961.17 192.072 Q1959.24 189.941 1956.6 189.941 Q1953.97 189.941 1952.01 192.096 Q1950.06 194.227 1950.06 197.413 Q1950.06 200.739 1951.98 203.104 Q1953.93 205.47 1956.6 205.47 Q1959.27 205.47 1961.19 203.104 Q1963.11 200.739 1963.11 197.413 Z" fill="#000000" fill-rule="evenodd" fill-opacity="1" /><path clip-path="url(#clip660)" d="M1990.27 202.121 Q1990.27 202.894 1990.06 203.666 Q1989.85 204.439 1989.24 205.329 Q1988.63 206.196 1987.64 206.852 Q1986.68 207.508 1985 207.953 Q1983.33 208.398 1981.16 208.398 Q1977.39 208.398 1974.93 206.571 Q1974.67 207.391 1974.29 207.836 Q1973.92 208.257 1973.68 208.328 Q1973.45 208.398 1973.15 208.398 Q1972.75 208.398 1972.44 208.257 Q1972.16 208.117 1972.02 207.953 Q1971.88 207.765 1971.79 207.461 Q1971.72 207.133 1971.69 206.946 Q1971.69 206.735 1971.69 206.43 L1971.69 201.793 Q1971.69 201.301 1971.72 201.067 Q1971.76 200.809 1971.9 200.481 Q1972.04 200.13 1972.4 199.989 Q1972.77 199.825 1973.38 199.825 Q1974.25 199.825 1974.55 200.153 Q1974.86 200.458 1975.07 201.207 Q1975.49 202.542 1976.19 203.456 Q1976.89 204.346 1977.76 204.767 Q1978.65 205.166 1979.42 205.329 Q1980.22 205.47 1981.2 205.47 Q1984.29 205.47 1985.82 204.533 Q1987.34 203.573 1987.34 202.121 Q1987.34 201.512 1987.06 201.02 Q1986.8 200.504 1986.24 200.153 Q1985.68 199.778 1985.14 199.544 Q1984.62 199.286 1983.78 199.099 Q1982.94 198.888 1982.44 198.795 Q1981.95 198.677 1981.16 198.56 Q1979.89 198.373 1979.21 198.256 Q1978.53 198.139 1977.36 197.881 Q1976.21 197.6 1975.56 197.342 Q1974.9 197.085 1974.06 196.64 Q1973.22 196.171 1972.77 195.656 Q1972.33 195.117 1972 194.368 Q1971.69 193.595 1971.69 192.681 Q1971.69 192.049 1971.86 191.417 Q1972.02 190.784 1972.61 189.964 Q1973.19 189.121 1974.13 188.512 Q1975.09 187.88 1976.82 187.458 Q1978.56 187.013 1980.83 187.013 Q1983.85 187.013 1985.96 188.02 Q1986.24 187.013 1987.39 187.013 Q1987.78 187.013 1988.07 187.154 Q1988.37 187.294 1988.51 187.482 Q1988.65 187.646 1988.72 187.973 Q1988.82 188.278 1988.82 188.489 Q1988.84 188.676 1988.84 188.981 L1988.84 192.283 Q1988.84 192.775 1988.79 193.033 Q1988.77 193.267 1988.63 193.618 Q1988.49 193.946 1988.11 194.11 Q1987.76 194.251 1987.15 194.251 Q1986.61 194.251 1986.26 194.134 Q1985.93 193.993 1985.77 193.735 Q1985.63 193.454 1985.58 193.22 Q1985.54 192.986 1985.51 192.611 Q1985.44 192.072 1985.23 191.674 Q1985.04 191.253 1984.55 190.831 Q1984.08 190.409 1983.1 190.175 Q1982.14 189.941 1980.71 189.941 Q1977.57 189.941 1976.1 190.761 Q1974.62 191.58 1974.62 192.681 Q1974.62 194.672 1979.28 195.305 L1982.54 195.89 Q1983.05 195.96 1983.47 196.054 Q1983.9 196.124 1984.74 196.359 Q1985.58 196.593 1986.24 196.874 Q1986.92 197.155 1987.69 197.647 Q1988.49 198.139 1989 198.748 Q1989.54 199.333 1989.89 200.223 Q1990.27 201.09 1990.27 202.121 Z" fill="#000000" fill-rule="evenodd" fill-opacity="1" /><path clip-path="url(#clip660)" d="M2015.7 202.074 Q2015.7 204.088 2014.56 205.587 Q2013.43 207.063 2011.77 207.742 Q2010.13 208.398 2008.26 208.398 Q2005.35 208.398 2003.41 206.852 Q2001.49 205.306 2001.49 202.074 L2001.49 190.363 L1997.27 190.363 Q1996.97 190.363 1996.78 190.363 Q1996.59 190.339 1996.29 190.269 Q1995.98 190.199 1995.79 190.058 Q1995.63 189.918 1995.49 189.636 Q1995.35 189.332 1995.35 188.934 Q1995.35 188.418 1995.51 188.091 Q1995.7 187.763 1996.05 187.646 Q1996.4 187.505 1996.66 187.482 Q1996.92 187.435 1997.32 187.435 L2001.49 187.435 L2001.49 183.5 Q2001.49 183.008 2001.51 182.774 Q2001.56 182.516 2001.7 182.188 Q2001.84 181.837 2002.19 181.696 Q2002.56 181.532 2003.17 181.532 Q2003.76 181.532 2004.11 181.696 Q2004.48 181.86 2004.6 182.212 Q2004.74 182.539 2004.77 182.797 Q2004.81 183.031 2004.81 183.5 L2004.81 187.435 L2012.68 187.435 Q2013.08 187.435 2013.31 187.482 Q2013.57 187.505 2013.9 187.646 Q2014.23 187.763 2014.39 188.091 Q2014.58 188.418 2014.58 188.934 Q2014.58 189.332 2014.44 189.636 Q2014.3 189.918 2014.13 190.058 Q2013.97 190.199 2013.64 190.269 Q2013.34 190.339 2013.15 190.363 Q2012.99 190.363 2012.68 190.363 L2004.81 190.363 L2004.81 201.793 Q2004.81 202.331 2004.84 202.659 Q2004.86 202.987 2005.05 203.596 Q2005.23 204.182 2005.58 204.533 Q2005.94 204.884 2006.69 205.189 Q2007.44 205.47 2008.49 205.47 Q2008.89 205.47 2009.31 205.4 Q2009.75 205.329 2010.32 205.119 Q2010.88 204.884 2011.3 204.533 Q2011.75 204.182 2012.05 203.526 Q2012.35 202.87 2012.38 202.027 Q2012.38 201.488 2012.42 201.16 Q2012.49 200.832 2012.87 200.528 Q2013.27 200.2 2014.02 200.2 Q2014.63 200.2 2014.98 200.364 Q2015.35 200.504 2015.49 200.832 Q2015.63 201.16 2015.66 201.395 Q2015.7 201.629 2015.7 202.074 Z" fill="#000000" fill-rule="evenodd" fill-opacity="1" /><path clip-path="url(#clip660)" d="M2039.65 202.894 Q2039.65 203.292 2039.36 203.924 Q2039.11 204.557 2038.43 205.353 Q2037.77 206.126 2036.84 206.805 Q2035.9 207.484 2034.38 207.953 Q2032.85 208.398 2031.07 208.398 Q2026.46 208.398 2023.25 205.259 Q2020.04 202.121 2020.04 197.717 Q2020.04 193.29 2023.04 190.152 Q2026.06 187.013 2030.35 187.013 Q2032.62 187.013 2034.42 187.833 Q2036.23 188.653 2037.35 190.058 Q2038.47 191.463 2039.06 193.29 Q2039.65 195.094 2039.65 197.178 Q2039.65 197.811 2039.51 198.209 Q2039.36 198.584 2039.04 198.748 Q2038.71 198.888 2038.45 198.935 Q2038.22 198.959 2037.73 198.959 L2023.44 198.959 Q2024 201.933 2026.27 203.713 Q2028.57 205.47 2031.4 205.47 Q2031.99 205.47 2032.6 205.353 Q2033.23 205.236 2033.98 204.955 Q2034.73 204.674 2035.36 204.065 Q2036.02 203.456 2036.39 202.589 Q2036.62 201.933 2036.95 201.746 Q2037.3 201.535 2037.98 201.535 Q2039.65 201.535 2039.65 202.894 M2036.25 196.078 Q2036.11 194.321 2035.52 193.056 Q2034.94 191.791 2034.05 191.159 Q2033.18 190.503 2032.27 190.222 Q2031.38 189.941 2030.35 189.941 Q2027.84 189.941 2025.92 191.698 Q2024 193.431 2023.48 196.078 L2036.25 196.078 Z" fill="#000000" fill-rule="evenodd" fill-opacity="1" /><path clip-path="url(#clip660)" d="M2065.82 190.128 Q2065.82 191.065 2065.21 191.627 Q2064.63 192.189 2063.81 192.189 Q2062.94 192.189 2062.35 191.58 Q2061.79 190.972 2061.74 190.081 Q2059.64 190.081 2057.95 190.878 Q2056.26 191.651 2055.23 192.962 Q2054.2 194.251 2053.66 195.867 Q2053.13 197.46 2053.13 199.193 L2053.13 205.189 L2058.44 205.189 Q2058.82 205.189 2059.07 205.236 Q2059.33 205.259 2059.68 205.4 Q2060.04 205.517 2060.22 205.845 Q2060.41 206.173 2060.41 206.688 Q2060.41 207.18 2060.22 207.508 Q2060.04 207.836 2059.66 207.953 Q2059.31 208.07 2059.07 208.093 Q2058.84 208.117 2058.44 208.117 L2045.91 208.117 Q2045.51 208.117 2045.28 208.093 Q2045.04 208.07 2044.69 207.953 Q2044.34 207.812 2044.18 207.484 Q2044.01 207.156 2044.01 206.641 Q2044.01 206.126 2044.18 205.821 Q2044.37 205.493 2044.69 205.376 Q2045.04 205.259 2045.28 205.236 Q2045.54 205.189 2045.91 205.189 L2049.8 205.189 L2049.8 190.363 L2045.91 190.363 Q2045.51 190.363 2045.28 190.339 Q2045.04 190.316 2044.69 190.199 Q2044.34 190.058 2044.18 189.73 Q2044.01 189.402 2044.01 188.887 Q2044.01 188.372 2044.18 188.067 Q2044.37 187.739 2044.69 187.622 Q2045.04 187.505 2045.28 187.482 Q2045.54 187.435 2045.91 187.435 L2051.2 187.435 Q2052.4 187.435 2052.75 187.856 Q2053.13 188.255 2053.13 189.402 L2053.13 191.042 Q2056.52 187.154 2061.28 187.154 Q2062.68 187.154 2063.64 187.482 Q2064.63 187.786 2065.05 188.301 Q2065.49 188.817 2065.66 189.262 Q2065.82 189.683 2065.82 190.128 Z" fill="#000000" fill-rule="evenodd" fill-opacity="1" /><path clip-path="url(#clip660)" d="M2087.61 206.688 Q2087.61 207.18 2087.42 207.508 Q2087.23 207.836 2086.86 207.953 Q2086.5 208.07 2086.27 208.093 Q2086.04 208.117 2085.64 208.117 L2071.49 208.117 Q2071.09 208.117 2070.86 208.093 Q2070.62 208.07 2070.25 207.953 Q2069.9 207.836 2069.71 207.508 Q2069.52 207.18 2069.52 206.688 Q2069.52 206.173 2069.69 205.845 Q2069.87 205.517 2070.23 205.4 Q2070.58 205.259 2070.83 205.236 Q2071.09 205.189 2071.49 205.189 L2077.3 205.189 L2077.3 190.363 L2071.87 190.363 Q2071.47 190.363 2071.23 190.339 Q2071 190.316 2070.62 190.199 Q2070.27 190.058 2070.09 189.73 Q2069.9 189.402 2069.9 188.887 Q2069.9 188.395 2070.09 188.067 Q2070.27 187.739 2070.62 187.622 Q2070.98 187.505 2071.23 187.482 Q2071.49 187.435 2071.87 187.435 L2078.68 187.435 Q2079.88 187.435 2080.23 187.856 Q2080.6 188.255 2080.6 189.402 L2080.6 205.189 L2085.64 205.189 Q2086.01 205.189 2086.27 205.236 Q2086.53 205.259 2086.88 205.4 Q2087.23 205.517 2087.42 205.845 Q2087.61 206.173 2087.61 206.688 M2080.09 179.799 Q2080.79 180.478 2080.79 181.485 Q2080.79 182.493 2080.09 183.195 Q2079.41 183.898 2078.4 183.898 Q2077.39 183.898 2076.69 183.195 Q2075.99 182.493 2075.99 181.485 Q2075.99 180.478 2076.69 179.799 Q2077.39 179.096 2078.4 179.096 Q2079.41 179.096 2080.09 179.799 Z" fill="#000000" fill-rule="evenodd" fill-opacity="1" /><path clip-path="url(#clip660)" d="M2115.45 197.764 Q2115.45 202.238 2112.55 205.329 Q2109.64 208.398 2105.64 208.398 Q2101.63 208.398 2098.7 205.329 Q2095.8 202.261 2095.8 197.764 Q2095.8 193.29 2098.68 190.152 Q2101.59 187.013 2105.64 187.013 Q2108.28 187.013 2110.53 188.442 Q2112.8 189.871 2114.12 192.353 Q2115.45 194.813 2115.45 197.764 M2112.15 197.413 Q2112.15 194.204 2110.2 192.072 Q2108.28 189.941 2105.64 189.941 Q2103.01 189.941 2101.05 192.096 Q2099.1 194.227 2099.1 197.413 Q2099.1 200.739 2101.02 203.104 Q2102.97 205.47 2105.64 205.47 Q2108.31 205.47 2110.23 203.104 Q2112.15 200.739 2112.15 197.413 Z" fill="#000000" fill-rule="evenodd" fill-opacity="1" /><path clip-path="url(#clip660)" d="M2141.58 190.128 Q2141.58 191.065 2140.97 191.627 Q2140.38 192.189 2139.56 192.189 Q2138.7 192.189 2138.11 191.58 Q2137.55 190.972 2137.5 190.081 Q2135.4 190.081 2133.71 190.878 Q2132.02 191.651 2130.99 192.962 Q2129.96 194.251 2129.42 195.867 Q2128.88 197.46 2128.88 199.193 L2128.88 205.189 L2134.2 205.189 Q2134.58 205.189 2134.83 205.236 Q2135.09 205.259 2135.44 205.4 Q2135.79 205.517 2135.98 205.845 Q2136.17 206.173 2136.17 206.688 Q2136.17 207.18 2135.98 207.508 Q2135.79 207.836 2135.42 207.953 Q2135.07 208.07 2134.83 208.093 Q2134.6 208.117 2134.2 208.117 L2121.67 208.117 Q2121.27 208.117 2121.04 208.093 Q2120.8 208.07 2120.45 207.953 Q2120.1 207.812 2119.94 207.484 Q2119.77 207.156 2119.77 206.641 Q2119.77 206.126 2119.94 205.821 Q2120.12 205.493 2120.45 205.376 Q2120.8 205.259 2121.04 205.236 Q2121.3 205.189 2121.67 205.189 L2125.56 205.189 L2125.56 190.363 L2121.67 190.363 Q2121.27 190.363 2121.04 190.339 Q2120.8 190.316 2120.45 190.199 Q2120.1 190.058 2119.94 189.73 Q2119.77 189.402 2119.77 188.887 Q2119.77 188.372 2119.94 188.067 Q2120.12 187.739 2120.45 187.622 Q2120.8 187.505 2121.04 187.482 Q2121.3 187.435 2121.67 187.435 L2126.96 187.435 Q2128.16 187.435 2128.51 187.856 Q2128.88 188.255 2128.88 189.402 L2128.88 191.042 Q2132.28 187.154 2137.03 187.154 Q2138.44 187.154 2139.4 187.482 Q2140.38 187.786 2140.81 188.301 Q2141.25 188.817 2141.41 189.262 Q2141.58 189.683 2141.58 190.128 Z" fill="#000000" fill-rule="evenodd" fill-opacity="1" /><path clip-path="url(#clip660)" d="M2202.53 184.132 Q2202.53 188.067 2201.27 192.494 Q2200.03 196.897 2198.06 200.458 Q2196.09 203.994 2193.52 206.337 Q2190.94 208.655 2188.48 208.655 Q2186.91 208.655 2185.74 207.789 Q2184.59 206.899 2183.96 205.423 Q2183.33 203.924 2183.02 202.285 Q2182.72 200.622 2182.72 198.818 Q2182.72 196.124 2183.3 193.197 Q2183.89 190.245 2184.87 187.575 Q2185.86 184.882 2187.24 182.446 Q2188.62 179.986 2190.14 178.206 Q2191.69 176.403 2193.42 175.349 Q2195.16 174.295 2196.77 174.295 Q2197.94 174.295 2198.88 174.81 Q2199.84 175.302 2200.45 176.169 Q2201.06 177.012 2201.48 178.019 Q2201.93 179.026 2202.14 180.197 Q2202.35 181.345 2202.44 182.305 Q2202.53 183.242 2202.53 184.132 M2199.37 181.158 Q2199.37 179.963 2199.28 179.073 Q2199.18 178.159 2198.93 177.246 Q2198.67 176.332 2198.11 175.841 Q2197.57 175.349 2196.73 175.349 Q2194.27 175.349 2191.5 180.385 Q2190.61 181.954 2189.82 184.085 Q2189.02 186.217 2188.74 187.224 Q2188.46 188.231 2187.8 190.714 L2197.83 190.714 Q2199.37 184.32 2199.37 181.158 M2197.4 192.236 L2187.43 192.236 Q2185.88 198.092 2185.88 201.746 Q2185.88 204.931 2186.54 206.266 Q2187.22 207.578 2188.48 207.578 Q2189.93 207.578 2191.29 206.126 Q2192.65 204.65 2194.03 201.98 Q2195.86 198.514 2197.4 192.236 Z" fill="#000000" fill-rule="evenodd" fill-opacity="1" /></svg>
