<?xml version="1.0" encoding="utf-8"?>
<svg xmlns="http://www.w3.org/2000/svg" xmlns:xlink="http://www.w3.org/1999/xlink" width="600" height="300" viewBox="0 0 2400 1200">
<defs>
  <clipPath id="clip740">
    <rect x="0" y="0" width="2400" height="1200"/>
  </clipPath>
</defs>
<path clip-path="url(#clip740)" d="M0 1200 L2400 1200 L2400 0 L0 0  Z" fill="#ffffff" fill-rule="evenodd" fill-opacity="1"/>
<defs>
  <clipPath id="clip741">
    <rect x="480" y="0" width="1681" height="1200"/>
  </clipPath>
</defs>
<path clip-path="url(#clip740)" d="M207.986 1047.7 L1175.61 1047.7 L1175.61 108.352 L207.986 108.352  Z" fill="#ffffff" fill-rule="evenodd" fill-opacity="1"/>
<defs>
  <clipPath id="clip742">
    <rect x="207" y="108" width="969" height="940"/>
  </clipPath>
</defs>
<polyline clip-path="url(#clip742)" style="stroke:#000000; stroke-linecap:round; stroke-linejoin:round; stroke-width:2; stroke-opacity:0.1; fill:none" points="234.458,1047.7 234.458,108.352 "/>
<polyline clip-path="url(#clip742)" style="stroke:#000000; stroke-linecap:round; stroke-linejoin:round; stroke-width:2; stroke-opacity:0.1; fill:none" points="462.901,1047.7 462.901,108.352 "/>
<polyline clip-path="url(#clip742)" style="stroke:#000000; stroke-linecap:round; stroke-linejoin:round; stroke-width:2; stroke-opacity:0.1; fill:none" points="691.344,1047.7 691.344,108.352 "/>
<polyline clip-path="url(#clip742)" style="stroke:#000000; stroke-linecap:round; stroke-linejoin:round; stroke-width:2; stroke-opacity:0.1; fill:none" points="919.786,1047.7 919.786,108.352 "/>
<polyline clip-path="url(#clip742)" style="stroke:#000000; stroke-linecap:round; stroke-linejoin:round; stroke-width:2; stroke-opacity:0.1; fill:none" points="1148.23,1047.7 1148.23,108.352 "/>
<polyline clip-path="url(#clip740)" style="stroke:#000000; stroke-linecap:round; stroke-linejoin:round; stroke-width:4; stroke-opacity:1; fill:none" points="207.986,1047.7 1175.61,1047.7 "/>
<polyline clip-path="url(#clip740)" style="stroke:#000000; stroke-linecap:round; stroke-linejoin:round; stroke-width:4; stroke-opacity:1; fill:none" points="234.458,1047.7 234.458,1028.8 "/>
<polyline clip-path="url(#clip740)" style="stroke:#000000; stroke-linecap:round; stroke-linejoin:round; stroke-width:4; stroke-opacity:1; fill:none" points="462.901,1047.7 462.901,1028.8 "/>
<polyline clip-path="url(#clip740)" style="stroke:#000000; stroke-linecap:round; stroke-linejoin:round; stroke-width:4; stroke-opacity:1; fill:none" points="691.344,1047.7 691.344,1028.8 "/>
<polyline clip-path="url(#clip740)" style="stroke:#000000; stroke-linecap:round; stroke-linejoin:round; stroke-width:4; stroke-opacity:1; fill:none" points="919.786,1047.7 919.786,1028.8 "/>
<polyline clip-path="url(#clip740)" style="stroke:#000000; stroke-linecap:round; stroke-linejoin:round; stroke-width:4; stroke-opacity:1; fill:none" points="1148.23,1047.7 1148.23,1028.8 "/>
<path clip-path="url(#clip740)" d="M234.458 1078.62 Q230.847 1078.62 229.018 1082.18 Q227.213 1085.72 227.213 1092.85 Q227.213 1099.96 229.018 1103.53 Q230.847 1107.07 234.458 1107.07 Q238.092 1107.07 239.898 1103.53 Q241.727 1099.96 241.727 1092.85 Q241.727 1085.72 239.898 1082.18 Q238.092 1078.62 234.458 1078.62 M234.458 1074.91 Q240.268 1074.91 243.324 1079.52 Q246.403 1084.1 246.403 1092.85 Q246.403 1101.58 243.324 1106.19 Q240.268 1110.77 234.458 1110.77 Q228.648 1110.77 225.569 1106.19 Q222.514 1101.58 222.514 1092.85 Q222.514 1084.1 225.569 1079.52 Q228.648 1074.91 234.458 1074.91 Z" fill="#000000" fill-rule="evenodd" fill-opacity="1" /><path clip-path="url(#clip740)" d="M426.593 1106.16 L442.913 1106.16 L442.913 1110.1 L420.968 1110.1 L420.968 1106.16 Q423.63 1103.41 428.214 1098.78 Q432.82 1094.13 434.001 1092.79 Q436.246 1090.26 437.126 1088.53 Q438.028 1086.77 438.028 1085.08 Q438.028 1082.32 436.084 1080.59 Q434.163 1078.85 431.061 1078.85 Q428.862 1078.85 426.408 1079.61 Q423.977 1080.38 421.2 1081.93 L421.2 1077.21 Q424.024 1076.07 426.477 1075.49 Q428.931 1074.91 430.968 1074.91 Q436.339 1074.91 439.533 1077.6 Q442.727 1080.29 442.727 1084.78 Q442.727 1086.91 441.917 1088.83 Q441.13 1090.72 439.024 1093.32 Q438.445 1093.99 435.343 1097.21 Q432.241 1100.4 426.593 1106.16 Z" fill="#000000" fill-rule="evenodd" fill-opacity="1" /><path clip-path="url(#clip740)" d="M452.774 1075.54 L471.13 1075.54 L471.13 1079.48 L457.056 1079.48 L457.056 1087.95 Q458.075 1087.6 459.093 1087.44 Q460.112 1087.25 461.13 1087.25 Q466.917 1087.25 470.297 1090.42 Q473.676 1093.6 473.676 1099.01 Q473.676 1104.59 470.204 1107.69 Q466.732 1110.77 460.412 1110.77 Q458.237 1110.77 455.968 1110.4 Q453.723 1110.03 451.315 1109.29 L451.315 1104.59 Q453.399 1105.72 455.621 1106.28 Q457.843 1106.84 460.32 1106.84 Q464.324 1106.84 466.662 1104.73 Q469 1102.62 469 1099.01 Q469 1095.4 466.662 1093.29 Q464.324 1091.19 460.32 1091.19 Q458.445 1091.19 456.57 1091.6 Q454.718 1092.02 452.774 1092.9 L452.774 1075.54 Z" fill="#000000" fill-rule="evenodd" fill-opacity="1" /><path clip-path="url(#clip740)" d="M492.889 1078.62 Q489.278 1078.62 487.449 1082.18 Q485.644 1085.72 485.644 1092.85 Q485.644 1099.96 487.449 1103.53 Q489.278 1107.07 492.889 1107.07 Q496.523 1107.07 498.329 1103.53 Q500.158 1099.96 500.158 1092.85 Q500.158 1085.72 498.329 1082.18 Q496.523 1078.62 492.889 1078.62 M492.889 1074.91 Q498.699 1074.91 501.755 1079.52 Q504.834 1084.1 504.834 1092.85 Q504.834 1101.58 501.755 1106.19 Q498.699 1110.77 492.889 1110.77 Q487.079 1110.77 484 1106.19 Q480.945 1101.58 480.945 1092.85 Q480.945 1084.1 484 1079.52 Q487.079 1074.91 492.889 1074.91 Z" fill="#000000" fill-rule="evenodd" fill-opacity="1" /><path clip-path="url(#clip740)" d="M650.962 1075.54 L669.318 1075.54 L669.318 1079.48 L655.244 1079.48 L655.244 1087.95 Q656.263 1087.6 657.281 1087.44 Q658.3 1087.25 659.318 1087.25 Q665.105 1087.25 668.485 1090.42 Q671.864 1093.6 671.864 1099.01 Q671.864 1104.59 668.392 1107.69 Q664.92 1110.77 658.601 1110.77 Q656.425 1110.77 654.156 1110.4 Q651.911 1110.03 649.503 1109.29 L649.503 1104.59 Q651.587 1105.72 653.809 1106.28 Q656.031 1106.84 658.508 1106.84 Q662.513 1106.84 664.851 1104.73 Q667.189 1102.62 667.189 1099.01 Q667.189 1095.4 664.851 1093.29 Q662.513 1091.19 658.508 1091.19 Q656.633 1091.19 654.758 1091.6 Q652.906 1092.02 650.962 1092.9 L650.962 1075.54 Z" fill="#000000" fill-rule="evenodd" fill-opacity="1" /><path clip-path="url(#clip740)" d="M691.077 1078.62 Q687.466 1078.62 685.638 1082.18 Q683.832 1085.72 683.832 1092.85 Q683.832 1099.96 685.638 1103.53 Q687.466 1107.07 691.077 1107.07 Q694.712 1107.07 696.517 1103.53 Q698.346 1099.96 698.346 1092.85 Q698.346 1085.72 696.517 1082.18 Q694.712 1078.62 691.077 1078.62 M691.077 1074.91 Q696.887 1074.91 699.943 1079.52 Q703.022 1084.1 703.022 1092.85 Q703.022 1101.58 699.943 1106.19 Q696.887 1110.77 691.077 1110.77 Q685.267 1110.77 682.188 1106.19 Q679.133 1101.58 679.133 1092.85 Q679.133 1084.1 682.188 1079.52 Q685.267 1074.91 691.077 1074.91 Z" fill="#000000" fill-rule="evenodd" fill-opacity="1" /><path clip-path="url(#clip740)" d="M721.239 1078.62 Q717.628 1078.62 715.799 1082.18 Q713.994 1085.72 713.994 1092.85 Q713.994 1099.96 715.799 1103.53 Q717.628 1107.07 721.239 1107.07 Q724.873 1107.07 726.679 1103.53 Q728.508 1099.96 728.508 1092.85 Q728.508 1085.72 726.679 1082.18 Q724.873 1078.62 721.239 1078.62 M721.239 1074.91 Q727.049 1074.91 730.105 1079.52 Q733.184 1084.1 733.184 1092.85 Q733.184 1101.58 730.105 1106.19 Q727.049 1110.77 721.239 1110.77 Q715.429 1110.77 712.35 1106.19 Q709.295 1101.58 709.295 1092.85 Q709.295 1084.1 712.35 1079.52 Q715.429 1074.91 721.239 1074.91 Z" fill="#000000" fill-rule="evenodd" fill-opacity="1" /><path clip-path="url(#clip740)" d="M878.062 1075.54 L900.284 1075.54 L900.284 1077.53 L887.738 1110.1 L882.854 1110.1 L894.659 1079.48 L878.062 1079.48 L878.062 1075.54 Z" fill="#000000" fill-rule="evenodd" fill-opacity="1" /><path clip-path="url(#clip740)" d="M909.451 1075.54 L927.807 1075.54 L927.807 1079.48 L913.733 1079.48 L913.733 1087.95 Q914.752 1087.6 915.77 1087.44 Q916.789 1087.25 917.807 1087.25 Q923.594 1087.25 926.974 1090.42 Q930.353 1093.6 930.353 1099.01 Q930.353 1104.59 926.881 1107.69 Q923.409 1110.77 917.089 1110.77 Q914.914 1110.77 912.645 1110.4 Q910.4 1110.03 907.992 1109.29 L907.992 1104.59 Q910.076 1105.72 912.298 1106.28 Q914.52 1106.84 916.997 1106.84 Q921.001 1106.84 923.339 1104.73 Q925.677 1102.62 925.677 1099.01 Q925.677 1095.4 923.339 1093.29 Q921.001 1091.19 916.997 1091.19 Q915.122 1091.19 913.247 1091.6 Q911.395 1092.02 909.451 1092.9 L909.451 1075.54 Z" fill="#000000" fill-rule="evenodd" fill-opacity="1" /><path clip-path="url(#clip740)" d="M949.566 1078.62 Q945.955 1078.62 944.126 1082.18 Q942.321 1085.72 942.321 1092.85 Q942.321 1099.96 944.126 1103.53 Q945.955 1107.07 949.566 1107.07 Q953.2 1107.07 955.006 1103.53 Q956.835 1099.96 956.835 1092.85 Q956.835 1085.72 955.006 1082.18 Q953.2 1078.62 949.566 1078.62 M949.566 1074.91 Q955.376 1074.91 958.432 1079.52 Q961.511 1084.1 961.511 1092.85 Q961.511 1101.58 958.432 1106.19 Q955.376 1110.77 949.566 1110.77 Q943.756 1110.77 940.677 1106.19 Q937.622 1101.58 937.622 1092.85 Q937.622 1084.1 940.677 1079.52 Q943.756 1074.91 949.566 1074.91 Z" fill="#000000" fill-rule="evenodd" fill-opacity="1" /><path clip-path="url(#clip740)" d="M1092.75 1106.16 L1100.39 1106.16 L1100.39 1079.8 L1092.08 1081.47 L1092.08 1077.21 L1100.35 1075.54 L1105.02 1075.54 L1105.02 1106.16 L1112.66 1106.16 L1112.66 1110.1 L1092.75 1110.1 L1092.75 1106.16 Z" fill="#000000" fill-rule="evenodd" fill-opacity="1" /><path clip-path="url(#clip740)" d="M1132.11 1078.62 Q1128.5 1078.62 1126.67 1082.18 Q1124.86 1085.72 1124.86 1092.85 Q1124.86 1099.96 1126.67 1103.53 Q1128.5 1107.07 1132.11 1107.07 Q1135.74 1107.07 1137.55 1103.53 Q1139.37 1099.96 1139.37 1092.85 Q1139.37 1085.72 1137.55 1082.18 Q1135.74 1078.62 1132.11 1078.62 M1132.11 1074.91 Q1137.92 1074.91 1140.97 1079.52 Q1144.05 1084.1 1144.05 1092.85 Q1144.05 1101.58 1140.97 1106.19 Q1137.92 1110.77 1132.11 1110.77 Q1126.3 1110.77 1123.22 1106.19 Q1120.16 1101.58 1120.16 1092.85 Q1120.16 1084.1 1123.22 1079.52 Q1126.3 1074.91 1132.11 1074.91 Z" fill="#000000" fill-rule="evenodd" fill-opacity="1" /><path clip-path="url(#clip740)" d="M1162.27 1078.62 Q1158.66 1078.62 1156.83 1082.18 Q1155.02 1085.72 1155.02 1092.85 Q1155.02 1099.96 1156.83 1103.53 Q1158.66 1107.07 1162.27 1107.07 Q1165.9 1107.07 1167.71 1103.53 Q1169.54 1099.96 1169.54 1092.85 Q1169.54 1085.72 1167.71 1082.18 Q1165.9 1078.62 1162.27 1078.62 M1162.27 1074.91 Q1168.08 1074.91 1171.13 1079.52 Q1174.21 1084.1 1174.21 1092.85 Q1174.21 1101.58 1171.13 1106.19 Q1168.08 1110.77 1162.27 1110.77 Q1156.46 1110.77 1153.38 1106.19 Q1150.32 1101.58 1150.32 1092.85 Q1150.32 1084.1 1153.38 1079.52 Q1156.46 1074.91 1162.27 1074.91 Z" fill="#000000" fill-rule="evenodd" fill-opacity="1" /><path clip-path="url(#clip740)" d="M1192.43 1078.62 Q1188.82 1078.62 1186.99 1082.18 Q1185.18 1085.72 1185.18 1092.85 Q1185.18 1099.96 1186.99 1103.53 Q1188.82 1107.07 1192.43 1107.07 Q1196.06 1107.07 1197.87 1103.53 Q1199.7 1099.96 1199.7 1092.85 Q1199.7 1085.72 1197.87 1082.18 Q1196.06 1078.62 1192.43 1078.62 M1192.43 1074.91 Q1198.24 1074.91 1201.3 1079.52 Q1204.37 1084.1 1204.37 1092.85 Q1204.37 1101.58 1201.3 1106.19 Q1198.24 1110.77 1192.43 1110.77 Q1186.62 1110.77 1183.54 1106.19 Q1180.49 1101.58 1180.49 1092.85 Q1180.49 1084.1 1183.54 1079.52 Q1186.62 1074.91 1192.43 1074.91 Z" fill="#000000" fill-rule="evenodd" fill-opacity="1" /><path clip-path="url(#clip740)" d="M559.521 1145.04 L565.95 1145.04 L565.95 1192.56 L559.521 1192.56 L559.521 1145.04 Z" fill="#000000" fill-rule="evenodd" fill-opacity="1" /><path clip-path="url(#clip740)" d="M584.284 1146.79 L584.284 1156.92 L596.347 1156.92 L596.347 1161.47 L584.284 1161.47 L584.284 1180.82 Q584.284 1185.18 585.461 1186.42 Q586.671 1187.66 590.331 1187.66 L596.347 1187.66 L596.347 1192.56 L590.331 1192.56 Q583.552 1192.56 580.973 1190.05 Q578.395 1187.5 578.395 1180.82 L578.395 1161.47 L574.099 1161.47 L574.099 1156.92 L578.395 1156.92 L578.395 1146.79 L584.284 1146.79 Z" fill="#000000" fill-rule="evenodd" fill-opacity="1" /><path clip-path="url(#clip740)" d="M634.541 1173.28 L634.541 1176.14 L607.614 1176.14 Q607.996 1182.19 611.242 1185.37 Q614.521 1188.52 620.345 1188.52 Q623.719 1188.52 626.87 1187.69 Q630.053 1186.87 633.172 1185.21 L633.172 1190.75 Q630.021 1192.09 626.711 1192.79 Q623.401 1193.49 619.995 1193.49 Q611.465 1193.49 606.468 1188.52 Q601.503 1183.56 601.503 1175.09 Q601.503 1166.34 606.213 1161.21 Q610.956 1156.06 618.977 1156.06 Q626.17 1156.06 630.34 1160.7 Q634.541 1165.32 634.541 1173.28 M628.684 1171.56 Q628.621 1166.75 625.979 1163.89 Q623.369 1161.02 619.04 1161.02 Q614.139 1161.02 611.179 1163.79 Q608.251 1166.56 607.805 1171.59 L628.684 1171.56 Z" fill="#000000" fill-rule="evenodd" fill-opacity="1" /><path clip-path="url(#clip740)" d="M664.81 1162.39 Q663.823 1161.82 662.645 1161.56 Q661.5 1161.28 660.099 1161.28 Q655.134 1161.28 652.46 1164.52 Q649.819 1167.74 649.819 1173.79 L649.819 1192.56 L643.93 1192.56 L643.93 1156.92 L649.819 1156.92 L649.819 1162.45 Q651.665 1159.21 654.625 1157.65 Q657.585 1156.06 661.818 1156.06 Q662.423 1156.06 663.155 1156.15 Q663.887 1156.22 664.778 1156.37 L664.81 1162.39 Z" fill="#000000" fill-rule="evenodd" fill-opacity="1" /><path clip-path="url(#clip740)" d="M687.153 1174.64 Q680.056 1174.64 677.318 1176.27 Q674.581 1177.89 674.581 1181.81 Q674.581 1184.92 676.618 1186.77 Q678.687 1188.59 682.22 1188.59 Q687.09 1188.59 690.018 1185.15 Q692.978 1181.68 692.978 1175.95 L692.978 1174.64 L687.153 1174.64 M698.835 1172.23 L698.835 1192.56 L692.978 1192.56 L692.978 1187.15 Q690.973 1190.4 687.981 1191.96 Q684.989 1193.49 680.66 1193.49 Q675.186 1193.49 671.939 1190.43 Q668.725 1187.34 668.725 1182.19 Q668.725 1176.17 672.735 1173.12 Q676.777 1170.06 684.766 1170.06 L692.978 1170.06 L692.978 1169.49 Q692.978 1165.45 690.304 1163.25 Q687.663 1161.02 682.857 1161.02 Q679.801 1161.02 676.905 1161.75 Q674.008 1162.49 671.335 1163.95 L671.335 1158.54 Q674.549 1157.3 677.573 1156.69 Q680.597 1156.06 683.461 1156.06 Q691.196 1156.06 695.015 1160.07 Q698.835 1164.08 698.835 1172.23 Z" fill="#000000" fill-rule="evenodd" fill-opacity="1" /><path clip-path="url(#clip740)" d="M716.69 1146.79 L716.69 1156.92 L728.753 1156.92 L728.753 1161.47 L716.69 1161.47 L716.69 1180.82 Q716.69 1185.18 717.868 1186.42 Q719.077 1187.66 722.738 1187.66 L728.753 1187.66 L728.753 1192.56 L722.738 1192.56 Q715.958 1192.56 713.38 1190.05 Q710.802 1187.5 710.802 1180.82 L710.802 1161.47 L706.505 1161.47 L706.505 1156.92 L710.802 1156.92 L710.802 1146.79 L716.69 1146.79 Z" fill="#000000" fill-rule="evenodd" fill-opacity="1" /><path clip-path="url(#clip740)" d="M736.456 1156.92 L742.312 1156.92 L742.312 1192.56 L736.456 1192.56 L736.456 1156.92 M736.456 1143.04 L742.312 1143.04 L742.312 1150.45 L736.456 1150.45 L736.456 1143.04 Z" fill="#000000" fill-rule="evenodd" fill-opacity="1" /><path clip-path="url(#clip740)" d="M768.38 1161.02 Q763.669 1161.02 760.932 1164.71 Q758.195 1168.37 758.195 1174.77 Q758.195 1181.17 760.9 1184.86 Q763.637 1188.52 768.38 1188.52 Q773.059 1188.52 775.796 1184.83 Q778.533 1181.14 778.533 1174.77 Q778.533 1168.44 775.796 1164.75 Q773.059 1161.02 768.38 1161.02 M768.38 1156.06 Q776.019 1156.06 780.379 1161.02 Q784.74 1165.99 784.74 1174.77 Q784.74 1183.52 780.379 1188.52 Q776.019 1193.49 768.38 1193.49 Q760.709 1193.49 756.349 1188.52 Q752.02 1183.52 752.02 1174.77 Q752.02 1165.99 756.349 1161.02 Q760.709 1156.06 768.38 1156.06 Z" fill="#000000" fill-rule="evenodd" fill-opacity="1" /><path clip-path="url(#clip740)" d="M824.08 1171.05 L824.08 1192.56 L818.223 1192.56 L818.223 1171.24 Q818.223 1166.18 816.25 1163.66 Q814.277 1161.15 810.33 1161.15 Q805.587 1161.15 802.85 1164.17 Q800.113 1167.2 800.113 1172.42 L800.113 1192.56 L794.225 1192.56 L794.225 1156.92 L800.113 1156.92 L800.113 1162.45 Q802.214 1159.24 805.046 1157.65 Q807.911 1156.06 811.635 1156.06 Q817.778 1156.06 820.929 1159.88 Q824.08 1163.66 824.08 1171.05 Z" fill="#000000" fill-rule="evenodd" fill-opacity="1" /><polyline clip-path="url(#clip742)" style="stroke:#000000; stroke-linecap:round; stroke-linejoin:round; stroke-width:2; stroke-opacity:0.1; fill:none" points="207.986,943.424 1175.61,943.424 "/>
<polyline clip-path="url(#clip742)" style="stroke:#000000; stroke-linecap:round; stroke-linejoin:round; stroke-width:2; stroke-opacity:0.1; fill:none" points="207.986,797.512 1175.61,797.512 "/>
<polyline clip-path="url(#clip742)" style="stroke:#000000; stroke-linecap:round; stroke-linejoin:round; stroke-width:2; stroke-opacity:0.1; fill:none" points="207.986,651.6 1175.61,651.6 "/>
<polyline clip-path="url(#clip742)" style="stroke:#000000; stroke-linecap:round; stroke-linejoin:round; stroke-width:2; stroke-opacity:0.1; fill:none" points="207.986,505.688 1175.61,505.688 "/>
<polyline clip-path="url(#clip742)" style="stroke:#000000; stroke-linecap:round; stroke-linejoin:round; stroke-width:2; stroke-opacity:0.1; fill:none" points="207.986,359.776 1175.61,359.776 "/>
<polyline clip-path="url(#clip742)" style="stroke:#000000; stroke-linecap:round; stroke-linejoin:round; stroke-width:2; stroke-opacity:0.1; fill:none" points="207.986,213.864 1175.61,213.864 "/>
<polyline clip-path="url(#clip740)" style="stroke:#000000; stroke-linecap:round; stroke-linejoin:round; stroke-width:4; stroke-opacity:1; fill:none" points="207.986,1047.7 207.986,108.352 "/>
<polyline clip-path="url(#clip740)" style="stroke:#000000; stroke-linecap:round; stroke-linejoin:round; stroke-width:4; stroke-opacity:1; fill:none" points="207.986,943.424 226.884,943.424 "/>
<polyline clip-path="url(#clip740)" style="stroke:#000000; stroke-linecap:round; stroke-linejoin:round; stroke-width:4; stroke-opacity:1; fill:none" points="207.986,797.512 226.884,797.512 "/>
<polyline clip-path="url(#clip740)" style="stroke:#000000; stroke-linecap:round; stroke-linejoin:round; stroke-width:4; stroke-opacity:1; fill:none" points="207.986,651.6 226.884,651.6 "/>
<polyline clip-path="url(#clip740)" style="stroke:#000000; stroke-linecap:round; stroke-linejoin:round; stroke-width:4; stroke-opacity:1; fill:none" points="207.986,505.688 226.884,505.688 "/>
<polyline clip-path="url(#clip740)" style="stroke:#000000; stroke-linecap:round; stroke-linejoin:round; stroke-width:4; stroke-opacity:1; fill:none" points="207.986,359.776 226.884,359.776 "/>
<polyline clip-path="url(#clip740)" style="stroke:#000000; stroke-linecap:round; stroke-linejoin:round; stroke-width:4; stroke-opacity:1; fill:none" points="207.986,213.864 226.884,213.864 "/>
<path clip-path="url(#clip740)" d="M115.459 929.223 Q111.848 929.223 110.019 932.788 Q108.213 936.329 108.213 943.459 Q108.213 950.565 110.019 954.13 Q111.848 957.672 115.459 957.672 Q119.093 957.672 120.899 954.13 Q122.727 950.565 122.727 943.459 Q122.727 936.329 120.899 932.788 Q119.093 929.223 115.459 929.223 M115.459 925.519 Q121.269 925.519 124.324 930.126 Q127.403 934.709 127.403 943.459 Q127.403 952.186 124.324 956.792 Q121.269 961.375 115.459 961.375 Q109.649 961.375 106.57 956.792 Q103.514 952.186 103.514 943.459 Q103.514 934.709 106.57 930.126 Q109.649 925.519 115.459 925.519 Z" fill="#000000" fill-rule="evenodd" fill-opacity="1" /><path clip-path="url(#clip740)" d="M135.621 954.825 L140.505 954.825 L140.505 960.704 L135.621 960.704 L135.621 954.825 Z" fill="#000000" fill-rule="evenodd" fill-opacity="1" /><path clip-path="url(#clip740)" d="M164.857 942.07 Q168.213 942.788 170.088 945.056 Q171.986 947.325 171.986 950.658 Q171.986 955.774 168.468 958.575 Q164.949 961.375 158.468 961.375 Q156.292 961.375 153.977 960.936 Q151.685 960.519 149.232 959.663 L149.232 955.149 Q151.176 956.283 153.491 956.862 Q155.806 957.44 158.329 957.44 Q162.727 957.44 165.019 955.704 Q167.334 953.968 167.334 950.658 Q167.334 947.602 165.181 945.889 Q163.051 944.153 159.232 944.153 L155.204 944.153 L155.204 940.311 L159.417 940.311 Q162.866 940.311 164.695 938.945 Q166.523 937.556 166.523 934.964 Q166.523 932.302 164.625 930.89 Q162.75 929.454 159.232 929.454 Q157.31 929.454 155.111 929.871 Q152.912 930.288 150.273 931.167 L150.273 927.001 Q152.935 926.26 155.25 925.89 Q157.588 925.519 159.648 925.519 Q164.972 925.519 168.074 927.95 Q171.176 930.357 171.176 934.477 Q171.176 937.348 169.533 939.339 Q167.889 941.306 164.857 942.07 Z" fill="#000000" fill-rule="evenodd" fill-opacity="1" /><path clip-path="url(#clip740)" d="M114.325 783.311 Q110.713 783.311 108.885 786.876 Q107.079 790.417 107.079 797.547 Q107.079 804.653 108.885 808.218 Q110.713 811.76 114.325 811.76 Q117.959 811.76 119.764 808.218 Q121.593 804.653 121.593 797.547 Q121.593 790.417 119.764 786.876 Q117.959 783.311 114.325 783.311 M114.325 779.607 Q120.135 779.607 123.19 784.214 Q126.269 788.797 126.269 797.547 Q126.269 806.274 123.19 810.88 Q120.135 815.463 114.325 815.463 Q108.514 815.463 105.436 810.88 Q102.38 806.274 102.38 797.547 Q102.38 788.797 105.436 784.214 Q108.514 779.607 114.325 779.607 Z" fill="#000000" fill-rule="evenodd" fill-opacity="1" /><path clip-path="url(#clip740)" d="M134.486 808.913 L139.371 808.913 L139.371 814.792 L134.486 814.792 L134.486 808.913 Z" fill="#000000" fill-rule="evenodd" fill-opacity="1" /><path clip-path="url(#clip740)" d="M162.403 784.306 L150.597 802.755 L162.403 802.755 L162.403 784.306 M161.176 780.232 L167.056 780.232 L167.056 802.755 L171.986 802.755 L171.986 806.644 L167.056 806.644 L167.056 814.792 L162.403 814.792 L162.403 806.644 L146.801 806.644 L146.801 802.13 L161.176 780.232 Z" fill="#000000" fill-rule="evenodd" fill-opacity="1" /><path clip-path="url(#clip740)" d="M115.806 637.399 Q112.195 637.399 110.366 640.964 Q108.561 644.505 108.561 651.635 Q108.561 658.741 110.366 662.306 Q112.195 665.848 115.806 665.848 Q119.44 665.848 121.246 662.306 Q123.074 658.741 123.074 651.635 Q123.074 644.505 121.246 640.964 Q119.44 637.399 115.806 637.399 M115.806 633.695 Q121.616 633.695 124.672 638.302 Q127.75 642.885 127.75 651.635 Q127.75 660.362 124.672 664.968 Q121.616 669.551 115.806 669.551 Q109.996 669.551 106.917 664.968 Q103.862 660.362 103.862 651.635 Q103.862 642.885 106.917 638.302 Q109.996 633.695 115.806 633.695 Z" fill="#000000" fill-rule="evenodd" fill-opacity="1" /><path clip-path="url(#clip740)" d="M135.968 663 L140.852 663 L140.852 668.88 L135.968 668.88 L135.968 663 Z" fill="#000000" fill-rule="evenodd" fill-opacity="1" /><path clip-path="url(#clip740)" d="M151.084 634.32 L169.44 634.32 L169.44 638.255 L155.366 638.255 L155.366 646.727 Q156.384 646.38 157.403 646.218 Q158.422 646.033 159.44 646.033 Q165.227 646.033 168.607 649.204 Q171.986 652.376 171.986 657.792 Q171.986 663.371 168.514 666.473 Q165.042 669.551 158.722 669.551 Q156.547 669.551 154.278 669.181 Q152.033 668.811 149.625 668.07 L149.625 663.371 Q151.709 664.505 153.931 665.061 Q156.153 665.616 158.63 665.616 Q162.634 665.616 164.972 663.51 Q167.31 661.403 167.31 657.792 Q167.31 654.181 164.972 652.075 Q162.634 649.968 158.63 649.968 Q156.755 649.968 154.88 650.385 Q153.028 650.801 151.084 651.681 L151.084 634.32 Z" fill="#000000" fill-rule="evenodd" fill-opacity="1" /><path clip-path="url(#clip740)" d="M114.649 491.487 Q111.038 491.487 109.209 495.052 Q107.403 498.593 107.403 505.723 Q107.403 512.829 109.209 516.394 Q111.038 519.936 114.649 519.936 Q118.283 519.936 120.088 516.394 Q121.917 512.829 121.917 505.723 Q121.917 498.593 120.088 495.052 Q118.283 491.487 114.649 491.487 M114.649 487.783 Q120.459 487.783 123.514 492.389 Q126.593 496.973 126.593 505.723 Q126.593 514.45 123.514 519.056 Q120.459 523.639 114.649 523.639 Q108.838 523.639 105.76 519.056 Q102.704 514.45 102.704 505.723 Q102.704 496.973 105.76 492.389 Q108.838 487.783 114.649 487.783 Z" fill="#000000" fill-rule="evenodd" fill-opacity="1" /><path clip-path="url(#clip740)" d="M134.811 517.088 L139.695 517.088 L139.695 522.968 L134.811 522.968 L134.811 517.088 Z" fill="#000000" fill-rule="evenodd" fill-opacity="1" /><path clip-path="url(#clip740)" d="M160.459 503.825 Q157.31 503.825 155.459 505.977 Q153.63 508.13 153.63 511.88 Q153.63 515.607 155.459 517.783 Q157.31 519.936 160.459 519.936 Q163.607 519.936 165.435 517.783 Q167.287 515.607 167.287 511.88 Q167.287 508.13 165.435 505.977 Q163.607 503.825 160.459 503.825 M169.741 489.172 L169.741 493.431 Q167.982 492.598 166.176 492.158 Q164.394 491.718 162.634 491.718 Q158.005 491.718 155.551 494.843 Q153.121 497.968 152.773 504.288 Q154.139 502.274 156.199 501.209 Q158.259 500.121 160.736 500.121 Q165.945 500.121 168.954 503.292 Q171.986 506.44 171.986 511.88 Q171.986 517.204 168.838 520.422 Q165.69 523.639 160.459 523.639 Q154.463 523.639 151.292 519.056 Q148.121 514.45 148.121 505.723 Q148.121 497.528 152.01 492.667 Q155.898 487.783 162.449 487.783 Q164.209 487.783 165.991 488.13 Q167.796 488.477 169.741 489.172 Z" fill="#000000" fill-rule="evenodd" fill-opacity="1" /><path clip-path="url(#clip740)" d="M115.713 345.575 Q112.102 345.575 110.274 349.139 Q108.468 352.681 108.468 359.811 Q108.468 366.917 110.274 370.482 Q112.102 374.024 115.713 374.024 Q119.348 374.024 121.153 370.482 Q122.982 366.917 122.982 359.811 Q122.982 352.681 121.153 349.139 Q119.348 345.575 115.713 345.575 M115.713 341.871 Q121.524 341.871 124.579 346.477 Q127.658 351.061 127.658 359.811 Q127.658 368.537 124.579 373.144 Q121.524 377.727 115.713 377.727 Q109.903 377.727 106.825 373.144 Q103.769 368.537 103.769 359.811 Q103.769 351.061 106.825 346.477 Q109.903 341.871 115.713 341.871 Z" fill="#000000" fill-rule="evenodd" fill-opacity="1" /><path clip-path="url(#clip740)" d="M135.875 371.176 L140.76 371.176 L140.76 377.056 L135.875 377.056 L135.875 371.176 Z" fill="#000000" fill-rule="evenodd" fill-opacity="1" /><path clip-path="url(#clip740)" d="M149.764 342.496 L171.986 342.496 L171.986 344.487 L159.44 377.056 L154.556 377.056 L166.361 346.431 L149.764 346.431 L149.764 342.496 Z" fill="#000000" fill-rule="evenodd" fill-opacity="1" /><path clip-path="url(#clip740)" d="M114.903 199.663 Q111.292 199.663 109.463 203.227 Q107.658 206.769 107.658 213.899 Q107.658 221.005 109.463 224.57 Q111.292 228.112 114.903 228.112 Q118.537 228.112 120.343 224.57 Q122.172 221.005 122.172 213.899 Q122.172 206.769 120.343 203.227 Q118.537 199.663 114.903 199.663 M114.903 195.959 Q120.713 195.959 123.769 200.565 Q126.848 205.149 126.848 213.899 Q126.848 222.625 123.769 227.232 Q120.713 231.815 114.903 231.815 Q109.093 231.815 106.014 227.232 Q102.959 222.625 102.959 213.899 Q102.959 205.149 106.014 200.565 Q109.093 195.959 114.903 195.959 Z" fill="#000000" fill-rule="evenodd" fill-opacity="1" /><path clip-path="url(#clip740)" d="M135.065 225.264 L139.949 225.264 L139.949 231.144 L135.065 231.144 L135.065 225.264 Z" fill="#000000" fill-rule="evenodd" fill-opacity="1" /><path clip-path="url(#clip740)" d="M160.134 214.732 Q156.801 214.732 154.88 216.514 Q152.982 218.297 152.982 221.422 Q152.982 224.547 154.88 226.329 Q156.801 228.112 160.134 228.112 Q163.468 228.112 165.389 226.329 Q167.31 224.524 167.31 221.422 Q167.31 218.297 165.389 216.514 Q163.491 214.732 160.134 214.732 M155.459 212.741 Q152.449 212.001 150.76 209.94 Q149.093 207.88 149.093 204.917 Q149.093 200.774 152.033 198.366 Q154.996 195.959 160.134 195.959 Q165.296 195.959 168.236 198.366 Q171.176 200.774 171.176 204.917 Q171.176 207.88 169.486 209.94 Q167.82 212.001 164.834 212.741 Q168.213 213.528 170.088 215.82 Q171.986 218.112 171.986 221.422 Q171.986 226.445 168.908 229.13 Q165.852 231.815 160.134 231.815 Q154.417 231.815 151.338 229.13 Q148.283 226.445 148.283 221.422 Q148.283 218.112 150.181 215.82 Q152.079 213.528 155.459 212.741 M153.746 205.357 Q153.746 208.042 155.412 209.547 Q157.102 211.051 160.134 211.051 Q163.144 211.051 164.834 209.547 Q166.546 208.042 166.546 205.357 Q166.546 202.672 164.834 201.167 Q163.144 199.663 160.134 199.663 Q157.102 199.663 155.412 201.167 Q153.746 202.672 153.746 205.357 Z" fill="#000000" fill-rule="evenodd" fill-opacity="1" /><path clip-path="url(#clip740)" d="M6.16376 765.146 L12.434 765.146 Q10.6834 768.806 9.82404 772.053 Q8.96467 775.299 8.96467 778.323 Q8.96467 783.575 11.0017 786.439 Q13.0387 789.272 16.7945 789.272 Q19.9455 789.272 21.5688 787.394 Q23.1602 785.484 24.1469 780.201 L24.9426 776.318 Q26.3112 769.124 29.7805 765.719 Q33.218 762.281 39.0108 762.281 Q45.9176 762.281 49.4824 766.928 Q53.0472 771.543 53.0472 780.487 Q53.0472 783.861 52.2833 787.681 Q51.5194 791.468 50.0235 795.542 L43.4031 795.542 Q45.5993 791.627 46.7133 787.872 Q47.8273 784.116 47.8273 780.487 Q47.8273 774.981 45.663 771.989 Q43.4986 768.997 39.4882 768.997 Q35.9871 768.997 34.0137 771.162 Q32.0404 773.294 31.0537 778.196 L30.2898 782.111 Q28.8575 789.304 25.802 792.518 Q22.7464 795.733 17.3037 795.733 Q11.0017 795.733 7.37324 791.309 Q3.74479 786.853 3.74479 779.055 Q3.74479 775.713 4.34953 772.244 Q4.95427 768.774 6.16376 765.146 Z" fill="#000000" fill-rule="evenodd" fill-opacity="1" /><path clip-path="url(#clip740)" d="M34.2047 736.309 Q34.2047 743.407 35.8279 746.144 Q37.4512 748.882 41.3661 748.882 Q44.4853 748.882 46.3314 746.845 Q48.1456 744.776 48.1456 741.243 Q48.1456 736.373 44.7081 733.445 Q41.2388 730.485 35.5097 730.485 L34.2047 730.485 L34.2047 736.309 M31.7857 724.628 L52.1242 724.628 L52.1242 730.485 L46.7133 730.485 Q49.9598 732.49 51.5194 735.482 Q53.0472 738.474 53.0472 742.802 Q53.0472 748.277 49.9916 751.523 Q46.9043 754.738 41.7481 754.738 Q35.7325 754.738 32.6769 750.728 Q29.6214 746.685 29.6214 738.696 L29.6214 730.485 L29.0485 730.485 Q25.0062 730.485 22.8101 733.158 Q20.5821 735.8 20.5821 740.606 Q20.5821 743.662 21.3141 746.558 Q22.0462 749.454 23.5103 752.128 L18.0995 752.128 Q16.8581 748.913 16.2534 745.89 Q15.6168 742.866 15.6168 740.001 Q15.6168 732.267 19.6272 728.448 Q23.6376 724.628 31.7857 724.628 Z" fill="#000000" fill-rule="evenodd" fill-opacity="1" /><path clip-path="url(#clip740)" d="M23.3193 684.811 Q19.3726 682.615 17.4947 679.559 Q15.6168 676.503 15.6168 672.366 Q15.6168 666.796 19.5317 663.772 Q23.4148 660.748 30.6081 660.748 L52.1242 660.748 L52.1242 666.637 L30.799 666.637 Q25.6746 666.637 23.192 668.451 Q20.7094 670.265 20.7094 673.989 Q20.7094 678.54 23.7331 681.182 Q26.7568 683.824 31.9767 683.824 L52.1242 683.824 L52.1242 689.712 L30.799 689.712 Q25.6428 689.712 23.192 691.527 Q20.7094 693.341 20.7094 697.128 Q20.7094 701.616 23.7649 704.258 Q26.7886 706.9 31.9767 706.9 L52.1242 706.9 L52.1242 712.788 L16.4762 712.788 L16.4762 706.9 L22.0144 706.9 Q18.736 704.895 17.1764 702.094 Q15.6168 699.293 15.6168 695.441 Q15.6168 691.558 17.5902 688.853 Q19.5636 686.116 23.3193 684.811 Z" fill="#000000" fill-rule="evenodd" fill-opacity="1" /><path clip-path="url(#clip740)" d="M46.777 643.402 L65.6831 643.402 L65.6831 649.29 L16.4762 649.29 L16.4762 643.402 L21.8871 643.402 Q18.7042 641.556 17.1764 638.755 Q15.6168 635.922 15.6168 632.007 Q15.6168 625.514 20.7731 621.472 Q25.9293 617.398 34.332 617.398 Q42.7347 617.398 47.891 621.472 Q53.0472 625.514 53.0472 632.007 Q53.0472 635.922 51.5194 638.755 Q49.9598 641.556 46.777 643.402 M34.332 623.477 Q27.8708 623.477 24.2105 626.151 Q20.5184 628.792 20.5184 633.439 Q20.5184 638.086 24.2105 640.76 Q27.8708 643.402 34.332 643.402 Q40.7932 643.402 44.4853 640.76 Q48.1456 638.086 48.1456 633.439 Q48.1456 628.792 44.4853 626.151 Q40.7932 623.477 34.332 623.477 Z" fill="#000000" fill-rule="evenodd" fill-opacity="1" /><path clip-path="url(#clip740)" d="M2.59896 607.69 L2.59896 601.834 L52.1242 601.834 L52.1242 607.69 L2.59896 607.69 Z" fill="#000000" fill-rule="evenodd" fill-opacity="1" /><path clip-path="url(#clip740)" d="M32.8361 559.088 L35.7006 559.088 L35.7006 586.015 Q41.7481 585.633 44.9309 582.386 Q48.0819 579.108 48.0819 573.284 Q48.0819 569.91 47.2544 566.759 Q46.4269 563.576 44.7718 560.457 L50.3099 560.457 Q51.6467 563.608 52.347 566.918 Q53.0472 570.228 53.0472 573.634 Q53.0472 582.164 48.0819 587.161 Q43.1167 592.126 34.6503 592.126 Q25.8974 592.126 20.7731 587.415 Q15.6168 582.673 15.6168 574.652 Q15.6168 567.459 20.2638 563.289 Q24.8789 559.088 32.8361 559.088 M31.1173 564.944 Q26.3112 565.008 23.4466 567.65 Q20.5821 570.26 20.5821 574.589 Q20.5821 579.49 23.3512 582.45 Q26.1202 585.378 31.1492 585.824 L31.1173 564.944 Z" fill="#000000" fill-rule="evenodd" fill-opacity="1" /><path clip-path="url(#clip740)" d="M16.4762 532.957 L16.4762 526.75 L46.395 515.61 L16.4762 504.47 L16.4762 498.264 L52.1242 511.632 L52.1242 519.589 L16.4762 532.957 Z" fill="#000000" fill-rule="evenodd" fill-opacity="1" /><path clip-path="url(#clip740)" d="M34.2047 473.979 Q34.2047 481.076 35.8279 483.814 Q37.4512 486.551 41.3661 486.551 Q44.4853 486.551 46.3314 484.514 Q48.1456 482.445 48.1456 478.912 Q48.1456 474.042 44.7081 471.114 Q41.2388 468.154 35.5097 468.154 L34.2047 468.154 L34.2047 473.979 M31.7857 462.297 L52.1242 462.297 L52.1242 468.154 L46.7133 468.154 Q49.9598 470.159 51.5194 473.151 Q53.0472 476.143 53.0472 480.472 Q53.0472 485.946 49.9916 489.193 Q46.9043 492.407 41.7481 492.407 Q35.7325 492.407 32.6769 488.397 Q29.6214 484.355 29.6214 476.366 L29.6214 468.154 L29.0485 468.154 Q25.0062 468.154 22.8101 470.827 Q20.5821 473.469 20.5821 478.275 Q20.5821 481.331 21.3141 484.227 Q22.0462 487.124 23.5103 489.797 L18.0995 489.797 Q16.8581 486.583 16.2534 483.559 Q15.6168 480.535 15.6168 477.671 Q15.6168 469.936 19.6272 466.117 Q23.6376 462.297 31.7857 462.297 Z" fill="#000000" fill-rule="evenodd" fill-opacity="1" /><path clip-path="url(#clip740)" d="M2.59896 450.234 L2.59896 444.378 L52.1242 444.378 L52.1242 450.234 L2.59896 450.234 Z" fill="#000000" fill-rule="evenodd" fill-opacity="1" /><path clip-path="url(#clip740)" d="M38.0559 432.729 L16.4762 432.729 L16.4762 426.872 L37.8331 426.872 Q42.8939 426.872 45.4402 424.899 Q47.9546 422.926 47.9546 418.979 Q47.9546 414.236 44.9309 411.499 Q41.9072 408.73 36.6873 408.73 L16.4762 408.73 L16.4762 402.874 L52.1242 402.874 L52.1242 408.73 L46.6496 408.73 Q49.8962 410.863 51.4876 413.695 Q53.0472 416.496 53.0472 420.22 Q53.0472 426.363 49.2278 429.546 Q45.4083 432.729 38.0559 432.729 M15.6168 417.992 L15.6168 417.992 Z" fill="#000000" fill-rule="evenodd" fill-opacity="1" /><path clip-path="url(#clip740)" d="M32.8361 360.319 L35.7006 360.319 L35.7006 387.246 Q41.7481 386.864 44.9309 383.617 Q48.0819 380.339 48.0819 374.514 Q48.0819 371.141 47.2544 367.989 Q46.4269 364.807 44.7718 361.687 L50.3099 361.687 Q51.6467 364.838 52.347 368.149 Q53.0472 371.459 53.0472 374.864 Q53.0472 383.395 48.0819 388.392 Q43.1167 393.357 34.6503 393.357 Q25.8974 393.357 20.7731 388.646 Q15.6168 383.904 15.6168 375.883 Q15.6168 368.69 20.2638 364.52 Q24.8789 360.319 32.8361 360.319 M31.1173 366.175 Q26.3112 366.239 23.4466 368.881 Q20.5821 371.491 20.5821 375.819 Q20.5821 380.721 23.3512 383.681 Q26.1202 386.609 31.1492 387.055 L31.1173 366.175 Z" fill="#000000" fill-rule="evenodd" fill-opacity="1" /><path clip-path="url(#clip740)" d="M599.885 14.324 L599.885 27.2059 L615.238 27.2059 L615.238 32.9987 L599.885 32.9987 L599.885 57.6282 Q599.885 63.1779 601.384 64.7578 Q602.924 66.3376 607.582 66.3376 L615.238 66.3376 L615.238 72.576 L607.582 72.576 Q598.954 72.576 595.672 69.3758 Q592.391 66.1351 592.391 57.6282 L592.391 32.9987 L586.923 32.9987 L586.923 27.2059 L592.391 27.2059 L592.391 14.324 L599.885 14.324 Z" fill="#000000" fill-rule="evenodd" fill-opacity="1" /><path clip-path="url(#clip740)" d="M662.755 45.1919 L662.755 72.576 L655.302 72.576 L655.302 45.4349 Q655.302 38.994 652.79 35.7938 Q650.279 32.5936 645.256 32.5936 Q639.22 32.5936 635.736 36.4419 Q632.252 40.2903 632.252 46.9338 L632.252 72.576 L624.758 72.576 L624.758 9.54393 L632.252 9.54393 L632.252 34.2544 Q634.926 30.163 638.531 28.1376 Q642.177 26.1121 646.916 26.1121 Q654.735 26.1121 658.745 30.9732 Q662.755 35.7938 662.755 45.1919 Z" fill="#000000" fill-rule="evenodd" fill-opacity="1" /><path clip-path="url(#clip740)" d="M716.43 48.0275 L716.43 51.6733 L682.159 51.6733 Q682.645 59.3701 686.777 63.421 Q690.95 67.4314 698.363 67.4314 Q702.657 67.4314 706.667 66.3781 Q710.718 65.3249 714.688 63.2184 L714.688 70.267 Q710.678 71.9684 706.465 72.8596 Q702.252 73.7508 697.917 73.7508 Q687.061 73.7508 680.701 67.4314 Q674.382 61.1119 674.382 50.3365 Q674.382 39.1965 680.377 32.6746 Q686.413 26.1121 696.621 26.1121 Q705.776 26.1121 711.083 32.0264 Q716.43 37.9003 716.43 48.0275 M708.976 45.84 Q708.895 39.7232 705.533 36.0774 Q702.211 32.4315 696.702 32.4315 Q690.464 32.4315 686.696 35.9558 Q682.969 39.4801 682.402 45.8805 L708.976 45.84 Z" fill="#000000" fill-rule="evenodd" fill-opacity="1" /><path clip-path="url(#clip740)" d="M736.036 14.324 L736.036 27.2059 L751.389 27.2059 L751.389 32.9987 L736.036 32.9987 L736.036 57.6282 Q736.036 63.1779 737.535 64.7578 Q739.074 66.3376 743.733 66.3376 L751.389 66.3376 L751.389 72.576 L743.733 72.576 Q735.105 72.576 731.823 69.3758 Q728.542 66.1351 728.542 57.6282 L728.542 32.9987 L723.073 32.9987 L723.073 27.2059 L728.542 27.2059 L728.542 14.324 L736.036 14.324 Z" fill="#000000" fill-rule="evenodd" fill-opacity="1" /><path clip-path="url(#clip740)" d="M781.812 49.7694 Q772.778 49.7694 769.294 51.8354 Q765.81 53.9013 765.81 58.8839 Q765.81 62.8538 768.403 65.2034 Q771.036 67.5124 775.533 67.5124 Q781.73 67.5124 785.457 63.1374 Q789.225 58.7219 789.225 51.4303 L789.225 49.7694 L781.812 49.7694 M796.678 46.6907 L796.678 72.576 L789.225 72.576 L789.225 65.6895 Q786.673 69.8214 782.865 71.8063 Q779.057 73.7508 773.548 73.7508 Q766.58 73.7508 762.448 69.8619 Q758.357 65.9325 758.357 59.3701 Q758.357 51.7138 763.461 47.825 Q768.606 43.9361 778.773 43.9361 L789.225 43.9361 L789.225 43.2069 Q789.225 38.0623 785.822 35.2672 Q782.46 32.4315 776.343 32.4315 Q772.454 32.4315 768.768 33.3632 Q765.081 34.295 761.679 36.1584 L761.679 29.2718 Q765.77 27.692 769.618 26.9223 Q773.467 26.1121 777.112 26.1121 Q786.956 26.1121 791.817 31.2163 Q796.678 36.3204 796.678 46.6907 Z" fill="#000000" fill-rule="evenodd" fill-opacity="1" /><polyline clip-path="url(#clip742)" style="stroke:#009af9; stroke-linecap:round; stroke-linejoin:round; stroke-width:4; stroke-opacity:1; fill:none" points="235.372,499.671 236.286,659.221 237.2,655.503 238.113,571.864 239.027,626.122 239.941,422.24 240.855,389.836 241.768,368.654 242.682,415.722 243.596,362.282 244.51,341.57 245.423,533.405 246.337,461.338 247.251,444.248 248.165,397.999 249.079,506.677 249.992,457.807 250.906,711.877 251.82,553.609 252.734,305.275 253.647,463.059 254.561,522.536 255.475,516.705 256.389,503.434 257.302,557.192 258.216,510.24 259.13,449.9 260.044,502.171 260.958,532.524 261.871,509.612 262.785,202.531 263.699,438.148 264.613,550.903 265.526,805.66 266.44,477.789 267.354,400.445 268.268,451.378 269.181,462.616 270.095,134.937 271.009,322.971 271.923,413.805 272.837,404.325 273.75,408.142 274.664,538.199 275.578,822.605 276.492,673.497 277.405,324.268 278.319,371.687 279.233,397.461 280.147,286.619 281.061,157.581 281.974,158.171 282.888,223.218 283.802,144.219 284.716,350.943 285.629,530.586 286.543,571.567 287.457,580.49 288.371,524.647 289.284,316.391 290.198,359.582 291.112,271.256 292.026,334.308 292.94,489.116 293.853,725.408 294.767,450.242 295.681,451.662 296.595,321.093 297.508,319.972 298.422,306.941 299.336,387.662 300.25,399.344 301.163,533.195 302.077,563.864 302.991,668.679 303.905,561.646 304.819,324.601 305.732,385.555 306.646,303.905 307.56,333.392 308.474,574.384 309.387,547.894 310.301,430.269 311.215,774.038 312.129,671.003 313.042,398.836 313.956,641.448 314.87,648.034 315.784,631.964 316.698,641.446 317.611,534.831 318.525,601.402 319.439,602.31 320.353,759.643 321.266,622.175 322.18,637.489 323.094,439.584 324.008,420.642 324.921,433.798 325.835,304.669 326.749,254.613 327.663,543.695 328.577,246.594 329.49,298.346 330.404,643.642 331.318,631.05 332.232,607.917 333.145,696.583 334.059,715.448 334.973,673.143 335.887,607.701 336.801,593.209 337.714,497.049 338.628,560.294 339.542,557.761 340.456,440.471 341.369,688.787 342.283,321.026 343.197,644.683 344.111,303.584 345.024,421.211 345.938,731.169 346.852,658.842 347.766,722.97 348.68,551.863 349.593,883.141 350.507,561.624 351.421,498.746 352.335,539.195 353.248,565.239 354.162,593.488 355.076,606.068 355.99,421.278 356.903,312.152 357.817,438.323 358.731,654.976 359.645,605.152 360.559,533.573 361.472,422.315 362.386,470.131 363.3,324.186 364.214,493.112 365.127,471.381 366.041,357.657 366.955,602.913 367.869,525.422 368.782,580.235 369.696,231.776 370.61,317.759 371.524,504.172 372.438,496.541 373.351,416.702 374.265,594.323 375.179,551.681 376.093,482.325 377.006,483.024 377.92,853.817 378.834,821.695 379.748,447.863 380.662,385.009 381.575,538.136 382.489,485.407 383.403,661.954 384.317,441.536 385.23,596.451 386.144,602.288 387.058,575.486 387.972,623.332 388.885,605.569 389.799,494.233 390.713,512.027 391.627,353.725 392.541,395.908 393.454,406.42 394.368,516.389 395.282,438.576 396.196,438.973 397.109,530.368 398.023,320.034 398.937,281.905 399.851,696.073 400.764,635.365 401.678,461.707 402.592,568.629 403.506,716.334 404.42,401.776 405.333,470.461 406.247,443.623 407.161,317.659 408.075,373.423 408.988,447.26 409.902,335.787 410.816,400.056 411.73,457.197 412.643,641.182 413.557,544.581 414.471,455.314 415.385,350.249 416.299,474.802 417.212,314.148 418.126,488.748 419.04,309.656 419.954,637.607 420.867,767.46 421.781,468.849 422.695,362.857 423.609,279.85 424.523,473.431 425.436,351.913 426.35,239.15 427.264,497.584 428.178,613.244 429.091,591.415 430.005,450.61 430.919,518.267 431.833,488.181 432.746,563.644 433.66,517.574 434.574,447.976 435.488,659.459 436.402,604.576 437.315,842.028 438.229,990.916 439.143,506.157 440.057,649.484 440.97,593.196 441.884,606.861 442.798,608.753 443.712,584.775 444.625,536.934 445.539,696.42 446.453,559.836 447.367,506.001 448.281,449.272 449.194,377.527 450.108,275.933 451.022,493.122 451.936,724.203 452.849,485.946 453.763,660.502 454.677,440.043 455.591,452.544 456.504,377.135 457.418,365.395 458.332,600.466 459.246,640.581 460.16,763.57 461.073,786.74 461.987,574.93 462.901,616.747 463.815,550.95 464.728,655.374 465.642,524.882 466.556,412.749 467.47,479.279 468.383,593.289 469.297,476.257 470.211,588.301 471.125,764.249 472.039,638.541 472.952,873.808 473.866,458.131 474.78,561.083 475.694,876.69 476.607,788.762 477.521,545.39 478.435,579.486 479.349,432.828 480.263,626.139 481.176,447.744 482.09,287.584 483.004,374.992 483.918,631.857 484.831,377.382 485.745,600.255 486.659,694.182 487.573,554.51 488.486,559.869 489.4,762.242 490.314,698.935 491.228,728.378 492.142,833.519 493.055,740.96 493.969,532.278 494.883,652.184 495.797,637.247 496.71,607.517 497.624,525.442 498.538,521.583 499.452,664.304 500.365,393.349 501.279,404.585 502.193,327.261 503.107,596.285 504.021,827.219 504.934,761.276 505.848,684.869 506.762,528.18 507.676,562.972 508.589,435.03 509.503,338.933 510.417,566.443 511.331,623.091 512.244,576.377 513.158,484.065 514.072,591.349 514.986,426.716 515.9,317.559 516.813,367.921 517.727,757.249 518.641,806.791 519.555,534.387 520.468,654.263 521.382,493.935 522.296,355.983 523.21,533.445 524.124,308.619 525.037,463.046 525.951,492.727 526.865,392.89 527.779,358.84 528.692,424.09 529.606,273.959 530.52,360.475 531.434,462.524 532.347,496.583 533.261,449.861 534.175,481.137 535.089,473.764 536.003,646.769 536.916,343.897 537.83,536 538.744,446.409 539.658,551.698 540.571,537.796 541.485,610.026 542.399,571.982 543.313,458.097 544.226,425.846 545.14,271.785 546.054,225.801 546.968,277.767 547.882,205.722 548.795,425.448 549.709,591.724 550.623,626.149 551.537,613.893 552.45,585.398 553.364,403.918 554.278,652.96 555.192,736.054 556.105,550.977 557.019,538.119 557.933,557.457 558.847,558.369 559.761,730.889 560.674,614.087 561.588,845.669 562.502,650.416 563.416,574.944 564.329,540.541 565.243,339.913 566.157,457.169 567.071,635.867 567.984,358.12 568.898,545.914 569.812,435.688 570.726,586.589 571.64,450.172 572.553,685.726 573.467,617.384 574.381,462.294 575.295,565.269 576.208,555.767 577.122,620.136 578.036,432.246 578.95,358.131 579.864,367.458 580.777,482.475 581.691,416.786 582.605,473.887 583.519,468.514 584.432,522.135 585.346,480.858 586.26,663.455 587.174,540.841 588.087,458.996 589.001,465.425 589.915,603.667 590.829,488.765 591.743,466.525 592.656,323.755 593.57,535.144 594.484,783.035 595.398,569.957 596.311,668.688 597.225,603.251 598.139,563.454 599.053,548.679 599.966,325.322 600.88,306.138 601.794,504.963 602.708,611.389 603.622,651.539 604.535,402.093 605.449,397.313 606.363,610.163 607.277,464.013 608.19,711.094 609.104,740.331 610.018,708.59 610.932,687.229 611.845,480.967 612.759,451.629 613.673,617.084 614.587,482.374 615.501,499.742 616.414,557.781 617.328,643.122 618.242,597.242 619.156,685.031 620.069,790.989 620.983,567.403 621.897,701.109 622.811,701.189 623.725,559.791 624.638,746.678 625.552,715.69 626.466,668.572 627.38,381.889 628.293,438.163 629.207,229.973 630.121,565.216 631.035,450.178 631.948,580.542 632.862,542.032 633.776,390.997 634.69,688.08 635.604,389.007 636.517,456.177 637.431,497.502 638.345,429.399 639.259,401.316 640.172,497.371 641.086,546.465 642,361.941 642.914,490.855 643.827,625.959 644.741,409.797 645.655,443.092 646.569,608.557 647.483,492.904 648.396,484.8 649.31,408.151 650.224,613.848 651.138,831.399 652.051,558.331 652.965,670.507 653.879,468.392 654.793,426.94 655.706,652.764 656.62,528.152 657.534,705.057 658.448,554.281 659.362,370.895 660.275,223.603 661.189,286.877 662.103,379.178 663.017,474.117 663.93,692.092 664.844,551.523 665.758,574.691 666.672,419.12 667.585,349.049 668.499,813.126 669.413,1021.11 670.327,831.544 671.241,753.868 672.154,377.717 673.068,580.1 673.982,403.023 674.896,396.28 675.809,519.695 676.723,549.023 677.637,430.142 678.551,636.128 679.465,736.455 680.378,735.662 681.292,822.439 682.206,607.611 683.12,404.701 684.033,505.789 684.947,427.518 685.861,420.613 686.775,505.154 687.688,583.603 688.602,671.648 689.516,426.043 690.43,460.363 691.344,549.175 692.257,559.446 693.171,400.228 694.085,721.573 694.999,711.412 695.912,358.114 696.826,389.086 697.74,239.305 698.654,482.905 699.567,497.473 700.481,284.19 701.395,518.656 702.309,696.013 703.223,645.794 704.136,430.082 705.05,261.995 705.964,424.007 706.878,400.548 707.791,305.03 708.705,283.329 709.619,266.444 710.533,744.335 711.446,444.415 712.36,586.229 713.274,550.646 714.188,658.567 715.102,572.874 716.015,522.603 716.929,430.907 717.843,585.162 718.757,664.845 719.67,411.088 720.584,436.772 721.498,663.724 722.412,561.418 723.326,492.475 724.239,312.691 725.153,595.94 726.067,378.319 726.981,538.447 727.894,633.234 728.808,318.608 729.722,211.238 730.636,202.892 731.549,406.525 732.463,507.011 733.377,649.227 734.291,832.202 735.205,677.804 736.118,444.459 737.032,331.442 737.946,631.653 738.86,452.243 739.773,284.38 740.687,244.26 741.601,496.768 742.515,762.747 743.428,750.712 744.342,474.317 745.256,581.006 746.17,863.474 747.084,467.75 747.997,516.423 748.911,548.051 749.825,491.891 750.739,545.449 751.652,580.17 752.566,503.32 753.48,432.628 754.394,480.183 755.307,304.177 756.221,464.653 757.135,503.039 758.049,342.374 758.963,617.169 759.876,464.922 760.79,385.853 761.704,497.668 762.618,363.19 763.531,360.856 764.445,544.464 765.359,369.139 766.273,559.213 767.187,916.884 768.1,617.193 769.014,650.418 769.928,572.093 770.842,656.165 771.755,480.377 772.669,516.716 773.583,581.399 774.497,476.606 775.41,606.601 776.324,521.11 777.238,724.127 778.152,561.223 779.066,556.332 779.979,918.218 780.893,712.995 781.807,700.808 782.721,736.718 783.634,548.83 784.548,471.942 785.462,558.166 786.376,359.452 787.289,549.008 788.203,620.168 789.117,804.986 790.031,701.236 790.945,729.766 791.858,613.181 792.772,662.961 793.686,614.807 794.6,411.961 795.513,412.649 796.427,521.839 797.341,386.333 798.255,479.258 799.168,524.697 800.082,501.997 800.996,293.625 801.91,213.381 802.824,365.786 803.737,605.902 804.651,686.388 805.565,570.385 806.479,394.087 807.392,529.68 808.306,519.179 809.22,623.575 810.134,569.304 811.047,337.534 811.961,343.285 812.875,507.614 813.789,256.645 814.703,488.691 815.616,471.807 816.53,623.972 817.444,603.706 818.358,730.014 819.271,541.046 820.185,582.607 821.099,468.369 822.013,315.59 822.927,364.302 823.84,657.912 824.754,467.439 825.668,565.797 826.582,689.917 827.495,761.274 828.409,797.802 829.323,477.37 830.237,702.769 831.15,667.042 832.064,408.872 832.978,424.032 833.892,691.159 834.806,853.661 835.719,582.23 836.633,464.053 837.547,661.776 838.461,526.028 839.374,418.052 840.288,523.514 841.202,593.122 842.116,392.805 843.029,497.736 843.943,627.418 844.857,444.96 845.771,231.17 846.685,703.603 847.598,625.761 848.512,637.625 849.426,412.788 850.34,527.682 851.253,596.86 852.167,264.6 853.081,186.974 853.995,332.209 854.908,331.861 855.822,500.299 856.736,782.757 857.65,694.555 858.564,678.025 859.477,393.455 860.391,885.474 861.305,540.416 862.219,246.278 863.132,240.938 864.046,338.959 864.96,794.01 865.874,618.801 866.788,367.954 867.701,509.038 868.615,587.862 869.529,638.495 870.443,709.047 871.356,596.179 872.27,638.328 873.184,513.191 874.098,446.797 875.011,540.248 875.925,293.417 876.839,401.248 877.753,292.051 878.667,145.436 879.58,305.978 880.494,474.126 881.408,681.064 882.322,445.042 883.235,806.59 884.149,804.312 885.063,862.561 885.977,684.563 886.89,482.106 887.804,196.997 888.718,402.858 889.632,453.072 890.546,407.391 891.459,392.691 892.373,566.015 893.287,439.016 894.201,292.815 895.114,588.456 896.028,486.434 896.942,301.727 897.856,366.308 898.769,469.224 899.683,360.254 900.597,666.087 901.511,673.26 902.425,663.077 903.338,592.786 904.252,503.021 905.166,241.55 906.08,574.875 906.993,424.921 907.907,540.991 908.821,540.991 909.735,597.106 910.648,662.045 911.562,832.81 912.476,747.929 913.39,469.734 914.304,499.305 915.217,553.575 916.131,652.489 917.045,505.355 917.959,523.438 918.872,758.991 919.786,423.223 920.7,349.474 921.614,439.597 922.528,574.62 923.441,559.821 924.355,524.246 925.269,324.55 926.183,545.616 927.096,545.616 928.01,582.549 928.924,534.666 929.838,646.225 930.751,778.598 931.665,719.824 932.579,735.2 933.493,631.848 934.407,524.104 935.32,701.365 936.234,397.552 937.148,600.394 938.062,534.546 938.975,482.754 939.889,385.711 940.803,238.546 941.717,478.229 942.63,528.36 943.544,534.898 944.458,234.31 945.372,227.653 946.286,351.051 947.199,458.441 948.113,352.507 949.027,332.335 949.941,290.501 950.854,303.233 951.768,381.074 952.682,370.371 953.596,463.881 954.509,383.698 955.423,201.56 956.337,320.212 957.251,379.532 958.165,405.056 959.078,434.013 959.992,336.191 960.906,302.329 961.82,390.301 962.733,375.292 963.647,539.277 964.561,493.551 965.475,697.149 966.389,453.049 967.302,370.044 968.216,522.112 969.13,502.471 970.044,763.006 970.957,540.515 971.871,693.52 972.785,627.705 973.699,662.477 974.612,568.338 975.526,521.92 976.44,675.856 977.354,632.718 978.268,582.842 979.181,569.442 980.095,715.829 981.009,394.564 981.923,417.649 982.836,502.071 983.75,362.062 984.664,371.854 985.578,562.149 986.491,441.172 987.405,646.645 988.319,519.304 989.233,311.072 990.147,382.696 991.06,646.294 991.974,434.084 992.888,604.424 993.802,664.005 994.715,589.49 995.629,797.713 996.543,422.236 997.457,367.869 998.37,516.449 999.284,344.037 1000.2,451.609 1001.11,453.331 1002.03,574.447 1002.94,494.365 1003.85,478.009 1004.77,665.617 1005.68,553.988 1006.59,742.612 1007.51,788.465 1008.42,735.816 1009.34,606.685 1010.25,574.072 1011.16,739.769 1012.08,795.944 1012.99,753.651 1013.9,639.071 1014.82,465.253 1015.73,731.569 1016.65,371.946 1017.56,651.537 1018.47,741.446 1019.39,847.96 1020.3,709.228 1021.21,490.657 1022.13,564.833 1023.04,459.22 1023.96,697.412 1024.87,476.211 1025.78,291.508 1026.7,605.832 1027.61,332.183 1028.52,234.947 1029.44,271.593 1030.35,149.458 1031.27,272.069 1032.18,331.391 1033.09,520.101 1034.01,374.986 1034.92,539.023 1035.84,641.184 1036.75,523.972 1037.66,674.89 1038.58,802.737 1039.49,744.683 1040.4,443.327 1041.32,374.779 1042.23,452.385 1043.15,166.655 1044.06,156.592 1044.97,268.073 1045.89,485.193 1046.8,590.762 1047.71,369.333 1048.63,490.842 1049.54,426.951 1050.46,553.485 1051.37,386.022 1052.28,531.915 1053.2,679.963 1054.11,598.827 1055.02,321.6 1055.94,333.676 1056.85,543.584 1057.77,378.096 1058.68,466.467 1059.59,620.432 1060.51,464.103 1061.42,409.483 1062.33,650.179 1063.25,589.254 1064.16,584.94 1065.08,636.789 1065.99,463.309 1066.9,646.82 1067.82,458.215 1068.73,718.721 1069.64,638.482 1070.56,485.951 1071.47,722.644 1072.39,708.859 1073.3,532.264 1074.21,244.737 1075.13,461.713 1076.04,536.162 1076.95,533.89 1077.87,675.481 1078.78,657.582 1079.7,374.783 1080.61,384.941 1081.52,226.058 1082.44,487.796 1083.35,782.812 1084.26,588.304 1085.18,478.754 1086.09,465.691 1087.01,574.903 1087.92,583.599 1088.83,540.898 1089.75,339.636 1090.66,282.719 1091.58,416.78 1092.49,414.423 1093.4,363.992 1094.32,390.292 1095.23,565.432 1096.14,529.298 1097.06,528.971 1097.97,640.815 1098.89,577.29 1099.8,497.057 1100.71,291.256 1101.63,522.946 1102.54,671.566 1103.45,685.261 1104.37,458.364 1105.28,480.908 1106.2,371.649 1107.11,732.387 1108.02,694.261 1108.94,586.025 1109.85,413.617 1110.76,380.458 1111.68,487.996 1112.59,323.543 1113.51,488.529 1114.42,342.596 1115.33,319.597 1116.25,345.438 1117.16,412.804 1118.07,883.027 1118.99,581.533 1119.9,512.563 1120.82,676.405 1121.73,733.684 1122.64,732.763 1123.56,443.568 1124.47,441.173 1125.38,556.315 1126.3,556.315 1127.21,492.055 1128.13,655.697 1129.04,582.189 1129.95,556.597 1130.87,401.082 1131.78,480.694 1132.69,431.179 1133.61,479.846 1134.52,589.957 1135.44,567.124 1136.35,641.595 1137.26,681.532 1138.18,816.413 1139.09,617.379 1140,390.339 1140.92,528.848 1141.83,667.336 1142.75,574.957 1143.66,646.962 1144.57,691.164 1145.49,449.011 1146.4,495.242 1147.32,628.807 1148.23,828.6 "/>
<path clip-path="url(#clip740)" d="M1385.13 1047.7 L2352.76 1047.7 L2352.76 108.352 L1385.13 108.352  Z" fill="#ffffff" fill-rule="evenodd" fill-opacity="1"/>
<defs>
  <clipPath id="clip743">
    <rect x="1385" y="108" width="969" height="940"/>
  </clipPath>
</defs>
<polyline clip-path="url(#clip743)" style="stroke:#000000; stroke-linecap:round; stroke-linejoin:round; stroke-width:2; stroke-opacity:0.1; fill:none" points="1488.1,1047.7 1488.1,108.352 "/>
<polyline clip-path="url(#clip743)" style="stroke:#000000; stroke-linecap:round; stroke-linejoin:round; stroke-width:2; stroke-opacity:0.1; fill:none" points="1640.18,1047.7 1640.18,108.352 "/>
<polyline clip-path="url(#clip743)" style="stroke:#000000; stroke-linecap:round; stroke-linejoin:round; stroke-width:2; stroke-opacity:0.1; fill:none" points="1792.26,1047.7 1792.26,108.352 "/>
<polyline clip-path="url(#clip743)" style="stroke:#000000; stroke-linecap:round; stroke-linejoin:round; stroke-width:2; stroke-opacity:0.1; fill:none" points="1944.34,1047.7 1944.34,108.352 "/>
<polyline clip-path="url(#clip743)" style="stroke:#000000; stroke-linecap:round; stroke-linejoin:round; stroke-width:2; stroke-opacity:0.1; fill:none" points="2096.42,1047.7 2096.42,108.352 "/>
<polyline clip-path="url(#clip743)" style="stroke:#000000; stroke-linecap:round; stroke-linejoin:round; stroke-width:2; stroke-opacity:0.1; fill:none" points="2248.5,1047.7 2248.5,108.352 "/>
<polyline clip-path="url(#clip740)" style="stroke:#000000; stroke-linecap:round; stroke-linejoin:round; stroke-width:4; stroke-opacity:1; fill:none" points="1385.13,1047.7 2352.76,1047.7 "/>
<polyline clip-path="url(#clip740)" style="stroke:#000000; stroke-linecap:round; stroke-linejoin:round; stroke-width:4; stroke-opacity:1; fill:none" points="1488.1,1047.7 1488.1,1028.8 "/>
<polyline clip-path="url(#clip740)" style="stroke:#000000; stroke-linecap:round; stroke-linejoin:round; stroke-width:4; stroke-opacity:1; fill:none" points="1640.18,1047.7 1640.18,1028.8 "/>
<polyline clip-path="url(#clip740)" style="stroke:#000000; stroke-linecap:round; stroke-linejoin:round; stroke-width:4; stroke-opacity:1; fill:none" points="1792.26,1047.7 1792.26,1028.8 "/>
<polyline clip-path="url(#clip740)" style="stroke:#000000; stroke-linecap:round; stroke-linejoin:round; stroke-width:4; stroke-opacity:1; fill:none" points="1944.34,1047.7 1944.34,1028.8 "/>
<polyline clip-path="url(#clip740)" style="stroke:#000000; stroke-linecap:round; stroke-linejoin:round; stroke-width:4; stroke-opacity:1; fill:none" points="2096.42,1047.7 2096.42,1028.8 "/>
<polyline clip-path="url(#clip740)" style="stroke:#000000; stroke-linecap:round; stroke-linejoin:round; stroke-width:4; stroke-opacity:1; fill:none" points="2248.5,1047.7 2248.5,1028.8 "/>
<path clip-path="url(#clip740)" d="M1465.81 1078.62 Q1462.2 1078.62 1460.37 1082.18 Q1458.56 1085.72 1458.56 1092.85 Q1458.56 1099.96 1460.37 1103.53 Q1462.2 1107.07 1465.81 1107.07 Q1469.44 1107.07 1471.25 1103.53 Q1473.08 1099.96 1473.08 1092.85 Q1473.08 1085.72 1471.25 1082.18 Q1469.44 1078.62 1465.81 1078.62 M1465.81 1074.91 Q1471.62 1074.91 1474.67 1079.52 Q1477.75 1084.1 1477.75 1092.85 Q1477.75 1101.58 1474.67 1106.19 Q1471.62 1110.77 1465.81 1110.77 Q1460 1110.77 1456.92 1106.19 Q1453.86 1101.58 1453.86 1092.85 Q1453.86 1084.1 1456.92 1079.52 Q1460 1074.91 1465.81 1074.91 Z" fill="#000000" fill-rule="evenodd" fill-opacity="1" /><path clip-path="url(#clip740)" d="M1485.97 1104.22 L1490.85 1104.22 L1490.85 1110.1 L1485.97 1110.1 L1485.97 1104.22 Z" fill="#000000" fill-rule="evenodd" fill-opacity="1" /><path clip-path="url(#clip740)" d="M1515.21 1091.47 Q1518.56 1092.18 1520.44 1094.45 Q1522.33 1096.72 1522.33 1100.05 Q1522.33 1105.17 1518.82 1107.97 Q1515.3 1110.77 1508.82 1110.77 Q1506.64 1110.77 1504.33 1110.33 Q1502.03 1109.91 1499.58 1109.06 L1499.58 1104.54 Q1501.52 1105.68 1503.84 1106.26 Q1506.15 1106.84 1508.68 1106.84 Q1513.08 1106.84 1515.37 1105.1 Q1517.68 1103.36 1517.68 1100.05 Q1517.68 1097 1515.53 1095.29 Q1513.4 1093.55 1509.58 1093.55 L1505.55 1093.55 L1505.55 1089.71 L1509.77 1089.71 Q1513.21 1089.71 1515.04 1088.34 Q1516.87 1086.95 1516.87 1084.36 Q1516.87 1081.7 1514.97 1080.29 Q1513.1 1078.85 1509.58 1078.85 Q1507.66 1078.85 1505.46 1079.27 Q1503.26 1079.68 1500.62 1080.56 L1500.62 1076.4 Q1503.28 1075.66 1505.6 1075.29 Q1507.94 1074.91 1510 1074.91 Q1515.32 1074.91 1518.42 1077.35 Q1521.52 1079.75 1521.52 1083.87 Q1521.52 1086.74 1519.88 1088.73 Q1518.24 1090.7 1515.21 1091.47 Z" fill="#000000" fill-rule="evenodd" fill-opacity="1" /><path clip-path="url(#clip740)" d="M1617.32 1078.62 Q1613.71 1078.62 1611.88 1082.18 Q1610.07 1085.72 1610.07 1092.85 Q1610.07 1099.96 1611.88 1103.53 Q1613.71 1107.07 1617.32 1107.07 Q1620.95 1107.07 1622.76 1103.53 Q1624.59 1099.96 1624.59 1092.85 Q1624.59 1085.72 1622.76 1082.18 Q1620.95 1078.62 1617.32 1078.62 M1617.32 1074.91 Q1623.13 1074.91 1626.19 1079.52 Q1629.26 1084.1 1629.26 1092.85 Q1629.26 1101.58 1626.19 1106.19 Q1623.13 1110.77 1617.32 1110.77 Q1611.51 1110.77 1608.43 1106.19 Q1605.38 1101.58 1605.38 1092.85 Q1605.38 1084.1 1608.43 1079.52 Q1611.51 1074.91 1617.32 1074.91 Z" fill="#000000" fill-rule="evenodd" fill-opacity="1" /><path clip-path="url(#clip740)" d="M1637.48 1104.22 L1642.37 1104.22 L1642.37 1110.1 L1637.48 1110.1 L1637.48 1104.22 Z" fill="#000000" fill-rule="evenodd" fill-opacity="1" /><path clip-path="url(#clip740)" d="M1665.4 1079.61 L1653.59 1098.06 L1665.4 1098.06 L1665.4 1079.61 M1664.17 1075.54 L1670.05 1075.54 L1670.05 1098.06 L1674.98 1098.06 L1674.98 1101.95 L1670.05 1101.95 L1670.05 1110.1 L1665.4 1110.1 L1665.4 1101.95 L1649.8 1101.95 L1649.8 1097.44 L1664.17 1075.54 Z" fill="#000000" fill-rule="evenodd" fill-opacity="1" /><path clip-path="url(#clip740)" d="M1770.14 1078.62 Q1766.53 1078.62 1764.7 1082.18 Q1762.89 1085.72 1762.89 1092.85 Q1762.89 1099.96 1764.7 1103.53 Q1766.53 1107.07 1770.14 1107.07 Q1773.77 1107.07 1775.58 1103.53 Q1777.41 1099.96 1777.41 1092.85 Q1777.41 1085.72 1775.58 1082.18 Q1773.77 1078.62 1770.14 1078.62 M1770.14 1074.91 Q1775.95 1074.91 1779.01 1079.52 Q1782.08 1084.1 1782.08 1092.85 Q1782.08 1101.58 1779.01 1106.19 Q1775.95 1110.77 1770.14 1110.77 Q1764.33 1110.77 1761.25 1106.19 Q1758.2 1101.58 1758.2 1092.85 Q1758.2 1084.1 1761.25 1079.52 Q1764.33 1074.91 1770.14 1074.91 Z" fill="#000000" fill-rule="evenodd" fill-opacity="1" /><path clip-path="url(#clip740)" d="M1790.3 1104.22 L1795.19 1104.22 L1795.19 1110.1 L1790.3 1110.1 L1790.3 1104.22 Z" fill="#000000" fill-rule="evenodd" fill-opacity="1" /><path clip-path="url(#clip740)" d="M1805.42 1075.54 L1823.77 1075.54 L1823.77 1079.48 L1809.7 1079.48 L1809.7 1087.95 Q1810.72 1087.6 1811.74 1087.44 Q1812.76 1087.25 1813.77 1087.25 Q1819.56 1087.25 1822.94 1090.42 Q1826.32 1093.6 1826.32 1099.01 Q1826.32 1104.59 1822.85 1107.69 Q1819.38 1110.77 1813.06 1110.77 Q1810.88 1110.77 1808.61 1110.4 Q1806.37 1110.03 1803.96 1109.29 L1803.96 1104.59 Q1806.04 1105.72 1808.26 1106.28 Q1810.49 1106.84 1812.96 1106.84 Q1816.97 1106.84 1819.31 1104.73 Q1821.64 1102.62 1821.64 1099.01 Q1821.64 1095.4 1819.31 1093.29 Q1816.97 1091.19 1812.96 1091.19 Q1811.09 1091.19 1809.21 1091.6 Q1807.36 1092.02 1805.42 1092.9 L1805.42 1075.54 Z" fill="#000000" fill-rule="evenodd" fill-opacity="1" /><path clip-path="url(#clip740)" d="M1921.64 1078.62 Q1918.03 1078.62 1916.2 1082.18 Q1914.4 1085.72 1914.4 1092.85 Q1914.4 1099.96 1916.2 1103.53 Q1918.03 1107.07 1921.64 1107.07 Q1925.27 1107.07 1927.08 1103.53 Q1928.91 1099.96 1928.91 1092.85 Q1928.91 1085.72 1927.08 1082.18 Q1925.27 1078.62 1921.64 1078.62 M1921.64 1074.91 Q1927.45 1074.91 1930.51 1079.52 Q1933.59 1084.1 1933.59 1092.85 Q1933.59 1101.58 1930.51 1106.19 Q1927.45 1110.77 1921.64 1110.77 Q1915.83 1110.77 1912.75 1106.19 Q1909.7 1101.58 1909.7 1092.85 Q1909.7 1084.1 1912.75 1079.52 Q1915.83 1074.91 1921.64 1074.91 Z" fill="#000000" fill-rule="evenodd" fill-opacity="1" /><path clip-path="url(#clip740)" d="M1941.8 1104.22 L1946.69 1104.22 L1946.69 1110.1 L1941.8 1110.1 L1941.8 1104.22 Z" fill="#000000" fill-rule="evenodd" fill-opacity="1" /><path clip-path="url(#clip740)" d="M1967.45 1090.96 Q1964.3 1090.96 1962.45 1093.11 Q1960.62 1095.26 1960.62 1099.01 Q1960.62 1102.74 1962.45 1104.91 Q1964.3 1107.07 1967.45 1107.07 Q1970.6 1107.07 1972.43 1104.91 Q1974.28 1102.74 1974.28 1099.01 Q1974.28 1095.26 1972.43 1093.11 Q1970.6 1090.96 1967.45 1090.96 M1976.73 1076.3 L1976.73 1080.56 Q1974.97 1079.73 1973.17 1079.29 Q1971.39 1078.85 1969.63 1078.85 Q1965 1078.85 1962.54 1081.97 Q1960.11 1085.1 1959.77 1091.42 Q1961.13 1089.41 1963.19 1088.34 Q1965.25 1087.25 1967.73 1087.25 Q1972.94 1087.25 1975.95 1090.42 Q1978.98 1093.57 1978.98 1099.01 Q1978.98 1104.34 1975.83 1107.55 Q1972.68 1110.77 1967.45 1110.77 Q1961.46 1110.77 1958.28 1106.19 Q1955.11 1101.58 1955.11 1092.85 Q1955.11 1084.66 1959 1079.8 Q1962.89 1074.91 1969.44 1074.91 Q1971.2 1074.91 1972.98 1075.26 Q1974.79 1075.61 1976.73 1076.3 Z" fill="#000000" fill-rule="evenodd" fill-opacity="1" /><path clip-path="url(#clip740)" d="M2074.25 1078.62 Q2070.64 1078.62 2068.81 1082.18 Q2067.01 1085.72 2067.01 1092.85 Q2067.01 1099.96 2068.81 1103.53 Q2070.64 1107.07 2074.25 1107.07 Q2077.89 1107.07 2079.69 1103.53 Q2081.52 1099.96 2081.52 1092.85 Q2081.52 1085.72 2079.69 1082.18 Q2077.89 1078.62 2074.25 1078.62 M2074.25 1074.91 Q2080.06 1074.91 2083.12 1079.52 Q2086.2 1084.1 2086.2 1092.85 Q2086.2 1101.58 2083.12 1106.19 Q2080.06 1110.77 2074.25 1110.77 Q2068.44 1110.77 2065.36 1106.19 Q2062.31 1101.58 2062.31 1092.85 Q2062.31 1084.1 2065.36 1079.52 Q2068.44 1074.91 2074.25 1074.91 Z" fill="#000000" fill-rule="evenodd" fill-opacity="1" /><path clip-path="url(#clip740)" d="M2094.41 1104.22 L2099.3 1104.22 L2099.3 1110.1 L2094.41 1110.1 L2094.41 1104.22 Z" fill="#000000" fill-rule="evenodd" fill-opacity="1" /><path clip-path="url(#clip740)" d="M2108.3 1075.54 L2130.53 1075.54 L2130.53 1077.53 L2117.98 1110.1 L2113.09 1110.1 L2124.9 1079.48 L2108.3 1079.48 L2108.3 1075.54 Z" fill="#000000" fill-rule="evenodd" fill-opacity="1" /><path clip-path="url(#clip740)" d="M2225.93 1078.62 Q2222.32 1078.62 2220.49 1082.18 Q2218.68 1085.72 2218.68 1092.85 Q2218.68 1099.96 2220.49 1103.53 Q2222.32 1107.07 2225.93 1107.07 Q2229.56 1107.07 2231.37 1103.53 Q2233.2 1099.96 2233.2 1092.85 Q2233.2 1085.72 2231.37 1082.18 Q2229.56 1078.62 2225.93 1078.62 M2225.93 1074.91 Q2231.74 1074.91 2234.79 1079.52 Q2237.87 1084.1 2237.87 1092.85 Q2237.87 1101.58 2234.79 1106.19 Q2231.74 1110.77 2225.93 1110.77 Q2220.12 1110.77 2217.04 1106.19 Q2213.98 1101.58 2213.98 1092.85 Q2213.98 1084.1 2217.04 1079.52 Q2220.12 1074.91 2225.93 1074.91 Z" fill="#000000" fill-rule="evenodd" fill-opacity="1" /><path clip-path="url(#clip740)" d="M2246.09 1104.22 L2250.97 1104.22 L2250.97 1110.1 L2246.09 1110.1 L2246.09 1104.22 Z" fill="#000000" fill-rule="evenodd" fill-opacity="1" /><path clip-path="url(#clip740)" d="M2271.16 1093.69 Q2267.82 1093.69 2265.9 1095.47 Q2264.01 1097.25 2264.01 1100.38 Q2264.01 1103.5 2265.9 1105.29 Q2267.82 1107.07 2271.16 1107.07 Q2274.49 1107.07 2276.41 1105.29 Q2278.33 1103.48 2278.33 1100.38 Q2278.33 1097.25 2276.41 1095.47 Q2274.51 1093.69 2271.16 1093.69 M2266.48 1091.7 Q2263.47 1090.96 2261.78 1088.9 Q2260.12 1086.84 2260.12 1083.87 Q2260.12 1079.73 2263.06 1077.32 Q2266.02 1074.91 2271.16 1074.91 Q2276.32 1074.91 2279.26 1077.32 Q2282.2 1079.73 2282.2 1083.87 Q2282.2 1086.84 2280.51 1088.9 Q2278.84 1090.96 2275.86 1091.7 Q2279.24 1092.48 2281.11 1094.78 Q2283.01 1097.07 2283.01 1100.38 Q2283.01 1105.4 2279.93 1108.09 Q2276.88 1110.77 2271.16 1110.77 Q2265.44 1110.77 2262.36 1108.09 Q2259.31 1105.4 2259.31 1100.38 Q2259.31 1097.07 2261.2 1094.78 Q2263.1 1092.48 2266.48 1091.7 M2264.77 1084.31 Q2264.77 1087 2266.44 1088.5 Q2268.13 1090.01 2271.16 1090.01 Q2274.17 1090.01 2275.86 1088.5 Q2277.57 1087 2277.57 1084.31 Q2277.57 1081.63 2275.86 1080.12 Q2274.17 1078.62 2271.16 1078.62 Q2268.13 1078.62 2266.44 1080.12 Q2264.77 1081.63 2264.77 1084.31 Z" fill="#000000" fill-rule="evenodd" fill-opacity="1" /><path clip-path="url(#clip740)" d="M1681.82 1146.6 L1681.82 1152.87 Q1678.16 1151.12 1674.92 1150.26 Q1671.67 1149.4 1668.64 1149.4 Q1663.39 1149.4 1660.53 1151.44 Q1657.7 1153.48 1657.7 1157.23 Q1657.7 1160.39 1659.57 1162.01 Q1661.48 1163.6 1666.77 1164.59 L1670.65 1165.38 Q1677.84 1166.75 1681.25 1170.22 Q1684.69 1173.66 1684.69 1179.45 Q1684.69 1186.36 1680.04 1189.92 Q1675.42 1193.49 1666.48 1193.49 Q1663.11 1193.49 1659.29 1192.72 Q1655.5 1191.96 1651.43 1190.46 L1651.43 1183.84 Q1655.34 1186.04 1659.1 1187.15 Q1662.85 1188.27 1666.48 1188.27 Q1671.99 1188.27 1674.98 1186.1 Q1677.97 1183.94 1677.97 1179.93 Q1677.97 1176.43 1675.81 1174.45 Q1673.67 1172.48 1668.77 1171.49 L1664.86 1170.73 Q1657.66 1169.3 1654.45 1166.24 Q1651.23 1163.19 1651.23 1157.74 Q1651.23 1151.44 1655.66 1147.81 Q1660.11 1144.18 1667.91 1144.18 Q1671.25 1144.18 1674.72 1144.79 Q1678.19 1145.39 1681.82 1146.6 Z" fill="#000000" fill-rule="evenodd" fill-opacity="1" /><path clip-path="url(#clip740)" d="M1710.66 1174.64 Q1703.56 1174.64 1700.82 1176.27 Q1698.09 1177.89 1698.09 1181.81 Q1698.09 1184.92 1700.12 1186.77 Q1702.19 1188.59 1705.73 1188.59 Q1710.59 1188.59 1713.52 1185.15 Q1716.48 1181.68 1716.48 1175.95 L1716.48 1174.64 L1710.66 1174.64 M1722.34 1172.23 L1722.34 1192.56 L1716.48 1192.56 L1716.48 1187.15 Q1714.48 1190.4 1711.49 1191.96 Q1708.49 1193.49 1704.17 1193.49 Q1698.69 1193.49 1695.44 1190.43 Q1692.23 1187.34 1692.23 1182.19 Q1692.23 1176.17 1696.24 1173.12 Q1700.28 1170.06 1708.27 1170.06 L1716.48 1170.06 L1716.48 1169.49 Q1716.48 1165.45 1713.81 1163.25 Q1711.17 1161.02 1706.36 1161.02 Q1703.31 1161.02 1700.41 1161.75 Q1697.51 1162.49 1694.84 1163.95 L1694.84 1158.54 Q1698.05 1157.3 1701.08 1156.69 Q1704.1 1156.06 1706.97 1156.06 Q1714.7 1156.06 1718.52 1160.07 Q1722.34 1164.08 1722.34 1172.23 Z" fill="#000000" fill-rule="evenodd" fill-opacity="1" /><path clip-path="url(#clip740)" d="M1762.16 1163.76 Q1764.35 1159.81 1767.41 1157.93 Q1770.46 1156.06 1774.6 1156.06 Q1780.17 1156.06 1783.2 1159.97 Q1786.22 1163.85 1786.22 1171.05 L1786.22 1192.56 L1780.33 1192.56 L1780.33 1171.24 Q1780.33 1166.11 1778.52 1163.63 Q1776.7 1161.15 1772.98 1161.15 Q1768.43 1161.15 1765.79 1164.17 Q1763.14 1167.2 1763.14 1172.42 L1763.14 1192.56 L1757.26 1192.56 L1757.26 1171.24 Q1757.26 1166.08 1755.44 1163.63 Q1753.63 1161.15 1749.84 1161.15 Q1745.35 1161.15 1742.71 1164.2 Q1740.07 1167.23 1740.07 1172.42 L1740.07 1192.56 L1734.18 1192.56 L1734.18 1156.92 L1740.07 1156.92 L1740.07 1162.45 Q1742.07 1159.18 1744.87 1157.62 Q1747.68 1156.06 1751.53 1156.06 Q1755.41 1156.06 1758.11 1158.03 Q1760.85 1160 1762.16 1163.76 Z" fill="#000000" fill-rule="evenodd" fill-opacity="1" /><path clip-path="url(#clip740)" d="M1803.57 1187.22 L1803.57 1206.12 L1797.68 1206.12 L1797.68 1156.92 L1803.57 1156.92 L1803.57 1162.33 Q1805.41 1159.14 1808.21 1157.62 Q1811.05 1156.06 1814.96 1156.06 Q1821.45 1156.06 1825.5 1161.21 Q1829.57 1166.37 1829.57 1174.77 Q1829.57 1183.17 1825.5 1188.33 Q1821.45 1193.49 1814.96 1193.49 Q1811.05 1193.49 1808.21 1191.96 Q1805.41 1190.4 1803.57 1187.22 M1823.49 1174.77 Q1823.49 1168.31 1820.82 1164.65 Q1818.18 1160.96 1813.53 1160.96 Q1808.88 1160.96 1806.21 1164.65 Q1803.57 1168.31 1803.57 1174.77 Q1803.57 1181.23 1806.21 1184.92 Q1808.88 1188.59 1813.53 1188.59 Q1818.18 1188.59 1820.82 1184.92 Q1823.49 1181.23 1823.49 1174.77 Z" fill="#000000" fill-rule="evenodd" fill-opacity="1" /><path clip-path="url(#clip740)" d="M1839.28 1143.04 L1845.13 1143.04 L1845.13 1192.56 L1839.28 1192.56 L1839.28 1143.04 Z" fill="#000000" fill-rule="evenodd" fill-opacity="1" /><path clip-path="url(#clip740)" d="M1887.88 1173.28 L1887.88 1176.14 L1860.95 1176.14 Q1861.33 1182.19 1864.58 1185.37 Q1867.86 1188.52 1873.68 1188.52 Q1877.06 1188.52 1880.21 1187.69 Q1883.39 1186.87 1886.51 1185.21 L1886.51 1190.75 Q1883.36 1192.09 1880.05 1192.79 Q1876.74 1193.49 1873.33 1193.49 Q1864.8 1193.49 1859.81 1188.52 Q1854.84 1183.56 1854.84 1175.09 Q1854.84 1166.34 1859.55 1161.21 Q1864.29 1156.06 1872.32 1156.06 Q1879.51 1156.06 1883.68 1160.7 Q1887.88 1165.32 1887.88 1173.28 M1882.02 1171.56 Q1881.96 1166.75 1879.32 1163.89 Q1876.71 1161.02 1872.38 1161.02 Q1867.48 1161.02 1864.52 1163.79 Q1861.59 1166.56 1861.14 1171.59 L1882.02 1171.56 Z" fill="#000000" fill-rule="evenodd" fill-opacity="1" /><path clip-path="url(#clip740)" d="M1914.01 1156.92 L1920.22 1156.92 L1931.36 1186.83 L1942.5 1156.92 L1948.7 1156.92 L1935.34 1192.56 L1927.38 1192.56 L1914.01 1156.92 Z" fill="#000000" fill-rule="evenodd" fill-opacity="1" /><path clip-path="url(#clip740)" d="M1972.99 1174.64 Q1965.89 1174.64 1963.15 1176.27 Q1960.42 1177.89 1960.42 1181.81 Q1960.42 1184.92 1962.45 1186.77 Q1964.52 1188.59 1968.06 1188.59 Q1972.93 1188.59 1975.85 1185.15 Q1978.81 1181.68 1978.81 1175.95 L1978.81 1174.64 L1972.99 1174.64 M1984.67 1172.23 L1984.67 1192.56 L1978.81 1192.56 L1978.81 1187.15 Q1976.81 1190.4 1973.82 1191.96 Q1970.82 1193.49 1966.5 1193.49 Q1961.02 1193.49 1957.78 1190.43 Q1954.56 1187.34 1954.56 1182.19 Q1954.56 1176.17 1958.57 1173.12 Q1962.61 1170.06 1970.6 1170.06 L1978.81 1170.06 L1978.81 1169.49 Q1978.81 1165.45 1976.14 1163.25 Q1973.5 1161.02 1968.69 1161.02 Q1965.64 1161.02 1962.74 1161.75 Q1959.84 1162.49 1957.17 1163.95 L1957.17 1158.54 Q1960.39 1157.3 1963.41 1156.69 Q1966.43 1156.06 1969.3 1156.06 Q1977.03 1156.06 1980.85 1160.07 Q1984.67 1164.08 1984.67 1172.23 Z" fill="#000000" fill-rule="evenodd" fill-opacity="1" /><path clip-path="url(#clip740)" d="M1996.73 1143.04 L2002.59 1143.04 L2002.59 1192.56 L1996.73 1192.56 L1996.73 1143.04 Z" fill="#000000" fill-rule="evenodd" fill-opacity="1" /><path clip-path="url(#clip740)" d="M2014.24 1178.5 L2014.24 1156.92 L2020.1 1156.92 L2020.1 1178.27 Q2020.1 1183.33 2022.07 1185.88 Q2024.04 1188.39 2027.99 1188.39 Q2032.73 1188.39 2035.47 1185.37 Q2038.24 1182.35 2038.24 1177.13 L2038.24 1156.92 L2044.09 1156.92 L2044.09 1192.56 L2038.24 1192.56 L2038.24 1187.09 Q2036.11 1190.34 2033.27 1191.93 Q2030.47 1193.49 2026.75 1193.49 Q2020.6 1193.49 2017.42 1189.67 Q2014.24 1185.85 2014.24 1178.5 M2028.98 1156.06 L2028.98 1156.06 Z" fill="#000000" fill-rule="evenodd" fill-opacity="1" /><path clip-path="url(#clip740)" d="M2086.65 1173.28 L2086.65 1176.14 L2059.72 1176.14 Q2060.1 1182.19 2063.35 1185.37 Q2066.63 1188.52 2072.45 1188.52 Q2075.83 1188.52 2078.98 1187.69 Q2082.16 1186.87 2085.28 1185.21 L2085.28 1190.75 Q2082.13 1192.09 2078.82 1192.79 Q2075.51 1193.49 2072.1 1193.49 Q2063.57 1193.49 2058.58 1188.52 Q2053.61 1183.56 2053.61 1175.09 Q2053.61 1166.34 2058.32 1161.21 Q2063.06 1156.06 2071.08 1156.06 Q2078.28 1156.06 2082.45 1160.7 Q2086.65 1165.32 2086.65 1173.28 M2080.79 1171.56 Q2080.73 1166.75 2078.09 1163.89 Q2075.48 1161.02 2071.15 1161.02 Q2066.25 1161.02 2063.29 1163.79 Q2060.36 1166.56 2059.91 1171.59 L2080.79 1171.56 Z" fill="#000000" fill-rule="evenodd" fill-opacity="1" /><polyline clip-path="url(#clip743)" style="stroke:#000000; stroke-linecap:round; stroke-linejoin:round; stroke-width:2; stroke-opacity:0.1; fill:none" points="1385.13,1028.46 2352.76,1028.46 "/>
<polyline clip-path="url(#clip743)" style="stroke:#000000; stroke-linecap:round; stroke-linejoin:round; stroke-width:2; stroke-opacity:0.1; fill:none" points="1385.13,789.843 2352.76,789.843 "/>
<polyline clip-path="url(#clip743)" style="stroke:#000000; stroke-linecap:round; stroke-linejoin:round; stroke-width:2; stroke-opacity:0.1; fill:none" points="1385.13,551.23 2352.76,551.23 "/>
<polyline clip-path="url(#clip743)" style="stroke:#000000; stroke-linecap:round; stroke-linejoin:round; stroke-width:2; stroke-opacity:0.1; fill:none" points="1385.13,312.617 2352.76,312.617 "/>
<polyline clip-path="url(#clip740)" style="stroke:#000000; stroke-linecap:round; stroke-linejoin:round; stroke-width:4; stroke-opacity:1; fill:none" points="1385.13,1047.7 1385.13,108.352 "/>
<polyline clip-path="url(#clip740)" style="stroke:#000000; stroke-linecap:round; stroke-linejoin:round; stroke-width:4; stroke-opacity:1; fill:none" points="1385.13,1028.46 1404.03,1028.46 "/>
<polyline clip-path="url(#clip740)" style="stroke:#000000; stroke-linecap:round; stroke-linejoin:round; stroke-width:4; stroke-opacity:1; fill:none" points="1385.13,789.843 1404.03,789.843 "/>
<polyline clip-path="url(#clip740)" style="stroke:#000000; stroke-linecap:round; stroke-linejoin:round; stroke-width:4; stroke-opacity:1; fill:none" points="1385.13,551.23 1404.03,551.23 "/>
<polyline clip-path="url(#clip740)" style="stroke:#000000; stroke-linecap:round; stroke-linejoin:round; stroke-width:4; stroke-opacity:1; fill:none" points="1385.13,312.617 1404.03,312.617 "/>
<path clip-path="url(#clip740)" d="M1337.18 1014.26 Q1333.57 1014.26 1331.74 1017.82 Q1329.94 1021.36 1329.94 1028.49 Q1329.94 1035.6 1331.74 1039.16 Q1333.57 1042.7 1337.18 1042.7 Q1340.82 1042.7 1342.62 1039.16 Q1344.45 1035.6 1344.45 1028.49 Q1344.45 1021.36 1342.62 1017.82 Q1340.82 1014.26 1337.18 1014.26 M1337.18 1010.55 Q1342.99 1010.55 1346.05 1015.16 Q1349.13 1019.74 1349.13 1028.49 Q1349.13 1037.22 1346.05 1041.82 Q1342.99 1046.41 1337.18 1046.41 Q1331.37 1046.41 1328.29 1041.82 Q1325.24 1037.22 1325.24 1028.49 Q1325.24 1019.74 1328.29 1015.16 Q1331.37 1010.55 1337.18 1010.55 Z" fill="#000000" fill-rule="evenodd" fill-opacity="1" /><path clip-path="url(#clip740)" d="M1329.22 803.188 L1336.86 803.188 L1336.86 776.823 L1328.55 778.489 L1328.55 774.23 L1336.81 772.563 L1341.49 772.563 L1341.49 803.188 L1349.13 803.188 L1349.13 807.123 L1329.22 807.123 L1329.22 803.188 Z" fill="#000000" fill-rule="evenodd" fill-opacity="1" /><path clip-path="url(#clip740)" d="M1332.81 564.575 L1349.13 564.575 L1349.13 568.51 L1327.18 568.51 L1327.18 564.575 Q1329.85 561.82 1334.43 557.191 Q1339.04 552.538 1340.22 551.195 Q1342.46 548.672 1343.34 546.936 Q1344.24 545.177 1344.24 543.487 Q1344.24 540.733 1342.3 538.996 Q1340.38 537.26 1337.28 537.26 Q1335.08 537.26 1332.62 538.024 Q1330.19 538.788 1327.41 540.339 L1327.41 535.617 Q1330.24 534.483 1332.69 533.904 Q1335.15 533.325 1337.18 533.325 Q1342.55 533.325 1345.75 536.01 Q1348.94 538.696 1348.94 543.186 Q1348.94 545.316 1348.13 547.237 Q1347.35 549.135 1345.24 551.728 Q1344.66 552.399 1341.56 555.617 Q1338.46 558.811 1332.81 564.575 Z" fill="#000000" fill-rule="evenodd" fill-opacity="1" /><path clip-path="url(#clip740)" d="M1342 311.263 Q1345.35 311.98 1347.23 314.249 Q1349.13 316.517 1349.13 319.851 Q1349.13 324.966 1345.61 327.767 Q1342.09 330.568 1335.61 330.568 Q1333.43 330.568 1331.12 330.128 Q1328.83 329.712 1326.37 328.855 L1326.37 324.341 Q1328.32 325.476 1330.63 326.054 Q1332.95 326.633 1335.47 326.633 Q1339.87 326.633 1342.16 324.897 Q1344.47 323.161 1344.47 319.851 Q1344.47 316.795 1342.32 315.082 Q1340.19 313.346 1336.37 313.346 L1332.35 313.346 L1332.35 309.504 L1336.56 309.504 Q1340.01 309.504 1341.84 308.138 Q1343.66 306.749 1343.66 304.156 Q1343.66 301.494 1341.77 300.082 Q1339.89 298.647 1336.37 298.647 Q1334.45 298.647 1332.25 299.064 Q1330.05 299.48 1327.41 300.36 L1327.41 296.193 Q1330.08 295.453 1332.39 295.082 Q1334.73 294.712 1336.79 294.712 Q1342.11 294.712 1345.22 297.142 Q1348.32 299.55 1348.32 303.67 Q1348.32 306.541 1346.67 308.531 Q1345.03 310.499 1342 311.263 Z" fill="#000000" fill-rule="evenodd" fill-opacity="1" /><path clip-path="url(#clip740)" d="M1232.75 691.336 L1269.7 691.336 L1269.7 683.569 Q1269.7 673.734 1265.24 669.183 Q1260.79 664.6 1251.18 664.6 Q1241.63 664.6 1237.2 669.183 Q1232.75 673.734 1232.75 683.569 L1232.75 691.336 M1227.46 697.765 L1227.46 684.556 Q1227.46 670.743 1233.22 664.281 Q1238.95 657.82 1251.18 657.82 Q1263.46 657.82 1269.22 664.313 Q1274.98 670.806 1274.98 684.556 L1274.98 697.765 L1227.46 697.765 Z" fill="#000000" fill-rule="evenodd" fill-opacity="1" /><path clip-path="url(#clip740)" d="M1255.69 617.334 L1258.56 617.334 L1258.56 644.261 Q1264.61 643.879 1267.79 640.633 Q1270.94 637.354 1270.94 631.53 Q1270.94 628.156 1270.11 625.005 Q1269.29 621.822 1267.63 618.703 L1273.17 618.703 Q1274.51 621.854 1275.21 625.164 Q1275.91 628.474 1275.91 631.88 Q1275.91 640.41 1270.94 645.407 Q1265.98 650.372 1257.51 650.372 Q1248.76 650.372 1243.63 645.662 Q1238.48 640.919 1238.48 632.898 Q1238.48 625.705 1243.12 621.536 Q1247.74 617.334 1255.69 617.334 M1253.98 623.191 Q1249.17 623.254 1246.31 625.896 Q1243.44 628.506 1243.44 632.835 Q1243.44 637.736 1246.21 640.696 Q1248.98 643.625 1254.01 644.07 L1253.98 623.191 Z" fill="#000000" fill-rule="evenodd" fill-opacity="1" /><path clip-path="url(#clip740)" d="M1253.47 578.09 L1274.98 578.09 L1274.98 583.946 L1253.66 583.946 Q1248.6 583.946 1246.08 585.919 Q1243.57 587.893 1243.57 591.84 Q1243.57 596.582 1246.59 599.319 Q1249.62 602.057 1254.84 602.057 L1274.98 602.057 L1274.98 607.945 L1239.33 607.945 L1239.33 602.057 L1244.87 602.057 Q1241.66 599.956 1240.07 597.123 Q1238.48 594.259 1238.48 590.535 Q1238.48 584.392 1242.29 581.241 Q1246.08 578.09 1253.47 578.09 Z" fill="#000000" fill-rule="evenodd" fill-opacity="1" /><path clip-path="url(#clip740)" d="M1240.39 543.683 L1245.92 543.683 Q1244.65 546.166 1244.01 548.839 Q1243.38 551.513 1243.38 554.377 Q1243.38 558.738 1244.71 560.934 Q1246.05 563.098 1248.72 563.098 Q1250.76 563.098 1251.94 561.539 Q1253.08 559.979 1254.14 555.269 L1254.58 553.263 Q1255.92 547.025 1258.37 544.415 Q1260.79 541.773 1265.15 541.773 Q1270.11 541.773 1273.01 545.72 Q1275.91 549.635 1275.91 556.51 Q1275.91 559.374 1275.33 562.494 Q1274.79 565.581 1273.68 569.019 L1267.63 569.019 Q1269.32 565.772 1270.18 562.621 Q1271 559.47 1271 556.383 Q1271 552.245 1269.6 550.017 Q1268.17 547.789 1265.59 547.789 Q1263.21 547.789 1261.93 549.412 Q1260.66 551.004 1259.48 556.446 L1259 558.483 Q1257.86 563.926 1255.5 566.345 Q1253.12 568.764 1248.98 568.764 Q1243.95 568.764 1241.21 565.199 Q1238.48 561.634 1238.48 555.078 Q1238.48 551.831 1238.95 548.967 Q1239.43 546.102 1240.39 543.683 Z" fill="#000000" fill-rule="evenodd" fill-opacity="1" /><path clip-path="url(#clip740)" d="M1239.33 532.448 L1239.33 526.591 L1274.98 526.591 L1274.98 532.448 L1239.33 532.448 M1225.46 532.448 L1225.46 526.591 L1232.87 526.591 L1232.87 532.448 L1225.46 532.448 Z" fill="#000000" fill-rule="evenodd" fill-opacity="1" /><path clip-path="url(#clip740)" d="M1229.21 508.544 L1239.33 508.544 L1239.33 496.481 L1243.89 496.481 L1243.89 508.544 L1263.24 508.544 Q1267.6 508.544 1268.84 507.367 Q1270.08 506.157 1270.08 502.497 L1270.08 496.481 L1274.98 496.481 L1274.98 502.497 Q1274.98 509.276 1272.47 511.854 Q1269.92 514.433 1263.24 514.433 L1243.89 514.433 L1243.89 518.729 L1239.33 518.729 L1239.33 514.433 L1229.21 514.433 L1229.21 508.544 Z" fill="#000000" fill-rule="evenodd" fill-opacity="1" /><path clip-path="url(#clip740)" d="M1278.29 473.947 Q1284.66 476.429 1286.6 478.785 Q1288.54 481.14 1288.54 485.087 L1288.54 489.765 L1283.64 489.765 L1283.64 486.328 Q1283.64 483.909 1282.49 482.572 Q1281.35 481.235 1277.08 479.612 L1274.41 478.562 L1239.33 492.98 L1239.33 486.774 L1267.22 475.634 L1239.33 464.494 L1239.33 458.287 L1278.29 473.947 Z" fill="#000000" fill-rule="evenodd" fill-opacity="1" /><path clip-path="url(#clip740)" d="M1777.03 14.324 L1777.03 27.2059 L1792.38 27.2059 L1792.38 32.9987 L1777.03 32.9987 L1777.03 57.6282 Q1777.03 63.1779 1778.53 64.7578 Q1780.06 66.3376 1784.72 66.3376 L1792.38 66.3376 L1792.38 72.576 L1784.72 72.576 Q1776.1 72.576 1772.81 69.3758 Q1769.53 66.1351 1769.53 57.6282 L1769.53 32.9987 L1764.06 32.9987 L1764.06 27.2059 L1769.53 27.2059 L1769.53 14.324 L1777.03 14.324 Z" fill="#000000" fill-rule="evenodd" fill-opacity="1" /><path clip-path="url(#clip740)" d="M1839.9 45.1919 L1839.9 72.576 L1832.44 72.576 L1832.44 45.4349 Q1832.44 38.994 1829.93 35.7938 Q1827.42 32.5936 1822.4 32.5936 Q1816.36 32.5936 1812.88 36.4419 Q1809.39 40.2903 1809.39 46.9338 L1809.39 72.576 L1801.9 72.576 L1801.9 9.54393 L1809.39 9.54393 L1809.39 34.2544 Q1812.07 30.163 1815.67 28.1376 Q1819.32 26.1121 1824.06 26.1121 Q1831.88 26.1121 1835.89 30.9732 Q1839.9 35.7938 1839.9 45.1919 Z" fill="#000000" fill-rule="evenodd" fill-opacity="1" /><path clip-path="url(#clip740)" d="M1893.57 48.0275 L1893.57 51.6733 L1859.3 51.6733 Q1859.79 59.3701 1863.92 63.421 Q1868.09 67.4314 1875.5 67.4314 Q1879.8 67.4314 1883.81 66.3781 Q1887.86 65.3249 1891.83 63.2184 L1891.83 70.267 Q1887.82 71.9684 1883.61 72.8596 Q1879.39 73.7508 1875.06 73.7508 Q1864.2 73.7508 1857.84 67.4314 Q1851.52 61.1119 1851.52 50.3365 Q1851.52 39.1965 1857.52 32.6746 Q1863.55 26.1121 1873.76 26.1121 Q1882.92 26.1121 1888.22 32.0264 Q1893.57 37.9003 1893.57 48.0275 M1886.12 45.84 Q1886.04 39.7232 1882.67 36.0774 Q1879.35 32.4315 1873.84 32.4315 Q1867.6 32.4315 1863.84 35.9558 Q1860.11 39.4801 1859.54 45.8805 L1886.12 45.84 Z" fill="#000000" fill-rule="evenodd" fill-opacity="1" /><path clip-path="url(#clip740)" d="M1913.18 14.324 L1913.18 27.2059 L1928.53 27.2059 L1928.53 32.9987 L1913.18 32.9987 L1913.18 57.6282 Q1913.18 63.1779 1914.68 64.7578 Q1916.22 66.3376 1920.87 66.3376 L1928.53 66.3376 L1928.53 72.576 L1920.87 72.576 Q1912.25 72.576 1908.96 69.3758 Q1905.68 66.1351 1905.68 57.6282 L1905.68 32.9987 L1900.21 32.9987 L1900.21 27.2059 L1905.68 27.2059 L1905.68 14.324 L1913.18 14.324 Z" fill="#000000" fill-rule="evenodd" fill-opacity="1" /><path clip-path="url(#clip740)" d="M1958.95 49.7694 Q1949.92 49.7694 1946.44 51.8354 Q1942.95 53.9013 1942.95 58.8839 Q1942.95 62.8538 1945.54 65.2034 Q1948.18 67.5124 1952.67 67.5124 Q1958.87 67.5124 1962.6 63.1374 Q1966.37 58.7219 1966.37 51.4303 L1966.37 49.7694 L1958.95 49.7694 M1973.82 46.6907 L1973.82 72.576 L1966.37 72.576 L1966.37 65.6895 Q1963.81 69.8214 1960.01 71.8063 Q1956.2 73.7508 1950.69 73.7508 Q1943.72 73.7508 1939.59 69.8619 Q1935.5 65.9325 1935.5 59.3701 Q1935.5 51.7138 1940.6 47.825 Q1945.75 43.9361 1955.91 43.9361 L1966.37 43.9361 L1966.37 43.2069 Q1966.37 38.0623 1962.96 35.2672 Q1959.6 32.4315 1953.48 32.4315 Q1949.6 32.4315 1945.91 33.3632 Q1942.22 34.295 1938.82 36.1584 L1938.82 29.2718 Q1942.91 27.692 1946.76 26.9223 Q1950.61 26.1121 1954.25 26.1121 Q1964.1 26.1121 1968.96 31.2163 Q1973.82 36.3204 1973.82 46.6907 Z" fill="#000000" fill-rule="evenodd" fill-opacity="1" /><polyline clip-path="url(#clip743)" style="stroke:#009af9; stroke-linecap:round; stroke-linejoin:round; stroke-width:4; stroke-opacity:1; fill:none" points="1412.51,1021.11 1418.56,1020.83 1424.6,1020.67 1430.65,1020.63 1436.69,1020.67 1442.74,1020.75 1448.79,1020.81 1454.83,1020.78 1460.88,1020.58 1466.92,1020.14 1472.97,1019.4 1479.01,1018.29 1485.06,1016.78 1491.1,1014.81 1497.15,1012.37 1503.19,1009.43 1509.24,1006 1515.29,1002.06 1521.33,997.617 1527.38,992.675 1533.42,987.244 1539.47,981.339 1545.51,974.982 1551.56,968.204 1557.6,961.043 1563.65,953.548 1569.69,945.781 1575.74,937.811 1581.78,929.718 1587.83,921.583 1593.88,913.486 1599.92,905.489 1605.97,897.633 1612.01,889.918 1618.06,882.302 1624.1,874.688 1630.15,866.933 1636.19,858.849 1642.24,850.227 1648.28,840.851 1654.33,830.53 1660.38,819.113 1666.42,806.514 1672.47,792.72 1678.51,777.788 1684.56,761.833 1690.6,745.008 1696.65,727.475 1702.69,709.384 1708.74,690.844 1714.78,671.919 1720.83,652.625 1726.87,632.944 1732.92,612.846 1738.97,592.318 1745.01,571.388 1751.06,550.147 1757.1,528.754 1763.15,507.428 1769.19,486.42 1775.24,465.984 1781.28,446.328 1787.33,427.576 1793.37,409.74 1799.42,392.705 1805.46,376.247 1811.51,360.055 1817.56,343.789 1823.6,327.133 1829.65,309.853 1835.69,291.842 1841.74,273.152 1847.78,254.002 1853.83,234.763 1859.87,215.923 1865.92,198.041 1871.96,181.689 1878.01,167.386 1884.06,155.545 1890.1,146.416 1896.15,140.063 1902.19,136.345 1908.24,134.937 1914.28,135.37 1920.33,137.09 1926.37,139.54 1932.42,142.236 1938.46,144.839 1944.51,147.198 1950.55,149.368 1956.6,151.594 1962.65,154.261 1968.69,157.825 1974.74,162.738 1980.78,169.367 1986.83,177.943 1992.87,188.524 1998.92,200.991 2004.96,215.073 2011.01,230.395 2017.05,246.531 2023.1,263.072 2029.15,279.679 2035.19,296.122 2041.24,312.302 2047.28,328.244 2053.33,344.073 2059.37,359.976 2065.42,376.156 2071.46,392.787 2077.51,409.983 2083.55,427.777 2089.6,446.129 2095.64,464.937 2101.69,484.078 2107.74,503.429 2113.78,522.909 2119.83,542.486 2125.87,562.184 2131.92,582.066 2137.96,602.207 2144.01,622.659 2150.05,643.423 2156.1,664.426 2162.14,685.516 2168.19,706.469 2174.23,727.019 2180.28,746.89 2186.33,765.837 2192.37,783.674 2198.42,800.305 2204.46,815.731 2210.51,830.038 2216.55,843.382 2222.6,855.95 2228.64,867.929 2234.69,879.469 2240.73,890.66 2246.78,901.522 2252.83,912.007 2258.87,922.017 2264.92,931.434 2270.96,940.142 2277.01,948.065 2283.05,955.178 2289.1,961.518 2295.14,967.181 2301.19,972.305 2307.23,977.049 2313.28,981.563 2319.32,985.971 2325.37,990.349 "/>
</svg>
