<?xml version="1.0" encoding="utf-8"?>
<svg xmlns="http://www.w3.org/2000/svg" xmlns:xlink="http://www.w3.org/1999/xlink" width="600" height="200" viewBox="0 0 2400 800">
<defs>
  <clipPath id="clip000">
    <rect x="0" y="0" width="2400" height="800"/>
  </clipPath>
</defs>
<path clip-path="url(#clip000)" d="M0 800 L2400 800 L2400 0 L0 0  Z" fill="#ffffff" fill-rule="evenodd" fill-opacity="1"/>
<defs>
  <clipPath id="clip001">
    <rect x="480" y="0" width="1681" height="800"/>
  </clipPath>
</defs>
<path clip-path="url(#clip000)" d="M110.881 711.728 L2352.76 711.728 L2352.76 47.2441 L110.881 47.2441  Z" fill="#ffffff" fill-rule="evenodd" fill-opacity="1"/>
<defs>
  <clipPath id="clip002">
    <rect x="110" y="47" width="2243" height="665"/>
  </clipPath>
</defs>
<polyline clip-path="url(#clip002)" style="stroke:#000000; stroke-linecap:round; stroke-linejoin:round; stroke-width:2; stroke-opacity:0.1; fill:none" points="412.485,711.728 412.485,47.2441 "/>
<polyline clip-path="url(#clip002)" style="stroke:#000000; stroke-linecap:round; stroke-linejoin:round; stroke-width:2; stroke-opacity:0.1; fill:none" points="834.428,711.728 834.428,47.2441 "/>
<polyline clip-path="url(#clip002)" style="stroke:#000000; stroke-linecap:round; stroke-linejoin:round; stroke-width:2; stroke-opacity:0.1; fill:none" points="1256.37,711.728 1256.37,47.2441 "/>
<polyline clip-path="url(#clip002)" style="stroke:#000000; stroke-linecap:round; stroke-linejoin:round; stroke-width:2; stroke-opacity:0.1; fill:none" points="1678.31,711.728 1678.31,47.2441 "/>
<polyline clip-path="url(#clip002)" style="stroke:#000000; stroke-linecap:round; stroke-linejoin:round; stroke-width:2; stroke-opacity:0.1; fill:none" points="2100.26,711.728 2100.26,47.2441 "/>
<polyline clip-path="url(#clip000)" style="stroke:#000000; stroke-linecap:round; stroke-linejoin:round; stroke-width:4; stroke-opacity:1; fill:none" points="110.881,711.728 2352.76,711.728 "/>
<polyline clip-path="url(#clip000)" style="stroke:#000000; stroke-linecap:round; stroke-linejoin:round; stroke-width:4; stroke-opacity:1; fill:none" points="412.485,711.728 412.485,692.83 "/>
<polyline clip-path="url(#clip000)" style="stroke:#000000; stroke-linecap:round; stroke-linejoin:round; stroke-width:4; stroke-opacity:1; fill:none" points="834.428,711.728 834.428,692.83 "/>
<polyline clip-path="url(#clip000)" style="stroke:#000000; stroke-linecap:round; stroke-linejoin:round; stroke-width:4; stroke-opacity:1; fill:none" points="1256.37,711.728 1256.37,692.83 "/>
<polyline clip-path="url(#clip000)" style="stroke:#000000; stroke-linecap:round; stroke-linejoin:round; stroke-width:4; stroke-opacity:1; fill:none" points="1678.31,711.728 1678.31,692.83 "/>
<polyline clip-path="url(#clip000)" style="stroke:#000000; stroke-linecap:round; stroke-linejoin:round; stroke-width:4; stroke-opacity:1; fill:none" points="2100.26,711.728 2100.26,692.83 "/>
<path clip-path="url(#clip000)" d="M359.105 757.299 L388.781 757.299 L388.781 761.234 L359.105 761.234 L359.105 757.299 Z" fill="#000000" fill-rule="evenodd" fill-opacity="1" /><path clip-path="url(#clip000)" d="M408.874 742.647 Q405.262 742.647 403.434 746.211 Q401.628 749.753 401.628 756.883 Q401.628 763.989 403.434 767.554 Q405.262 771.095 408.874 771.095 Q412.508 771.095 414.313 767.554 Q416.142 763.989 416.142 756.883 Q416.142 749.753 414.313 746.211 Q412.508 742.647 408.874 742.647 M408.874 738.943 Q414.684 738.943 417.739 743.549 Q420.818 748.133 420.818 756.883 Q420.818 765.609 417.739 770.216 Q414.684 774.799 408.874 774.799 Q403.063 774.799 399.985 770.216 Q396.929 765.609 396.929 756.883 Q396.929 748.133 399.985 743.549 Q403.063 738.943 408.874 738.943 Z" fill="#000000" fill-rule="evenodd" fill-opacity="1" /><path clip-path="url(#clip000)" d="M429.035 768.248 L433.92 768.248 L433.92 774.128 L429.035 774.128 L429.035 768.248 Z" fill="#000000" fill-rule="evenodd" fill-opacity="1" /><path clip-path="url(#clip000)" d="M444.244 773.41 L444.244 769.151 Q446.003 769.984 447.808 770.424 Q449.614 770.864 451.35 770.864 Q455.98 770.864 458.41 767.762 Q460.864 764.637 461.211 758.295 Q459.869 760.285 457.808 761.35 Q455.748 762.415 453.248 762.415 Q448.063 762.415 445.031 759.29 Q442.021 756.142 442.021 750.702 Q442.021 745.378 445.17 742.16 Q448.318 738.943 453.549 738.943 Q459.545 738.943 462.693 743.549 Q465.864 748.133 465.864 756.883 Q465.864 765.054 461.975 769.938 Q458.109 774.799 451.558 774.799 Q449.799 774.799 447.994 774.452 Q446.188 774.105 444.244 773.41 M453.549 758.758 Q456.697 758.758 458.526 756.605 Q460.378 754.452 460.378 750.702 Q460.378 746.975 458.526 744.822 Q456.697 742.647 453.549 742.647 Q450.401 742.647 448.549 744.822 Q446.721 746.975 446.721 750.702 Q446.721 754.452 448.549 756.605 Q450.401 758.758 453.549 758.758 Z" fill="#000000" fill-rule="evenodd" fill-opacity="1" /><path clip-path="url(#clip000)" d="M780.875 757.299 L810.551 757.299 L810.551 761.234 L780.875 761.234 L780.875 757.299 Z" fill="#000000" fill-rule="evenodd" fill-opacity="1" /><path clip-path="url(#clip000)" d="M830.643 742.647 Q827.032 742.647 825.203 746.211 Q823.398 749.753 823.398 756.883 Q823.398 763.989 825.203 767.554 Q827.032 771.095 830.643 771.095 Q834.277 771.095 836.083 767.554 Q837.912 763.989 837.912 756.883 Q837.912 749.753 836.083 746.211 Q834.277 742.647 830.643 742.647 M830.643 738.943 Q836.453 738.943 839.509 743.549 Q842.587 748.133 842.587 756.883 Q842.587 765.609 839.509 770.216 Q836.453 774.799 830.643 774.799 Q824.833 774.799 821.754 770.216 Q818.699 765.609 818.699 756.883 Q818.699 748.133 821.754 743.549 Q824.833 738.943 830.643 738.943 Z" fill="#000000" fill-rule="evenodd" fill-opacity="1" /><path clip-path="url(#clip000)" d="M850.805 768.248 L855.689 768.248 L855.689 774.128 L850.805 774.128 L850.805 768.248 Z" fill="#000000" fill-rule="evenodd" fill-opacity="1" /><path clip-path="url(#clip000)" d="M876.453 754.984 Q873.305 754.984 871.453 757.137 Q869.624 759.29 869.624 763.04 Q869.624 766.767 871.453 768.943 Q873.305 771.095 876.453 771.095 Q879.601 771.095 881.43 768.943 Q883.282 766.767 883.282 763.04 Q883.282 759.29 881.43 757.137 Q879.601 754.984 876.453 754.984 M885.735 740.332 L885.735 744.591 Q883.976 743.758 882.171 743.318 Q880.388 742.878 878.629 742.878 Q873.999 742.878 871.546 746.003 Q869.115 749.128 868.768 755.447 Q870.134 753.434 872.194 752.369 Q874.254 751.281 876.731 751.281 Q881.939 751.281 884.948 754.452 Q887.981 757.6 887.981 763.04 Q887.981 768.364 884.833 771.582 Q881.684 774.799 876.453 774.799 Q870.458 774.799 867.286 770.216 Q864.115 765.609 864.115 756.883 Q864.115 748.688 868.004 743.827 Q871.893 738.943 878.444 738.943 Q880.203 738.943 881.985 739.29 Q883.791 739.637 885.735 740.332 Z" fill="#000000" fill-rule="evenodd" fill-opacity="1" /><path clip-path="url(#clip000)" d="M1203.22 757.299 L1232.9 757.299 L1232.9 761.234 L1203.22 761.234 L1203.22 757.299 Z" fill="#000000" fill-rule="evenodd" fill-opacity="1" /><path clip-path="url(#clip000)" d="M1252.99 742.647 Q1249.38 742.647 1247.55 746.211 Q1245.75 749.753 1245.75 756.883 Q1245.75 763.989 1247.55 767.554 Q1249.38 771.095 1252.99 771.095 Q1256.63 771.095 1258.43 767.554 Q1260.26 763.989 1260.26 756.883 Q1260.26 749.753 1258.43 746.211 Q1256.63 742.647 1252.99 742.647 M1252.99 738.943 Q1258.8 738.943 1261.86 743.549 Q1264.94 748.133 1264.94 756.883 Q1264.94 765.609 1261.86 770.216 Q1258.8 774.799 1252.99 774.799 Q1247.18 774.799 1244.1 770.216 Q1241.05 765.609 1241.05 756.883 Q1241.05 748.133 1244.1 743.549 Q1247.18 738.943 1252.99 738.943 Z" fill="#000000" fill-rule="evenodd" fill-opacity="1" /><path clip-path="url(#clip000)" d="M1273.15 768.248 L1278.04 768.248 L1278.04 774.128 L1273.15 774.128 L1273.15 768.248 Z" fill="#000000" fill-rule="evenodd" fill-opacity="1" /><path clip-path="url(#clip000)" d="M1302.39 755.494 Q1305.75 756.211 1307.62 758.48 Q1309.52 760.748 1309.52 764.082 Q1309.52 769.197 1306 771.998 Q1302.48 774.799 1296 774.799 Q1293.82 774.799 1291.51 774.359 Q1289.22 773.943 1286.76 773.086 L1286.76 768.572 Q1288.71 769.707 1291.02 770.285 Q1293.34 770.864 1295.86 770.864 Q1300.26 770.864 1302.55 769.128 Q1304.87 767.392 1304.87 764.082 Q1304.87 761.026 1302.71 759.313 Q1300.58 757.577 1296.76 757.577 L1292.74 757.577 L1292.74 753.734 L1296.95 753.734 Q1300.4 753.734 1302.23 752.369 Q1304.06 750.98 1304.06 748.387 Q1304.06 745.725 1302.16 744.313 Q1300.28 742.878 1296.76 742.878 Q1294.84 742.878 1292.64 743.295 Q1290.44 743.711 1287.81 744.591 L1287.81 740.424 Q1290.47 739.684 1292.78 739.313 Q1295.12 738.943 1297.18 738.943 Q1302.5 738.943 1305.61 741.373 Q1308.71 743.781 1308.71 747.901 Q1308.71 750.772 1307.07 752.762 Q1305.42 754.73 1302.39 755.494 Z" fill="#000000" fill-rule="evenodd" fill-opacity="1" /><path clip-path="url(#clip000)" d="M1655.7 742.647 Q1652.09 742.647 1650.26 746.211 Q1648.45 749.753 1648.45 756.883 Q1648.45 763.989 1650.26 767.554 Q1652.09 771.095 1655.7 771.095 Q1659.33 771.095 1661.14 767.554 Q1662.97 763.989 1662.97 756.883 Q1662.97 749.753 1661.14 746.211 Q1659.33 742.647 1655.7 742.647 M1655.7 738.943 Q1661.51 738.943 1664.56 743.549 Q1667.64 748.133 1667.64 756.883 Q1667.64 765.609 1664.56 770.216 Q1661.51 774.799 1655.7 774.799 Q1649.89 774.799 1646.81 770.216 Q1643.75 765.609 1643.75 756.883 Q1643.75 748.133 1646.81 743.549 Q1649.89 738.943 1655.7 738.943 Z" fill="#000000" fill-rule="evenodd" fill-opacity="1" /><path clip-path="url(#clip000)" d="M1675.86 768.248 L1680.74 768.248 L1680.74 774.128 L1675.86 774.128 L1675.86 768.248 Z" fill="#000000" fill-rule="evenodd" fill-opacity="1" /><path clip-path="url(#clip000)" d="M1700.93 742.647 Q1697.32 742.647 1695.49 746.211 Q1693.68 749.753 1693.68 756.883 Q1693.68 763.989 1695.49 767.554 Q1697.32 771.095 1700.93 771.095 Q1704.56 771.095 1706.37 767.554 Q1708.2 763.989 1708.2 756.883 Q1708.2 749.753 1706.37 746.211 Q1704.56 742.647 1700.93 742.647 M1700.93 738.943 Q1706.74 738.943 1709.8 743.549 Q1712.87 748.133 1712.87 756.883 Q1712.87 765.609 1709.8 770.216 Q1706.74 774.799 1700.93 774.799 Q1695.12 774.799 1692.04 770.216 Q1688.99 765.609 1688.99 756.883 Q1688.99 748.133 1692.04 743.549 Q1695.12 738.943 1700.93 738.943 Z" fill="#000000" fill-rule="evenodd" fill-opacity="1" /><path clip-path="url(#clip000)" d="M2077.97 742.647 Q2074.35 742.647 2072.53 746.211 Q2070.72 749.753 2070.72 756.883 Q2070.72 763.989 2072.53 767.554 Q2074.35 771.095 2077.97 771.095 Q2081.6 771.095 2083.41 767.554 Q2085.23 763.989 2085.23 756.883 Q2085.23 749.753 2083.41 746.211 Q2081.6 742.647 2077.97 742.647 M2077.97 738.943 Q2083.78 738.943 2086.83 743.549 Q2089.91 748.133 2089.91 756.883 Q2089.91 765.609 2086.83 770.216 Q2083.78 774.799 2077.97 774.799 Q2072.16 774.799 2069.08 770.216 Q2066.02 765.609 2066.02 756.883 Q2066.02 748.133 2069.08 743.549 Q2072.16 738.943 2077.97 738.943 Z" fill="#000000" fill-rule="evenodd" fill-opacity="1" /><path clip-path="url(#clip000)" d="M2098.13 768.248 L2103.01 768.248 L2103.01 774.128 L2098.13 774.128 L2098.13 768.248 Z" fill="#000000" fill-rule="evenodd" fill-opacity="1" /><path clip-path="url(#clip000)" d="M2127.36 755.494 Q2130.72 756.211 2132.6 758.48 Q2134.49 760.748 2134.49 764.082 Q2134.49 769.197 2130.97 771.998 Q2127.46 774.799 2120.97 774.799 Q2118.8 774.799 2116.48 774.359 Q2114.19 773.943 2111.74 773.086 L2111.74 768.572 Q2113.68 769.707 2116 770.285 Q2118.31 770.864 2120.84 770.864 Q2125.23 770.864 2127.53 769.128 Q2129.84 767.392 2129.84 764.082 Q2129.84 761.026 2127.69 759.313 Q2125.56 757.577 2121.74 757.577 L2117.71 757.577 L2117.71 753.734 L2121.92 753.734 Q2125.37 753.734 2127.2 752.369 Q2129.03 750.98 2129.03 748.387 Q2129.03 745.725 2127.13 744.313 Q2125.26 742.878 2121.74 742.878 Q2119.82 742.878 2117.62 743.295 Q2115.42 743.711 2112.78 744.591 L2112.78 740.424 Q2115.44 739.684 2117.76 739.313 Q2120.1 738.943 2122.16 738.943 Q2127.48 738.943 2130.58 741.373 Q2133.68 743.781 2133.68 747.901 Q2133.68 750.772 2132.04 752.762 Q2130.4 754.73 2127.36 755.494 Z" fill="#000000" fill-rule="evenodd" fill-opacity="1" /><polyline clip-path="url(#clip002)" style="stroke:#000000; stroke-linecap:round; stroke-linejoin:round; stroke-width:2; stroke-opacity:0.1; fill:none" points="110.881,692.922 2352.76,692.922 "/>
<polyline clip-path="url(#clip002)" style="stroke:#000000; stroke-linecap:round; stroke-linejoin:round; stroke-width:2; stroke-opacity:0.1; fill:none" points="110.881,490.705 2352.76,490.705 "/>
<polyline clip-path="url(#clip002)" style="stroke:#000000; stroke-linecap:round; stroke-linejoin:round; stroke-width:2; stroke-opacity:0.1; fill:none" points="110.881,288.489 2352.76,288.489 "/>
<polyline clip-path="url(#clip002)" style="stroke:#000000; stroke-linecap:round; stroke-linejoin:round; stroke-width:2; stroke-opacity:0.1; fill:none" points="110.881,86.2719 2352.76,86.2719 "/>
<polyline clip-path="url(#clip000)" style="stroke:#000000; stroke-linecap:round; stroke-linejoin:round; stroke-width:4; stroke-opacity:1; fill:none" points="110.881,711.728 110.881,47.2441 "/>
<polyline clip-path="url(#clip000)" style="stroke:#000000; stroke-linecap:round; stroke-linejoin:round; stroke-width:4; stroke-opacity:1; fill:none" points="110.881,692.922 129.779,692.922 "/>
<polyline clip-path="url(#clip000)" style="stroke:#000000; stroke-linecap:round; stroke-linejoin:round; stroke-width:4; stroke-opacity:1; fill:none" points="110.881,490.705 129.779,490.705 "/>
<polyline clip-path="url(#clip000)" style="stroke:#000000; stroke-linecap:round; stroke-linejoin:round; stroke-width:4; stroke-opacity:1; fill:none" points="110.881,288.489 129.779,288.489 "/>
<polyline clip-path="url(#clip000)" style="stroke:#000000; stroke-linecap:round; stroke-linejoin:round; stroke-width:4; stroke-opacity:1; fill:none" points="110.881,86.2719 129.779,86.2719 "/>
<path clip-path="url(#clip000)" d="M62.9365 678.72 Q59.3254 678.72 57.4967 682.285 Q55.6912 685.827 55.6912 692.956 Q55.6912 700.063 57.4967 703.628 Q59.3254 707.169 62.9365 707.169 Q66.5707 707.169 68.3763 703.628 Q70.205 700.063 70.205 692.956 Q70.205 685.827 68.3763 682.285 Q66.5707 678.72 62.9365 678.72 M62.9365 675.017 Q68.7467 675.017 71.8022 679.623 Q74.8809 684.206 74.8809 692.956 Q74.8809 701.683 71.8022 706.29 Q68.7467 710.873 62.9365 710.873 Q57.1264 710.873 54.0477 706.29 Q50.9921 701.683 50.9921 692.956 Q50.9921 684.206 54.0477 679.623 Q57.1264 675.017 62.9365 675.017 Z" fill="#000000" fill-rule="evenodd" fill-opacity="1" /><path clip-path="url(#clip000)" d="M54.9736 504.05 L62.6124 504.05 L62.6124 477.684 L54.3023 479.351 L54.3023 475.092 L62.5661 473.425 L67.242 473.425 L67.242 504.05 L74.8809 504.05 L74.8809 507.985 L54.9736 507.985 L54.9736 504.05 Z" fill="#000000" fill-rule="evenodd" fill-opacity="1" /><path clip-path="url(#clip000)" d="M58.5615 301.833 L74.8809 301.833 L74.8809 305.769 L52.9366 305.769 L52.9366 301.833 Q55.5986 299.079 60.1819 294.449 Q64.7883 289.796 65.9689 288.454 Q68.2143 285.931 69.0939 284.195 Q69.9967 282.435 69.9967 280.745 Q69.9967 277.991 68.0522 276.255 Q66.1309 274.519 63.0291 274.519 Q60.83 274.519 58.3763 275.283 Q55.9458 276.046 53.168 277.597 L53.168 272.875 Q55.9921 271.741 58.4458 271.162 Q60.8995 270.584 62.9365 270.584 Q68.3068 270.584 71.5013 273.269 Q74.6957 275.954 74.6957 280.445 Q74.6957 282.574 73.8855 284.495 Q73.0985 286.394 70.992 288.986 Q70.4133 289.657 67.3115 292.875 Q64.2096 296.069 58.5615 301.833 Z" fill="#000000" fill-rule="evenodd" fill-opacity="1" /><path clip-path="url(#clip000)" d="M67.7513 84.9177 Q71.1078 85.6353 72.9827 87.9038 Q74.8809 90.1723 74.8809 93.5057 Q74.8809 98.6214 71.3624 101.422 Q67.8439 104.223 61.3624 104.223 Q59.1865 104.223 56.8717 103.783 Q54.5801 103.367 52.1264 102.51 L52.1264 97.9964 Q54.0708 99.1306 56.3856 99.7093 Q58.7004 100.288 61.2236 100.288 Q65.6217 100.288 67.9133 98.5519 Q70.2281 96.8158 70.2281 93.5057 Q70.2281 90.4501 68.0754 88.7372 Q65.9457 87.0011 62.1263 87.0011 L58.0986 87.0011 L58.0986 83.1585 L62.3115 83.1585 Q65.7606 83.1585 67.5893 81.7928 Q69.418 80.4039 69.418 77.8113 Q69.418 75.1493 67.5198 73.7372 Q65.6448 72.3021 62.1263 72.3021 Q60.205 72.3021 58.006 72.7187 Q55.8069 73.1354 53.168 74.015 L53.168 69.8484 Q55.8301 69.1076 58.1449 68.7373 Q60.4828 68.3669 62.543 68.3669 Q67.867 68.3669 70.9689 70.7974 Q74.0707 73.2048 74.0707 77.3252 Q74.0707 80.1955 72.4272 82.1863 Q70.7837 84.1539 67.7513 84.9177 Z" fill="#000000" fill-rule="evenodd" fill-opacity="1" /><path clip-path="url(#clip002)" d="M271.837 689.888 L271.837 692.922 L299.966 692.922 L299.966 689.888 L271.837 689.888 L271.837 689.888  Z" fill="#009af9" fill-rule="evenodd" fill-opacity="0.1"/>
<polyline clip-path="url(#clip002)" style="stroke:#000000; stroke-linecap:round; stroke-linejoin:round; stroke-width:4; stroke-opacity:0.1; fill:none" points="271.837,689.888 271.837,692.922 299.966,692.922 299.966,689.888 271.837,689.888 "/>
<path clip-path="url(#clip002)" d="M299.966 673.711 L299.966 692.922 L328.096 692.922 L328.096 673.711 L299.966 673.711 L299.966 673.711  Z" fill="#009af9" fill-rule="evenodd" fill-opacity="0.1"/>
<polyline clip-path="url(#clip002)" style="stroke:#000000; stroke-linecap:round; stroke-linejoin:round; stroke-width:4; stroke-opacity:0.1; fill:none" points="299.966,673.711 299.966,692.922 328.096,692.922 328.096,673.711 299.966,673.711 "/>
<path clip-path="url(#clip002)" d="M328.096 603.946 L328.096 692.922 L356.226 692.922 L356.226 603.946 L328.096 603.946 L328.096 603.946  Z" fill="#009af9" fill-rule="evenodd" fill-opacity="0.1"/>
<polyline clip-path="url(#clip002)" style="stroke:#000000; stroke-linecap:round; stroke-linejoin:round; stroke-width:4; stroke-opacity:0.1; fill:none" points="328.096,603.946 328.096,692.922 356.226,692.922 356.226,603.946 328.096,603.946 "/>
<path clip-path="url(#clip002)" d="M356.226 500.816 L356.226 692.922 L384.355 692.922 L384.355 500.816 L356.226 500.816 L356.226 500.816  Z" fill="#009af9" fill-rule="evenodd" fill-opacity="0.1"/>
<polyline clip-path="url(#clip002)" style="stroke:#000000; stroke-linecap:round; stroke-linejoin:round; stroke-width:4; stroke-opacity:0.1; fill:none" points="356.226,500.816 356.226,692.922 384.355,692.922 384.355,500.816 356.226,500.816 "/>
<path clip-path="url(#clip002)" d="M384.355 376.453 L384.355 692.922 L412.485 692.922 L412.485 376.453 L384.355 376.453 L384.355 376.453  Z" fill="#009af9" fill-rule="evenodd" fill-opacity="0.1"/>
<polyline clip-path="url(#clip002)" style="stroke:#000000; stroke-linecap:round; stroke-linejoin:round; stroke-width:4; stroke-opacity:0.1; fill:none" points="384.355,376.453 384.355,692.922 412.485,692.922 412.485,376.453 384.355,376.453 "/>
<path clip-path="url(#clip002)" d="M412.485 295.566 L412.485 692.922 L440.614 692.922 L440.614 295.566 L412.485 295.566 L412.485 295.566  Z" fill="#009af9" fill-rule="evenodd" fill-opacity="0.1"/>
<polyline clip-path="url(#clip002)" style="stroke:#000000; stroke-linecap:round; stroke-linejoin:round; stroke-width:4; stroke-opacity:0.1; fill:none" points="412.485,295.566 412.485,692.922 440.614,692.922 440.614,295.566 412.485,295.566 "/>
<path clip-path="url(#clip002)" d="M440.614 161.092 L440.614 692.922 L468.744 692.922 L468.744 161.092 L440.614 161.092 L440.614 161.092  Z" fill="#009af9" fill-rule="evenodd" fill-opacity="0.1"/>
<polyline clip-path="url(#clip002)" style="stroke:#000000; stroke-linecap:round; stroke-linejoin:round; stroke-width:4; stroke-opacity:0.1; fill:none" points="440.614,161.092 440.614,692.922 468.744,692.922 468.744,161.092 440.614,161.092 "/>
<path clip-path="url(#clip002)" d="M468.744 97.3938 L468.744 692.922 L496.873 692.922 L496.873 97.3938 L468.744 97.3938 L468.744 97.3938  Z" fill="#009af9" fill-rule="evenodd" fill-opacity="0.1"/>
<polyline clip-path="url(#clip002)" style="stroke:#000000; stroke-linecap:round; stroke-linejoin:round; stroke-width:4; stroke-opacity:0.1; fill:none" points="468.744,97.3938 468.744,692.922 496.873,692.922 496.873,97.3938 468.744,97.3938 "/>
<path clip-path="url(#clip002)" d="M496.873 84.2497 L496.873 692.922 L525.003 692.922 L525.003 84.2497 L496.873 84.2497 L496.873 84.2497  Z" fill="#009af9" fill-rule="evenodd" fill-opacity="0.1"/>
<polyline clip-path="url(#clip002)" style="stroke:#000000; stroke-linecap:round; stroke-linejoin:round; stroke-width:4; stroke-opacity:0.1; fill:none" points="496.873,84.2497 496.873,692.922 525.003,692.922 525.003,84.2497 496.873,84.2497 "/>
<path clip-path="url(#clip002)" d="M525.003 85.2608 L525.003 692.922 L553.132 692.922 L553.132 85.2608 L525.003 85.2608 L525.003 85.2608  Z" fill="#009af9" fill-rule="evenodd" fill-opacity="0.1"/>
<polyline clip-path="url(#clip002)" style="stroke:#000000; stroke-linecap:round; stroke-linejoin:round; stroke-width:4; stroke-opacity:0.1; fill:none" points="525.003,85.2608 525.003,692.922 553.132,692.922 553.132,85.2608 525.003,85.2608 "/>
<path clip-path="url(#clip002)" d="M553.132 66.0502 L553.132 692.922 L581.262 692.922 L581.262 66.0502 L553.132 66.0502 L553.132 66.0502  Z" fill="#009af9" fill-rule="evenodd" fill-opacity="0.1"/>
<polyline clip-path="url(#clip002)" style="stroke:#000000; stroke-linecap:round; stroke-linejoin:round; stroke-width:4; stroke-opacity:0.1; fill:none" points="553.132,66.0502 553.132,692.922 581.262,692.922 581.262,66.0502 553.132,66.0502 "/>
<path clip-path="url(#clip002)" d="M581.262 113.571 L581.262 692.922 L609.391 692.922 L609.391 113.571 L581.262 113.571 L581.262 113.571  Z" fill="#009af9" fill-rule="evenodd" fill-opacity="0.1"/>
<polyline clip-path="url(#clip002)" style="stroke:#000000; stroke-linecap:round; stroke-linejoin:round; stroke-width:4; stroke-opacity:0.1; fill:none" points="581.262,113.571 581.262,692.922 609.391,692.922 609.391,113.571 581.262,113.571 "/>
<path clip-path="url(#clip002)" d="M609.391 131.771 L609.391 692.922 L637.521 692.922 L637.521 131.771 L609.391 131.771 L609.391 131.771  Z" fill="#009af9" fill-rule="evenodd" fill-opacity="0.1"/>
<polyline clip-path="url(#clip002)" style="stroke:#000000; stroke-linecap:round; stroke-linejoin:round; stroke-width:4; stroke-opacity:0.1; fill:none" points="609.391,131.771 609.391,692.922 637.521,692.922 637.521,131.771 609.391,131.771 "/>
<path clip-path="url(#clip002)" d="M637.521 151.992 L637.521 692.922 L665.651 692.922 L665.651 151.992 L637.521 151.992 L637.521 151.992  Z" fill="#009af9" fill-rule="evenodd" fill-opacity="0.1"/>
<polyline clip-path="url(#clip002)" style="stroke:#000000; stroke-linecap:round; stroke-linejoin:round; stroke-width:4; stroke-opacity:0.1; fill:none" points="637.521,151.992 637.521,692.922 665.651,692.922 665.651,151.992 637.521,151.992 "/>
<path clip-path="url(#clip002)" d="M665.651 225.801 L665.651 692.922 L693.78 692.922 L693.78 225.801 L665.651 225.801 L665.651 225.801  Z" fill="#009af9" fill-rule="evenodd" fill-opacity="0.1"/>
<polyline clip-path="url(#clip002)" style="stroke:#000000; stroke-linecap:round; stroke-linejoin:round; stroke-width:4; stroke-opacity:0.1; fill:none" points="665.651,225.801 665.651,692.922 693.78,692.922 693.78,225.801 665.651,225.801 "/>
<path clip-path="url(#clip002)" d="M693.78 250.067 L693.78 692.922 L721.91 692.922 L721.91 250.067 L693.78 250.067 L693.78 250.067  Z" fill="#009af9" fill-rule="evenodd" fill-opacity="0.1"/>
<polyline clip-path="url(#clip002)" style="stroke:#000000; stroke-linecap:round; stroke-linejoin:round; stroke-width:4; stroke-opacity:0.1; fill:none" points="693.78,250.067 693.78,692.922 721.91,692.922 721.91,250.067 693.78,250.067 "/>
<path clip-path="url(#clip002)" d="M721.91 267.256 L721.91 692.922 L750.039 692.922 L750.039 267.256 L721.91 267.256 L721.91 267.256  Z" fill="#009af9" fill-rule="evenodd" fill-opacity="0.1"/>
<polyline clip-path="url(#clip002)" style="stroke:#000000; stroke-linecap:round; stroke-linejoin:round; stroke-width:4; stroke-opacity:0.1; fill:none" points="721.91,267.256 721.91,692.922 750.039,692.922 750.039,267.256 721.91,267.256 "/>
<path clip-path="url(#clip002)" d="M750.039 350.165 L750.039 692.922 L778.169 692.922 L778.169 350.165 L750.039 350.165 L750.039 350.165  Z" fill="#009af9" fill-rule="evenodd" fill-opacity="0.1"/>
<polyline clip-path="url(#clip002)" style="stroke:#000000; stroke-linecap:round; stroke-linejoin:round; stroke-width:4; stroke-opacity:0.1; fill:none" points="750.039,350.165 750.039,692.922 778.169,692.922 778.169,350.165 750.039,350.165 "/>
<path clip-path="url(#clip002)" d="M778.169 346.12 L778.169 692.922 L806.298 692.922 L806.298 346.12 L778.169 346.12 L778.169 346.12  Z" fill="#009af9" fill-rule="evenodd" fill-opacity="0.1"/>
<polyline clip-path="url(#clip002)" style="stroke:#000000; stroke-linecap:round; stroke-linejoin:round; stroke-width:4; stroke-opacity:0.1; fill:none" points="778.169,346.12 778.169,692.922 806.298,692.922 806.298,346.12 778.169,346.12 "/>
<path clip-path="url(#clip002)" d="M806.298 420.94 L806.298 692.922 L834.428 692.922 L834.428 420.94 L806.298 420.94 L806.298 420.94  Z" fill="#009af9" fill-rule="evenodd" fill-opacity="0.1"/>
<polyline clip-path="url(#clip002)" style="stroke:#000000; stroke-linecap:round; stroke-linejoin:round; stroke-width:4; stroke-opacity:0.1; fill:none" points="806.298,420.94 806.298,692.922 834.428,692.922 834.428,420.94 806.298,420.94 "/>
<path clip-path="url(#clip002)" d="M834.428 411.841 L834.428 692.922 L862.557 692.922 L862.557 411.841 L834.428 411.841 L834.428 411.841  Z" fill="#009af9" fill-rule="evenodd" fill-opacity="0.1"/>
<polyline clip-path="url(#clip002)" style="stroke:#000000; stroke-linecap:round; stroke-linejoin:round; stroke-width:4; stroke-opacity:0.1; fill:none" points="834.428,411.841 834.428,692.922 862.557,692.922 862.557,411.841 834.428,411.841 "/>
<path clip-path="url(#clip002)" d="M862.557 450.262 L862.557 692.922 L890.687 692.922 L890.687 450.262 L862.557 450.262 L862.557 450.262  Z" fill="#009af9" fill-rule="evenodd" fill-opacity="0.1"/>
<polyline clip-path="url(#clip002)" style="stroke:#000000; stroke-linecap:round; stroke-linejoin:round; stroke-width:4; stroke-opacity:0.1; fill:none" points="862.557,450.262 862.557,692.922 890.687,692.922 890.687,450.262 862.557,450.262 "/>
<path clip-path="url(#clip002)" d="M890.687 496.772 L890.687 692.922 L918.816 692.922 L918.816 496.772 L890.687 496.772 L890.687 496.772  Z" fill="#009af9" fill-rule="evenodd" fill-opacity="0.1"/>
<polyline clip-path="url(#clip002)" style="stroke:#000000; stroke-linecap:round; stroke-linejoin:round; stroke-width:4; stroke-opacity:0.1; fill:none" points="890.687,496.772 890.687,692.922 918.816,692.922 918.816,496.772 890.687,496.772 "/>
<path clip-path="url(#clip002)" d="M918.816 516.993 L918.816 692.922 L946.946 692.922 L946.946 516.993 L918.816 516.993 L918.816 516.993  Z" fill="#009af9" fill-rule="evenodd" fill-opacity="0.1"/>
<polyline clip-path="url(#clip002)" style="stroke:#000000; stroke-linecap:round; stroke-linejoin:round; stroke-width:4; stroke-opacity:0.1; fill:none" points="918.816,516.993 918.816,692.922 946.946,692.922 946.946,516.993 918.816,516.993 "/>
<path clip-path="url(#clip002)" d="M946.946 529.126 L946.946 692.922 L975.076 692.922 L975.076 529.126 L946.946 529.126 L946.946 529.126  Z" fill="#009af9" fill-rule="evenodd" fill-opacity="0.1"/>
<polyline clip-path="url(#clip002)" style="stroke:#000000; stroke-linecap:round; stroke-linejoin:round; stroke-width:4; stroke-opacity:0.1; fill:none" points="946.946,529.126 946.946,692.922 975.076,692.922 975.076,529.126 946.946,529.126 "/>
<path clip-path="url(#clip002)" d="M975.076 560.47 L975.076 692.922 L1003.21 692.922 L1003.21 560.47 L975.076 560.47 L975.076 560.47  Z" fill="#009af9" fill-rule="evenodd" fill-opacity="0.1"/>
<polyline clip-path="url(#clip002)" style="stroke:#000000; stroke-linecap:round; stroke-linejoin:round; stroke-width:4; stroke-opacity:0.1; fill:none" points="975.076,560.47 975.076,692.922 1003.21,692.922 1003.21,560.47 975.076,560.47 "/>
<path clip-path="url(#clip002)" d="M1003.21 588.78 L1003.21 692.922 L1031.33 692.922 L1031.33 588.78 L1003.21 588.78 L1003.21 588.78  Z" fill="#009af9" fill-rule="evenodd" fill-opacity="0.1"/>
<polyline clip-path="url(#clip002)" style="stroke:#000000; stroke-linecap:round; stroke-linejoin:round; stroke-width:4; stroke-opacity:0.1; fill:none" points="1003.21,588.78 1003.21,692.922 1031.33,692.922 1031.33,588.78 1003.21,588.78 "/>
<path clip-path="url(#clip002)" d="M1031.33 603.946 L1031.33 692.922 L1059.46 692.922 L1059.46 603.946 L1031.33 603.946 L1031.33 603.946  Z" fill="#009af9" fill-rule="evenodd" fill-opacity="0.1"/>
<polyline clip-path="url(#clip002)" style="stroke:#000000; stroke-linecap:round; stroke-linejoin:round; stroke-width:4; stroke-opacity:0.1; fill:none" points="1031.33,603.946 1031.33,692.922 1059.46,692.922 1059.46,603.946 1031.33,603.946 "/>
<path clip-path="url(#clip002)" d="M1059.46 578.669 L1059.46 692.922 L1087.59 692.922 L1087.59 578.669 L1059.46 578.669 L1059.46 578.669  Z" fill="#009af9" fill-rule="evenodd" fill-opacity="0.1"/>
<polyline clip-path="url(#clip002)" style="stroke:#000000; stroke-linecap:round; stroke-linejoin:round; stroke-width:4; stroke-opacity:0.1; fill:none" points="1059.46,578.669 1059.46,692.922 1087.59,692.922 1087.59,578.669 1059.46,578.669 "/>
<path clip-path="url(#clip002)" d="M1087.59 600.913 L1087.59 692.922 L1115.72 692.922 L1115.72 600.913 L1087.59 600.913 L1087.59 600.913  Z" fill="#009af9" fill-rule="evenodd" fill-opacity="0.1"/>
<polyline clip-path="url(#clip002)" style="stroke:#000000; stroke-linecap:round; stroke-linejoin:round; stroke-width:4; stroke-opacity:0.1; fill:none" points="1087.59,600.913 1087.59,692.922 1115.72,692.922 1115.72,600.913 1087.59,600.913 "/>
<path clip-path="url(#clip002)" d="M1115.72 618.102 L1115.72 692.922 L1143.85 692.922 L1143.85 618.102 L1115.72 618.102 L1115.72 618.102  Z" fill="#009af9" fill-rule="evenodd" fill-opacity="0.1"/>
<polyline clip-path="url(#clip002)" style="stroke:#000000; stroke-linecap:round; stroke-linejoin:round; stroke-width:4; stroke-opacity:0.1; fill:none" points="1115.72,618.102 1115.72,692.922 1143.85,692.922 1143.85,618.102 1115.72,618.102 "/>
<path clip-path="url(#clip002)" d="M1143.85 642.368 L1143.85 692.922 L1171.98 692.922 L1171.98 642.368 L1143.85 642.368 L1143.85 642.368  Z" fill="#009af9" fill-rule="evenodd" fill-opacity="0.1"/>
<polyline clip-path="url(#clip002)" style="stroke:#000000; stroke-linecap:round; stroke-linejoin:round; stroke-width:4; stroke-opacity:0.1; fill:none" points="1143.85,642.368 1143.85,692.922 1171.98,692.922 1171.98,642.368 1143.85,642.368 "/>
<path clip-path="url(#clip002)" d="M1171.98 626.19 L1171.98 692.922 L1200.11 692.922 L1200.11 626.19 L1171.98 626.19 L1171.98 626.19  Z" fill="#009af9" fill-rule="evenodd" fill-opacity="0.1"/>
<polyline clip-path="url(#clip002)" style="stroke:#000000; stroke-linecap:round; stroke-linejoin:round; stroke-width:4; stroke-opacity:0.1; fill:none" points="1171.98,626.19 1171.98,692.922 1200.11,692.922 1200.11,626.19 1171.98,626.19 "/>
<path clip-path="url(#clip002)" d="M1200.11 645.401 L1200.11 692.922 L1228.24 692.922 L1228.24 645.401 L1200.11 645.401 L1200.11 645.401  Z" fill="#009af9" fill-rule="evenodd" fill-opacity="0.1"/>
<polyline clip-path="url(#clip002)" style="stroke:#000000; stroke-linecap:round; stroke-linejoin:round; stroke-width:4; stroke-opacity:0.1; fill:none" points="1200.11,645.401 1200.11,692.922 1228.24,692.922 1228.24,645.401 1200.11,645.401 "/>
<path clip-path="url(#clip002)" d="M1228.24 651.467 L1228.24 692.922 L1256.37 692.922 L1256.37 651.467 L1228.24 651.467 L1228.24 651.467  Z" fill="#009af9" fill-rule="evenodd" fill-opacity="0.1"/>
<polyline clip-path="url(#clip002)" style="stroke:#000000; stroke-linecap:round; stroke-linejoin:round; stroke-width:4; stroke-opacity:0.1; fill:none" points="1228.24,651.467 1228.24,692.922 1256.37,692.922 1256.37,651.467 1228.24,651.467 "/>
<path clip-path="url(#clip002)" d="M1256.37 641.356 L1256.37 692.922 L1284.5 692.922 L1284.5 641.356 L1256.37 641.356 L1256.37 641.356  Z" fill="#009af9" fill-rule="evenodd" fill-opacity="0.1"/>
<polyline clip-path="url(#clip002)" style="stroke:#000000; stroke-linecap:round; stroke-linejoin:round; stroke-width:4; stroke-opacity:0.1; fill:none" points="1256.37,641.356 1256.37,692.922 1284.5,692.922 1284.5,641.356 1256.37,641.356 "/>
<path clip-path="url(#clip002)" d="M1284.5 661.578 L1284.5 692.922 L1312.63 692.922 L1312.63 661.578 L1284.5 661.578 L1284.5 661.578  Z" fill="#009af9" fill-rule="evenodd" fill-opacity="0.1"/>
<polyline clip-path="url(#clip002)" style="stroke:#000000; stroke-linecap:round; stroke-linejoin:round; stroke-width:4; stroke-opacity:0.1; fill:none" points="1284.5,661.578 1284.5,692.922 1312.63,692.922 1312.63,661.578 1284.5,661.578 "/>
<path clip-path="url(#clip002)" d="M1312.63 661.578 L1312.63 692.922 L1340.76 692.922 L1340.76 661.578 L1312.63 661.578 L1312.63 661.578  Z" fill="#009af9" fill-rule="evenodd" fill-opacity="0.1"/>
<polyline clip-path="url(#clip002)" style="stroke:#000000; stroke-linecap:round; stroke-linejoin:round; stroke-width:4; stroke-opacity:0.1; fill:none" points="1312.63,661.578 1312.63,692.922 1340.76,692.922 1340.76,661.578 1312.63,661.578 "/>
<path clip-path="url(#clip002)" d="M1340.76 673.711 L1340.76 692.922 L1368.89 692.922 L1368.89 673.711 L1340.76 673.711 L1340.76 673.711  Z" fill="#009af9" fill-rule="evenodd" fill-opacity="0.1"/>
<polyline clip-path="url(#clip002)" style="stroke:#000000; stroke-linecap:round; stroke-linejoin:round; stroke-width:4; stroke-opacity:0.1; fill:none" points="1340.76,673.711 1340.76,692.922 1368.89,692.922 1368.89,673.711 1340.76,673.711 "/>
<path clip-path="url(#clip002)" d="M1368.89 667.645 L1368.89 692.922 L1397.02 692.922 L1397.02 667.645 L1368.89 667.645 L1368.89 667.645  Z" fill="#009af9" fill-rule="evenodd" fill-opacity="0.1"/>
<polyline clip-path="url(#clip002)" style="stroke:#000000; stroke-linecap:round; stroke-linejoin:round; stroke-width:4; stroke-opacity:0.1; fill:none" points="1368.89,667.645 1368.89,692.922 1397.02,692.922 1397.02,667.645 1368.89,667.645 "/>
<path clip-path="url(#clip002)" d="M1397.02 678.767 L1397.02 692.922 L1425.15 692.922 L1425.15 678.767 L1397.02 678.767 L1397.02 678.767  Z" fill="#009af9" fill-rule="evenodd" fill-opacity="0.1"/>
<polyline clip-path="url(#clip002)" style="stroke:#000000; stroke-linecap:round; stroke-linejoin:round; stroke-width:4; stroke-opacity:0.1; fill:none" points="1397.02,678.767 1397.02,692.922 1425.15,692.922 1425.15,678.767 1397.02,678.767 "/>
<path clip-path="url(#clip002)" d="M1425.15 682.811 L1425.15 692.922 L1453.28 692.922 L1453.28 682.811 L1425.15 682.811 L1425.15 682.811  Z" fill="#009af9" fill-rule="evenodd" fill-opacity="0.1"/>
<polyline clip-path="url(#clip002)" style="stroke:#000000; stroke-linecap:round; stroke-linejoin:round; stroke-width:4; stroke-opacity:0.1; fill:none" points="1425.15,682.811 1425.15,692.922 1453.28,692.922 1453.28,682.811 1425.15,682.811 "/>
<path clip-path="url(#clip002)" d="M1453.28 683.822 L1453.28 692.922 L1481.41 692.922 L1481.41 683.822 L1453.28 683.822 L1453.28 683.822  Z" fill="#009af9" fill-rule="evenodd" fill-opacity="0.1"/>
<polyline clip-path="url(#clip002)" style="stroke:#000000; stroke-linecap:round; stroke-linejoin:round; stroke-width:4; stroke-opacity:0.1; fill:none" points="1453.28,683.822 1453.28,692.922 1481.41,692.922 1481.41,683.822 1453.28,683.822 "/>
<path clip-path="url(#clip002)" d="M1481.41 679.778 L1481.41 692.922 L1509.54 692.922 L1509.54 679.778 L1481.41 679.778 L1481.41 679.778  Z" fill="#009af9" fill-rule="evenodd" fill-opacity="0.1"/>
<polyline clip-path="url(#clip002)" style="stroke:#000000; stroke-linecap:round; stroke-linejoin:round; stroke-width:4; stroke-opacity:0.1; fill:none" points="1481.41,679.778 1481.41,692.922 1509.54,692.922 1509.54,679.778 1481.41,679.778 "/>
<path clip-path="url(#clip002)" d="M1509.54 678.767 L1509.54 692.922 L1537.67 692.922 L1537.67 678.767 L1509.54 678.767 L1509.54 678.767  Z" fill="#009af9" fill-rule="evenodd" fill-opacity="0.1"/>
<polyline clip-path="url(#clip002)" style="stroke:#000000; stroke-linecap:round; stroke-linejoin:round; stroke-width:4; stroke-opacity:0.1; fill:none" points="1509.54,678.767 1509.54,692.922 1537.67,692.922 1537.67,678.767 1509.54,678.767 "/>
<path clip-path="url(#clip002)" d="M1537.67 683.822 L1537.67 692.922 L1565.8 692.922 L1565.8 683.822 L1537.67 683.822 L1537.67 683.822  Z" fill="#009af9" fill-rule="evenodd" fill-opacity="0.1"/>
<polyline clip-path="url(#clip002)" style="stroke:#000000; stroke-linecap:round; stroke-linejoin:round; stroke-width:4; stroke-opacity:0.1; fill:none" points="1537.67,683.822 1537.67,692.922 1565.8,692.922 1565.8,683.822 1537.67,683.822 "/>
<path clip-path="url(#clip002)" d="M1565.8 687.866 L1565.8 692.922 L1593.93 692.922 L1593.93 687.866 L1565.8 687.866 L1565.8 687.866  Z" fill="#009af9" fill-rule="evenodd" fill-opacity="0.1"/>
<polyline clip-path="url(#clip002)" style="stroke:#000000; stroke-linecap:round; stroke-linejoin:round; stroke-width:4; stroke-opacity:0.1; fill:none" points="1565.8,687.866 1565.8,692.922 1593.93,692.922 1593.93,687.866 1565.8,687.866 "/>
<path clip-path="url(#clip002)" d="M1593.93 687.866 L1593.93 692.922 L1622.06 692.922 L1622.06 687.866 L1593.93 687.866 L1593.93 687.866  Z" fill="#009af9" fill-rule="evenodd" fill-opacity="0.1"/>
<polyline clip-path="url(#clip002)" style="stroke:#000000; stroke-linecap:round; stroke-linejoin:round; stroke-width:4; stroke-opacity:0.1; fill:none" points="1593.93,687.866 1593.93,692.922 1622.06,692.922 1622.06,687.866 1593.93,687.866 "/>
<path clip-path="url(#clip002)" d="M1622.06 689.888 L1622.06 692.922 L1650.18 692.922 L1650.18 689.888 L1622.06 689.888 L1622.06 689.888  Z" fill="#009af9" fill-rule="evenodd" fill-opacity="0.1"/>
<polyline clip-path="url(#clip002)" style="stroke:#000000; stroke-linecap:round; stroke-linejoin:round; stroke-width:4; stroke-opacity:0.1; fill:none" points="1622.06,689.888 1622.06,692.922 1650.18,692.922 1650.18,689.888 1622.06,689.888 "/>
<path clip-path="url(#clip002)" d="M1650.18 685.844 L1650.18 692.922 L1678.31 692.922 L1678.31 685.844 L1650.18 685.844 L1650.18 685.844  Z" fill="#009af9" fill-rule="evenodd" fill-opacity="0.1"/>
<polyline clip-path="url(#clip002)" style="stroke:#000000; stroke-linecap:round; stroke-linejoin:round; stroke-width:4; stroke-opacity:0.1; fill:none" points="1650.18,685.844 1650.18,692.922 1678.31,692.922 1678.31,685.844 1650.18,685.844 "/>
<path clip-path="url(#clip002)" d="M1678.31 688.877 L1678.31 692.922 L1706.44 692.922 L1706.44 688.877 L1678.31 688.877 L1678.31 688.877  Z" fill="#009af9" fill-rule="evenodd" fill-opacity="0.1"/>
<polyline clip-path="url(#clip002)" style="stroke:#000000; stroke-linecap:round; stroke-linejoin:round; stroke-width:4; stroke-opacity:0.1; fill:none" points="1678.31,688.877 1678.31,692.922 1706.44,692.922 1706.44,688.877 1678.31,688.877 "/>
<path clip-path="url(#clip002)" d="M1706.44 689.888 L1706.44 692.922 L1734.57 692.922 L1734.57 689.888 L1706.44 689.888 L1706.44 689.888  Z" fill="#009af9" fill-rule="evenodd" fill-opacity="0.1"/>
<polyline clip-path="url(#clip002)" style="stroke:#000000; stroke-linecap:round; stroke-linejoin:round; stroke-width:4; stroke-opacity:0.1; fill:none" points="1706.44,689.888 1706.44,692.922 1734.57,692.922 1734.57,689.888 1706.44,689.888 "/>
<path clip-path="url(#clip002)" d="M1734.57 692.922 L1734.57 692.922 L1762.7 692.922 L1762.7 692.922 L1734.57 692.922 L1734.57 692.922  Z" fill="#009af9" fill-rule="evenodd" fill-opacity="0.1"/>
<polyline clip-path="url(#clip002)" style="stroke:#000000; stroke-linecap:round; stroke-linejoin:round; stroke-width:4; stroke-opacity:0.1; fill:none" points="1734.57,692.922 1734.57,692.922 1762.7,692.922 1734.57,692.922 "/>
<path clip-path="url(#clip002)" d="M1762.7 690.9 L1762.7 692.922 L1790.83 692.922 L1790.83 690.9 L1762.7 690.9 L1762.7 690.9  Z" fill="#009af9" fill-rule="evenodd" fill-opacity="0.1"/>
<polyline clip-path="url(#clip002)" style="stroke:#000000; stroke-linecap:round; stroke-linejoin:round; stroke-width:4; stroke-opacity:0.1; fill:none" points="1762.7,690.9 1762.7,692.922 1790.83,692.922 1790.83,690.9 1762.7,690.9 "/>
<path clip-path="url(#clip002)" d="M1790.83 689.888 L1790.83 692.922 L1818.96 692.922 L1818.96 689.888 L1790.83 689.888 L1790.83 689.888  Z" fill="#009af9" fill-rule="evenodd" fill-opacity="0.1"/>
<polyline clip-path="url(#clip002)" style="stroke:#000000; stroke-linecap:round; stroke-linejoin:round; stroke-width:4; stroke-opacity:0.1; fill:none" points="1790.83,689.888 1790.83,692.922 1818.96,692.922 1818.96,689.888 1790.83,689.888 "/>
<path clip-path="url(#clip002)" d="M1818.96 691.911 L1818.96 692.922 L1847.09 692.922 L1847.09 691.911 L1818.96 691.911 L1818.96 691.911  Z" fill="#009af9" fill-rule="evenodd" fill-opacity="0.1"/>
<polyline clip-path="url(#clip002)" style="stroke:#000000; stroke-linecap:round; stroke-linejoin:round; stroke-width:4; stroke-opacity:0.1; fill:none" points="1818.96,691.911 1818.96,692.922 1847.09,692.922 1847.09,691.911 1818.96,691.911 "/>
<path clip-path="url(#clip002)" d="M1847.09 691.911 L1847.09 692.922 L1875.22 692.922 L1875.22 691.911 L1847.09 691.911 L1847.09 691.911  Z" fill="#009af9" fill-rule="evenodd" fill-opacity="0.1"/>
<polyline clip-path="url(#clip002)" style="stroke:#000000; stroke-linecap:round; stroke-linejoin:round; stroke-width:4; stroke-opacity:0.1; fill:none" points="1847.09,691.911 1847.09,692.922 1875.22,692.922 1875.22,691.911 1847.09,691.911 "/>
<path clip-path="url(#clip002)" d="M1875.22 692.922 L1875.22 692.922 L1903.35 692.922 L1903.35 692.922 L1875.22 692.922 L1875.22 692.922  Z" fill="#009af9" fill-rule="evenodd" fill-opacity="0.1"/>
<polyline clip-path="url(#clip002)" style="stroke:#000000; stroke-linecap:round; stroke-linejoin:round; stroke-width:4; stroke-opacity:0.1; fill:none" points="1875.22,692.922 1875.22,692.922 1903.35,692.922 1875.22,692.922 "/>
<path clip-path="url(#clip002)" d="M1903.35 691.911 L1903.35 692.922 L1931.48 692.922 L1931.48 691.911 L1903.35 691.911 L1903.35 691.911  Z" fill="#009af9" fill-rule="evenodd" fill-opacity="0.1"/>
<polyline clip-path="url(#clip002)" style="stroke:#000000; stroke-linecap:round; stroke-linejoin:round; stroke-width:4; stroke-opacity:0.1; fill:none" points="1903.35,691.911 1903.35,692.922 1931.48,692.922 1931.48,691.911 1903.35,691.911 "/>
<path clip-path="url(#clip002)" d="M1931.48 689.888 L1931.48 692.922 L1959.61 692.922 L1959.61 689.888 L1931.48 689.888 L1931.48 689.888  Z" fill="#009af9" fill-rule="evenodd" fill-opacity="0.1"/>
<polyline clip-path="url(#clip002)" style="stroke:#000000; stroke-linecap:round; stroke-linejoin:round; stroke-width:4; stroke-opacity:0.1; fill:none" points="1931.48,689.888 1931.48,692.922 1959.61,692.922 1959.61,689.888 1931.48,689.888 "/>
<path clip-path="url(#clip002)" d="M1959.61 692.922 L1959.61 692.922 L1987.74 692.922 L1987.74 692.922 L1959.61 692.922 L1959.61 692.922  Z" fill="#009af9" fill-rule="evenodd" fill-opacity="0.1"/>
<polyline clip-path="url(#clip002)" style="stroke:#000000; stroke-linecap:round; stroke-linejoin:round; stroke-width:4; stroke-opacity:0.1; fill:none" points="1959.61,692.922 1959.61,692.922 1987.74,692.922 1959.61,692.922 "/>
<path clip-path="url(#clip002)" d="M1987.74 691.911 L1987.74 692.922 L2015.87 692.922 L2015.87 691.911 L1987.74 691.911 L1987.74 691.911  Z" fill="#009af9" fill-rule="evenodd" fill-opacity="0.1"/>
<polyline clip-path="url(#clip002)" style="stroke:#000000; stroke-linecap:round; stroke-linejoin:round; stroke-width:4; stroke-opacity:0.1; fill:none" points="1987.74,691.911 1987.74,692.922 2015.87,692.922 2015.87,691.911 1987.74,691.911 "/>
<path clip-path="url(#clip002)" d="M2015.87 691.911 L2015.87 692.922 L2044 692.922 L2044 691.911 L2015.87 691.911 L2015.87 691.911  Z" fill="#009af9" fill-rule="evenodd" fill-opacity="0.1"/>
<polyline clip-path="url(#clip002)" style="stroke:#000000; stroke-linecap:round; stroke-linejoin:round; stroke-width:4; stroke-opacity:0.1; fill:none" points="2015.87,691.911 2015.87,692.922 2044,692.922 2044,691.911 2015.87,691.911 "/>
<path clip-path="url(#clip002)" d="M2044 692.922 L2044 692.922 L2072.13 692.922 L2072.13 692.922 L2044 692.922 L2044 692.922  Z" fill="#009af9" fill-rule="evenodd" fill-opacity="0.1"/>
<polyline clip-path="url(#clip002)" style="stroke:#000000; stroke-linecap:round; stroke-linejoin:round; stroke-width:4; stroke-opacity:0.1; fill:none" points="2044,692.922 2044,692.922 2072.13,692.922 2044,692.922 "/>
<path clip-path="url(#clip002)" d="M2072.13 690.9 L2072.13 692.922 L2100.26 692.922 L2100.26 690.9 L2072.13 690.9 L2072.13 690.9  Z" fill="#009af9" fill-rule="evenodd" fill-opacity="0.1"/>
<polyline clip-path="url(#clip002)" style="stroke:#000000; stroke-linecap:round; stroke-linejoin:round; stroke-width:4; stroke-opacity:0.1; fill:none" points="2072.13,690.9 2072.13,692.922 2100.26,692.922 2100.26,690.9 2072.13,690.9 "/>
<path clip-path="url(#clip002)" d="M2100.26 692.922 L2100.26 692.922 L2128.39 692.922 L2128.39 692.922 L2100.26 692.922 L2100.26 692.922  Z" fill="#009af9" fill-rule="evenodd" fill-opacity="0.1"/>
<polyline clip-path="url(#clip002)" style="stroke:#000000; stroke-linecap:round; stroke-linejoin:round; stroke-width:4; stroke-opacity:0.1; fill:none" points="2100.26,692.922 2100.26,692.922 2128.39,692.922 2100.26,692.922 "/>
<path clip-path="url(#clip002)" d="M2128.39 692.922 L2128.39 692.922 L2156.52 692.922 L2156.52 692.922 L2128.39 692.922 L2128.39 692.922  Z" fill="#009af9" fill-rule="evenodd" fill-opacity="0.1"/>
<polyline clip-path="url(#clip002)" style="stroke:#000000; stroke-linecap:round; stroke-linejoin:round; stroke-width:4; stroke-opacity:0.1; fill:none" points="2128.39,692.922 2128.39,692.922 2156.52,692.922 2128.39,692.922 "/>
<path clip-path="url(#clip002)" d="M2156.52 691.911 L2156.52 692.922 L2184.65 692.922 L2184.65 691.911 L2156.52 691.911 L2156.52 691.911  Z" fill="#009af9" fill-rule="evenodd" fill-opacity="0.1"/>
<polyline clip-path="url(#clip002)" style="stroke:#000000; stroke-linecap:round; stroke-linejoin:round; stroke-width:4; stroke-opacity:0.1; fill:none" points="2156.52,691.911 2156.52,692.922 2184.65,692.922 2184.65,691.911 2156.52,691.911 "/>
<circle clip-path="url(#clip002)" style="fill:#009af9; stroke:none; fill-opacity:0" cx="285.902" cy="689.888" r="2"/>
<circle clip-path="url(#clip002)" style="fill:#009af9; stroke:none; fill-opacity:0" cx="314.031" cy="673.711" r="2"/>
<circle clip-path="url(#clip002)" style="fill:#009af9; stroke:none; fill-opacity:0" cx="342.161" cy="603.946" r="2"/>
<circle clip-path="url(#clip002)" style="fill:#009af9; stroke:none; fill-opacity:0" cx="370.29" cy="500.816" r="2"/>
<circle clip-path="url(#clip002)" style="fill:#009af9; stroke:none; fill-opacity:0" cx="398.42" cy="376.453" r="2"/>
<circle clip-path="url(#clip002)" style="fill:#009af9; stroke:none; fill-opacity:0" cx="426.549" cy="295.566" r="2"/>
<circle clip-path="url(#clip002)" style="fill:#009af9; stroke:none; fill-opacity:0" cx="454.679" cy="161.092" r="2"/>
<circle clip-path="url(#clip002)" style="fill:#009af9; stroke:none; fill-opacity:0" cx="482.808" cy="97.3938" r="2"/>
<circle clip-path="url(#clip002)" style="fill:#009af9; stroke:none; fill-opacity:0" cx="510.938" cy="84.2497" r="2"/>
<circle clip-path="url(#clip002)" style="fill:#009af9; stroke:none; fill-opacity:0" cx="539.068" cy="85.2608" r="2"/>
<circle clip-path="url(#clip002)" style="fill:#009af9; stroke:none; fill-opacity:0" cx="567.197" cy="66.0502" r="2"/>
<circle clip-path="url(#clip002)" style="fill:#009af9; stroke:none; fill-opacity:0" cx="595.327" cy="113.571" r="2"/>
<circle clip-path="url(#clip002)" style="fill:#009af9; stroke:none; fill-opacity:0" cx="623.456" cy="131.771" r="2"/>
<circle clip-path="url(#clip002)" style="fill:#009af9; stroke:none; fill-opacity:0" cx="651.586" cy="151.992" r="2"/>
<circle clip-path="url(#clip002)" style="fill:#009af9; stroke:none; fill-opacity:0" cx="679.715" cy="225.801" r="2"/>
<circle clip-path="url(#clip002)" style="fill:#009af9; stroke:none; fill-opacity:0" cx="707.845" cy="250.067" r="2"/>
<circle clip-path="url(#clip002)" style="fill:#009af9; stroke:none; fill-opacity:0" cx="735.974" cy="267.256" r="2"/>
<circle clip-path="url(#clip002)" style="fill:#009af9; stroke:none; fill-opacity:0" cx="764.104" cy="350.165" r="2"/>
<circle clip-path="url(#clip002)" style="fill:#009af9; stroke:none; fill-opacity:0" cx="792.233" cy="346.12" r="2"/>
<circle clip-path="url(#clip002)" style="fill:#009af9; stroke:none; fill-opacity:0" cx="820.363" cy="420.94" r="2"/>
<circle clip-path="url(#clip002)" style="fill:#009af9; stroke:none; fill-opacity:0" cx="848.493" cy="411.841" r="2"/>
<circle clip-path="url(#clip002)" style="fill:#009af9; stroke:none; fill-opacity:0" cx="876.622" cy="450.262" r="2"/>
<circle clip-path="url(#clip002)" style="fill:#009af9; stroke:none; fill-opacity:0" cx="904.752" cy="496.772" r="2"/>
<circle clip-path="url(#clip002)" style="fill:#009af9; stroke:none; fill-opacity:0" cx="932.881" cy="516.993" r="2"/>
<circle clip-path="url(#clip002)" style="fill:#009af9; stroke:none; fill-opacity:0" cx="961.011" cy="529.126" r="2"/>
<circle clip-path="url(#clip002)" style="fill:#009af9; stroke:none; fill-opacity:0" cx="989.14" cy="560.47" r="2"/>
<circle clip-path="url(#clip002)" style="fill:#009af9; stroke:none; fill-opacity:0" cx="1017.27" cy="588.78" r="2"/>
<circle clip-path="url(#clip002)" style="fill:#009af9; stroke:none; fill-opacity:0" cx="1045.4" cy="603.946" r="2"/>
<circle clip-path="url(#clip002)" style="fill:#009af9; stroke:none; fill-opacity:0" cx="1073.53" cy="578.669" r="2"/>
<circle clip-path="url(#clip002)" style="fill:#009af9; stroke:none; fill-opacity:0" cx="1101.66" cy="600.913" r="2"/>
<circle clip-path="url(#clip002)" style="fill:#009af9; stroke:none; fill-opacity:0" cx="1129.79" cy="618.102" r="2"/>
<circle clip-path="url(#clip002)" style="fill:#009af9; stroke:none; fill-opacity:0" cx="1157.92" cy="642.368" r="2"/>
<circle clip-path="url(#clip002)" style="fill:#009af9; stroke:none; fill-opacity:0" cx="1186.05" cy="626.19" r="2"/>
<circle clip-path="url(#clip002)" style="fill:#009af9; stroke:none; fill-opacity:0" cx="1214.18" cy="645.401" r="2"/>
<circle clip-path="url(#clip002)" style="fill:#009af9; stroke:none; fill-opacity:0" cx="1242.31" cy="651.467" r="2"/>
<circle clip-path="url(#clip002)" style="fill:#009af9; stroke:none; fill-opacity:0" cx="1270.44" cy="641.356" r="2"/>
<circle clip-path="url(#clip002)" style="fill:#009af9; stroke:none; fill-opacity:0" cx="1298.57" cy="661.578" r="2"/>
<circle clip-path="url(#clip002)" style="fill:#009af9; stroke:none; fill-opacity:0" cx="1326.69" cy="661.578" r="2"/>
<circle clip-path="url(#clip002)" style="fill:#009af9; stroke:none; fill-opacity:0" cx="1354.82" cy="673.711" r="2"/>
<circle clip-path="url(#clip002)" style="fill:#009af9; stroke:none; fill-opacity:0" cx="1382.95" cy="667.645" r="2"/>
<circle clip-path="url(#clip002)" style="fill:#009af9; stroke:none; fill-opacity:0" cx="1411.08" cy="678.767" r="2"/>
<circle clip-path="url(#clip002)" style="fill:#009af9; stroke:none; fill-opacity:0" cx="1439.21" cy="682.811" r="2"/>
<circle clip-path="url(#clip002)" style="fill:#009af9; stroke:none; fill-opacity:0" cx="1467.34" cy="683.822" r="2"/>
<circle clip-path="url(#clip002)" style="fill:#009af9; stroke:none; fill-opacity:0" cx="1495.47" cy="679.778" r="2"/>
<circle clip-path="url(#clip002)" style="fill:#009af9; stroke:none; fill-opacity:0" cx="1523.6" cy="678.767" r="2"/>
<circle clip-path="url(#clip002)" style="fill:#009af9; stroke:none; fill-opacity:0" cx="1551.73" cy="683.822" r="2"/>
<circle clip-path="url(#clip002)" style="fill:#009af9; stroke:none; fill-opacity:0" cx="1579.86" cy="687.866" r="2"/>
<circle clip-path="url(#clip002)" style="fill:#009af9; stroke:none; fill-opacity:0" cx="1607.99" cy="687.866" r="2"/>
<circle clip-path="url(#clip002)" style="fill:#009af9; stroke:none; fill-opacity:0" cx="1636.12" cy="689.888" r="2"/>
<circle clip-path="url(#clip002)" style="fill:#009af9; stroke:none; fill-opacity:0" cx="1664.25" cy="685.844" r="2"/>
<circle clip-path="url(#clip002)" style="fill:#009af9; stroke:none; fill-opacity:0" cx="1692.38" cy="688.877" r="2"/>
<circle clip-path="url(#clip002)" style="fill:#009af9; stroke:none; fill-opacity:0" cx="1720.51" cy="689.888" r="2"/>
<circle clip-path="url(#clip002)" style="fill:#009af9; stroke:none; fill-opacity:0" cx="1748.64" cy="692.922" r="2"/>
<circle clip-path="url(#clip002)" style="fill:#009af9; stroke:none; fill-opacity:0" cx="1776.77" cy="690.9" r="2"/>
<circle clip-path="url(#clip002)" style="fill:#009af9; stroke:none; fill-opacity:0" cx="1804.9" cy="689.888" r="2"/>
<circle clip-path="url(#clip002)" style="fill:#009af9; stroke:none; fill-opacity:0" cx="1833.03" cy="691.911" r="2"/>
<circle clip-path="url(#clip002)" style="fill:#009af9; stroke:none; fill-opacity:0" cx="1861.16" cy="691.911" r="2"/>
<circle clip-path="url(#clip002)" style="fill:#009af9; stroke:none; fill-opacity:0" cx="1889.29" cy="692.922" r="2"/>
<circle clip-path="url(#clip002)" style="fill:#009af9; stroke:none; fill-opacity:0" cx="1917.42" cy="691.911" r="2"/>
<circle clip-path="url(#clip002)" style="fill:#009af9; stroke:none; fill-opacity:0" cx="1945.54" cy="689.888" r="2"/>
<circle clip-path="url(#clip002)" style="fill:#009af9; stroke:none; fill-opacity:0" cx="1973.67" cy="692.922" r="2"/>
<circle clip-path="url(#clip002)" style="fill:#009af9; stroke:none; fill-opacity:0" cx="2001.8" cy="691.911" r="2"/>
<circle clip-path="url(#clip002)" style="fill:#009af9; stroke:none; fill-opacity:0" cx="2029.93" cy="691.911" r="2"/>
<circle clip-path="url(#clip002)" style="fill:#009af9; stroke:none; fill-opacity:0" cx="2058.06" cy="692.922" r="2"/>
<circle clip-path="url(#clip002)" style="fill:#009af9; stroke:none; fill-opacity:0" cx="2086.19" cy="690.9" r="2"/>
<circle clip-path="url(#clip002)" style="fill:#009af9; stroke:none; fill-opacity:0" cx="2114.32" cy="692.922" r="2"/>
<circle clip-path="url(#clip002)" style="fill:#009af9; stroke:none; fill-opacity:0" cx="2142.45" cy="692.922" r="2"/>
<circle clip-path="url(#clip002)" style="fill:#009af9; stroke:none; fill-opacity:0" cx="2170.58" cy="691.911" r="2"/>
<polyline clip-path="url(#clip002)" style="stroke:#e26f46; stroke-linecap:round; stroke-linejoin:round; stroke-width:4; stroke-opacity:1; fill:none" points="174.33,692.921 184.958,692.919 195.586,692.912 206.214,692.89 216.842,692.83 227.47,692.677 238.098,692.328 248.726,691.6 259.354,690.2 269.982,687.692 280.61,683.486 291.238,676.833 301.866,666.886 312.494,652.805 323.122,633.939 333.751,609.999 344.379,581.178 355.007,548.134 365.635,511.839 376.263,473.343 386.891,433.537 397.519,393.033 408.147,352.232 418.775,311.562 429.403,271.752 440.031,233.933 450.659,199.446 461.287,169.448 471.915,144.567 482.543,124.795 493.171,109.65 503.799,98.4424 514.427,90.5022 525.055,85.3018 535.683,82.5143 546.311,82.0136 556.939,83.7915 567.567,87.8001 578.195,93.8203 588.823,101.468 599.451,110.335 610.079,120.162 620.707,130.904 631.335,142.691 641.963,155.706 652.591,170.018 663.219,185.43 673.847,201.42 684.475,217.288 695.103,232.459 705.731,246.782 716.359,260.591 726.987,274.463 737.615,288.825 748.243,303.693 758.871,318.723 769.499,333.482 780.127,347.711 790.755,361.362 801.383,374.448 812.012,386.902 822.64,398.626 833.268,409.682 843.896,420.43 854.524,431.423 865.152,443.104 875.78,455.518 886.408,468.245 897.036,480.587 907.664,491.888 918.292,501.807 928.92,510.418 939.548,518.142 950.176,525.553 960.804,533.173 971.432,541.329 982.06,550.09 992.688,559.259 1003.32,568.374 1013.94,576.772 1024.57,583.752 1035.2,588.83 1045.83,591.974 1056.46,593.674 1067.08,594.794 1077.71,596.26 1088.34,598.747 1098.97,602.503 1109.6,607.362 1120.22,612.867 1130.85,618.433 1141.48,623.488 1152.11,627.615 1162.74,630.676 1173.36,632.863 1183.99,634.612 1194.62,636.401 1205.25,638.509 1215.88,640.901 1226.5,643.31 1237.13,645.456 1247.76,647.244 1258.39,648.815 1269.02,650.441 1279.64,652.356 1290.27,654.644 1300.9,657.233 1311.53,659.957 1322.16,662.621 1332.78,665.058 1343.41,667.164 1354.04,668.926 1364.67,670.436 1375.3,671.865 1385.92,673.379 1396.55,675.051 1407.18,676.816 1417.81,678.498 1428.44,679.897 1439.06,680.871 1449.69,681.38 1460.32,681.486 1470.95,681.316 1481.58,681.023 1492.2,680.759 1502.83,680.644 1513.46,680.765 1524.09,681.163 1534.72,681.833 1545.35,682.733 1555.97,683.789 1566.6,684.904 1577.23,685.972 1587.86,686.891 1598.49,687.587 1609.11,688.03 1619.74,688.241 1630.37,688.273 1641,688.198 1651.63,688.089 1662.25,688.016 1672.88,688.044 1683.51,688.229 1694.14,688.599 1704.77,689.14 1715.39,689.781 1726.02,690.404 1736.65,690.89 1747.28,691.16 1757.91,691.215 1768.53,691.127 1779.16,691.009 1789.79,690.96 1800.42,691.023 1811.05,691.185 1821.67,691.399 1832.3,691.618 1842.93,691.817 1853.56,691.989 1864.19,692.123 1874.81,692.199 1885.44,692.187 1896.07,692.076 1906.7,691.885 1917.33,691.67 1927.95,691.504 1938.58,691.446 1949.21,691.511 1959.84,691.667 1970.47,691.854 1981.09,692.014 1991.72,692.12 2002.35,692.174 2012.98,692.197 2023.61,692.21 2034.23,692.22 2044.86,692.22 2055.49,692.201 2066.12,692.162 2076.75,692.117 2087.37,692.094 2098,692.117 2108.63,692.188 2119.26,692.286 2129.89,692.379 2140.51,692.442 2151.14,692.474 2161.77,692.494 2172.4,692.524 2183.03,692.577 2193.65,692.651 2204.28,692.732 2214.91,692.803 2225.54,692.856 2236.17,692.889 2246.79,692.908 2257.42,692.916 2268.05,692.92 2278.68,692.921 2289.31,692.921 "/>
<polyline clip-path="url(#clip002)" style="stroke:#3da44d; stroke-linecap:round; stroke-linejoin:round; stroke-width:16; stroke-opacity:1; fill:none" points="537.707,692.922 537.707,66.0502 "/>
<path clip-path="url(#clip000)" d="M1576.53 224.914 L2278.03 224.914 L2278.03 69.3936 L1576.53 69.3936  Z" fill="#ffffff" fill-rule="evenodd" fill-opacity="1"/>
<polyline clip-path="url(#clip000)" style="stroke:#000000; stroke-linecap:round; stroke-linejoin:round; stroke-width:4; stroke-opacity:1; fill:none" points="1576.53,224.914 2278.03,224.914 2278.03,69.3936 1576.53,69.3936 1576.53,224.914 "/>
<polyline clip-path="url(#clip000)" style="stroke:#e26f46; stroke-linecap:round; stroke-linejoin:round; stroke-width:4; stroke-opacity:1; fill:none" points="1601.44,121.234 1750.9,121.234 "/>
<path clip-path="url(#clip000)" d="M1780.48 107.796 L1780.48 120.782 L1786.36 120.782 Q1789.62 120.782 1791.41 119.092 Q1793.19 117.403 1793.19 114.278 Q1793.19 111.176 1791.41 109.486 Q1789.62 107.796 1786.36 107.796 L1780.48 107.796 M1775.8 103.954 L1786.36 103.954 Q1792.17 103.954 1795.13 106.592 Q1798.12 109.208 1798.12 114.278 Q1798.12 119.393 1795.13 122.009 Q1792.17 124.625 1786.36 124.625 L1780.48 124.625 L1780.48 138.514 L1775.8 138.514 L1775.8 103.954 Z" fill="#000000" fill-rule="evenodd" fill-opacity="1" /><path clip-path="url(#clip000)" d="M1812.56 115.574 Q1809.14 115.574 1807.15 118.259 Q1805.16 120.921 1805.16 125.574 Q1805.16 130.227 1807.12 132.912 Q1809.11 135.574 1812.56 135.574 Q1815.97 135.574 1817.96 132.889 Q1819.95 130.203 1819.95 125.574 Q1819.95 120.967 1817.96 118.282 Q1815.97 115.574 1812.56 115.574 M1812.56 111.963 Q1818.12 111.963 1821.29 115.574 Q1824.46 119.185 1824.46 125.574 Q1824.46 131.94 1821.29 135.574 Q1818.12 139.185 1812.56 139.185 Q1806.99 139.185 1803.81 135.574 Q1800.67 131.94 1800.67 125.574 Q1800.67 119.185 1803.81 115.574 Q1806.99 111.963 1812.56 111.963 Z" fill="#000000" fill-rule="evenodd" fill-opacity="1" /><path clip-path="url(#clip000)" d="M1848.05 113.352 L1848.05 117.379 Q1846.24 116.453 1844.3 115.991 Q1842.36 115.528 1840.27 115.528 Q1837.1 115.528 1835.5 116.5 Q1833.93 117.472 1833.93 119.416 Q1833.93 120.898 1835.06 121.754 Q1836.2 122.588 1839.62 123.352 L1841.08 123.676 Q1845.62 124.648 1847.52 126.43 Q1849.44 128.19 1849.44 131.361 Q1849.44 134.972 1846.57 137.078 Q1843.72 139.185 1838.72 139.185 Q1836.64 139.185 1834.37 138.768 Q1832.12 138.375 1829.62 137.564 L1829.62 133.166 Q1831.99 134.393 1834.28 135.018 Q1836.57 135.62 1838.81 135.62 Q1841.82 135.62 1843.44 134.602 Q1845.06 133.56 1845.06 131.685 Q1845.06 129.949 1843.88 129.023 Q1842.73 128.097 1838.77 127.24 L1837.29 126.893 Q1833.33 126.06 1831.57 124.347 Q1829.81 122.611 1829.81 119.602 Q1829.81 115.944 1832.4 113.954 Q1834.99 111.963 1839.76 111.963 Q1842.12 111.963 1844.21 112.31 Q1846.29 112.657 1848.05 113.352 Z" fill="#000000" fill-rule="evenodd" fill-opacity="1" /><path clip-path="url(#clip000)" d="M1860.43 105.227 L1860.43 112.588 L1869.21 112.588 L1869.21 115.898 L1860.43 115.898 L1860.43 129.972 Q1860.43 133.143 1861.29 134.046 Q1862.17 134.949 1864.83 134.949 L1869.21 134.949 L1869.21 138.514 L1864.83 138.514 Q1859.9 138.514 1858.03 136.685 Q1856.15 134.833 1856.15 129.972 L1856.15 115.898 L1853.03 115.898 L1853.03 112.588 L1856.15 112.588 L1856.15 105.227 L1860.43 105.227 Z" fill="#000000" fill-rule="evenodd" fill-opacity="1" /><path clip-path="url(#clip000)" d="M1896.98 124.486 L1896.98 126.569 L1877.4 126.569 Q1877.68 130.967 1880.04 133.282 Q1882.42 135.574 1886.66 135.574 Q1889.11 135.574 1891.41 134.972 Q1893.72 134.37 1895.99 133.166 L1895.99 137.194 Q1893.7 138.166 1891.29 138.676 Q1888.88 139.185 1886.41 139.185 Q1880.2 139.185 1876.57 135.574 Q1872.96 131.963 1872.96 125.805 Q1872.96 119.44 1876.38 115.713 Q1879.83 111.963 1885.67 111.963 Q1890.9 111.963 1893.93 115.342 Q1896.98 118.699 1896.98 124.486 M1892.73 123.236 Q1892.68 119.741 1890.76 117.657 Q1888.86 115.574 1885.71 115.574 Q1882.15 115.574 1879.99 117.588 Q1877.86 119.602 1877.54 123.259 L1892.73 123.236 Z" fill="#000000" fill-rule="evenodd" fill-opacity="1" /><path clip-path="url(#clip000)" d="M1919 116.569 Q1918.28 116.153 1917.42 115.967 Q1916.59 115.759 1915.57 115.759 Q1911.96 115.759 1910.02 118.12 Q1908.1 120.458 1908.1 124.856 L1908.1 138.514 L1903.81 138.514 L1903.81 112.588 L1908.1 112.588 L1908.1 116.616 Q1909.44 114.254 1911.59 113.12 Q1913.74 111.963 1916.82 111.963 Q1917.26 111.963 1917.79 112.032 Q1918.33 112.079 1918.98 112.194 L1919 116.569 Z" fill="#000000" fill-rule="evenodd" fill-opacity="1" /><path clip-path="url(#clip000)" d="M1923.47 112.588 L1927.73 112.588 L1927.73 138.514 L1923.47 138.514 L1923.47 112.588 M1923.47 102.495 L1927.73 102.495 L1927.73 107.889 L1923.47 107.889 L1923.47 102.495 Z" fill="#000000" fill-rule="evenodd" fill-opacity="1" /><path clip-path="url(#clip000)" d="M1946.68 115.574 Q1943.26 115.574 1941.27 118.259 Q1939.28 120.921 1939.28 125.574 Q1939.28 130.227 1941.24 132.912 Q1943.23 135.574 1946.68 135.574 Q1950.09 135.574 1952.08 132.889 Q1954.07 130.203 1954.07 125.574 Q1954.07 120.967 1952.08 118.282 Q1950.09 115.574 1946.68 115.574 M1946.68 111.963 Q1952.24 111.963 1955.41 115.574 Q1958.58 119.185 1958.58 125.574 Q1958.58 131.94 1955.41 135.574 Q1952.24 139.185 1946.68 139.185 Q1941.1 139.185 1937.93 135.574 Q1934.79 131.94 1934.79 125.574 Q1934.79 119.185 1937.93 115.574 Q1941.1 111.963 1946.68 111.963 Z" fill="#000000" fill-rule="evenodd" fill-opacity="1" /><path clip-path="url(#clip000)" d="M1980.66 116.569 Q1979.95 116.153 1979.09 115.967 Q1978.26 115.759 1977.24 115.759 Q1973.63 115.759 1971.68 118.12 Q1969.76 120.458 1969.76 124.856 L1969.76 138.514 L1965.48 138.514 L1965.48 112.588 L1969.76 112.588 L1969.76 116.616 Q1971.1 114.254 1973.26 113.12 Q1975.41 111.963 1978.49 111.963 Q1978.93 111.963 1979.46 112.032 Q1979.99 112.079 1980.64 112.194 L1980.66 116.569 Z" fill="#000000" fill-rule="evenodd" fill-opacity="1" /><path clip-path="url(#clip000)" d="M2026.27 106.616 L2026.27 111.546 Q2023.91 109.347 2021.22 108.259 Q2018.56 107.171 2015.55 107.171 Q2009.62 107.171 2006.47 110.805 Q2003.33 114.416 2003.33 121.268 Q2003.33 128.097 2006.47 131.731 Q2009.62 135.342 2015.55 135.342 Q2018.56 135.342 2021.22 134.254 Q2023.91 133.166 2026.27 130.967 L2026.27 135.852 Q2023.81 137.518 2021.06 138.352 Q2018.33 139.185 2015.27 139.185 Q2007.42 139.185 2002.91 134.393 Q1998.4 129.578 1998.4 121.268 Q1998.4 112.935 2002.91 108.143 Q2007.42 103.329 2015.27 103.329 Q2018.37 103.329 2021.1 104.162 Q2023.86 104.972 2026.27 106.616 Z" fill="#000000" fill-rule="evenodd" fill-opacity="1" /><path clip-path="url(#clip000)" d="M2043.35 115.574 Q2039.92 115.574 2037.93 118.259 Q2035.94 120.921 2035.94 125.574 Q2035.94 130.227 2037.91 132.912 Q2039.9 135.574 2043.35 135.574 Q2046.75 135.574 2048.74 132.889 Q2050.73 130.203 2050.73 125.574 Q2050.73 120.967 2048.74 118.282 Q2046.75 115.574 2043.35 115.574 M2043.35 111.963 Q2048.91 111.963 2052.08 115.574 Q2055.25 119.185 2055.25 125.574 Q2055.25 131.94 2052.08 135.574 Q2048.91 139.185 2043.35 139.185 Q2037.77 139.185 2034.6 135.574 Q2031.45 131.94 2031.45 125.574 Q2031.45 119.185 2034.6 115.574 Q2037.77 111.963 2043.35 111.963 Z" fill="#000000" fill-rule="evenodd" fill-opacity="1" /><path clip-path="url(#clip000)" d="M2077.33 116.569 Q2076.61 116.153 2075.76 115.967 Q2074.92 115.759 2073.91 115.759 Q2070.29 115.759 2068.35 118.12 Q2066.43 120.458 2066.43 124.856 L2066.43 138.514 L2062.15 138.514 L2062.15 112.588 L2066.43 112.588 L2066.43 116.616 Q2067.77 114.254 2069.92 113.12 Q2072.08 111.963 2075.16 111.963 Q2075.59 111.963 2076.13 112.032 Q2076.66 112.079 2077.31 112.194 L2077.33 116.569 Z" fill="#000000" fill-rule="evenodd" fill-opacity="1" /><path clip-path="url(#clip000)" d="M2095.99 116.569 Q2095.27 116.153 2094.41 115.967 Q2093.58 115.759 2092.56 115.759 Q2088.95 115.759 2087.01 118.12 Q2085.09 120.458 2085.09 124.856 L2085.09 138.514 L2080.8 138.514 L2080.8 112.588 L2085.09 112.588 L2085.09 116.616 Q2086.43 114.254 2088.58 113.12 Q2090.73 111.963 2093.81 111.963 Q2094.25 111.963 2094.78 112.032 Q2095.32 112.079 2095.97 112.194 L2095.99 116.569 Z" fill="#000000" fill-rule="evenodd" fill-opacity="1" /><path clip-path="url(#clip000)" d="M2121.59 124.486 L2121.59 126.569 L2102.01 126.569 Q2102.28 130.967 2104.65 133.282 Q2107.03 135.574 2111.27 135.574 Q2113.72 135.574 2116.01 134.972 Q2118.33 134.37 2120.59 133.166 L2120.59 137.194 Q2118.3 138.166 2115.9 138.676 Q2113.49 139.185 2111.01 139.185 Q2104.81 139.185 2101.17 135.574 Q2097.56 131.963 2097.56 125.805 Q2097.56 119.44 2100.99 115.713 Q2104.44 111.963 2110.27 111.963 Q2115.5 111.963 2118.53 115.342 Q2121.59 118.699 2121.59 124.486 M2117.33 123.236 Q2117.28 119.741 2115.36 117.657 Q2113.46 115.574 2110.32 115.574 Q2106.75 115.574 2104.6 117.588 Q2102.47 119.602 2102.15 123.259 L2117.33 123.236 Z" fill="#000000" fill-rule="evenodd" fill-opacity="1" /><path clip-path="url(#clip000)" d="M2128.58 102.495 L2132.84 102.495 L2132.84 138.514 L2128.58 138.514 L2128.58 102.495 Z" fill="#000000" fill-rule="evenodd" fill-opacity="1" /><path clip-path="url(#clip000)" d="M2153.53 125.481 Q2148.37 125.481 2146.38 126.662 Q2144.39 127.842 2144.39 130.69 Q2144.39 132.958 2145.87 134.301 Q2147.38 135.62 2149.95 135.62 Q2153.49 135.62 2155.62 133.12 Q2157.77 130.597 2157.77 126.43 L2157.77 125.481 L2153.53 125.481 M2162.03 123.722 L2162.03 138.514 L2157.77 138.514 L2157.77 134.578 Q2156.31 136.939 2154.14 138.074 Q2151.96 139.185 2148.81 139.185 Q2144.83 139.185 2142.47 136.963 Q2140.13 134.717 2140.13 130.967 Q2140.13 126.592 2143.05 124.37 Q2145.99 122.148 2151.8 122.148 L2157.77 122.148 L2157.77 121.731 Q2157.77 118.791 2155.83 117.194 Q2153.9 115.574 2150.41 115.574 Q2148.19 115.574 2146.08 116.106 Q2143.97 116.639 2142.03 117.703 L2142.03 113.768 Q2144.37 112.866 2146.57 112.426 Q2148.77 111.963 2150.85 111.963 Q2156.47 111.963 2159.25 114.879 Q2162.03 117.796 2162.03 123.722 Z" fill="#000000" fill-rule="evenodd" fill-opacity="1" /><path clip-path="url(#clip000)" d="M2175.02 105.227 L2175.02 112.588 L2183.79 112.588 L2183.79 115.898 L2175.02 115.898 L2175.02 129.972 Q2175.02 133.143 2175.87 134.046 Q2176.75 134.949 2179.41 134.949 L2183.79 134.949 L2183.79 138.514 L2179.41 138.514 Q2174.48 138.514 2172.61 136.685 Q2170.73 134.833 2170.73 129.972 L2170.73 115.898 L2167.61 115.898 L2167.61 112.588 L2170.73 112.588 L2170.73 105.227 L2175.02 105.227 Z" fill="#000000" fill-rule="evenodd" fill-opacity="1" /><path clip-path="url(#clip000)" d="M2189.39 112.588 L2193.65 112.588 L2193.65 138.514 L2189.39 138.514 L2189.39 112.588 M2189.39 102.495 L2193.65 102.495 L2193.65 107.889 L2189.39 107.889 L2189.39 102.495 Z" fill="#000000" fill-rule="evenodd" fill-opacity="1" /><path clip-path="url(#clip000)" d="M2212.61 115.574 Q2209.18 115.574 2207.19 118.259 Q2205.2 120.921 2205.2 125.574 Q2205.2 130.227 2207.17 132.912 Q2209.16 135.574 2212.61 135.574 Q2216.01 135.574 2218 132.889 Q2219.99 130.203 2219.99 125.574 Q2219.99 120.967 2218 118.282 Q2216.01 115.574 2212.61 115.574 M2212.61 111.963 Q2218.16 111.963 2221.33 115.574 Q2224.51 119.185 2224.51 125.574 Q2224.51 131.94 2221.33 135.574 Q2218.16 139.185 2212.61 139.185 Q2207.03 139.185 2203.86 135.574 Q2200.71 131.94 2200.71 125.574 Q2200.71 119.185 2203.86 115.574 Q2207.03 111.963 2212.61 111.963 Z" fill="#000000" fill-rule="evenodd" fill-opacity="1" /><path clip-path="url(#clip000)" d="M2253.12 122.865 L2253.12 138.514 L2248.86 138.514 L2248.86 123.004 Q2248.86 119.324 2247.42 117.495 Q2245.99 115.666 2243.12 115.666 Q2239.67 115.666 2237.68 117.866 Q2235.69 120.065 2235.69 123.861 L2235.69 138.514 L2231.4 138.514 L2231.4 112.588 L2235.69 112.588 L2235.69 116.616 Q2237.21 114.278 2239.27 113.12 Q2241.36 111.963 2244.07 111.963 Q2248.53 111.963 2250.83 114.741 Q2253.12 117.495 2253.12 122.865 Z" fill="#000000" fill-rule="evenodd" fill-opacity="1" /><polyline clip-path="url(#clip000)" style="stroke:#3da44d; stroke-linecap:round; stroke-linejoin:round; stroke-width:16; stroke-opacity:1; fill:none" points="1601.44,173.074 1750.9,173.074 "/>
<path clip-path="url(#clip000)" d="M1775.8 155.794 L1795.67 155.794 L1795.67 159.729 L1780.48 159.729 L1780.48 169.914 L1794.18 169.914 L1794.18 173.849 L1780.48 173.849 L1780.48 190.354 L1775.8 190.354 L1775.8 155.794 Z" fill="#000000" fill-rule="evenodd" fill-opacity="1" /><path clip-path="url(#clip000)" d="M1814.46 168.409 Q1813.74 167.993 1812.89 167.807 Q1812.05 167.599 1811.04 167.599 Q1807.42 167.599 1805.48 169.96 Q1803.56 172.298 1803.56 176.696 L1803.56 190.354 L1799.28 190.354 L1799.28 164.428 L1803.56 164.428 L1803.56 168.456 Q1804.9 166.094 1807.05 164.96 Q1809.21 163.803 1812.29 163.803 Q1812.73 163.803 1813.26 163.872 Q1813.79 163.919 1814.44 164.034 L1814.46 168.409 Z" fill="#000000" fill-rule="evenodd" fill-opacity="1" /><path clip-path="url(#clip000)" d="M1840.06 176.326 L1840.06 178.409 L1820.48 178.409 Q1820.76 182.807 1823.12 185.122 Q1825.5 187.414 1829.74 187.414 Q1832.19 187.414 1834.48 186.812 Q1836.8 186.21 1839.07 185.006 L1839.07 189.034 Q1836.78 190.006 1834.37 190.516 Q1831.96 191.025 1829.49 191.025 Q1823.28 191.025 1819.65 187.414 Q1816.04 183.803 1816.04 177.645 Q1816.04 171.28 1819.46 167.553 Q1822.91 163.803 1828.74 163.803 Q1833.98 163.803 1837.01 167.182 Q1840.06 170.539 1840.06 176.326 M1835.8 175.076 Q1835.76 171.581 1833.84 169.497 Q1831.94 167.414 1828.79 167.414 Q1825.23 167.414 1823.07 169.428 Q1820.94 171.442 1820.62 175.099 L1835.8 175.076 Z" fill="#000000" fill-rule="evenodd" fill-opacity="1" /><path clip-path="url(#clip000)" d="M1849.6 177.414 Q1849.6 182.113 1851.52 184.798 Q1853.47 187.46 1856.85 187.46 Q1860.23 187.46 1862.17 184.798 Q1864.11 182.113 1864.11 177.414 Q1864.11 172.715 1862.17 170.053 Q1860.23 167.368 1856.85 167.368 Q1853.47 167.368 1851.52 170.053 Q1849.6 172.715 1849.6 177.414 M1864.11 186.465 Q1862.77 188.779 1860.71 189.914 Q1858.67 191.025 1855.8 191.025 Q1851.11 191.025 1848.14 187.275 Q1845.2 183.525 1845.2 177.414 Q1845.2 171.303 1848.14 167.553 Q1851.11 163.803 1855.8 163.803 Q1858.67 163.803 1860.71 164.937 Q1862.77 166.048 1864.11 168.363 L1864.11 164.428 L1868.37 164.428 L1868.37 200.215 L1864.11 200.215 L1864.11 186.465 Z" fill="#000000" fill-rule="evenodd" fill-opacity="1" /><path clip-path="url(#clip000)" d="M1918.28 158.456 L1918.28 163.386 Q1915.92 161.187 1913.23 160.099 Q1910.57 159.011 1907.56 159.011 Q1901.64 159.011 1898.49 162.645 Q1895.34 166.256 1895.34 173.108 Q1895.34 179.937 1898.49 183.571 Q1901.64 187.182 1907.56 187.182 Q1910.57 187.182 1913.23 186.094 Q1915.92 185.006 1918.28 182.807 L1918.28 187.692 Q1915.83 189.358 1913.07 190.192 Q1910.34 191.025 1907.29 191.025 Q1899.44 191.025 1894.92 186.233 Q1890.41 181.418 1890.41 173.108 Q1890.41 164.775 1894.92 159.983 Q1899.44 155.169 1907.29 155.169 Q1910.39 155.169 1913.12 156.002 Q1915.87 156.812 1918.28 158.456 Z" fill="#000000" fill-rule="evenodd" fill-opacity="1" /><path clip-path="url(#clip000)" d="M1935.36 167.414 Q1931.94 167.414 1929.95 170.099 Q1927.96 172.761 1927.96 177.414 Q1927.96 182.067 1929.92 184.752 Q1931.92 187.414 1935.36 187.414 Q1938.77 187.414 1940.76 184.729 Q1942.75 182.043 1942.75 177.414 Q1942.75 172.807 1940.76 170.122 Q1938.77 167.414 1935.36 167.414 M1935.36 163.803 Q1940.92 163.803 1944.09 167.414 Q1947.26 171.025 1947.26 177.414 Q1947.26 183.78 1944.09 187.414 Q1940.92 191.025 1935.36 191.025 Q1929.79 191.025 1926.61 187.414 Q1923.47 183.78 1923.47 177.414 Q1923.47 171.025 1926.61 167.414 Q1929.79 163.803 1935.36 163.803 Z" fill="#000000" fill-rule="evenodd" fill-opacity="1" /><path clip-path="url(#clip000)" d="M1969.35 168.409 Q1968.63 167.993 1967.77 167.807 Q1966.94 167.599 1965.92 167.599 Q1962.31 167.599 1960.36 169.96 Q1958.44 172.298 1958.44 176.696 L1958.44 190.354 L1954.16 190.354 L1954.16 164.428 L1958.44 164.428 L1958.44 168.456 Q1959.79 166.094 1961.94 164.96 Q1964.09 163.803 1967.17 163.803 Q1967.61 163.803 1968.14 163.872 Q1968.67 163.919 1969.32 164.034 L1969.35 168.409 Z" fill="#000000" fill-rule="evenodd" fill-opacity="1" /><path clip-path="url(#clip000)" d="M1988 168.409 Q1987.29 167.993 1986.43 167.807 Q1985.6 167.599 1984.58 167.599 Q1980.97 167.599 1979.02 169.96 Q1977.1 172.298 1977.1 176.696 L1977.1 190.354 L1972.82 190.354 L1972.82 164.428 L1977.1 164.428 L1977.1 168.456 Q1978.44 166.094 1980.6 164.96 Q1982.75 163.803 1985.83 163.803 Q1986.27 163.803 1986.8 163.872 Q1987.33 163.919 1987.98 164.034 L1988 168.409 Z" fill="#000000" fill-rule="evenodd" fill-opacity="1" /><path clip-path="url(#clip000)" d="M2013.6 176.326 L2013.6 178.409 L1994.02 178.409 Q1994.3 182.807 1996.66 185.122 Q1999.04 187.414 2003.28 187.414 Q2005.73 187.414 2008.03 186.812 Q2010.34 186.21 2012.61 185.006 L2012.61 189.034 Q2010.32 190.006 2007.91 190.516 Q2005.5 191.025 2003.03 191.025 Q1996.82 191.025 1993.19 187.414 Q1989.58 183.803 1989.58 177.645 Q1989.58 171.28 1993 167.553 Q1996.45 163.803 2002.29 163.803 Q2007.52 163.803 2010.55 167.182 Q2013.6 170.539 2013.6 176.326 M2009.35 175.076 Q2009.3 171.581 2007.38 169.497 Q2005.48 167.414 2002.33 167.414 Q1998.77 167.414 1996.61 169.428 Q1994.48 171.442 1994.16 175.099 L2009.35 175.076 Z" fill="#000000" fill-rule="evenodd" fill-opacity="1" /><path clip-path="url(#clip000)" d="M2020.6 154.335 L2024.85 154.335 L2024.85 190.354 L2020.6 190.354 L2020.6 154.335 Z" fill="#000000" fill-rule="evenodd" fill-opacity="1" /><path clip-path="url(#clip000)" d="M2045.55 177.321 Q2040.39 177.321 2038.4 178.502 Q2036.41 179.682 2036.41 182.53 Q2036.41 184.798 2037.89 186.141 Q2039.39 187.46 2041.96 187.46 Q2045.5 187.46 2047.63 184.96 Q2049.78 182.437 2049.78 178.27 L2049.78 177.321 L2045.55 177.321 M2054.04 175.562 L2054.04 190.354 L2049.78 190.354 L2049.78 186.418 Q2048.33 188.779 2046.15 189.914 Q2043.97 191.025 2040.83 191.025 Q2036.85 191.025 2034.48 188.803 Q2032.15 186.557 2032.15 182.807 Q2032.15 178.432 2035.06 176.21 Q2038 173.988 2043.81 173.988 L2049.78 173.988 L2049.78 173.571 Q2049.78 170.631 2047.84 169.034 Q2045.92 167.414 2042.42 167.414 Q2040.2 167.414 2038.1 167.946 Q2035.99 168.479 2034.04 169.543 L2034.04 165.608 Q2036.38 164.706 2038.58 164.266 Q2040.78 163.803 2042.86 163.803 Q2048.49 163.803 2051.27 166.719 Q2054.04 169.636 2054.04 175.562 Z" fill="#000000" fill-rule="evenodd" fill-opacity="1" /><path clip-path="url(#clip000)" d="M2067.03 157.067 L2067.03 164.428 L2075.8 164.428 L2075.8 167.738 L2067.03 167.738 L2067.03 181.812 Q2067.03 184.983 2067.89 185.886 Q2068.77 186.789 2071.43 186.789 L2075.8 186.789 L2075.8 190.354 L2071.43 190.354 Q2066.5 190.354 2064.62 188.525 Q2062.75 186.673 2062.75 181.812 L2062.75 167.738 L2059.62 167.738 L2059.62 164.428 L2062.75 164.428 L2062.75 157.067 L2067.03 157.067 Z" fill="#000000" fill-rule="evenodd" fill-opacity="1" /><path clip-path="url(#clip000)" d="M2081.4 164.428 L2085.66 164.428 L2085.66 190.354 L2081.4 190.354 L2081.4 164.428 M2081.4 154.335 L2085.66 154.335 L2085.66 159.729 L2081.4 159.729 L2081.4 154.335 Z" fill="#000000" fill-rule="evenodd" fill-opacity="1" /><path clip-path="url(#clip000)" d="M2104.62 167.414 Q2101.2 167.414 2099.21 170.099 Q2097.22 172.761 2097.22 177.414 Q2097.22 182.067 2099.18 184.752 Q2101.17 187.414 2104.62 187.414 Q2108.03 187.414 2110.02 184.729 Q2112.01 182.043 2112.01 177.414 Q2112.01 172.807 2110.02 170.122 Q2108.03 167.414 2104.62 167.414 M2104.62 163.803 Q2110.18 163.803 2113.35 167.414 Q2116.52 171.025 2116.52 177.414 Q2116.52 183.78 2113.35 187.414 Q2110.18 191.025 2104.62 191.025 Q2099.04 191.025 2095.87 187.414 Q2092.72 183.78 2092.72 177.414 Q2092.72 171.025 2095.87 167.414 Q2099.04 163.803 2104.62 163.803 Z" fill="#000000" fill-rule="evenodd" fill-opacity="1" /><path clip-path="url(#clip000)" d="M2145.13 174.705 L2145.13 190.354 L2140.87 190.354 L2140.87 174.844 Q2140.87 171.164 2139.44 169.335 Q2138 167.506 2135.13 167.506 Q2131.68 167.506 2129.69 169.706 Q2127.7 171.905 2127.7 175.701 L2127.7 190.354 L2123.42 190.354 L2123.42 164.428 L2127.7 164.428 L2127.7 168.456 Q2129.23 166.118 2131.29 164.96 Q2133.37 163.803 2136.08 163.803 Q2140.55 163.803 2142.84 166.581 Q2145.13 169.335 2145.13 174.705 Z" fill="#000000" fill-rule="evenodd" fill-opacity="1" /></svg>
