<?xml version="1.0" encoding="utf-8"?>
<svg xmlns="http://www.w3.org/2000/svg" xmlns:xlink="http://www.w3.org/1999/xlink" width="300" height="300" viewBox="0 0 1200 1200">
<defs>
  <clipPath id="clip920">
    <rect x="0" y="0" width="1200" height="1200"/>
  </clipPath>
</defs>
<path clip-path="url(#clip920)" d="M0 1200 L1200 1200 L1200 0 L0 0  Z" fill="#ffffff" fill-rule="evenodd" fill-opacity="1"/>
<defs>
  <clipPath id="clip921">
    <rect x="240" y="120" width="841" height="841"/>
  </clipPath>
</defs>
<path clip-path="url(#clip920)" d="M157.121 1073.17 L1152.76 1073.17 L1152.76 47.2441 L157.121 47.2441  Z" fill="#ffffff" fill-rule="evenodd" fill-opacity="1"/>
<defs>
  <clipPath id="clip922">
    <rect x="157" y="47" width="997" height="1027"/>
  </clipPath>
</defs>
<polyline clip-path="url(#clip922)" style="stroke:#000000; stroke-linecap:round; stroke-linejoin:round; stroke-width:2; stroke-opacity:0.1; fill:none" points="279.227,1073.17 279.227,47.2441 "/>
<polyline clip-path="url(#clip922)" style="stroke:#000000; stroke-linecap:round; stroke-linejoin:round; stroke-width:2; stroke-opacity:0.1; fill:none" points="514.047,1073.17 514.047,47.2441 "/>
<polyline clip-path="url(#clip922)" style="stroke:#000000; stroke-linecap:round; stroke-linejoin:round; stroke-width:2; stroke-opacity:0.1; fill:none" points="748.866,1073.17 748.866,47.2441 "/>
<polyline clip-path="url(#clip922)" style="stroke:#000000; stroke-linecap:round; stroke-linejoin:round; stroke-width:2; stroke-opacity:0.1; fill:none" points="983.686,1073.17 983.686,47.2441 "/>
<polyline clip-path="url(#clip920)" style="stroke:#000000; stroke-linecap:round; stroke-linejoin:round; stroke-width:4; stroke-opacity:1; fill:none" points="157.121,1073.17 1152.76,1073.17 "/>
<polyline clip-path="url(#clip920)" style="stroke:#000000; stroke-linecap:round; stroke-linejoin:round; stroke-width:4; stroke-opacity:1; fill:none" points="279.227,1073.17 279.227,1054.27 "/>
<polyline clip-path="url(#clip920)" style="stroke:#000000; stroke-linecap:round; stroke-linejoin:round; stroke-width:4; stroke-opacity:1; fill:none" points="514.047,1073.17 514.047,1054.27 "/>
<polyline clip-path="url(#clip920)" style="stroke:#000000; stroke-linecap:round; stroke-linejoin:round; stroke-width:4; stroke-opacity:1; fill:none" points="748.866,1073.17 748.866,1054.27 "/>
<polyline clip-path="url(#clip920)" style="stroke:#000000; stroke-linecap:round; stroke-linejoin:round; stroke-width:4; stroke-opacity:1; fill:none" points="983.686,1073.17 983.686,1054.27 "/>
<path clip-path="url(#clip920)" d="M241.531 1094.49 Q237.92 1094.49 236.091 1098.05 Q234.286 1101.59 234.286 1108.72 Q234.286 1115.83 236.091 1119.39 Q237.92 1122.94 241.531 1122.94 Q245.165 1122.94 246.971 1119.39 Q248.799 1115.83 248.799 1108.72 Q248.799 1101.59 246.971 1098.05 Q245.165 1094.49 241.531 1094.49 M241.531 1090.78 Q247.341 1090.78 250.397 1095.39 Q253.475 1099.97 253.475 1108.72 Q253.475 1117.45 250.397 1122.06 Q247.341 1126.64 241.531 1126.64 Q235.721 1126.64 232.642 1122.06 Q229.587 1117.45 229.587 1108.72 Q229.587 1099.97 232.642 1095.39 Q235.721 1090.78 241.531 1090.78 Z" fill="#000000" fill-rule="evenodd" fill-opacity="1" /><path clip-path="url(#clip920)" d="M261.693 1120.09 L266.577 1120.09 L266.577 1125.97 L261.693 1125.97 L261.693 1120.09 Z" fill="#000000" fill-rule="evenodd" fill-opacity="1" /><path clip-path="url(#clip920)" d="M276.808 1091.41 L295.165 1091.41 L295.165 1095.34 L281.091 1095.34 L281.091 1103.82 Q282.109 1103.47 283.128 1103.31 Q284.146 1103.12 285.165 1103.12 Q290.952 1103.12 294.332 1106.29 Q297.711 1109.46 297.711 1114.88 Q297.711 1120.46 294.239 1123.56 Q290.767 1126.64 284.447 1126.64 Q282.271 1126.64 280.003 1126.27 Q277.758 1125.9 275.35 1125.16 L275.35 1120.46 Q277.433 1121.59 279.656 1122.15 Q281.878 1122.7 284.355 1122.7 Q288.359 1122.7 290.697 1120.6 Q293.035 1118.49 293.035 1114.88 Q293.035 1111.27 290.697 1109.16 Q288.359 1107.06 284.355 1107.06 Q282.48 1107.06 280.605 1107.47 Q278.753 1107.89 276.808 1108.77 L276.808 1091.41 Z" fill="#000000" fill-rule="evenodd" fill-opacity="1" /><path clip-path="url(#clip920)" d="M316.924 1094.49 Q313.313 1094.49 311.484 1098.05 Q309.679 1101.59 309.679 1108.72 Q309.679 1115.83 311.484 1119.39 Q313.313 1122.94 316.924 1122.94 Q320.558 1122.94 322.364 1119.39 Q324.192 1115.83 324.192 1108.72 Q324.192 1101.59 322.364 1098.05 Q320.558 1094.49 316.924 1094.49 M316.924 1090.78 Q322.734 1090.78 325.79 1095.39 Q328.868 1099.97 328.868 1108.72 Q328.868 1117.45 325.79 1122.06 Q322.734 1126.64 316.924 1126.64 Q311.114 1126.64 308.035 1122.06 Q304.98 1117.45 304.98 1108.72 Q304.98 1099.97 308.035 1095.39 Q311.114 1090.78 316.924 1090.78 Z" fill="#000000" fill-rule="evenodd" fill-opacity="1" /><path clip-path="url(#clip920)" d="M476.848 1094.49 Q473.237 1094.49 471.408 1098.05 Q469.603 1101.59 469.603 1108.72 Q469.603 1115.83 471.408 1119.39 Q473.237 1122.94 476.848 1122.94 Q480.482 1122.94 482.288 1119.39 Q484.117 1115.83 484.117 1108.72 Q484.117 1101.59 482.288 1098.05 Q480.482 1094.49 476.848 1094.49 M476.848 1090.78 Q482.658 1090.78 485.714 1095.39 Q488.792 1099.97 488.792 1108.72 Q488.792 1117.45 485.714 1122.06 Q482.658 1126.64 476.848 1126.64 Q471.038 1126.64 467.959 1122.06 Q464.904 1117.45 464.904 1108.72 Q464.904 1099.97 467.959 1095.39 Q471.038 1090.78 476.848 1090.78 Z" fill="#000000" fill-rule="evenodd" fill-opacity="1" /><path clip-path="url(#clip920)" d="M497.01 1120.09 L501.894 1120.09 L501.894 1125.97 L497.01 1125.97 L497.01 1120.09 Z" fill="#000000" fill-rule="evenodd" fill-opacity="1" /><path clip-path="url(#clip920)" d="M510.899 1091.41 L533.121 1091.41 L533.121 1093.4 L520.575 1125.97 L515.69 1125.97 L527.496 1095.34 L510.899 1095.34 L510.899 1091.41 Z" fill="#000000" fill-rule="evenodd" fill-opacity="1" /><path clip-path="url(#clip920)" d="M542.288 1091.41 L560.644 1091.41 L560.644 1095.34 L546.57 1095.34 L546.57 1103.82 Q547.588 1103.47 548.607 1103.31 Q549.625 1103.12 550.644 1103.12 Q556.431 1103.12 559.811 1106.29 Q563.19 1109.46 563.19 1114.88 Q563.19 1120.46 559.718 1123.56 Q556.246 1126.64 549.926 1126.64 Q547.75 1126.64 545.482 1126.27 Q543.237 1125.9 540.829 1125.16 L540.829 1120.46 Q542.913 1121.59 545.135 1122.15 Q547.357 1122.7 549.834 1122.7 Q553.838 1122.7 556.176 1120.6 Q558.514 1118.49 558.514 1114.88 Q558.514 1111.27 556.176 1109.16 Q553.838 1107.06 549.834 1107.06 Q547.959 1107.06 546.084 1107.47 Q544.232 1107.89 542.288 1108.77 L542.288 1091.41 Z" fill="#000000" fill-rule="evenodd" fill-opacity="1" /><path clip-path="url(#clip920)" d="M700.938 1122.03 L708.577 1122.03 L708.577 1095.67 L700.267 1097.33 L700.267 1093.07 L708.531 1091.41 L713.207 1091.41 L713.207 1122.03 L720.846 1122.03 L720.846 1125.97 L700.938 1125.97 L700.938 1122.03 Z" fill="#000000" fill-rule="evenodd" fill-opacity="1" /><path clip-path="url(#clip920)" d="M730.29 1120.09 L735.174 1120.09 L735.174 1125.97 L730.29 1125.97 L730.29 1120.09 Z" fill="#000000" fill-rule="evenodd" fill-opacity="1" /><path clip-path="url(#clip920)" d="M755.359 1094.49 Q751.748 1094.49 749.92 1098.05 Q748.114 1101.59 748.114 1108.72 Q748.114 1115.83 749.92 1119.39 Q751.748 1122.94 755.359 1122.94 Q758.994 1122.94 760.799 1119.39 Q762.628 1115.83 762.628 1108.72 Q762.628 1101.59 760.799 1098.05 Q758.994 1094.49 755.359 1094.49 M755.359 1090.78 Q761.17 1090.78 764.225 1095.39 Q767.304 1099.97 767.304 1108.72 Q767.304 1117.45 764.225 1122.06 Q761.17 1126.64 755.359 1126.64 Q749.549 1126.64 746.471 1122.06 Q743.415 1117.45 743.415 1108.72 Q743.415 1099.97 746.471 1095.39 Q749.549 1090.78 755.359 1090.78 Z" fill="#000000" fill-rule="evenodd" fill-opacity="1" /><path clip-path="url(#clip920)" d="M785.521 1094.49 Q781.91 1094.49 780.082 1098.05 Q778.276 1101.59 778.276 1108.72 Q778.276 1115.83 780.082 1119.39 Q781.91 1122.94 785.521 1122.94 Q789.156 1122.94 790.961 1119.39 Q792.79 1115.83 792.79 1108.72 Q792.79 1101.59 790.961 1098.05 Q789.156 1094.49 785.521 1094.49 M785.521 1090.78 Q791.331 1090.78 794.387 1095.39 Q797.466 1099.97 797.466 1108.72 Q797.466 1117.45 794.387 1122.06 Q791.331 1126.64 785.521 1126.64 Q779.711 1126.64 776.632 1122.06 Q773.577 1117.45 773.577 1108.72 Q773.577 1099.97 776.632 1095.39 Q779.711 1090.78 785.521 1090.78 Z" fill="#000000" fill-rule="evenodd" fill-opacity="1" /><path clip-path="url(#clip920)" d="M936.256 1122.03 L943.894 1122.03 L943.894 1095.67 L935.584 1097.33 L935.584 1093.07 L943.848 1091.41 L948.524 1091.41 L948.524 1122.03 L956.163 1122.03 L956.163 1125.97 L936.256 1125.97 L936.256 1122.03 Z" fill="#000000" fill-rule="evenodd" fill-opacity="1" /><path clip-path="url(#clip920)" d="M965.607 1120.09 L970.492 1120.09 L970.492 1125.97 L965.607 1125.97 L965.607 1120.09 Z" fill="#000000" fill-rule="evenodd" fill-opacity="1" /><path clip-path="url(#clip920)" d="M984.704 1122.03 L1001.02 1122.03 L1001.02 1125.97 L979.079 1125.97 L979.079 1122.03 Q981.741 1119.28 986.325 1114.65 Q990.931 1110 992.112 1108.65 Q994.357 1106.13 995.237 1104.39 Q996.14 1102.63 996.14 1100.94 Q996.14 1098.19 994.195 1096.45 Q992.274 1094.72 989.172 1094.72 Q986.973 1094.72 984.519 1095.48 Q982.089 1096.25 979.311 1097.8 L979.311 1093.07 Q982.135 1091.94 984.589 1091.36 Q987.042 1090.78 989.079 1090.78 Q994.45 1090.78 997.644 1093.47 Q1000.84 1096.15 1000.84 1100.64 Q1000.84 1102.77 1000.03 1104.69 Q999.241 1106.59 997.135 1109.19 Q996.556 1109.86 993.454 1113.07 Q990.353 1116.27 984.704 1122.03 Z" fill="#000000" fill-rule="evenodd" fill-opacity="1" /><path clip-path="url(#clip920)" d="M1010.88 1091.41 L1029.24 1091.41 L1029.24 1095.34 L1015.17 1095.34 L1015.17 1103.82 Q1016.19 1103.47 1017.2 1103.31 Q1018.22 1103.12 1019.24 1103.12 Q1025.03 1103.12 1028.41 1106.29 Q1031.79 1109.46 1031.79 1114.88 Q1031.79 1120.46 1028.32 1123.56 Q1024.84 1126.64 1018.52 1126.64 Q1016.35 1126.64 1014.08 1126.27 Q1011.83 1125.9 1009.43 1125.16 L1009.43 1120.46 Q1011.51 1121.59 1013.73 1122.15 Q1015.95 1122.7 1018.43 1122.7 Q1022.44 1122.7 1024.77 1120.6 Q1027.11 1118.49 1027.11 1114.88 Q1027.11 1111.27 1024.77 1109.16 Q1022.44 1107.06 1018.43 1107.06 Q1016.56 1107.06 1014.68 1107.47 Q1012.83 1107.89 1010.88 1108.77 L1010.88 1091.41 Z" fill="#000000" fill-rule="evenodd" fill-opacity="1" /><polyline clip-path="url(#clip922)" style="stroke:#000000; stroke-linecap:round; stroke-linejoin:round; stroke-width:2; stroke-opacity:0.1; fill:none" points="157.121,932.457 1152.76,932.457 "/>
<polyline clip-path="url(#clip922)" style="stroke:#000000; stroke-linecap:round; stroke-linejoin:round; stroke-width:2; stroke-opacity:0.1; fill:none" points="157.121,746.331 1152.76,746.331 "/>
<polyline clip-path="url(#clip922)" style="stroke:#000000; stroke-linecap:round; stroke-linejoin:round; stroke-width:2; stroke-opacity:0.1; fill:none" points="157.121,560.206 1152.76,560.206 "/>
<polyline clip-path="url(#clip922)" style="stroke:#000000; stroke-linecap:round; stroke-linejoin:round; stroke-width:2; stroke-opacity:0.1; fill:none" points="157.121,374.08 1152.76,374.08 "/>
<polyline clip-path="url(#clip922)" style="stroke:#000000; stroke-linecap:round; stroke-linejoin:round; stroke-width:2; stroke-opacity:0.1; fill:none" points="157.121,187.955 1152.76,187.955 "/>
<polyline clip-path="url(#clip920)" style="stroke:#000000; stroke-linecap:round; stroke-linejoin:round; stroke-width:4; stroke-opacity:1; fill:none" points="157.121,1073.17 157.121,47.2441 "/>
<polyline clip-path="url(#clip920)" style="stroke:#000000; stroke-linecap:round; stroke-linejoin:round; stroke-width:4; stroke-opacity:1; fill:none" points="157.121,932.457 176.019,932.457 "/>
<polyline clip-path="url(#clip920)" style="stroke:#000000; stroke-linecap:round; stroke-linejoin:round; stroke-width:4; stroke-opacity:1; fill:none" points="157.121,746.331 176.019,746.331 "/>
<polyline clip-path="url(#clip920)" style="stroke:#000000; stroke-linecap:round; stroke-linejoin:round; stroke-width:4; stroke-opacity:1; fill:none" points="157.121,560.206 176.019,560.206 "/>
<polyline clip-path="url(#clip920)" style="stroke:#000000; stroke-linecap:round; stroke-linejoin:round; stroke-width:4; stroke-opacity:1; fill:none" points="157.121,374.08 176.019,374.08 "/>
<polyline clip-path="url(#clip920)" style="stroke:#000000; stroke-linecap:round; stroke-linejoin:round; stroke-width:4; stroke-opacity:1; fill:none" points="157.121,187.955 176.019,187.955 "/>
<path clip-path="url(#clip920)" d="M87.154 949.019 L87.154 944.76 Q88.9133 945.593 90.7188 946.033 Q92.5243 946.473 94.2604 946.473 Q98.89 946.473 101.321 943.371 Q103.774 940.246 104.122 933.904 Q102.779 935.894 100.719 936.959 Q98.6586 938.024 96.1586 938.024 Q90.9734 938.024 87.941 934.899 Q84.9318 931.751 84.9318 926.311 Q84.9318 920.987 88.0799 917.77 Q91.2281 914.552 96.4595 914.552 Q102.455 914.552 105.603 919.158 Q108.774 923.742 108.774 932.492 Q108.774 940.663 104.885 945.547 Q101.02 950.408 94.4688 950.408 Q92.7095 950.408 90.904 950.061 Q89.0984 949.714 87.154 949.019 M96.4595 934.367 Q99.6076 934.367 101.436 932.214 Q103.288 930.061 103.288 926.311 Q103.288 922.584 101.436 920.432 Q99.6076 918.256 96.4595 918.256 Q93.3114 918.256 91.4595 920.432 Q89.6308 922.584 89.6308 926.311 Q89.6308 930.061 91.4595 932.214 Q93.3114 934.367 96.4595 934.367 Z" fill="#000000" fill-rule="evenodd" fill-opacity="1" /><path clip-path="url(#clip920)" d="M127.177 918.256 Q123.566 918.256 121.737 921.82 Q119.932 925.362 119.932 932.492 Q119.932 939.598 121.737 943.163 Q123.566 946.705 127.177 946.705 Q130.811 946.705 132.617 943.163 Q134.445 939.598 134.445 932.492 Q134.445 925.362 132.617 921.82 Q130.811 918.256 127.177 918.256 M127.177 914.552 Q132.987 914.552 136.043 919.158 Q139.121 923.742 139.121 932.492 Q139.121 941.219 136.043 945.825 Q132.987 950.408 127.177 950.408 Q121.367 950.408 118.288 945.825 Q115.233 941.219 115.233 932.492 Q115.233 923.742 118.288 919.158 Q121.367 914.552 127.177 914.552 Z" fill="#000000" fill-rule="evenodd" fill-opacity="1" /><path clip-path="url(#clip920)" d="M88.1494 762.894 L88.1494 758.635 Q89.9086 759.468 91.7142 759.908 Q93.5197 760.348 95.2558 760.348 Q99.8854 760.348 102.316 757.246 Q104.77 754.121 105.117 747.778 Q103.774 749.769 101.714 750.834 Q99.6539 751.899 97.1539 751.899 Q91.9688 751.899 88.9364 748.774 Q85.9272 745.625 85.9272 740.186 Q85.9272 734.862 89.0753 731.644 Q92.2234 728.426 97.4549 728.426 Q103.45 728.426 106.598 733.033 Q109.77 737.616 109.77 746.366 Q109.77 754.537 105.881 759.422 Q102.015 764.283 95.4641 764.283 Q93.7049 764.283 91.8993 763.936 Q90.0938 763.588 88.1494 762.894 M97.4549 748.241 Q100.603 748.241 102.432 746.088 Q104.284 743.936 104.284 740.186 Q104.284 736.459 102.432 734.306 Q100.603 732.13 97.4549 732.13 Q94.3067 732.13 92.4549 734.306 Q90.6262 736.459 90.6262 740.186 Q90.6262 743.936 92.4549 746.088 Q94.3067 748.241 97.4549 748.241 Z" fill="#000000" fill-rule="evenodd" fill-opacity="1" /><path clip-path="url(#clip920)" d="M118.219 729.051 L136.575 729.051 L136.575 732.987 L122.501 732.987 L122.501 741.459 Q123.52 741.112 124.538 740.95 Q125.557 740.764 126.575 740.764 Q132.362 740.764 135.742 743.936 Q139.121 747.107 139.121 752.524 Q139.121 758.102 135.649 761.204 Q132.177 764.283 125.857 764.283 Q123.682 764.283 121.413 763.912 Q119.168 763.542 116.76 762.801 L116.76 758.102 Q118.844 759.237 121.066 759.792 Q123.288 760.348 125.765 760.348 Q129.77 760.348 132.107 758.241 Q134.445 756.135 134.445 752.524 Q134.445 748.912 132.107 746.806 Q129.77 744.7 125.765 744.7 Q123.89 744.7 122.015 745.116 Q120.163 745.533 118.219 746.413 L118.219 729.051 Z" fill="#000000" fill-rule="evenodd" fill-opacity="1" /><path clip-path="url(#clip920)" d="M57.6634 573.551 L65.3023 573.551 L65.3023 547.185 L56.9921 548.852 L56.9921 544.593 L65.256 542.926 L69.9319 542.926 L69.9319 573.551 L77.5707 573.551 L77.5707 577.486 L57.6634 577.486 L57.6634 573.551 Z" fill="#000000" fill-rule="evenodd" fill-opacity="1" /><path clip-path="url(#clip920)" d="M97.0151 546.005 Q93.404 546.005 91.5753 549.569 Q89.7697 553.111 89.7697 560.241 Q89.7697 567.347 91.5753 570.912 Q93.404 574.454 97.0151 574.454 Q100.649 574.454 102.455 570.912 Q104.284 567.347 104.284 560.241 Q104.284 553.111 102.455 549.569 Q100.649 546.005 97.0151 546.005 M97.0151 542.301 Q102.825 542.301 105.881 546.907 Q108.959 551.491 108.959 560.241 Q108.959 568.968 105.881 573.574 Q102.825 578.157 97.0151 578.157 Q91.2049 578.157 88.1262 573.574 Q85.0707 568.968 85.0707 560.241 Q85.0707 551.491 88.1262 546.907 Q91.2049 542.301 97.0151 542.301 Z" fill="#000000" fill-rule="evenodd" fill-opacity="1" /><path clip-path="url(#clip920)" d="M127.177 546.005 Q123.566 546.005 121.737 549.569 Q119.932 553.111 119.932 560.241 Q119.932 567.347 121.737 570.912 Q123.566 574.454 127.177 574.454 Q130.811 574.454 132.617 570.912 Q134.445 567.347 134.445 560.241 Q134.445 553.111 132.617 549.569 Q130.811 546.005 127.177 546.005 M127.177 542.301 Q132.987 542.301 136.043 546.907 Q139.121 551.491 139.121 560.241 Q139.121 568.968 136.043 573.574 Q132.987 578.157 127.177 578.157 Q121.367 578.157 118.288 573.574 Q115.233 568.968 115.233 560.241 Q115.233 551.491 118.288 546.907 Q121.367 542.301 127.177 542.301 Z" fill="#000000" fill-rule="evenodd" fill-opacity="1" /><path clip-path="url(#clip920)" d="M58.6588 387.425 L66.2976 387.425 L66.2976 361.06 L57.9875 362.726 L57.9875 358.467 L66.2513 356.8 L70.9272 356.8 L70.9272 387.425 L78.5661 387.425 L78.5661 391.36 L58.6588 391.36 L58.6588 387.425 Z" fill="#000000" fill-rule="evenodd" fill-opacity="1" /><path clip-path="url(#clip920)" d="M98.0104 359.879 Q94.3993 359.879 92.5706 363.444 Q90.7651 366.986 90.7651 374.115 Q90.7651 381.222 92.5706 384.786 Q94.3993 388.328 98.0104 388.328 Q101.645 388.328 103.45 384.786 Q105.279 381.222 105.279 374.115 Q105.279 366.986 103.45 363.444 Q101.645 359.879 98.0104 359.879 M98.0104 356.175 Q103.821 356.175 106.876 360.782 Q109.955 365.365 109.955 374.115 Q109.955 382.842 106.876 387.448 Q103.821 392.032 98.0104 392.032 Q92.2003 392.032 89.1216 387.448 Q86.066 382.842 86.066 374.115 Q86.066 365.365 89.1216 360.782 Q92.2003 356.175 98.0104 356.175 Z" fill="#000000" fill-rule="evenodd" fill-opacity="1" /><path clip-path="url(#clip920)" d="M118.219 356.8 L136.575 356.8 L136.575 360.736 L122.501 360.736 L122.501 369.208 Q123.52 368.861 124.538 368.699 Q125.557 368.513 126.575 368.513 Q132.362 368.513 135.742 371.685 Q139.121 374.856 139.121 380.273 Q139.121 385.851 135.649 388.953 Q132.177 392.032 125.857 392.032 Q123.682 392.032 121.413 391.661 Q119.168 391.291 116.76 390.55 L116.76 385.851 Q118.844 386.986 121.066 387.541 Q123.288 388.097 125.765 388.097 Q129.77 388.097 132.107 385.99 Q134.445 383.884 134.445 380.273 Q134.445 376.661 132.107 374.555 Q129.77 372.449 125.765 372.449 Q123.89 372.449 122.015 372.865 Q120.163 373.282 118.219 374.161 L118.219 356.8 Z" fill="#000000" fill-rule="evenodd" fill-opacity="1" /><path clip-path="url(#clip920)" d="M57.6634 201.3 L65.3023 201.3 L65.3023 174.934 L56.9921 176.601 L56.9921 172.342 L65.256 170.675 L69.9319 170.675 L69.9319 201.3 L77.5707 201.3 L77.5707 205.235 L57.6634 205.235 L57.6634 201.3 Z" fill="#000000" fill-rule="evenodd" fill-opacity="1" /><path clip-path="url(#clip920)" d="M87.8253 201.3 L95.4641 201.3 L95.4641 174.934 L87.154 176.601 L87.154 172.342 L95.4178 170.675 L100.094 170.675 L100.094 201.3 L107.733 201.3 L107.733 205.235 L87.8253 205.235 L87.8253 201.3 Z" fill="#000000" fill-rule="evenodd" fill-opacity="1" /><path clip-path="url(#clip920)" d="M127.177 173.754 Q123.566 173.754 121.737 177.318 Q119.932 180.86 119.932 187.99 Q119.932 195.096 121.737 198.661 Q123.566 202.203 127.177 202.203 Q130.811 202.203 132.617 198.661 Q134.445 195.096 134.445 187.99 Q134.445 180.86 132.617 177.318 Q130.811 173.754 127.177 173.754 M127.177 170.05 Q132.987 170.05 136.043 174.656 Q139.121 179.24 139.121 187.99 Q139.121 196.717 136.043 201.323 Q132.987 205.906 127.177 205.906 Q121.367 205.906 118.288 201.323 Q115.233 196.717 115.233 187.99 Q115.233 179.24 118.288 174.656 Q121.367 170.05 127.177 170.05 Z" fill="#000000" fill-rule="evenodd" fill-opacity="1" /><circle clip-path="url(#clip922)" cx="561.011" cy="485.756" r="14.4" fill="#009af9" fill-rule="evenodd" fill-opacity="1" stroke="#000000" stroke-opacity="1" stroke-width="2.4"/>
<circle clip-path="url(#clip922)" cx="748.866" cy="634.656" r="14.4" fill="#009af9" fill-rule="evenodd" fill-opacity="1" stroke="#000000" stroke-opacity="1" stroke-width="2.4"/>
<circle clip-path="url(#clip922)" cx="279.227" cy="560.206" r="14.4" fill="#009af9" fill-rule="evenodd" fill-opacity="1" stroke="#000000" stroke-opacity="1" stroke-width="2.4"/>
<circle clip-path="url(#clip922)" cx="654.939" cy="374.08" r="14.4" fill="#009af9" fill-rule="evenodd" fill-opacity="1" stroke="#000000" stroke-opacity="1" stroke-width="2.4"/>
<circle clip-path="url(#clip922)" cx="467.083" cy="448.531" r="14.4" fill="#009af9" fill-rule="evenodd" fill-opacity="1" stroke="#000000" stroke-opacity="1" stroke-width="2.4"/>
<circle clip-path="url(#clip922)" cx="185.3" cy="187.955" r="14.4" fill="#009af9" fill-rule="evenodd" fill-opacity="1" stroke="#000000" stroke-opacity="1" stroke-width="2.4"/>
<circle clip-path="url(#clip922)" cx="936.722" cy="597.431" r="14.4" fill="#009af9" fill-rule="evenodd" fill-opacity="1" stroke="#000000" stroke-opacity="1" stroke-width="2.4"/>
<circle clip-path="url(#clip922)" cx="1124.58" cy="1044.13" r="14.4" fill="#009af9" fill-rule="evenodd" fill-opacity="1" stroke="#000000" stroke-opacity="1" stroke-width="2.4"/>
<circle clip-path="url(#clip922)" cx="373.155" cy="76.2797" r="14.4" fill="#009af9" fill-rule="evenodd" fill-opacity="1" stroke="#000000" stroke-opacity="1" stroke-width="2.4"/>
<circle clip-path="url(#clip922)" cx="842.794" cy="969.682" r="14.4" fill="#009af9" fill-rule="evenodd" fill-opacity="1" stroke="#000000" stroke-opacity="1" stroke-width="2.4"/>
<circle clip-path="url(#clip922)" cx="1030.65" cy="820.782" r="14.4" fill="#009af9" fill-rule="evenodd" fill-opacity="1" stroke="#000000" stroke-opacity="1" stroke-width="2.4"/>
<path clip-path="url(#clip920)" d="M967.574 185.122 L1119.57 185.122 L1119.57 81.4416 L967.574 81.4416  Z" fill="#ffffff" fill-rule="evenodd" fill-opacity="1"/>
<polyline clip-path="url(#clip920)" style="stroke:#000000; stroke-linecap:round; stroke-linejoin:round; stroke-width:4; stroke-opacity:1; fill:none" points="967.574,185.122 1119.57,185.122 1119.57,81.4416 967.574,81.4416 967.574,185.122 "/>
<circle clip-path="url(#clip920)" cx="1011.82" cy="133.282" r="23.04" fill="#009af9" fill-rule="evenodd" fill-opacity="1" stroke="#000000" stroke-opacity="1" stroke-width="3.84"/>
<path clip-path="url(#clip920)" d="M1069.92 152.969 Q1068.11 157.599 1066.4 159.011 Q1064.69 160.423 1061.82 160.423 L1058.41 160.423 L1058.41 156.858 L1060.91 156.858 Q1062.67 156.858 1063.64 156.024 Q1064.62 155.191 1065.8 152.089 L1066.56 150.145 L1056.08 124.636 L1060.59 124.636 L1068.69 144.913 L1076.79 124.636 L1081.31 124.636 L1069.92 152.969 Z" fill="#000000" fill-rule="evenodd" fill-opacity="1" /><path clip-path="url(#clip920)" d="M1088.6 146.626 L1096.24 146.626 L1096.24 120.261 L1087.93 121.927 L1087.93 117.668 L1096.19 116.002 L1100.87 116.002 L1100.87 146.626 L1108.51 146.626 L1108.51 150.562 L1088.6 150.562 L1088.6 146.626 Z" fill="#000000" fill-rule="evenodd" fill-opacity="1" /></svg>
