<?xml version="1.0" encoding="utf-8"?>
<svg xmlns="http://www.w3.org/2000/svg" xmlns:xlink="http://www.w3.org/1999/xlink" width="600" height="200" viewBox="0 0 2400 800">
<defs>
  <clipPath id="clip880">
    <rect x="0" y="0" width="2400" height="800"/>
  </clipPath>
</defs>
<path clip-path="url(#clip880)" d="M0 800 L2400 800 L2400 0 L0 0  Z" fill="#ffffff" fill-rule="evenodd" fill-opacity="1"/>
<defs>
  <clipPath id="clip881">
    <rect x="480" y="0" width="1681" height="800"/>
  </clipPath>
</defs>
<path clip-path="url(#clip880)" d="M110.881 711.728 L2352.76 711.728 L2352.76 47.2441 L110.881 47.2441  Z" fill="#ffffff" fill-rule="evenodd" fill-opacity="1"/>
<defs>
  <clipPath id="clip882">
    <rect x="110" y="47" width="2243" height="665"/>
  </clipPath>
</defs>
<polyline clip-path="url(#clip882)" style="stroke:#000000; stroke-linecap:round; stroke-linejoin:round; stroke-width:2; stroke-opacity:0.1; fill:none" points="282.05,711.728 282.05,47.2441 "/>
<polyline clip-path="url(#clip882)" style="stroke:#000000; stroke-linecap:round; stroke-linejoin:round; stroke-width:2; stroke-opacity:0.1; fill:none" points="591.31,711.728 591.31,47.2441 "/>
<polyline clip-path="url(#clip882)" style="stroke:#000000; stroke-linecap:round; stroke-linejoin:round; stroke-width:2; stroke-opacity:0.1; fill:none" points="900.57,711.728 900.57,47.2441 "/>
<polyline clip-path="url(#clip882)" style="stroke:#000000; stroke-linecap:round; stroke-linejoin:round; stroke-width:2; stroke-opacity:0.1; fill:none" points="1209.83,711.728 1209.83,47.2441 "/>
<polyline clip-path="url(#clip882)" style="stroke:#000000; stroke-linecap:round; stroke-linejoin:round; stroke-width:2; stroke-opacity:0.1; fill:none" points="1519.09,711.728 1519.09,47.2441 "/>
<polyline clip-path="url(#clip882)" style="stroke:#000000; stroke-linecap:round; stroke-linejoin:round; stroke-width:2; stroke-opacity:0.1; fill:none" points="1828.35,711.728 1828.35,47.2441 "/>
<polyline clip-path="url(#clip882)" style="stroke:#000000; stroke-linecap:round; stroke-linejoin:round; stroke-width:2; stroke-opacity:0.1; fill:none" points="2137.61,711.728 2137.61,47.2441 "/>
<polyline clip-path="url(#clip880)" style="stroke:#000000; stroke-linecap:round; stroke-linejoin:round; stroke-width:4; stroke-opacity:1; fill:none" points="110.881,711.728 2352.76,711.728 "/>
<polyline clip-path="url(#clip880)" style="stroke:#000000; stroke-linecap:round; stroke-linejoin:round; stroke-width:4; stroke-opacity:1; fill:none" points="282.05,711.728 282.05,692.83 "/>
<polyline clip-path="url(#clip880)" style="stroke:#000000; stroke-linecap:round; stroke-linejoin:round; stroke-width:4; stroke-opacity:1; fill:none" points="591.31,711.728 591.31,692.83 "/>
<polyline clip-path="url(#clip880)" style="stroke:#000000; stroke-linecap:round; stroke-linejoin:round; stroke-width:4; stroke-opacity:1; fill:none" points="900.57,711.728 900.57,692.83 "/>
<polyline clip-path="url(#clip880)" style="stroke:#000000; stroke-linecap:round; stroke-linejoin:round; stroke-width:4; stroke-opacity:1; fill:none" points="1209.83,711.728 1209.83,692.83 "/>
<polyline clip-path="url(#clip880)" style="stroke:#000000; stroke-linecap:round; stroke-linejoin:round; stroke-width:4; stroke-opacity:1; fill:none" points="1519.09,711.728 1519.09,692.83 "/>
<polyline clip-path="url(#clip880)" style="stroke:#000000; stroke-linecap:round; stroke-linejoin:round; stroke-width:4; stroke-opacity:1; fill:none" points="1828.35,711.728 1828.35,692.83 "/>
<polyline clip-path="url(#clip880)" style="stroke:#000000; stroke-linecap:round; stroke-linejoin:round; stroke-width:4; stroke-opacity:1; fill:none" points="2137.61,711.728 2137.61,692.83 "/>
<path clip-path="url(#clip880)" d="M228.578 757.299 L258.254 757.299 L258.254 761.234 L228.578 761.234 L228.578 757.299 Z" fill="#000000" fill-rule="evenodd" fill-opacity="1" /><path clip-path="url(#clip880)" d="M269.156 770.193 L276.795 770.193 L276.795 743.827 L268.485 745.494 L268.485 741.235 L276.749 739.568 L281.425 739.568 L281.425 770.193 L289.064 770.193 L289.064 774.128 L269.156 774.128 L269.156 770.193 Z" fill="#000000" fill-rule="evenodd" fill-opacity="1" /><path clip-path="url(#clip880)" d="M298.508 768.248 L303.392 768.248 L303.392 774.128 L298.508 774.128 L298.508 768.248 Z" fill="#000000" fill-rule="evenodd" fill-opacity="1" /><path clip-path="url(#clip880)" d="M323.577 742.647 Q319.966 742.647 318.137 746.211 Q316.332 749.753 316.332 756.883 Q316.332 763.989 318.137 767.554 Q319.966 771.095 323.577 771.095 Q327.211 771.095 329.017 767.554 Q330.846 763.989 330.846 756.883 Q330.846 749.753 329.017 746.211 Q327.211 742.647 323.577 742.647 M323.577 738.943 Q329.387 738.943 332.443 743.549 Q335.522 748.133 335.522 756.883 Q335.522 765.609 332.443 770.216 Q329.387 774.799 323.577 774.799 Q317.767 774.799 314.688 770.216 Q311.633 765.609 311.633 756.883 Q311.633 748.133 314.688 743.549 Q317.767 738.943 323.577 738.943 Z" fill="#000000" fill-rule="evenodd" fill-opacity="1" /><path clip-path="url(#clip880)" d="M537.884 757.299 L567.56 757.299 L567.56 761.234 L537.884 761.234 L537.884 757.299 Z" fill="#000000" fill-rule="evenodd" fill-opacity="1" /><path clip-path="url(#clip880)" d="M587.652 742.647 Q584.041 742.647 582.213 746.211 Q580.407 749.753 580.407 756.883 Q580.407 763.989 582.213 767.554 Q584.041 771.095 587.652 771.095 Q591.287 771.095 593.092 767.554 Q594.921 763.989 594.921 756.883 Q594.921 749.753 593.092 746.211 Q591.287 742.647 587.652 742.647 M587.652 738.943 Q593.463 738.943 596.518 743.549 Q599.597 748.133 599.597 756.883 Q599.597 765.609 596.518 770.216 Q593.463 774.799 587.652 774.799 Q581.842 774.799 578.764 770.216 Q575.708 765.609 575.708 756.883 Q575.708 748.133 578.764 743.549 Q581.842 738.943 587.652 738.943 Z" fill="#000000" fill-rule="evenodd" fill-opacity="1" /><path clip-path="url(#clip880)" d="M607.814 768.248 L612.699 768.248 L612.699 774.128 L607.814 774.128 L607.814 768.248 Z" fill="#000000" fill-rule="evenodd" fill-opacity="1" /><path clip-path="url(#clip880)" d="M632.884 757.716 Q629.55 757.716 627.629 759.498 Q625.731 761.281 625.731 764.406 Q625.731 767.531 627.629 769.313 Q629.55 771.095 632.884 771.095 Q636.217 771.095 638.138 769.313 Q640.06 767.508 640.06 764.406 Q640.06 761.281 638.138 759.498 Q636.24 757.716 632.884 757.716 M628.208 755.725 Q625.198 754.984 623.509 752.924 Q621.842 750.864 621.842 747.901 Q621.842 743.758 624.782 741.35 Q627.745 738.943 632.884 738.943 Q638.046 738.943 640.985 741.35 Q643.925 743.758 643.925 747.901 Q643.925 750.864 642.235 752.924 Q640.569 754.984 637.583 755.725 Q640.962 756.512 642.837 758.804 Q644.735 761.096 644.735 764.406 Q644.735 769.429 641.657 772.114 Q638.601 774.799 632.884 774.799 Q627.166 774.799 624.087 772.114 Q621.032 769.429 621.032 764.406 Q621.032 761.096 622.93 758.804 Q624.828 756.512 628.208 755.725 M626.495 748.341 Q626.495 751.026 628.161 752.531 Q629.851 754.035 632.884 754.035 Q635.893 754.035 637.583 752.531 Q639.296 751.026 639.296 748.341 Q639.296 745.656 637.583 744.151 Q635.893 742.647 632.884 742.647 Q629.851 742.647 628.161 744.151 Q626.495 745.656 626.495 748.341 Z" fill="#000000" fill-rule="evenodd" fill-opacity="1" /><path clip-path="url(#clip880)" d="M847.017 757.299 L876.693 757.299 L876.693 761.234 L847.017 761.234 L847.017 757.299 Z" fill="#000000" fill-rule="evenodd" fill-opacity="1" /><path clip-path="url(#clip880)" d="M896.785 742.647 Q893.174 742.647 891.345 746.211 Q889.54 749.753 889.54 756.883 Q889.54 763.989 891.345 767.554 Q893.174 771.095 896.785 771.095 Q900.419 771.095 902.225 767.554 Q904.054 763.989 904.054 756.883 Q904.054 749.753 902.225 746.211 Q900.419 742.647 896.785 742.647 M896.785 738.943 Q902.595 738.943 905.651 743.549 Q908.73 748.133 908.73 756.883 Q908.73 765.609 905.651 770.216 Q902.595 774.799 896.785 774.799 Q890.975 774.799 887.896 770.216 Q884.841 765.609 884.841 756.883 Q884.841 748.133 887.896 743.549 Q890.975 738.943 896.785 738.943 Z" fill="#000000" fill-rule="evenodd" fill-opacity="1" /><path clip-path="url(#clip880)" d="M916.947 768.248 L921.831 768.248 L921.831 774.128 L916.947 774.128 L916.947 768.248 Z" fill="#000000" fill-rule="evenodd" fill-opacity="1" /><path clip-path="url(#clip880)" d="M942.595 754.984 Q939.447 754.984 937.595 757.137 Q935.766 759.29 935.766 763.04 Q935.766 766.767 937.595 768.943 Q939.447 771.095 942.595 771.095 Q945.743 771.095 947.572 768.943 Q949.424 766.767 949.424 763.04 Q949.424 759.29 947.572 757.137 Q945.743 754.984 942.595 754.984 M951.877 740.332 L951.877 744.591 Q950.118 743.758 948.313 743.318 Q946.53 742.878 944.771 742.878 Q940.141 742.878 937.688 746.003 Q935.257 749.128 934.91 755.447 Q936.276 753.434 938.336 752.369 Q940.396 751.281 942.873 751.281 Q948.081 751.281 951.09 754.452 Q954.123 757.6 954.123 763.04 Q954.123 768.364 950.975 771.582 Q947.827 774.799 942.595 774.799 Q936.6 774.799 933.428 770.216 Q930.257 765.609 930.257 756.883 Q930.257 748.688 934.146 743.827 Q938.035 738.943 944.586 738.943 Q946.345 738.943 948.127 739.29 Q949.933 739.637 951.877 740.332 Z" fill="#000000" fill-rule="evenodd" fill-opacity="1" /><path clip-path="url(#clip880)" d="M1156.11 757.299 L1185.79 757.299 L1185.79 761.234 L1156.11 761.234 L1156.11 757.299 Z" fill="#000000" fill-rule="evenodd" fill-opacity="1" /><path clip-path="url(#clip880)" d="M1205.88 742.647 Q1202.27 742.647 1200.44 746.211 Q1198.64 749.753 1198.64 756.883 Q1198.64 763.989 1200.44 767.554 Q1202.27 771.095 1205.88 771.095 Q1209.52 771.095 1211.32 767.554 Q1213.15 763.989 1213.15 756.883 Q1213.15 749.753 1211.32 746.211 Q1209.52 742.647 1205.88 742.647 M1205.88 738.943 Q1211.69 738.943 1214.75 743.549 Q1217.83 748.133 1217.83 756.883 Q1217.83 765.609 1214.75 770.216 Q1211.69 774.799 1205.88 774.799 Q1200.07 774.799 1196.99 770.216 Q1193.94 765.609 1193.94 756.883 Q1193.94 748.133 1196.99 743.549 Q1200.07 738.943 1205.88 738.943 Z" fill="#000000" fill-rule="evenodd" fill-opacity="1" /><path clip-path="url(#clip880)" d="M1226.05 768.248 L1230.93 768.248 L1230.93 774.128 L1226.05 774.128 L1226.05 768.248 Z" fill="#000000" fill-rule="evenodd" fill-opacity="1" /><path clip-path="url(#clip880)" d="M1253.96 743.642 L1242.16 762.091 L1253.96 762.091 L1253.96 743.642 M1252.73 739.568 L1258.61 739.568 L1258.61 762.091 L1263.54 762.091 L1263.54 765.98 L1258.61 765.98 L1258.61 774.128 L1253.96 774.128 L1253.96 765.98 L1238.36 765.98 L1238.36 761.466 L1252.73 739.568 Z" fill="#000000" fill-rule="evenodd" fill-opacity="1" /><path clip-path="url(#clip880)" d="M1466.42 757.299 L1496.09 757.299 L1496.09 761.234 L1466.42 761.234 L1466.42 757.299 Z" fill="#000000" fill-rule="evenodd" fill-opacity="1" /><path clip-path="url(#clip880)" d="M1516.18 742.647 Q1512.57 742.647 1510.75 746.211 Q1508.94 749.753 1508.94 756.883 Q1508.94 763.989 1510.75 767.554 Q1512.57 771.095 1516.18 771.095 Q1519.82 771.095 1521.62 767.554 Q1523.45 763.989 1523.45 756.883 Q1523.45 749.753 1521.62 746.211 Q1519.82 742.647 1516.18 742.647 M1516.18 738.943 Q1522 738.943 1525.05 743.549 Q1528.13 748.133 1528.13 756.883 Q1528.13 765.609 1525.05 770.216 Q1522 774.799 1516.18 774.799 Q1510.37 774.799 1507.3 770.216 Q1504.24 765.609 1504.24 756.883 Q1504.24 748.133 1507.3 743.549 Q1510.37 738.943 1516.18 738.943 Z" fill="#000000" fill-rule="evenodd" fill-opacity="1" /><path clip-path="url(#clip880)" d="M1536.35 768.248 L1541.23 768.248 L1541.23 774.128 L1536.35 774.128 L1536.35 768.248 Z" fill="#000000" fill-rule="evenodd" fill-opacity="1" /><path clip-path="url(#clip880)" d="M1555.44 770.193 L1571.76 770.193 L1571.76 774.128 L1549.82 774.128 L1549.82 770.193 Q1552.48 767.438 1557.06 762.808 Q1561.67 758.156 1562.85 756.813 Q1565.1 754.29 1565.98 752.554 Q1566.88 750.795 1566.88 749.105 Q1566.88 746.35 1564.93 744.614 Q1563.01 742.878 1559.91 742.878 Q1557.71 742.878 1555.26 743.642 Q1552.83 744.406 1550.05 745.957 L1550.05 741.235 Q1552.87 740.1 1555.33 739.522 Q1557.78 738.943 1559.82 738.943 Q1565.19 738.943 1568.38 741.628 Q1571.58 744.313 1571.58 748.804 Q1571.58 750.934 1570.77 752.855 Q1569.98 754.753 1567.87 757.346 Q1567.3 758.017 1564.19 761.234 Q1561.09 764.429 1555.44 770.193 Z" fill="#000000" fill-rule="evenodd" fill-opacity="1" /><path clip-path="url(#clip880)" d="M1805.73 742.647 Q1802.12 742.647 1800.29 746.211 Q1798.49 749.753 1798.49 756.883 Q1798.49 763.989 1800.29 767.554 Q1802.12 771.095 1805.73 771.095 Q1809.37 771.095 1811.17 767.554 Q1813 763.989 1813 756.883 Q1813 749.753 1811.17 746.211 Q1809.37 742.647 1805.73 742.647 M1805.73 738.943 Q1811.54 738.943 1814.6 743.549 Q1817.68 748.133 1817.68 756.883 Q1817.68 765.609 1814.6 770.216 Q1811.54 774.799 1805.73 774.799 Q1799.92 774.799 1796.85 770.216 Q1793.79 765.609 1793.79 756.883 Q1793.79 748.133 1796.85 743.549 Q1799.92 738.943 1805.73 738.943 Z" fill="#000000" fill-rule="evenodd" fill-opacity="1" /><path clip-path="url(#clip880)" d="M1825.9 768.248 L1830.78 768.248 L1830.78 774.128 L1825.9 774.128 L1825.9 768.248 Z" fill="#000000" fill-rule="evenodd" fill-opacity="1" /><path clip-path="url(#clip880)" d="M1850.97 742.647 Q1847.35 742.647 1845.53 746.211 Q1843.72 749.753 1843.72 756.883 Q1843.72 763.989 1845.53 767.554 Q1847.35 771.095 1850.97 771.095 Q1854.6 771.095 1856.41 767.554 Q1858.23 763.989 1858.23 756.883 Q1858.23 749.753 1856.41 746.211 Q1854.6 742.647 1850.97 742.647 M1850.97 738.943 Q1856.78 738.943 1859.83 743.549 Q1862.91 748.133 1862.91 756.883 Q1862.91 765.609 1859.83 770.216 Q1856.78 774.799 1850.97 774.799 Q1845.16 774.799 1842.08 770.216 Q1839.02 765.609 1839.02 756.883 Q1839.02 748.133 1842.08 743.549 Q1845.16 738.943 1850.97 738.943 Z" fill="#000000" fill-rule="evenodd" fill-opacity="1" /><path clip-path="url(#clip880)" d="M2115.79 742.647 Q2112.18 742.647 2110.35 746.211 Q2108.55 749.753 2108.55 756.883 Q2108.55 763.989 2110.35 767.554 Q2112.18 771.095 2115.79 771.095 Q2119.43 771.095 2121.23 767.554 Q2123.06 763.989 2123.06 756.883 Q2123.06 749.753 2121.23 746.211 Q2119.43 742.647 2115.79 742.647 M2115.79 738.943 Q2121.6 738.943 2124.66 743.549 Q2127.74 748.133 2127.74 756.883 Q2127.74 765.609 2124.66 770.216 Q2121.6 774.799 2115.79 774.799 Q2109.98 774.799 2106.9 770.216 Q2103.85 765.609 2103.85 756.883 Q2103.85 748.133 2106.9 743.549 Q2109.98 738.943 2115.79 738.943 Z" fill="#000000" fill-rule="evenodd" fill-opacity="1" /><path clip-path="url(#clip880)" d="M2135.96 768.248 L2140.84 768.248 L2140.84 774.128 L2135.96 774.128 L2135.96 768.248 Z" fill="#000000" fill-rule="evenodd" fill-opacity="1" /><path clip-path="url(#clip880)" d="M2155.05 770.193 L2171.37 770.193 L2171.37 774.128 L2149.43 774.128 L2149.43 770.193 Q2152.09 767.438 2156.67 762.808 Q2161.28 758.156 2162.46 756.813 Q2164.7 754.29 2165.58 752.554 Q2166.49 750.795 2166.49 749.105 Q2166.49 746.35 2164.54 744.614 Q2162.62 742.878 2159.52 742.878 Q2157.32 742.878 2154.87 743.642 Q2152.44 744.406 2149.66 745.957 L2149.66 741.235 Q2152.48 740.1 2154.94 739.522 Q2157.39 738.943 2159.43 738.943 Q2164.8 738.943 2167.99 741.628 Q2171.19 744.313 2171.19 748.804 Q2171.19 750.934 2170.38 752.855 Q2169.59 754.753 2167.48 757.346 Q2166.9 758.017 2163.8 761.234 Q2160.7 764.429 2155.05 770.193 Z" fill="#000000" fill-rule="evenodd" fill-opacity="1" /><polyline clip-path="url(#clip882)" style="stroke:#000000; stroke-linecap:round; stroke-linejoin:round; stroke-width:2; stroke-opacity:0.1; fill:none" points="110.881,692.922 2352.76,692.922 "/>
<polyline clip-path="url(#clip882)" style="stroke:#000000; stroke-linecap:round; stroke-linejoin:round; stroke-width:2; stroke-opacity:0.1; fill:none" points="110.881,501.511 2352.76,501.511 "/>
<polyline clip-path="url(#clip882)" style="stroke:#000000; stroke-linecap:round; stroke-linejoin:round; stroke-width:2; stroke-opacity:0.1; fill:none" points="110.881,310.099 2352.76,310.099 "/>
<polyline clip-path="url(#clip882)" style="stroke:#000000; stroke-linecap:round; stroke-linejoin:round; stroke-width:2; stroke-opacity:0.1; fill:none" points="110.881,118.688 2352.76,118.688 "/>
<polyline clip-path="url(#clip880)" style="stroke:#000000; stroke-linecap:round; stroke-linejoin:round; stroke-width:4; stroke-opacity:1; fill:none" points="110.881,711.728 110.881,47.2441 "/>
<polyline clip-path="url(#clip880)" style="stroke:#000000; stroke-linecap:round; stroke-linejoin:round; stroke-width:4; stroke-opacity:1; fill:none" points="110.881,692.922 129.779,692.922 "/>
<polyline clip-path="url(#clip880)" style="stroke:#000000; stroke-linecap:round; stroke-linejoin:round; stroke-width:4; stroke-opacity:1; fill:none" points="110.881,501.511 129.779,501.511 "/>
<polyline clip-path="url(#clip880)" style="stroke:#000000; stroke-linecap:round; stroke-linejoin:round; stroke-width:4; stroke-opacity:1; fill:none" points="110.881,310.099 129.779,310.099 "/>
<polyline clip-path="url(#clip880)" style="stroke:#000000; stroke-linecap:round; stroke-linejoin:round; stroke-width:4; stroke-opacity:1; fill:none" points="110.881,118.688 129.779,118.688 "/>
<path clip-path="url(#clip880)" d="M62.9365 678.72 Q59.3254 678.72 57.4967 682.285 Q55.6912 685.827 55.6912 692.956 Q55.6912 700.063 57.4967 703.628 Q59.3254 707.169 62.9365 707.169 Q66.5707 707.169 68.3763 703.628 Q70.205 700.063 70.205 692.956 Q70.205 685.827 68.3763 682.285 Q66.5707 678.72 62.9365 678.72 M62.9365 675.017 Q68.7467 675.017 71.8022 679.623 Q74.8809 684.206 74.8809 692.956 Q74.8809 701.683 71.8022 706.29 Q68.7467 710.873 62.9365 710.873 Q57.1264 710.873 54.0477 706.29 Q50.9921 701.683 50.9921 692.956 Q50.9921 684.206 54.0477 679.623 Q57.1264 675.017 62.9365 675.017 Z" fill="#000000" fill-rule="evenodd" fill-opacity="1" /><path clip-path="url(#clip880)" d="M54.9736 514.855 L62.6124 514.855 L62.6124 488.49 L54.3023 490.156 L54.3023 485.897 L62.5661 484.231 L67.242 484.231 L67.242 514.855 L74.8809 514.855 L74.8809 518.791 L54.9736 518.791 L54.9736 514.855 Z" fill="#000000" fill-rule="evenodd" fill-opacity="1" /><path clip-path="url(#clip880)" d="M58.5615 323.444 L74.8809 323.444 L74.8809 327.379 L52.9366 327.379 L52.9366 323.444 Q55.5986 320.69 60.1819 316.06 Q64.7883 311.407 65.9689 310.065 Q68.2143 307.542 69.0939 305.805 Q69.9967 304.046 69.9967 302.356 Q69.9967 299.602 68.0522 297.866 Q66.1309 296.13 63.0291 296.13 Q60.83 296.13 58.3763 296.893 Q55.9458 297.657 53.168 299.208 L53.168 294.486 Q55.9921 293.352 58.4458 292.773 Q60.8995 292.194 62.9365 292.194 Q68.3068 292.194 71.5013 294.88 Q74.6957 297.565 74.6957 302.056 Q74.6957 304.185 73.8855 306.106 Q73.0985 308.005 70.992 310.597 Q70.4133 311.268 67.3115 314.486 Q64.2096 317.68 58.5615 323.444 Z" fill="#000000" fill-rule="evenodd" fill-opacity="1" /><path clip-path="url(#clip880)" d="M67.7513 117.334 Q71.1078 118.052 72.9827 120.32 Q74.8809 122.589 74.8809 125.922 Q74.8809 131.038 71.3624 133.839 Q67.8439 136.64 61.3624 136.64 Q59.1865 136.64 56.8717 136.2 Q54.5801 135.783 52.1264 134.927 L52.1264 130.413 Q54.0708 131.547 56.3856 132.126 Q58.7004 132.704 61.2236 132.704 Q65.6217 132.704 67.9133 130.968 Q70.2281 129.232 70.2281 125.922 Q70.2281 122.867 68.0754 121.154 Q65.9457 119.417 62.1263 119.417 L58.0986 119.417 L58.0986 115.575 L62.3115 115.575 Q65.7606 115.575 67.5893 114.209 Q69.418 112.82 69.418 110.228 Q69.418 107.566 67.5198 106.154 Q65.6448 104.718 62.1263 104.718 Q60.205 104.718 58.006 105.135 Q55.8069 105.552 53.168 106.431 L53.168 102.265 Q55.8301 101.524 58.1449 101.154 Q60.4828 100.783 62.543 100.783 Q67.867 100.783 70.9689 103.214 Q74.0707 105.621 74.0707 109.742 Q74.0707 112.612 72.4272 114.603 Q70.7837 116.57 67.7513 117.334 Z" fill="#000000" fill-rule="evenodd" fill-opacity="1" /><path clip-path="url(#clip882)" d="M282.05 691.965 L282.05 692.922 L312.976 692.922 L312.976 691.965 L282.05 691.965 L282.05 691.965  Z" fill="#009af9" fill-rule="evenodd" fill-opacity="0.1"/>
<polyline clip-path="url(#clip882)" style="stroke:#000000; stroke-linecap:round; stroke-linejoin:round; stroke-width:4; stroke-opacity:0.1; fill:none" points="282.05,691.965 282.05,692.922 312.976,692.922 312.976,691.965 282.05,691.965 "/>
<path clip-path="url(#clip882)" d="M312.976 679.523 L312.976 692.922 L343.902 692.922 L343.902 679.523 L312.976 679.523 L312.976 679.523  Z" fill="#009af9" fill-rule="evenodd" fill-opacity="0.1"/>
<polyline clip-path="url(#clip882)" style="stroke:#000000; stroke-linecap:round; stroke-linejoin:round; stroke-width:4; stroke-opacity:0.1; fill:none" points="312.976,679.523 312.976,692.922 343.902,692.922 343.902,679.523 312.976,679.523 "/>
<path clip-path="url(#clip882)" d="M343.902 637.412 L343.902 692.922 L374.828 692.922 L374.828 637.412 L343.902 637.412 L343.902 637.412  Z" fill="#009af9" fill-rule="evenodd" fill-opacity="0.1"/>
<polyline clip-path="url(#clip882)" style="stroke:#000000; stroke-linecap:round; stroke-linejoin:round; stroke-width:4; stroke-opacity:0.1; fill:none" points="343.902,637.412 343.902,692.922 374.828,692.922 374.828,637.412 343.902,637.412 "/>
<path clip-path="url(#clip882)" d="M374.828 566.59 L374.828 692.922 L405.754 692.922 L405.754 566.59 L374.828 566.59 L374.828 566.59  Z" fill="#009af9" fill-rule="evenodd" fill-opacity="0.1"/>
<polyline clip-path="url(#clip882)" style="stroke:#000000; stroke-linecap:round; stroke-linejoin:round; stroke-width:4; stroke-opacity:0.1; fill:none" points="374.828,566.59 374.828,692.922 405.754,692.922 405.754,566.59 374.828,566.59 "/>
<path clip-path="url(#clip882)" d="M405.754 464.185 L405.754 692.922 L436.68 692.922 L436.68 464.185 L405.754 464.185 L405.754 464.185  Z" fill="#009af9" fill-rule="evenodd" fill-opacity="0.1"/>
<polyline clip-path="url(#clip882)" style="stroke:#000000; stroke-linecap:round; stroke-linejoin:round; stroke-width:4; stroke-opacity:0.1; fill:none" points="405.754,464.185 405.754,692.922 436.68,692.922 436.68,464.185 405.754,464.185 "/>
<path clip-path="url(#clip882)" d="M436.68 352.21 L436.68 692.922 L467.606 692.922 L467.606 352.21 L436.68 352.21 L436.68 352.21  Z" fill="#009af9" fill-rule="evenodd" fill-opacity="0.1"/>
<polyline clip-path="url(#clip882)" style="stroke:#000000; stroke-linecap:round; stroke-linejoin:round; stroke-width:4; stroke-opacity:0.1; fill:none" points="436.68,352.21 436.68,692.922 467.606,692.922 467.606,352.21 436.68,352.21 "/>
<path clip-path="url(#clip882)" d="M467.606 300.529 L467.606 692.922 L498.532 692.922 L498.532 300.529 L467.606 300.529 L467.606 300.529  Z" fill="#009af9" fill-rule="evenodd" fill-opacity="0.1"/>
<polyline clip-path="url(#clip882)" style="stroke:#000000; stroke-linecap:round; stroke-linejoin:round; stroke-width:4; stroke-opacity:0.1; fill:none" points="467.606,300.529 467.606,692.922 498.532,692.922 498.532,300.529 467.606,300.529 "/>
<path clip-path="url(#clip882)" d="M498.532 183.768 L498.532 692.922 L529.458 692.922 L529.458 183.768 L498.532 183.768 L498.532 183.768  Z" fill="#009af9" fill-rule="evenodd" fill-opacity="0.1"/>
<polyline clip-path="url(#clip882)" style="stroke:#000000; stroke-linecap:round; stroke-linejoin:round; stroke-width:4; stroke-opacity:0.1; fill:none" points="498.532,183.768 498.532,692.922 529.458,692.922 529.458,183.768 498.532,183.768 "/>
<path clip-path="url(#clip882)" d="M529.458 137.829 L529.458 692.922 L560.384 692.922 L560.384 137.829 L529.458 137.829 L529.458 137.829  Z" fill="#009af9" fill-rule="evenodd" fill-opacity="0.1"/>
<polyline clip-path="url(#clip882)" style="stroke:#000000; stroke-linecap:round; stroke-linejoin:round; stroke-width:4; stroke-opacity:0.1; fill:none" points="529.458,137.829 529.458,692.922 560.384,692.922 560.384,137.829 529.458,137.829 "/>
<path clip-path="url(#clip882)" d="M560.384 107.204 L560.384 692.922 L591.31 692.922 L591.31 107.204 L560.384 107.204 L560.384 107.204  Z" fill="#009af9" fill-rule="evenodd" fill-opacity="0.1"/>
<polyline clip-path="url(#clip882)" style="stroke:#000000; stroke-linecap:round; stroke-linejoin:round; stroke-width:4; stroke-opacity:0.1; fill:none" points="560.384,107.204 560.384,692.922 591.31,692.922 591.31,107.204 560.384,107.204 "/>
<path clip-path="url(#clip882)" d="M591.31 66.0502 L591.31 692.922 L622.236 692.922 L622.236 66.0502 L591.31 66.0502 L591.31 66.0502  Z" fill="#009af9" fill-rule="evenodd" fill-opacity="0.1"/>
<polyline clip-path="url(#clip882)" style="stroke:#000000; stroke-linecap:round; stroke-linejoin:round; stroke-width:4; stroke-opacity:0.1; fill:none" points="591.31,66.0502 591.31,692.922 622.236,692.922 622.236,66.0502 591.31,66.0502 "/>
<path clip-path="url(#clip882)" d="M622.236 136.872 L622.236 692.922 L653.162 692.922 L653.162 136.872 L622.236 136.872 L622.236 136.872  Z" fill="#009af9" fill-rule="evenodd" fill-opacity="0.1"/>
<polyline clip-path="url(#clip882)" style="stroke:#000000; stroke-linecap:round; stroke-linejoin:round; stroke-width:4; stroke-opacity:0.1; fill:none" points="622.236,136.872 622.236,692.922 653.162,692.922 653.162,136.872 622.236,136.872 "/>
<path clip-path="url(#clip882)" d="M653.162 140.701 L653.162 692.922 L684.088 692.922 L684.088 140.701 L653.162 140.701 L653.162 140.701  Z" fill="#009af9" fill-rule="evenodd" fill-opacity="0.1"/>
<polyline clip-path="url(#clip882)" style="stroke:#000000; stroke-linecap:round; stroke-linejoin:round; stroke-width:4; stroke-opacity:0.1; fill:none" points="653.162,140.701 653.162,692.922 684.088,692.922 684.088,140.701 653.162,140.701 "/>
<path clip-path="url(#clip882)" d="M684.088 178.026 L684.088 692.922 L715.014 692.922 L715.014 178.026 L684.088 178.026 L684.088 178.026  Z" fill="#009af9" fill-rule="evenodd" fill-opacity="0.1"/>
<polyline clip-path="url(#clip882)" style="stroke:#000000; stroke-linecap:round; stroke-linejoin:round; stroke-width:4; stroke-opacity:0.1; fill:none" points="684.088,178.026 684.088,692.922 715.014,692.922 715.014,178.026 684.088,178.026 "/>
<path clip-path="url(#clip882)" d="M715.014 220.136 L715.014 692.922 L745.94 692.922 L745.94 220.136 L715.014 220.136 L715.014 220.136  Z" fill="#009af9" fill-rule="evenodd" fill-opacity="0.1"/>
<polyline clip-path="url(#clip882)" style="stroke:#000000; stroke-linecap:round; stroke-linejoin:round; stroke-width:4; stroke-opacity:0.1; fill:none" points="715.014,220.136 715.014,692.922 745.94,692.922 745.94,220.136 715.014,220.136 "/>
<path clip-path="url(#clip882)" d="M745.94 235.449 L745.94 692.922 L776.866 692.922 L776.866 235.449 L745.94 235.449 L745.94 235.449  Z" fill="#009af9" fill-rule="evenodd" fill-opacity="0.1"/>
<polyline clip-path="url(#clip882)" style="stroke:#000000; stroke-linecap:round; stroke-linejoin:round; stroke-width:4; stroke-opacity:0.1; fill:none" points="745.94,235.449 745.94,692.922 776.866,692.922 776.866,235.449 745.94,235.449 "/>
<path clip-path="url(#clip882)" d="M776.866 273.731 L776.866 692.922 L807.792 692.922 L807.792 273.731 L776.866 273.731 L776.866 273.731  Z" fill="#009af9" fill-rule="evenodd" fill-opacity="0.1"/>
<polyline clip-path="url(#clip882)" style="stroke:#000000; stroke-linecap:round; stroke-linejoin:round; stroke-width:4; stroke-opacity:0.1; fill:none" points="776.866,273.731 776.866,692.922 807.792,692.922 807.792,273.731 776.866,273.731 "/>
<path clip-path="url(#clip882)" d="M807.792 345.511 L807.792 692.922 L838.718 692.922 L838.718 345.511 L807.792 345.511 L807.792 345.511  Z" fill="#009af9" fill-rule="evenodd" fill-opacity="0.1"/>
<polyline clip-path="url(#clip882)" style="stroke:#000000; stroke-linecap:round; stroke-linejoin:round; stroke-width:4; stroke-opacity:0.1; fill:none" points="807.792,345.511 807.792,692.922 838.718,692.922 838.718,345.511 807.792,345.511 "/>
<path clip-path="url(#clip882)" d="M838.718 356.995 L838.718 692.922 L869.644 692.922 L869.644 356.995 L838.718 356.995 L838.718 356.995  Z" fill="#009af9" fill-rule="evenodd" fill-opacity="0.1"/>
<polyline clip-path="url(#clip882)" style="stroke:#000000; stroke-linecap:round; stroke-linejoin:round; stroke-width:4; stroke-opacity:0.1; fill:none" points="838.718,356.995 838.718,692.922 869.644,692.922 869.644,356.995 838.718,356.995 "/>
<path clip-path="url(#clip882)" d="M869.644 404.848 L869.644 692.922 L900.57 692.922 L900.57 404.848 L869.644 404.848 L869.644 404.848  Z" fill="#009af9" fill-rule="evenodd" fill-opacity="0.1"/>
<polyline clip-path="url(#clip882)" style="stroke:#000000; stroke-linecap:round; stroke-linejoin:round; stroke-width:4; stroke-opacity:0.1; fill:none" points="869.644,404.848 869.644,692.922 900.57,692.922 900.57,404.848 869.644,404.848 "/>
<path clip-path="url(#clip882)" d="M900.57 419.204 L900.57 692.922 L931.496 692.922 L931.496 419.204 L900.57 419.204 L900.57 419.204  Z" fill="#009af9" fill-rule="evenodd" fill-opacity="0.1"/>
<polyline clip-path="url(#clip882)" style="stroke:#000000; stroke-linecap:round; stroke-linejoin:round; stroke-width:4; stroke-opacity:0.1; fill:none" points="900.57,419.204 900.57,692.922 931.496,692.922 931.496,419.204 900.57,419.204 "/>
<path clip-path="url(#clip882)" d="M931.496 453.658 L931.496 692.922 L962.422 692.922 L962.422 453.658 L931.496 453.658 L931.496 453.658  Z" fill="#009af9" fill-rule="evenodd" fill-opacity="0.1"/>
<polyline clip-path="url(#clip882)" style="stroke:#000000; stroke-linecap:round; stroke-linejoin:round; stroke-width:4; stroke-opacity:0.1; fill:none" points="931.496,453.658 931.496,692.922 962.422,692.922 962.422,453.658 931.496,453.658 "/>
<path clip-path="url(#clip882)" d="M962.422 492.897 L962.422 692.922 L993.348 692.922 L993.348 492.897 L962.422 492.897 L962.422 492.897  Z" fill="#009af9" fill-rule="evenodd" fill-opacity="0.1"/>
<polyline clip-path="url(#clip882)" style="stroke:#000000; stroke-linecap:round; stroke-linejoin:round; stroke-width:4; stroke-opacity:0.1; fill:none" points="962.422,492.897 962.422,692.922 993.348,692.922 993.348,492.897 962.422,492.897 "/>
<path clip-path="url(#clip882)" d="M993.348 512.995 L993.348 692.922 L1024.27 692.922 L1024.27 512.995 L993.348 512.995 L993.348 512.995  Z" fill="#009af9" fill-rule="evenodd" fill-opacity="0.1"/>
<polyline clip-path="url(#clip882)" style="stroke:#000000; stroke-linecap:round; stroke-linejoin:round; stroke-width:4; stroke-opacity:0.1; fill:none" points="993.348,512.995 993.348,692.922 1024.27,692.922 1024.27,512.995 993.348,512.995 "/>
<path clip-path="url(#clip882)" d="M1024.27 535.008 L1024.27 692.922 L1055.2 692.922 L1055.2 535.008 L1024.27 535.008 L1024.27 535.008  Z" fill="#009af9" fill-rule="evenodd" fill-opacity="0.1"/>
<polyline clip-path="url(#clip882)" style="stroke:#000000; stroke-linecap:round; stroke-linejoin:round; stroke-width:4; stroke-opacity:0.1; fill:none" points="1024.27,535.008 1024.27,692.922 1055.2,692.922 1055.2,535.008 1024.27,535.008 "/>
<path clip-path="url(#clip882)" d="M1055.2 584.774 L1055.2 692.922 L1086.13 692.922 L1086.13 584.774 L1055.2 584.774 L1055.2 584.774  Z" fill="#009af9" fill-rule="evenodd" fill-opacity="0.1"/>
<polyline clip-path="url(#clip882)" style="stroke:#000000; stroke-linecap:round; stroke-linejoin:round; stroke-width:4; stroke-opacity:0.1; fill:none" points="1055.2,584.774 1055.2,692.922 1086.13,692.922 1086.13,584.774 1055.2,584.774 "/>
<path clip-path="url(#clip882)" d="M1086.13 568.504 L1086.13 692.922 L1117.05 692.922 L1117.05 568.504 L1086.13 568.504 L1086.13 568.504  Z" fill="#009af9" fill-rule="evenodd" fill-opacity="0.1"/>
<polyline clip-path="url(#clip882)" style="stroke:#000000; stroke-linecap:round; stroke-linejoin:round; stroke-width:4; stroke-opacity:0.1; fill:none" points="1086.13,568.504 1086.13,692.922 1117.05,692.922 1117.05,568.504 1086.13,568.504 "/>
<path clip-path="url(#clip882)" d="M1117.05 576.161 L1117.05 692.922 L1147.98 692.922 L1147.98 576.161 L1117.05 576.161 L1117.05 576.161  Z" fill="#009af9" fill-rule="evenodd" fill-opacity="0.1"/>
<polyline clip-path="url(#clip882)" style="stroke:#000000; stroke-linecap:round; stroke-linejoin:round; stroke-width:4; stroke-opacity:0.1; fill:none" points="1117.05,576.161 1117.05,692.922 1147.98,692.922 1147.98,576.161 1117.05,576.161 "/>
<path clip-path="url(#clip882)" d="M1147.98 584.774 L1147.98 692.922 L1178.9 692.922 L1178.9 584.774 L1147.98 584.774 L1147.98 584.774  Z" fill="#009af9" fill-rule="evenodd" fill-opacity="0.1"/>
<polyline clip-path="url(#clip882)" style="stroke:#000000; stroke-linecap:round; stroke-linejoin:round; stroke-width:4; stroke-opacity:0.1; fill:none" points="1147.98,584.774 1147.98,692.922 1178.9,692.922 1178.9,584.774 1147.98,584.774 "/>
<path clip-path="url(#clip882)" d="M1178.9 618.271 L1178.9 692.922 L1209.83 692.922 L1209.83 618.271 L1178.9 618.271 L1178.9 618.271  Z" fill="#009af9" fill-rule="evenodd" fill-opacity="0.1"/>
<polyline clip-path="url(#clip882)" style="stroke:#000000; stroke-linecap:round; stroke-linejoin:round; stroke-width:4; stroke-opacity:0.1; fill:none" points="1178.9,618.271 1178.9,692.922 1209.83,692.922 1209.83,618.271 1178.9,618.271 "/>
<path clip-path="url(#clip882)" d="M1209.83 606.787 L1209.83 692.922 L1240.76 692.922 L1240.76 606.787 L1209.83 606.787 L1209.83 606.787  Z" fill="#009af9" fill-rule="evenodd" fill-opacity="0.1"/>
<polyline clip-path="url(#clip882)" style="stroke:#000000; stroke-linecap:round; stroke-linejoin:round; stroke-width:4; stroke-opacity:0.1; fill:none" points="1209.83,606.787 1209.83,692.922 1240.76,692.922 1240.76,606.787 1209.83,606.787 "/>
<path clip-path="url(#clip882)" d="M1240.76 626.885 L1240.76 692.922 L1271.68 692.922 L1271.68 626.885 L1240.76 626.885 L1240.76 626.885  Z" fill="#009af9" fill-rule="evenodd" fill-opacity="0.1"/>
<polyline clip-path="url(#clip882)" style="stroke:#000000; stroke-linecap:round; stroke-linejoin:round; stroke-width:4; stroke-opacity:0.1; fill:none" points="1240.76,626.885 1240.76,692.922 1271.68,692.922 1271.68,626.885 1240.76,626.885 "/>
<path clip-path="url(#clip882)" d="M1271.68 621.143 L1271.68 692.922 L1302.61 692.922 L1302.61 621.143 L1271.68 621.143 L1271.68 621.143  Z" fill="#009af9" fill-rule="evenodd" fill-opacity="0.1"/>
<polyline clip-path="url(#clip882)" style="stroke:#000000; stroke-linecap:round; stroke-linejoin:round; stroke-width:4; stroke-opacity:0.1; fill:none" points="1271.68,621.143 1271.68,692.922 1302.61,692.922 1302.61,621.143 1271.68,621.143 "/>
<path clip-path="url(#clip882)" d="M1302.61 645.069 L1302.61 692.922 L1333.53 692.922 L1333.53 645.069 L1302.61 645.069 L1302.61 645.069  Z" fill="#009af9" fill-rule="evenodd" fill-opacity="0.1"/>
<polyline clip-path="url(#clip882)" style="stroke:#000000; stroke-linecap:round; stroke-linejoin:round; stroke-width:4; stroke-opacity:0.1; fill:none" points="1302.61,645.069 1302.61,692.922 1333.53,692.922 1333.53,645.069 1302.61,645.069 "/>
<path clip-path="url(#clip882)" d="M1333.53 649.854 L1333.53 692.922 L1364.46 692.922 L1364.46 649.854 L1333.53 649.854 L1333.53 649.854  Z" fill="#009af9" fill-rule="evenodd" fill-opacity="0.1"/>
<polyline clip-path="url(#clip882)" style="stroke:#000000; stroke-linecap:round; stroke-linejoin:round; stroke-width:4; stroke-opacity:0.1; fill:none" points="1333.53,649.854 1333.53,692.922 1364.46,692.922 1364.46,649.854 1333.53,649.854 "/>
<path clip-path="url(#clip882)" d="M1364.46 652.725 L1364.46 692.922 L1395.39 692.922 L1395.39 652.725 L1364.46 652.725 L1364.46 652.725  Z" fill="#009af9" fill-rule="evenodd" fill-opacity="0.1"/>
<polyline clip-path="url(#clip882)" style="stroke:#000000; stroke-linecap:round; stroke-linejoin:round; stroke-width:4; stroke-opacity:0.1; fill:none" points="1364.46,652.725 1364.46,692.922 1395.39,692.922 1395.39,652.725 1364.46,652.725 "/>
<path clip-path="url(#clip882)" d="M1395.39 662.296 L1395.39 692.922 L1426.31 692.922 L1426.31 662.296 L1395.39 662.296 L1395.39 662.296  Z" fill="#009af9" fill-rule="evenodd" fill-opacity="0.1"/>
<polyline clip-path="url(#clip882)" style="stroke:#000000; stroke-linecap:round; stroke-linejoin:round; stroke-width:4; stroke-opacity:0.1; fill:none" points="1395.39,662.296 1395.39,692.922 1426.31,692.922 1426.31,662.296 1395.39,662.296 "/>
<path clip-path="url(#clip882)" d="M1426.31 666.124 L1426.31 692.922 L1457.24 692.922 L1457.24 666.124 L1426.31 666.124 L1426.31 666.124  Z" fill="#009af9" fill-rule="evenodd" fill-opacity="0.1"/>
<polyline clip-path="url(#clip882)" style="stroke:#000000; stroke-linecap:round; stroke-linejoin:round; stroke-width:4; stroke-opacity:0.1; fill:none" points="1426.31,666.124 1426.31,692.922 1457.24,692.922 1457.24,666.124 1426.31,666.124 "/>
<path clip-path="url(#clip882)" d="M1457.24 665.167 L1457.24 692.922 L1488.16 692.922 L1488.16 665.167 L1457.24 665.167 L1457.24 665.167  Z" fill="#009af9" fill-rule="evenodd" fill-opacity="0.1"/>
<polyline clip-path="url(#clip882)" style="stroke:#000000; stroke-linecap:round; stroke-linejoin:round; stroke-width:4; stroke-opacity:0.1; fill:none" points="1457.24,665.167 1457.24,692.922 1488.16,692.922 1488.16,665.167 1457.24,665.167 "/>
<path clip-path="url(#clip882)" d="M1488.16 668.995 L1488.16 692.922 L1519.09 692.922 L1519.09 668.995 L1488.16 668.995 L1488.16 668.995  Z" fill="#009af9" fill-rule="evenodd" fill-opacity="0.1"/>
<polyline clip-path="url(#clip882)" style="stroke:#000000; stroke-linecap:round; stroke-linejoin:round; stroke-width:4; stroke-opacity:0.1; fill:none" points="1488.16,668.995 1488.16,692.922 1519.09,692.922 1519.09,668.995 1488.16,668.995 "/>
<path clip-path="url(#clip882)" d="M1519.09 677.609 L1519.09 692.922 L1550.02 692.922 L1550.02 677.609 L1519.09 677.609 L1519.09 677.609  Z" fill="#009af9" fill-rule="evenodd" fill-opacity="0.1"/>
<polyline clip-path="url(#clip882)" style="stroke:#000000; stroke-linecap:round; stroke-linejoin:round; stroke-width:4; stroke-opacity:0.1; fill:none" points="1519.09,677.609 1519.09,692.922 1550.02,692.922 1550.02,677.609 1519.09,677.609 "/>
<path clip-path="url(#clip882)" d="M1550.02 670.909 L1550.02 692.922 L1580.94 692.922 L1580.94 670.909 L1550.02 670.909 L1550.02 670.909  Z" fill="#009af9" fill-rule="evenodd" fill-opacity="0.1"/>
<polyline clip-path="url(#clip882)" style="stroke:#000000; stroke-linecap:round; stroke-linejoin:round; stroke-width:4; stroke-opacity:0.1; fill:none" points="1550.02,670.909 1550.02,692.922 1580.94,692.922 1580.94,670.909 1550.02,670.909 "/>
<path clip-path="url(#clip882)" d="M1580.94 677.609 L1580.94 692.922 L1611.87 692.922 L1611.87 677.609 L1580.94 677.609 L1580.94 677.609  Z" fill="#009af9" fill-rule="evenodd" fill-opacity="0.1"/>
<polyline clip-path="url(#clip882)" style="stroke:#000000; stroke-linecap:round; stroke-linejoin:round; stroke-width:4; stroke-opacity:0.1; fill:none" points="1580.94,677.609 1580.94,692.922 1611.87,692.922 1611.87,677.609 1580.94,677.609 "/>
<path clip-path="url(#clip882)" d="M1611.87 678.566 L1611.87 692.922 L1642.79 692.922 L1642.79 678.566 L1611.87 678.566 L1611.87 678.566  Z" fill="#009af9" fill-rule="evenodd" fill-opacity="0.1"/>
<polyline clip-path="url(#clip882)" style="stroke:#000000; stroke-linecap:round; stroke-linejoin:round; stroke-width:4; stroke-opacity:0.1; fill:none" points="1611.87,678.566 1611.87,692.922 1642.79,692.922 1642.79,678.566 1611.87,678.566 "/>
<path clip-path="url(#clip882)" d="M1642.79 676.652 L1642.79 692.922 L1673.72 692.922 L1673.72 676.652 L1642.79 676.652 L1642.79 676.652  Z" fill="#009af9" fill-rule="evenodd" fill-opacity="0.1"/>
<polyline clip-path="url(#clip882)" style="stroke:#000000; stroke-linecap:round; stroke-linejoin:round; stroke-width:4; stroke-opacity:0.1; fill:none" points="1642.79,676.652 1642.79,692.922 1673.72,692.922 1673.72,676.652 1642.79,676.652 "/>
<path clip-path="url(#clip882)" d="M1673.72 682.394 L1673.72 692.922 L1704.65 692.922 L1704.65 682.394 L1673.72 682.394 L1673.72 682.394  Z" fill="#009af9" fill-rule="evenodd" fill-opacity="0.1"/>
<polyline clip-path="url(#clip882)" style="stroke:#000000; stroke-linecap:round; stroke-linejoin:round; stroke-width:4; stroke-opacity:0.1; fill:none" points="1673.72,682.394 1673.72,692.922 1704.65,692.922 1704.65,682.394 1673.72,682.394 "/>
<path clip-path="url(#clip882)" d="M1704.65 687.179 L1704.65 692.922 L1735.57 692.922 L1735.57 687.179 L1704.65 687.179 L1704.65 687.179  Z" fill="#009af9" fill-rule="evenodd" fill-opacity="0.1"/>
<polyline clip-path="url(#clip882)" style="stroke:#000000; stroke-linecap:round; stroke-linejoin:round; stroke-width:4; stroke-opacity:0.1; fill:none" points="1704.65,687.179 1704.65,692.922 1735.57,692.922 1735.57,687.179 1704.65,687.179 "/>
<path clip-path="url(#clip882)" d="M1735.57 687.179 L1735.57 692.922 L1766.5 692.922 L1766.5 687.179 L1735.57 687.179 L1735.57 687.179  Z" fill="#009af9" fill-rule="evenodd" fill-opacity="0.1"/>
<polyline clip-path="url(#clip882)" style="stroke:#000000; stroke-linecap:round; stroke-linejoin:round; stroke-width:4; stroke-opacity:0.1; fill:none" points="1735.57,687.179 1735.57,692.922 1766.5,692.922 1766.5,687.179 1735.57,687.179 "/>
<path clip-path="url(#clip882)" d="M1766.5 683.351 L1766.5 692.922 L1797.42 692.922 L1797.42 683.351 L1766.5 683.351 L1766.5 683.351  Z" fill="#009af9" fill-rule="evenodd" fill-opacity="0.1"/>
<polyline clip-path="url(#clip882)" style="stroke:#000000; stroke-linecap:round; stroke-linejoin:round; stroke-width:4; stroke-opacity:0.1; fill:none" points="1766.5,683.351 1766.5,692.922 1797.42,692.922 1797.42,683.351 1766.5,683.351 "/>
<path clip-path="url(#clip882)" d="M1797.42 687.179 L1797.42 692.922 L1828.35 692.922 L1828.35 687.179 L1797.42 687.179 L1797.42 687.179  Z" fill="#009af9" fill-rule="evenodd" fill-opacity="0.1"/>
<polyline clip-path="url(#clip882)" style="stroke:#000000; stroke-linecap:round; stroke-linejoin:round; stroke-width:4; stroke-opacity:0.1; fill:none" points="1797.42,687.179 1797.42,692.922 1828.35,692.922 1828.35,687.179 1797.42,687.179 "/>
<path clip-path="url(#clip882)" d="M1828.35 690.051 L1828.35 692.922 L1859.28 692.922 L1859.28 690.051 L1828.35 690.051 L1828.35 690.051  Z" fill="#009af9" fill-rule="evenodd" fill-opacity="0.1"/>
<polyline clip-path="url(#clip882)" style="stroke:#000000; stroke-linecap:round; stroke-linejoin:round; stroke-width:4; stroke-opacity:0.1; fill:none" points="1828.35,690.051 1828.35,692.922 1859.28,692.922 1859.28,690.051 1828.35,690.051 "/>
<path clip-path="url(#clip882)" d="M1859.28 690.051 L1859.28 692.922 L1890.2 692.922 L1890.2 690.051 L1859.28 690.051 L1859.28 690.051  Z" fill="#009af9" fill-rule="evenodd" fill-opacity="0.1"/>
<polyline clip-path="url(#clip882)" style="stroke:#000000; stroke-linecap:round; stroke-linejoin:round; stroke-width:4; stroke-opacity:0.1; fill:none" points="1859.28,690.051 1859.28,692.922 1890.2,692.922 1890.2,690.051 1859.28,690.051 "/>
<path clip-path="url(#clip882)" d="M1890.2 690.051 L1890.2 692.922 L1921.13 692.922 L1921.13 690.051 L1890.2 690.051 L1890.2 690.051  Z" fill="#009af9" fill-rule="evenodd" fill-opacity="0.1"/>
<polyline clip-path="url(#clip882)" style="stroke:#000000; stroke-linecap:round; stroke-linejoin:round; stroke-width:4; stroke-opacity:0.1; fill:none" points="1890.2,690.051 1890.2,692.922 1921.13,692.922 1921.13,690.051 1890.2,690.051 "/>
<path clip-path="url(#clip882)" d="M1921.13 690.051 L1921.13 692.922 L1952.05 692.922 L1952.05 690.051 L1921.13 690.051 L1921.13 690.051  Z" fill="#009af9" fill-rule="evenodd" fill-opacity="0.1"/>
<polyline clip-path="url(#clip882)" style="stroke:#000000; stroke-linecap:round; stroke-linejoin:round; stroke-width:4; stroke-opacity:0.1; fill:none" points="1921.13,690.051 1921.13,692.922 1952.05,692.922 1952.05,690.051 1921.13,690.051 "/>
<path clip-path="url(#clip882)" d="M1952.05 691.965 L1952.05 692.922 L1982.98 692.922 L1982.98 691.965 L1952.05 691.965 L1952.05 691.965  Z" fill="#009af9" fill-rule="evenodd" fill-opacity="0.1"/>
<polyline clip-path="url(#clip882)" style="stroke:#000000; stroke-linecap:round; stroke-linejoin:round; stroke-width:4; stroke-opacity:0.1; fill:none" points="1952.05,691.965 1952.05,692.922 1982.98,692.922 1982.98,691.965 1952.05,691.965 "/>
<path clip-path="url(#clip882)" d="M1982.98 691.965 L1982.98 692.922 L2013.91 692.922 L2013.91 691.965 L1982.98 691.965 L1982.98 691.965  Z" fill="#009af9" fill-rule="evenodd" fill-opacity="0.1"/>
<polyline clip-path="url(#clip882)" style="stroke:#000000; stroke-linecap:round; stroke-linejoin:round; stroke-width:4; stroke-opacity:0.1; fill:none" points="1982.98,691.965 1982.98,692.922 2013.91,692.922 2013.91,691.965 1982.98,691.965 "/>
<path clip-path="url(#clip882)" d="M2013.91 691.008 L2013.91 692.922 L2044.83 692.922 L2044.83 691.008 L2013.91 691.008 L2013.91 691.008  Z" fill="#009af9" fill-rule="evenodd" fill-opacity="0.1"/>
<polyline clip-path="url(#clip882)" style="stroke:#000000; stroke-linecap:round; stroke-linejoin:round; stroke-width:4; stroke-opacity:0.1; fill:none" points="2013.91,691.008 2013.91,692.922 2044.83,692.922 2044.83,691.008 2013.91,691.008 "/>
<path clip-path="url(#clip882)" d="M2044.83 690.051 L2044.83 692.922 L2075.76 692.922 L2075.76 690.051 L2044.83 690.051 L2044.83 690.051  Z" fill="#009af9" fill-rule="evenodd" fill-opacity="0.1"/>
<polyline clip-path="url(#clip882)" style="stroke:#000000; stroke-linecap:round; stroke-linejoin:round; stroke-width:4; stroke-opacity:0.1; fill:none" points="2044.83,690.051 2044.83,692.922 2075.76,692.922 2075.76,690.051 2044.83,690.051 "/>
<path clip-path="url(#clip882)" d="M2075.76 690.051 L2075.76 692.922 L2106.68 692.922 L2106.68 690.051 L2075.76 690.051 L2075.76 690.051  Z" fill="#009af9" fill-rule="evenodd" fill-opacity="0.1"/>
<polyline clip-path="url(#clip882)" style="stroke:#000000; stroke-linecap:round; stroke-linejoin:round; stroke-width:4; stroke-opacity:0.1; fill:none" points="2075.76,690.051 2075.76,692.922 2106.68,692.922 2106.68,690.051 2075.76,690.051 "/>
<path clip-path="url(#clip882)" d="M2106.68 691.965 L2106.68 692.922 L2137.61 692.922 L2137.61 691.965 L2106.68 691.965 L2106.68 691.965  Z" fill="#009af9" fill-rule="evenodd" fill-opacity="0.1"/>
<polyline clip-path="url(#clip882)" style="stroke:#000000; stroke-linecap:round; stroke-linejoin:round; stroke-width:4; stroke-opacity:0.1; fill:none" points="2106.68,691.965 2106.68,692.922 2137.61,692.922 2137.61,691.965 2106.68,691.965 "/>
<path clip-path="url(#clip882)" d="M2137.61 691.008 L2137.61 692.922 L2168.54 692.922 L2168.54 691.008 L2137.61 691.008 L2137.61 691.008  Z" fill="#009af9" fill-rule="evenodd" fill-opacity="0.1"/>
<polyline clip-path="url(#clip882)" style="stroke:#000000; stroke-linecap:round; stroke-linejoin:round; stroke-width:4; stroke-opacity:0.1; fill:none" points="2137.61,691.008 2137.61,692.922 2168.54,692.922 2168.54,691.008 2137.61,691.008 "/>
<circle clip-path="url(#clip882)" style="fill:#009af9; stroke:none; fill-opacity:0" cx="297.513" cy="691.965" r="2"/>
<circle clip-path="url(#clip882)" style="fill:#009af9; stroke:none; fill-opacity:0" cx="328.439" cy="679.523" r="2"/>
<circle clip-path="url(#clip882)" style="fill:#009af9; stroke:none; fill-opacity:0" cx="359.365" cy="637.412" r="2"/>
<circle clip-path="url(#clip882)" style="fill:#009af9; stroke:none; fill-opacity:0" cx="390.291" cy="566.59" r="2"/>
<circle clip-path="url(#clip882)" style="fill:#009af9; stroke:none; fill-opacity:0" cx="421.217" cy="464.185" r="2"/>
<circle clip-path="url(#clip882)" style="fill:#009af9; stroke:none; fill-opacity:0" cx="452.143" cy="352.21" r="2"/>
<circle clip-path="url(#clip882)" style="fill:#009af9; stroke:none; fill-opacity:0" cx="483.069" cy="300.529" r="2"/>
<circle clip-path="url(#clip882)" style="fill:#009af9; stroke:none; fill-opacity:0" cx="513.995" cy="183.768" r="2"/>
<circle clip-path="url(#clip882)" style="fill:#009af9; stroke:none; fill-opacity:0" cx="544.921" cy="137.829" r="2"/>
<circle clip-path="url(#clip882)" style="fill:#009af9; stroke:none; fill-opacity:0" cx="575.847" cy="107.204" r="2"/>
<circle clip-path="url(#clip882)" style="fill:#009af9; stroke:none; fill-opacity:0" cx="606.773" cy="66.0502" r="2"/>
<circle clip-path="url(#clip882)" style="fill:#009af9; stroke:none; fill-opacity:0" cx="637.699" cy="136.872" r="2"/>
<circle clip-path="url(#clip882)" style="fill:#009af9; stroke:none; fill-opacity:0" cx="668.625" cy="140.701" r="2"/>
<circle clip-path="url(#clip882)" style="fill:#009af9; stroke:none; fill-opacity:0" cx="699.551" cy="178.026" r="2"/>
<circle clip-path="url(#clip882)" style="fill:#009af9; stroke:none; fill-opacity:0" cx="730.477" cy="220.136" r="2"/>
<circle clip-path="url(#clip882)" style="fill:#009af9; stroke:none; fill-opacity:0" cx="761.403" cy="235.449" r="2"/>
<circle clip-path="url(#clip882)" style="fill:#009af9; stroke:none; fill-opacity:0" cx="792.329" cy="273.731" r="2"/>
<circle clip-path="url(#clip882)" style="fill:#009af9; stroke:none; fill-opacity:0" cx="823.255" cy="345.511" r="2"/>
<circle clip-path="url(#clip882)" style="fill:#009af9; stroke:none; fill-opacity:0" cx="854.181" cy="356.995" r="2"/>
<circle clip-path="url(#clip882)" style="fill:#009af9; stroke:none; fill-opacity:0" cx="885.107" cy="404.848" r="2"/>
<circle clip-path="url(#clip882)" style="fill:#009af9; stroke:none; fill-opacity:0" cx="916.033" cy="419.204" r="2"/>
<circle clip-path="url(#clip882)" style="fill:#009af9; stroke:none; fill-opacity:0" cx="946.959" cy="453.658" r="2"/>
<circle clip-path="url(#clip882)" style="fill:#009af9; stroke:none; fill-opacity:0" cx="977.885" cy="492.897" r="2"/>
<circle clip-path="url(#clip882)" style="fill:#009af9; stroke:none; fill-opacity:0" cx="1008.81" cy="512.995" r="2"/>
<circle clip-path="url(#clip882)" style="fill:#009af9; stroke:none; fill-opacity:0" cx="1039.74" cy="535.008" r="2"/>
<circle clip-path="url(#clip882)" style="fill:#009af9; stroke:none; fill-opacity:0" cx="1070.66" cy="584.774" r="2"/>
<circle clip-path="url(#clip882)" style="fill:#009af9; stroke:none; fill-opacity:0" cx="1101.59" cy="568.504" r="2"/>
<circle clip-path="url(#clip882)" style="fill:#009af9; stroke:none; fill-opacity:0" cx="1132.51" cy="576.161" r="2"/>
<circle clip-path="url(#clip882)" style="fill:#009af9; stroke:none; fill-opacity:0" cx="1163.44" cy="584.774" r="2"/>
<circle clip-path="url(#clip882)" style="fill:#009af9; stroke:none; fill-opacity:0" cx="1194.37" cy="618.271" r="2"/>
<circle clip-path="url(#clip882)" style="fill:#009af9; stroke:none; fill-opacity:0" cx="1225.29" cy="606.787" r="2"/>
<circle clip-path="url(#clip882)" style="fill:#009af9; stroke:none; fill-opacity:0" cx="1256.22" cy="626.885" r="2"/>
<circle clip-path="url(#clip882)" style="fill:#009af9; stroke:none; fill-opacity:0" cx="1287.14" cy="621.143" r="2"/>
<circle clip-path="url(#clip882)" style="fill:#009af9; stroke:none; fill-opacity:0" cx="1318.07" cy="645.069" r="2"/>
<circle clip-path="url(#clip882)" style="fill:#009af9; stroke:none; fill-opacity:0" cx="1349" cy="649.854" r="2"/>
<circle clip-path="url(#clip882)" style="fill:#009af9; stroke:none; fill-opacity:0" cx="1379.92" cy="652.725" r="2"/>
<circle clip-path="url(#clip882)" style="fill:#009af9; stroke:none; fill-opacity:0" cx="1410.85" cy="662.296" r="2"/>
<circle clip-path="url(#clip882)" style="fill:#009af9; stroke:none; fill-opacity:0" cx="1441.78" cy="666.124" r="2"/>
<circle clip-path="url(#clip882)" style="fill:#009af9; stroke:none; fill-opacity:0" cx="1472.7" cy="665.167" r="2"/>
<circle clip-path="url(#clip882)" style="fill:#009af9; stroke:none; fill-opacity:0" cx="1503.63" cy="668.995" r="2"/>
<circle clip-path="url(#clip882)" style="fill:#009af9; stroke:none; fill-opacity:0" cx="1534.55" cy="677.609" r="2"/>
<circle clip-path="url(#clip882)" style="fill:#009af9; stroke:none; fill-opacity:0" cx="1565.48" cy="670.909" r="2"/>
<circle clip-path="url(#clip882)" style="fill:#009af9; stroke:none; fill-opacity:0" cx="1596.41" cy="677.609" r="2"/>
<circle clip-path="url(#clip882)" style="fill:#009af9; stroke:none; fill-opacity:0" cx="1627.33" cy="678.566" r="2"/>
<circle clip-path="url(#clip882)" style="fill:#009af9; stroke:none; fill-opacity:0" cx="1658.26" cy="676.652" r="2"/>
<circle clip-path="url(#clip882)" style="fill:#009af9; stroke:none; fill-opacity:0" cx="1689.18" cy="682.394" r="2"/>
<circle clip-path="url(#clip882)" style="fill:#009af9; stroke:none; fill-opacity:0" cx="1720.11" cy="687.179" r="2"/>
<circle clip-path="url(#clip882)" style="fill:#009af9; stroke:none; fill-opacity:0" cx="1751.04" cy="687.179" r="2"/>
<circle clip-path="url(#clip882)" style="fill:#009af9; stroke:none; fill-opacity:0" cx="1781.96" cy="683.351" r="2"/>
<circle clip-path="url(#clip882)" style="fill:#009af9; stroke:none; fill-opacity:0" cx="1812.89" cy="687.179" r="2"/>
<circle clip-path="url(#clip882)" style="fill:#009af9; stroke:none; fill-opacity:0" cx="1843.81" cy="690.051" r="2"/>
<circle clip-path="url(#clip882)" style="fill:#009af9; stroke:none; fill-opacity:0" cx="1874.74" cy="690.051" r="2"/>
<circle clip-path="url(#clip882)" style="fill:#009af9; stroke:none; fill-opacity:0" cx="1905.67" cy="690.051" r="2"/>
<circle clip-path="url(#clip882)" style="fill:#009af9; stroke:none; fill-opacity:0" cx="1936.59" cy="690.051" r="2"/>
<circle clip-path="url(#clip882)" style="fill:#009af9; stroke:none; fill-opacity:0" cx="1967.52" cy="691.965" r="2"/>
<circle clip-path="url(#clip882)" style="fill:#009af9; stroke:none; fill-opacity:0" cx="1998.44" cy="691.965" r="2"/>
<circle clip-path="url(#clip882)" style="fill:#009af9; stroke:none; fill-opacity:0" cx="2029.37" cy="691.008" r="2"/>
<circle clip-path="url(#clip882)" style="fill:#009af9; stroke:none; fill-opacity:0" cx="2060.3" cy="690.051" r="2"/>
<circle clip-path="url(#clip882)" style="fill:#009af9; stroke:none; fill-opacity:0" cx="2091.22" cy="690.051" r="2"/>
<circle clip-path="url(#clip882)" style="fill:#009af9; stroke:none; fill-opacity:0" cx="2122.15" cy="691.965" r="2"/>
<circle clip-path="url(#clip882)" style="fill:#009af9; stroke:none; fill-opacity:0" cx="2153.07" cy="691.008" r="2"/>
<polyline clip-path="url(#clip882)" style="stroke:#e26f46; stroke-linecap:round; stroke-linejoin:round; stroke-width:4; stroke-opacity:1; fill:none" points="174.33,692.921 184.958,692.921 195.586,692.919 206.214,692.915 216.842,692.901 227.47,692.867 238.098,692.785 248.726,692.6 259.354,692.213 269.982,691.456 280.61,690.075 291.238,687.723 301.866,683.973 312.494,678.368 323.122,670.472 333.751,659.929 344.379,646.491 355.007,630.015 365.635,610.429 376.263,587.722 386.891,561.969 397.519,533.399 408.147,502.479 418.775,469.937 429.403,436.687 440.031,403.641 450.659,371.498 461.287,340.599 471.915,310.953 482.543,282.429 493.171,255.005 503.799,228.925 514.427,204.657 525.055,182.708 535.683,163.428 546.311,146.95 556.939,133.281 567.567,122.463 578.195,114.66 588.823,110.1 599.451,108.894 610.079,110.852 620.707,115.407 631.335,121.735 641.963,129 652.591,136.632 663.219,144.471 673.847,152.713 684.475,161.686 695.103,171.59 705.731,182.358 716.359,193.708 726.987,205.329 737.615,217.076 748.243,229.029 758.871,241.425 769.499,254.499 780.127,268.347 790.755,282.847 801.383,297.672 812.012,312.383 822.64,326.574 833.268,339.994 843.896,352.586 854.524,364.425 865.152,375.617 875.78,386.248 886.408,396.412 897.036,406.295 907.664,416.199 918.292,426.457 928.92,437.273 939.548,448.577 950.176,460.023 960.804,471.13 971.432,481.503 982.06,490.999 992.688,499.762 1003.32,508.123 1013.94,516.446 1024.57,524.991 1035.2,533.812 1045.83,542.719 1056.46,551.298 1067.08,559.037 1077.71,565.498 1088.34,570.484 1098.97,574.111 1109.6,576.761 1120.22,578.958 1130.85,581.228 1141.48,583.972 1152.11,587.382 1162.74,591.397 1173.36,595.749 1183.99,600.078 1194.62,604.086 1205.25,607.646 1215.88,610.807 1226.5,613.721 1237.13,616.531 1247.76,619.324 1258.39,622.138 1269.02,625.004 1279.64,627.964 1290.27,631.047 1300.9,634.242 1311.53,637.481 1322.16,640.669 1332.78,643.731 1343.41,646.631 1354.04,649.376 1364.67,651.977 1375.3,654.428 1385.92,656.701 1396.55,658.749 1407.18,660.526 1417.81,662.001 1428.44,663.173 1439.06,664.084 1449.69,664.834 1460.32,665.565 1470.95,666.426 1481.58,667.517 1492.2,668.834 1502.83,670.261 1513.46,671.613 1524.09,672.706 1534.72,673.445 1545.35,673.856 1555.97,674.078 1566.6,674.293 1577.23,674.645 1587.86,675.181 1598.49,675.846 1609.11,676.528 1619.74,677.134 1630.37,677.651 1641,678.146 1651.63,678.727 1662.25,679.477 1672.88,680.415 1683.51,681.487 1694.14,682.596 1704.77,683.634 1715.39,684.509 1726.02,685.165 1736.65,685.585 1747.28,685.8 1757.91,685.883 1768.53,685.926 1779.16,686.023 1789.79,686.238 1800.42,686.594 1811.05,687.07 1821.67,687.621 1832.3,688.189 1842.93,688.722 1853.56,689.182 1864.19,689.546 1874.81,689.813 1885.44,689.996 1896.07,690.126 1906.7,690.238 1917.33,690.371 1927.95,690.551 1938.58,690.782 1949.21,691.047 1959.84,691.307 1970.47,691.516 1981.09,691.635 1991.72,691.644 2002.35,691.545 2012.98,691.358 2023.61,691.118 2034.23,690.87 2044.86,690.658 2055.49,690.521 2066.12,690.484 2076.75,690.55 2087.37,690.696 2098,690.886 2108.63,691.08 2119.26,691.252 2129.89,691.399 2140.51,691.539 2151.14,691.694 2161.77,691.878 2172.4,692.087 2183.03,692.303 2193.65,692.499 2204.28,692.658 2214.91,692.772 2225.54,692.844 2236.17,692.885 2246.79,692.906 2257.42,692.916 2268.05,692.92 2278.68,692.921 2289.31,692.921 "/>
<polyline clip-path="url(#clip882)" style="stroke:#3da44d; stroke-linecap:round; stroke-linejoin:round; stroke-width:16; stroke-opacity:1; fill:none" points="574.351,692.922 574.351,66.0502 "/>
<path clip-path="url(#clip880)" d="M1576.53 224.914 L2278.03 224.914 L2278.03 69.3936 L1576.53 69.3936  Z" fill="#ffffff" fill-rule="evenodd" fill-opacity="1"/>
<polyline clip-path="url(#clip880)" style="stroke:#000000; stroke-linecap:round; stroke-linejoin:round; stroke-width:4; stroke-opacity:1; fill:none" points="1576.53,224.914 2278.03,224.914 2278.03,69.3936 1576.53,69.3936 1576.53,224.914 "/>
<polyline clip-path="url(#clip880)" style="stroke:#e26f46; stroke-linecap:round; stroke-linejoin:round; stroke-width:4; stroke-opacity:1; fill:none" points="1601.44,121.234 1750.9,121.234 "/>
<path clip-path="url(#clip880)" d="M1780.48 107.796 L1780.48 120.782 L1786.36 120.782 Q1789.62 120.782 1791.41 119.092 Q1793.19 117.403 1793.19 114.278 Q1793.19 111.176 1791.41 109.486 Q1789.62 107.796 1786.36 107.796 L1780.48 107.796 M1775.8 103.954 L1786.36 103.954 Q1792.17 103.954 1795.13 106.592 Q1798.12 109.208 1798.12 114.278 Q1798.12 119.393 1795.13 122.009 Q1792.17 124.625 1786.36 124.625 L1780.48 124.625 L1780.48 138.514 L1775.8 138.514 L1775.8 103.954 Z" fill="#000000" fill-rule="evenodd" fill-opacity="1" /><path clip-path="url(#clip880)" d="M1812.56 115.574 Q1809.14 115.574 1807.15 118.259 Q1805.16 120.921 1805.16 125.574 Q1805.16 130.227 1807.12 132.912 Q1809.11 135.574 1812.56 135.574 Q1815.97 135.574 1817.96 132.889 Q1819.95 130.203 1819.95 125.574 Q1819.95 120.967 1817.96 118.282 Q1815.97 115.574 1812.56 115.574 M1812.56 111.963 Q1818.12 111.963 1821.29 115.574 Q1824.46 119.185 1824.46 125.574 Q1824.46 131.94 1821.29 135.574 Q1818.12 139.185 1812.56 139.185 Q1806.99 139.185 1803.81 135.574 Q1800.67 131.94 1800.67 125.574 Q1800.67 119.185 1803.81 115.574 Q1806.99 111.963 1812.56 111.963 Z" fill="#000000" fill-rule="evenodd" fill-opacity="1" /><path clip-path="url(#clip880)" d="M1848.05 113.352 L1848.05 117.379 Q1846.24 116.453 1844.3 115.991 Q1842.36 115.528 1840.27 115.528 Q1837.1 115.528 1835.5 116.5 Q1833.93 117.472 1833.93 119.416 Q1833.93 120.898 1835.06 121.754 Q1836.2 122.588 1839.62 123.352 L1841.08 123.676 Q1845.62 124.648 1847.52 126.43 Q1849.44 128.19 1849.44 131.361 Q1849.44 134.972 1846.57 137.078 Q1843.72 139.185 1838.72 139.185 Q1836.64 139.185 1834.37 138.768 Q1832.12 138.375 1829.62 137.564 L1829.62 133.166 Q1831.99 134.393 1834.28 135.018 Q1836.57 135.62 1838.81 135.62 Q1841.82 135.62 1843.44 134.602 Q1845.06 133.56 1845.06 131.685 Q1845.06 129.949 1843.88 129.023 Q1842.73 128.097 1838.77 127.24 L1837.29 126.893 Q1833.33 126.06 1831.57 124.347 Q1829.81 122.611 1829.81 119.602 Q1829.81 115.944 1832.4 113.954 Q1834.99 111.963 1839.76 111.963 Q1842.12 111.963 1844.21 112.31 Q1846.29 112.657 1848.05 113.352 Z" fill="#000000" fill-rule="evenodd" fill-opacity="1" /><path clip-path="url(#clip880)" d="M1860.43 105.227 L1860.43 112.588 L1869.21 112.588 L1869.21 115.898 L1860.43 115.898 L1860.43 129.972 Q1860.43 133.143 1861.29 134.046 Q1862.17 134.949 1864.83 134.949 L1869.21 134.949 L1869.21 138.514 L1864.83 138.514 Q1859.9 138.514 1858.03 136.685 Q1856.15 134.833 1856.15 129.972 L1856.15 115.898 L1853.03 115.898 L1853.03 112.588 L1856.15 112.588 L1856.15 105.227 L1860.43 105.227 Z" fill="#000000" fill-rule="evenodd" fill-opacity="1" /><path clip-path="url(#clip880)" d="M1896.98 124.486 L1896.98 126.569 L1877.4 126.569 Q1877.68 130.967 1880.04 133.282 Q1882.42 135.574 1886.66 135.574 Q1889.11 135.574 1891.41 134.972 Q1893.72 134.37 1895.99 133.166 L1895.99 137.194 Q1893.7 138.166 1891.29 138.676 Q1888.88 139.185 1886.41 139.185 Q1880.2 139.185 1876.57 135.574 Q1872.96 131.963 1872.96 125.805 Q1872.96 119.44 1876.38 115.713 Q1879.83 111.963 1885.67 111.963 Q1890.9 111.963 1893.93 115.342 Q1896.98 118.699 1896.98 124.486 M1892.73 123.236 Q1892.68 119.741 1890.76 117.657 Q1888.86 115.574 1885.71 115.574 Q1882.15 115.574 1879.99 117.588 Q1877.86 119.602 1877.54 123.259 L1892.73 123.236 Z" fill="#000000" fill-rule="evenodd" fill-opacity="1" /><path clip-path="url(#clip880)" d="M1919 116.569 Q1918.28 116.153 1917.42 115.967 Q1916.59 115.759 1915.57 115.759 Q1911.96 115.759 1910.02 118.12 Q1908.1 120.458 1908.1 124.856 L1908.1 138.514 L1903.81 138.514 L1903.81 112.588 L1908.1 112.588 L1908.1 116.616 Q1909.44 114.254 1911.59 113.12 Q1913.74 111.963 1916.82 111.963 Q1917.26 111.963 1917.79 112.032 Q1918.33 112.079 1918.98 112.194 L1919 116.569 Z" fill="#000000" fill-rule="evenodd" fill-opacity="1" /><path clip-path="url(#clip880)" d="M1923.47 112.588 L1927.73 112.588 L1927.73 138.514 L1923.47 138.514 L1923.47 112.588 M1923.47 102.495 L1927.73 102.495 L1927.73 107.889 L1923.47 107.889 L1923.47 102.495 Z" fill="#000000" fill-rule="evenodd" fill-opacity="1" /><path clip-path="url(#clip880)" d="M1946.68 115.574 Q1943.26 115.574 1941.27 118.259 Q1939.28 120.921 1939.28 125.574 Q1939.28 130.227 1941.24 132.912 Q1943.23 135.574 1946.68 135.574 Q1950.09 135.574 1952.08 132.889 Q1954.07 130.203 1954.07 125.574 Q1954.07 120.967 1952.08 118.282 Q1950.09 115.574 1946.68 115.574 M1946.68 111.963 Q1952.24 111.963 1955.41 115.574 Q1958.58 119.185 1958.58 125.574 Q1958.58 131.94 1955.41 135.574 Q1952.24 139.185 1946.68 139.185 Q1941.1 139.185 1937.93 135.574 Q1934.79 131.94 1934.79 125.574 Q1934.79 119.185 1937.93 115.574 Q1941.1 111.963 1946.68 111.963 Z" fill="#000000" fill-rule="evenodd" fill-opacity="1" /><path clip-path="url(#clip880)" d="M1980.66 116.569 Q1979.95 116.153 1979.09 115.967 Q1978.26 115.759 1977.24 115.759 Q1973.63 115.759 1971.68 118.12 Q1969.76 120.458 1969.76 124.856 L1969.76 138.514 L1965.48 138.514 L1965.48 112.588 L1969.76 112.588 L1969.76 116.616 Q1971.1 114.254 1973.26 113.12 Q1975.41 111.963 1978.49 111.963 Q1978.93 111.963 1979.46 112.032 Q1979.99 112.079 1980.64 112.194 L1980.66 116.569 Z" fill="#000000" fill-rule="evenodd" fill-opacity="1" /><path clip-path="url(#clip880)" d="M2026.27 106.616 L2026.27 111.546 Q2023.91 109.347 2021.22 108.259 Q2018.56 107.171 2015.55 107.171 Q2009.62 107.171 2006.47 110.805 Q2003.33 114.416 2003.33 121.268 Q2003.33 128.097 2006.47 131.731 Q2009.62 135.342 2015.55 135.342 Q2018.56 135.342 2021.22 134.254 Q2023.91 133.166 2026.27 130.967 L2026.27 135.852 Q2023.81 137.518 2021.06 138.352 Q2018.33 139.185 2015.27 139.185 Q2007.42 139.185 2002.91 134.393 Q1998.4 129.578 1998.4 121.268 Q1998.4 112.935 2002.91 108.143 Q2007.42 103.329 2015.27 103.329 Q2018.37 103.329 2021.1 104.162 Q2023.86 104.972 2026.27 106.616 Z" fill="#000000" fill-rule="evenodd" fill-opacity="1" /><path clip-path="url(#clip880)" d="M2043.35 115.574 Q2039.92 115.574 2037.93 118.259 Q2035.94 120.921 2035.94 125.574 Q2035.94 130.227 2037.91 132.912 Q2039.9 135.574 2043.35 135.574 Q2046.75 135.574 2048.74 132.889 Q2050.73 130.203 2050.73 125.574 Q2050.73 120.967 2048.74 118.282 Q2046.75 115.574 2043.35 115.574 M2043.35 111.963 Q2048.91 111.963 2052.08 115.574 Q2055.25 119.185 2055.25 125.574 Q2055.25 131.94 2052.08 135.574 Q2048.91 139.185 2043.35 139.185 Q2037.77 139.185 2034.6 135.574 Q2031.45 131.94 2031.45 125.574 Q2031.45 119.185 2034.6 115.574 Q2037.77 111.963 2043.35 111.963 Z" fill="#000000" fill-rule="evenodd" fill-opacity="1" /><path clip-path="url(#clip880)" d="M2077.33 116.569 Q2076.61 116.153 2075.76 115.967 Q2074.92 115.759 2073.91 115.759 Q2070.29 115.759 2068.35 118.12 Q2066.43 120.458 2066.43 124.856 L2066.43 138.514 L2062.15 138.514 L2062.15 112.588 L2066.43 112.588 L2066.43 116.616 Q2067.77 114.254 2069.92 113.12 Q2072.08 111.963 2075.16 111.963 Q2075.59 111.963 2076.13 112.032 Q2076.66 112.079 2077.31 112.194 L2077.33 116.569 Z" fill="#000000" fill-rule="evenodd" fill-opacity="1" /><path clip-path="url(#clip880)" d="M2095.99 116.569 Q2095.27 116.153 2094.41 115.967 Q2093.58 115.759 2092.56 115.759 Q2088.95 115.759 2087.01 118.12 Q2085.09 120.458 2085.09 124.856 L2085.09 138.514 L2080.8 138.514 L2080.8 112.588 L2085.09 112.588 L2085.09 116.616 Q2086.43 114.254 2088.58 113.12 Q2090.73 111.963 2093.81 111.963 Q2094.25 111.963 2094.78 112.032 Q2095.32 112.079 2095.97 112.194 L2095.99 116.569 Z" fill="#000000" fill-rule="evenodd" fill-opacity="1" /><path clip-path="url(#clip880)" d="M2121.59 124.486 L2121.59 126.569 L2102.01 126.569 Q2102.28 130.967 2104.65 133.282 Q2107.03 135.574 2111.27 135.574 Q2113.72 135.574 2116.01 134.972 Q2118.33 134.37 2120.59 133.166 L2120.59 137.194 Q2118.3 138.166 2115.9 138.676 Q2113.49 139.185 2111.01 139.185 Q2104.81 139.185 2101.17 135.574 Q2097.56 131.963 2097.56 125.805 Q2097.56 119.44 2100.99 115.713 Q2104.44 111.963 2110.27 111.963 Q2115.5 111.963 2118.53 115.342 Q2121.59 118.699 2121.59 124.486 M2117.33 123.236 Q2117.28 119.741 2115.36 117.657 Q2113.46 115.574 2110.32 115.574 Q2106.75 115.574 2104.6 117.588 Q2102.47 119.602 2102.15 123.259 L2117.33 123.236 Z" fill="#000000" fill-rule="evenodd" fill-opacity="1" /><path clip-path="url(#clip880)" d="M2128.58 102.495 L2132.84 102.495 L2132.84 138.514 L2128.58 138.514 L2128.58 102.495 Z" fill="#000000" fill-rule="evenodd" fill-opacity="1" /><path clip-path="url(#clip880)" d="M2153.53 125.481 Q2148.37 125.481 2146.38 126.662 Q2144.39 127.842 2144.39 130.69 Q2144.39 132.958 2145.87 134.301 Q2147.38 135.62 2149.95 135.62 Q2153.49 135.62 2155.62 133.12 Q2157.77 130.597 2157.77 126.43 L2157.77 125.481 L2153.53 125.481 M2162.03 123.722 L2162.03 138.514 L2157.77 138.514 L2157.77 134.578 Q2156.31 136.939 2154.14 138.074 Q2151.96 139.185 2148.81 139.185 Q2144.83 139.185 2142.47 136.963 Q2140.13 134.717 2140.13 130.967 Q2140.13 126.592 2143.05 124.37 Q2145.99 122.148 2151.8 122.148 L2157.77 122.148 L2157.77 121.731 Q2157.77 118.791 2155.83 117.194 Q2153.9 115.574 2150.41 115.574 Q2148.19 115.574 2146.08 116.106 Q2143.97 116.639 2142.03 117.703 L2142.03 113.768 Q2144.37 112.866 2146.57 112.426 Q2148.77 111.963 2150.85 111.963 Q2156.47 111.963 2159.25 114.879 Q2162.03 117.796 2162.03 123.722 Z" fill="#000000" fill-rule="evenodd" fill-opacity="1" /><path clip-path="url(#clip880)" d="M2175.02 105.227 L2175.02 112.588 L2183.79 112.588 L2183.79 115.898 L2175.02 115.898 L2175.02 129.972 Q2175.02 133.143 2175.87 134.046 Q2176.75 134.949 2179.41 134.949 L2183.79 134.949 L2183.79 138.514 L2179.41 138.514 Q2174.48 138.514 2172.61 136.685 Q2170.73 134.833 2170.73 129.972 L2170.73 115.898 L2167.61 115.898 L2167.61 112.588 L2170.73 112.588 L2170.73 105.227 L2175.02 105.227 Z" fill="#000000" fill-rule="evenodd" fill-opacity="1" /><path clip-path="url(#clip880)" d="M2189.39 112.588 L2193.65 112.588 L2193.65 138.514 L2189.39 138.514 L2189.39 112.588 M2189.39 102.495 L2193.65 102.495 L2193.65 107.889 L2189.39 107.889 L2189.39 102.495 Z" fill="#000000" fill-rule="evenodd" fill-opacity="1" /><path clip-path="url(#clip880)" d="M2212.61 115.574 Q2209.18 115.574 2207.19 118.259 Q2205.2 120.921 2205.2 125.574 Q2205.2 130.227 2207.17 132.912 Q2209.16 135.574 2212.61 135.574 Q2216.01 135.574 2218 132.889 Q2219.99 130.203 2219.99 125.574 Q2219.99 120.967 2218 118.282 Q2216.01 115.574 2212.61 115.574 M2212.61 111.963 Q2218.16 111.963 2221.33 115.574 Q2224.51 119.185 2224.51 125.574 Q2224.51 131.94 2221.33 135.574 Q2218.16 139.185 2212.61 139.185 Q2207.03 139.185 2203.86 135.574 Q2200.71 131.94 2200.71 125.574 Q2200.71 119.185 2203.86 115.574 Q2207.03 111.963 2212.61 111.963 Z" fill="#000000" fill-rule="evenodd" fill-opacity="1" /><path clip-path="url(#clip880)" d="M2253.12 122.865 L2253.12 138.514 L2248.86 138.514 L2248.86 123.004 Q2248.86 119.324 2247.42 117.495 Q2245.99 115.666 2243.12 115.666 Q2239.67 115.666 2237.68 117.866 Q2235.69 120.065 2235.69 123.861 L2235.69 138.514 L2231.4 138.514 L2231.4 112.588 L2235.69 112.588 L2235.69 116.616 Q2237.21 114.278 2239.27 113.12 Q2241.36 111.963 2244.07 111.963 Q2248.53 111.963 2250.83 114.741 Q2253.12 117.495 2253.12 122.865 Z" fill="#000000" fill-rule="evenodd" fill-opacity="1" /><polyline clip-path="url(#clip880)" style="stroke:#3da44d; stroke-linecap:round; stroke-linejoin:round; stroke-width:16; stroke-opacity:1; fill:none" points="1601.44,173.074 1750.9,173.074 "/>
<path clip-path="url(#clip880)" d="M1775.8 155.794 L1795.67 155.794 L1795.67 159.729 L1780.48 159.729 L1780.48 169.914 L1794.18 169.914 L1794.18 173.849 L1780.48 173.849 L1780.48 190.354 L1775.8 190.354 L1775.8 155.794 Z" fill="#000000" fill-rule="evenodd" fill-opacity="1" /><path clip-path="url(#clip880)" d="M1814.46 168.409 Q1813.74 167.993 1812.89 167.807 Q1812.05 167.599 1811.04 167.599 Q1807.42 167.599 1805.48 169.96 Q1803.56 172.298 1803.56 176.696 L1803.56 190.354 L1799.28 190.354 L1799.28 164.428 L1803.56 164.428 L1803.56 168.456 Q1804.9 166.094 1807.05 164.96 Q1809.21 163.803 1812.29 163.803 Q1812.73 163.803 1813.26 163.872 Q1813.79 163.919 1814.44 164.034 L1814.46 168.409 Z" fill="#000000" fill-rule="evenodd" fill-opacity="1" /><path clip-path="url(#clip880)" d="M1840.06 176.326 L1840.06 178.409 L1820.48 178.409 Q1820.76 182.807 1823.12 185.122 Q1825.5 187.414 1829.74 187.414 Q1832.19 187.414 1834.48 186.812 Q1836.8 186.21 1839.07 185.006 L1839.07 189.034 Q1836.78 190.006 1834.37 190.516 Q1831.96 191.025 1829.49 191.025 Q1823.28 191.025 1819.65 187.414 Q1816.04 183.803 1816.04 177.645 Q1816.04 171.28 1819.46 167.553 Q1822.91 163.803 1828.74 163.803 Q1833.98 163.803 1837.01 167.182 Q1840.06 170.539 1840.06 176.326 M1835.8 175.076 Q1835.76 171.581 1833.84 169.497 Q1831.94 167.414 1828.79 167.414 Q1825.23 167.414 1823.07 169.428 Q1820.94 171.442 1820.62 175.099 L1835.8 175.076 Z" fill="#000000" fill-rule="evenodd" fill-opacity="1" /><path clip-path="url(#clip880)" d="M1849.6 177.414 Q1849.6 182.113 1851.52 184.798 Q1853.47 187.46 1856.85 187.46 Q1860.23 187.46 1862.17 184.798 Q1864.11 182.113 1864.11 177.414 Q1864.11 172.715 1862.17 170.053 Q1860.23 167.368 1856.85 167.368 Q1853.47 167.368 1851.52 170.053 Q1849.6 172.715 1849.6 177.414 M1864.11 186.465 Q1862.77 188.779 1860.71 189.914 Q1858.67 191.025 1855.8 191.025 Q1851.11 191.025 1848.14 187.275 Q1845.2 183.525 1845.2 177.414 Q1845.2 171.303 1848.14 167.553 Q1851.11 163.803 1855.8 163.803 Q1858.67 163.803 1860.71 164.937 Q1862.77 166.048 1864.11 168.363 L1864.11 164.428 L1868.37 164.428 L1868.37 200.215 L1864.11 200.215 L1864.11 186.465 Z" fill="#000000" fill-rule="evenodd" fill-opacity="1" /><path clip-path="url(#clip880)" d="M1918.28 158.456 L1918.28 163.386 Q1915.92 161.187 1913.23 160.099 Q1910.57 159.011 1907.56 159.011 Q1901.64 159.011 1898.49 162.645 Q1895.34 166.256 1895.34 173.108 Q1895.34 179.937 1898.49 183.571 Q1901.64 187.182 1907.56 187.182 Q1910.57 187.182 1913.23 186.094 Q1915.92 185.006 1918.28 182.807 L1918.28 187.692 Q1915.83 189.358 1913.07 190.192 Q1910.34 191.025 1907.29 191.025 Q1899.44 191.025 1894.92 186.233 Q1890.41 181.418 1890.41 173.108 Q1890.41 164.775 1894.92 159.983 Q1899.44 155.169 1907.29 155.169 Q1910.39 155.169 1913.12 156.002 Q1915.87 156.812 1918.28 158.456 Z" fill="#000000" fill-rule="evenodd" fill-opacity="1" /><path clip-path="url(#clip880)" d="M1935.36 167.414 Q1931.94 167.414 1929.95 170.099 Q1927.96 172.761 1927.96 177.414 Q1927.96 182.067 1929.92 184.752 Q1931.92 187.414 1935.36 187.414 Q1938.77 187.414 1940.76 184.729 Q1942.75 182.043 1942.75 177.414 Q1942.75 172.807 1940.76 170.122 Q1938.77 167.414 1935.36 167.414 M1935.36 163.803 Q1940.92 163.803 1944.09 167.414 Q1947.26 171.025 1947.26 177.414 Q1947.26 183.78 1944.09 187.414 Q1940.92 191.025 1935.36 191.025 Q1929.79 191.025 1926.61 187.414 Q1923.47 183.78 1923.47 177.414 Q1923.47 171.025 1926.61 167.414 Q1929.79 163.803 1935.36 163.803 Z" fill="#000000" fill-rule="evenodd" fill-opacity="1" /><path clip-path="url(#clip880)" d="M1969.35 168.409 Q1968.63 167.993 1967.77 167.807 Q1966.94 167.599 1965.92 167.599 Q1962.31 167.599 1960.36 169.96 Q1958.44 172.298 1958.44 176.696 L1958.44 190.354 L1954.16 190.354 L1954.16 164.428 L1958.44 164.428 L1958.44 168.456 Q1959.79 166.094 1961.94 164.96 Q1964.09 163.803 1967.17 163.803 Q1967.61 163.803 1968.14 163.872 Q1968.67 163.919 1969.32 164.034 L1969.35 168.409 Z" fill="#000000" fill-rule="evenodd" fill-opacity="1" /><path clip-path="url(#clip880)" d="M1988 168.409 Q1987.29 167.993 1986.43 167.807 Q1985.6 167.599 1984.58 167.599 Q1980.97 167.599 1979.02 169.96 Q1977.1 172.298 1977.1 176.696 L1977.1 190.354 L1972.82 190.354 L1972.82 164.428 L1977.1 164.428 L1977.1 168.456 Q1978.44 166.094 1980.6 164.96 Q1982.75 163.803 1985.83 163.803 Q1986.27 163.803 1986.8 163.872 Q1987.33 163.919 1987.98 164.034 L1988 168.409 Z" fill="#000000" fill-rule="evenodd" fill-opacity="1" /><path clip-path="url(#clip880)" d="M2013.6 176.326 L2013.6 178.409 L1994.02 178.409 Q1994.3 182.807 1996.66 185.122 Q1999.04 187.414 2003.28 187.414 Q2005.73 187.414 2008.03 186.812 Q2010.34 186.21 2012.61 185.006 L2012.61 189.034 Q2010.32 190.006 2007.91 190.516 Q2005.5 191.025 2003.03 191.025 Q1996.82 191.025 1993.19 187.414 Q1989.58 183.803 1989.58 177.645 Q1989.58 171.28 1993 167.553 Q1996.45 163.803 2002.29 163.803 Q2007.52 163.803 2010.55 167.182 Q2013.6 170.539 2013.6 176.326 M2009.35 175.076 Q2009.3 171.581 2007.38 169.497 Q2005.48 167.414 2002.33 167.414 Q1998.77 167.414 1996.61 169.428 Q1994.48 171.442 1994.16 175.099 L2009.35 175.076 Z" fill="#000000" fill-rule="evenodd" fill-opacity="1" /><path clip-path="url(#clip880)" d="M2020.6 154.335 L2024.85 154.335 L2024.85 190.354 L2020.6 190.354 L2020.6 154.335 Z" fill="#000000" fill-rule="evenodd" fill-opacity="1" /><path clip-path="url(#clip880)" d="M2045.55 177.321 Q2040.39 177.321 2038.4 178.502 Q2036.41 179.682 2036.41 182.53 Q2036.41 184.798 2037.89 186.141 Q2039.39 187.46 2041.96 187.46 Q2045.5 187.46 2047.63 184.96 Q2049.78 182.437 2049.78 178.27 L2049.78 177.321 L2045.55 177.321 M2054.04 175.562 L2054.04 190.354 L2049.78 190.354 L2049.78 186.418 Q2048.33 188.779 2046.15 189.914 Q2043.97 191.025 2040.83 191.025 Q2036.85 191.025 2034.48 188.803 Q2032.15 186.557 2032.15 182.807 Q2032.15 178.432 2035.06 176.21 Q2038 173.988 2043.81 173.988 L2049.78 173.988 L2049.78 173.571 Q2049.78 170.631 2047.84 169.034 Q2045.92 167.414 2042.42 167.414 Q2040.2 167.414 2038.1 167.946 Q2035.99 168.479 2034.04 169.543 L2034.04 165.608 Q2036.38 164.706 2038.58 164.266 Q2040.78 163.803 2042.86 163.803 Q2048.49 163.803 2051.27 166.719 Q2054.04 169.636 2054.04 175.562 Z" fill="#000000" fill-rule="evenodd" fill-opacity="1" /><path clip-path="url(#clip880)" d="M2067.03 157.067 L2067.03 164.428 L2075.8 164.428 L2075.8 167.738 L2067.03 167.738 L2067.03 181.812 Q2067.03 184.983 2067.89 185.886 Q2068.77 186.789 2071.43 186.789 L2075.8 186.789 L2075.8 190.354 L2071.43 190.354 Q2066.5 190.354 2064.62 188.525 Q2062.75 186.673 2062.75 181.812 L2062.75 167.738 L2059.62 167.738 L2059.62 164.428 L2062.75 164.428 L2062.75 157.067 L2067.03 157.067 Z" fill="#000000" fill-rule="evenodd" fill-opacity="1" /><path clip-path="url(#clip880)" d="M2081.4 164.428 L2085.66 164.428 L2085.66 190.354 L2081.4 190.354 L2081.4 164.428 M2081.4 154.335 L2085.66 154.335 L2085.66 159.729 L2081.4 159.729 L2081.4 154.335 Z" fill="#000000" fill-rule="evenodd" fill-opacity="1" /><path clip-path="url(#clip880)" d="M2104.62 167.414 Q2101.2 167.414 2099.21 170.099 Q2097.22 172.761 2097.22 177.414 Q2097.22 182.067 2099.18 184.752 Q2101.17 187.414 2104.62 187.414 Q2108.03 187.414 2110.02 184.729 Q2112.01 182.043 2112.01 177.414 Q2112.01 172.807 2110.02 170.122 Q2108.03 167.414 2104.62 167.414 M2104.62 163.803 Q2110.18 163.803 2113.35 167.414 Q2116.52 171.025 2116.52 177.414 Q2116.52 183.78 2113.35 187.414 Q2110.18 191.025 2104.62 191.025 Q2099.04 191.025 2095.87 187.414 Q2092.72 183.78 2092.72 177.414 Q2092.72 171.025 2095.87 167.414 Q2099.04 163.803 2104.62 163.803 Z" fill="#000000" fill-rule="evenodd" fill-opacity="1" /><path clip-path="url(#clip880)" d="M2145.13 174.705 L2145.13 190.354 L2140.87 190.354 L2140.87 174.844 Q2140.87 171.164 2139.44 169.335 Q2138 167.506 2135.13 167.506 Q2131.68 167.506 2129.69 169.706 Q2127.7 171.905 2127.7 175.701 L2127.7 190.354 L2123.42 190.354 L2123.42 164.428 L2127.7 164.428 L2127.7 168.456 Q2129.23 166.118 2131.29 164.96 Q2133.37 163.803 2136.08 163.803 Q2140.55 163.803 2142.84 166.581 Q2145.13 169.335 2145.13 174.705 Z" fill="#000000" fill-rule="evenodd" fill-opacity="1" /></svg>
