<?xml version="1.0" encoding="utf-8"?>
<svg xmlns="http://www.w3.org/2000/svg" xmlns:xlink="http://www.w3.org/1999/xlink" width="500" height="300" viewBox="0 0 2000 1200">
<defs>
  <clipPath id="clip080">
    <rect x="0" y="0" width="2000" height="1200"/>
  </clipPath>
</defs>
<path clip-path="url(#clip080)" d="M0 1200 L2000 1200 L2000 0 L0 0  Z" fill="#ffffff" fill-rule="evenodd" fill-opacity="1"/>
<defs>
  <clipPath id="clip081">
    <rect x="400" y="0" width="1401" height="1200"/>
  </clipPath>
</defs>
<path clip-path="url(#clip080)" d="M108.177 1093.9 L1952.76 1093.9 L1952.76 47.2441 L108.177 47.2441  Z" fill="#ffffff" fill-rule="evenodd" fill-opacity="1"/>
<defs>
  <clipPath id="clip082">
    <rect x="108" y="47" width="1846" height="1048"/>
  </clipPath>
</defs>
<polyline clip-path="url(#clip082)" style="stroke:#000000; stroke-linecap:round; stroke-linejoin:round; stroke-width:2; stroke-opacity:0.1; fill:none" points="186.941,1093.9 186.941,47.2441 "/>
<polyline clip-path="url(#clip082)" style="stroke:#000000; stroke-linecap:round; stroke-linejoin:round; stroke-width:2; stroke-opacity:0.1; fill:none" points="444.212,1093.9 444.212,47.2441 "/>
<polyline clip-path="url(#clip082)" style="stroke:#000000; stroke-linecap:round; stroke-linejoin:round; stroke-width:2; stroke-opacity:0.1; fill:none" points="701.482,1093.9 701.482,47.2441 "/>
<polyline clip-path="url(#clip082)" style="stroke:#000000; stroke-linecap:round; stroke-linejoin:round; stroke-width:2; stroke-opacity:0.1; fill:none" points="958.753,1093.9 958.753,47.2441 "/>
<polyline clip-path="url(#clip082)" style="stroke:#000000; stroke-linecap:round; stroke-linejoin:round; stroke-width:2; stroke-opacity:0.1; fill:none" points="1216.02,1093.9 1216.02,47.2441 "/>
<polyline clip-path="url(#clip082)" style="stroke:#000000; stroke-linecap:round; stroke-linejoin:round; stroke-width:2; stroke-opacity:0.1; fill:none" points="1473.29,1093.9 1473.29,47.2441 "/>
<polyline clip-path="url(#clip082)" style="stroke:#000000; stroke-linecap:round; stroke-linejoin:round; stroke-width:2; stroke-opacity:0.1; fill:none" points="1730.56,1093.9 1730.56,47.2441 "/>
<polyline clip-path="url(#clip080)" style="stroke:#000000; stroke-linecap:round; stroke-linejoin:round; stroke-width:4; stroke-opacity:1; fill:none" points="108.177,1093.9 1952.76,1093.9 "/>
<polyline clip-path="url(#clip080)" style="stroke:#000000; stroke-linecap:round; stroke-linejoin:round; stroke-width:4; stroke-opacity:1; fill:none" points="186.941,1093.9 186.941,1075.01 "/>
<polyline clip-path="url(#clip080)" style="stroke:#000000; stroke-linecap:round; stroke-linejoin:round; stroke-width:4; stroke-opacity:1; fill:none" points="444.212,1093.9 444.212,1075.01 "/>
<polyline clip-path="url(#clip080)" style="stroke:#000000; stroke-linecap:round; stroke-linejoin:round; stroke-width:4; stroke-opacity:1; fill:none" points="701.482,1093.9 701.482,1075.01 "/>
<polyline clip-path="url(#clip080)" style="stroke:#000000; stroke-linecap:round; stroke-linejoin:round; stroke-width:4; stroke-opacity:1; fill:none" points="958.753,1093.9 958.753,1075.01 "/>
<polyline clip-path="url(#clip080)" style="stroke:#000000; stroke-linecap:round; stroke-linejoin:round; stroke-width:4; stroke-opacity:1; fill:none" points="1216.02,1093.9 1216.02,1075.01 "/>
<polyline clip-path="url(#clip080)" style="stroke:#000000; stroke-linecap:round; stroke-linejoin:round; stroke-width:4; stroke-opacity:1; fill:none" points="1473.29,1093.9 1473.29,1075.01 "/>
<polyline clip-path="url(#clip080)" style="stroke:#000000; stroke-linecap:round; stroke-linejoin:round; stroke-width:4; stroke-opacity:1; fill:none" points="1730.56,1093.9 1730.56,1075.01 "/>
<path clip-path="url(#clip080)" d="M164.65 1121.62 Q161.039 1121.62 159.21 1125.19 Q157.404 1128.73 157.404 1135.86 Q157.404 1142.97 159.21 1146.53 Q161.039 1150.07 164.65 1150.07 Q168.284 1150.07 170.089 1146.53 Q171.918 1142.97 171.918 1135.86 Q171.918 1128.73 170.089 1125.19 Q168.284 1121.62 164.65 1121.62 M164.65 1117.92 Q170.46 1117.92 173.515 1122.53 Q176.594 1127.11 176.594 1135.86 Q176.594 1144.59 173.515 1149.19 Q170.46 1153.78 164.65 1153.78 Q158.839 1153.78 155.761 1149.19 Q152.705 1144.59 152.705 1135.86 Q152.705 1127.11 155.761 1122.53 Q158.839 1117.92 164.65 1117.92 Z" fill="#000000" fill-rule="evenodd" fill-opacity="1" /><path clip-path="url(#clip080)" d="M184.812 1147.22 L189.696 1147.22 L189.696 1153.1 L184.812 1153.1 L184.812 1147.22 Z" fill="#000000" fill-rule="evenodd" fill-opacity="1" /><path clip-path="url(#clip080)" d="M214.048 1134.47 Q217.404 1135.19 219.279 1137.46 Q221.177 1139.72 221.177 1143.06 Q221.177 1148.17 217.659 1150.97 Q214.14 1153.78 207.659 1153.78 Q205.483 1153.78 203.168 1153.34 Q200.876 1152.92 198.423 1152.06 L198.423 1147.55 Q200.367 1148.68 202.682 1149.26 Q204.997 1149.84 207.52 1149.84 Q211.918 1149.84 214.21 1148.1 Q216.524 1146.37 216.524 1143.06 Q216.524 1140 214.372 1138.29 Q212.242 1136.55 208.423 1136.55 L204.395 1136.55 L204.395 1132.71 L208.608 1132.71 Q212.057 1132.71 213.885 1131.34 Q215.714 1129.96 215.714 1127.36 Q215.714 1124.7 213.816 1123.29 Q211.941 1121.85 208.423 1121.85 Q206.501 1121.85 204.302 1122.27 Q202.103 1122.69 199.464 1123.57 L199.464 1119.4 Q202.126 1118.66 204.441 1118.29 Q206.779 1117.92 208.839 1117.92 Q214.163 1117.92 217.265 1120.35 Q220.367 1122.76 220.367 1126.88 Q220.367 1129.75 218.723 1131.74 Q217.08 1133.71 214.048 1134.47 Z" fill="#000000" fill-rule="evenodd" fill-opacity="1" /><path clip-path="url(#clip080)" d="M421.353 1121.62 Q417.742 1121.62 415.913 1125.19 Q414.108 1128.73 414.108 1135.86 Q414.108 1142.97 415.913 1146.53 Q417.742 1150.07 421.353 1150.07 Q424.987 1150.07 426.793 1146.53 Q428.622 1142.97 428.622 1135.86 Q428.622 1128.73 426.793 1125.19 Q424.987 1121.62 421.353 1121.62 M421.353 1117.92 Q427.163 1117.92 430.219 1122.53 Q433.297 1127.11 433.297 1135.86 Q433.297 1144.59 430.219 1149.19 Q427.163 1153.78 421.353 1153.78 Q415.543 1153.78 412.464 1149.19 Q409.409 1144.59 409.409 1135.86 Q409.409 1127.11 412.464 1122.53 Q415.543 1117.92 421.353 1117.92 Z" fill="#000000" fill-rule="evenodd" fill-opacity="1" /><path clip-path="url(#clip080)" d="M441.515 1147.22 L446.399 1147.22 L446.399 1153.1 L441.515 1153.1 L441.515 1147.22 Z" fill="#000000" fill-rule="evenodd" fill-opacity="1" /><path clip-path="url(#clip080)" d="M469.432 1122.62 L457.626 1141.07 L469.432 1141.07 L469.432 1122.62 M468.205 1118.54 L474.084 1118.54 L474.084 1141.07 L479.015 1141.07 L479.015 1144.96 L474.084 1144.96 L474.084 1153.1 L469.432 1153.1 L469.432 1144.96 L453.83 1144.96 L453.83 1140.44 L468.205 1118.54 Z" fill="#000000" fill-rule="evenodd" fill-opacity="1" /><path clip-path="url(#clip080)" d="M679.364 1121.62 Q675.753 1121.62 673.925 1125.19 Q672.119 1128.73 672.119 1135.86 Q672.119 1142.97 673.925 1146.53 Q675.753 1150.07 679.364 1150.07 Q682.999 1150.07 684.804 1146.53 Q686.633 1142.97 686.633 1135.86 Q686.633 1128.73 684.804 1125.19 Q682.999 1121.62 679.364 1121.62 M679.364 1117.92 Q685.175 1117.92 688.23 1122.53 Q691.309 1127.11 691.309 1135.86 Q691.309 1144.59 688.23 1149.19 Q685.175 1153.78 679.364 1153.78 Q673.554 1153.78 670.476 1149.19 Q667.42 1144.59 667.42 1135.86 Q667.42 1127.11 670.476 1122.53 Q673.554 1117.92 679.364 1117.92 Z" fill="#000000" fill-rule="evenodd" fill-opacity="1" /><path clip-path="url(#clip080)" d="M699.526 1147.22 L704.411 1147.22 L704.411 1153.1 L699.526 1153.1 L699.526 1147.22 Z" fill="#000000" fill-rule="evenodd" fill-opacity="1" /><path clip-path="url(#clip080)" d="M714.642 1118.54 L732.998 1118.54 L732.998 1122.48 L718.924 1122.48 L718.924 1130.95 Q719.943 1130.6 720.961 1130.44 Q721.98 1130.26 722.998 1130.26 Q728.785 1130.26 732.165 1133.43 Q735.545 1136.6 735.545 1142.02 Q735.545 1147.59 732.072 1150.7 Q728.6 1153.78 722.281 1153.78 Q720.105 1153.78 717.836 1153.4 Q715.591 1153.03 713.184 1152.29 L713.184 1147.59 Q715.267 1148.73 717.489 1149.28 Q719.711 1149.84 722.188 1149.84 Q726.193 1149.84 728.531 1147.73 Q730.869 1145.63 730.869 1142.02 Q730.869 1138.4 728.531 1136.3 Q726.193 1134.19 722.188 1134.19 Q720.313 1134.19 718.438 1134.61 Q716.586 1135.03 714.642 1135.9 L714.642 1118.54 Z" fill="#000000" fill-rule="evenodd" fill-opacity="1" /><path clip-path="url(#clip080)" d="M936.056 1121.62 Q932.445 1121.62 930.616 1125.19 Q928.811 1128.73 928.811 1135.86 Q928.811 1142.97 930.616 1146.53 Q932.445 1150.07 936.056 1150.07 Q939.691 1150.07 941.496 1146.53 Q943.325 1142.97 943.325 1135.86 Q943.325 1128.73 941.496 1125.19 Q939.691 1121.62 936.056 1121.62 M936.056 1117.92 Q941.866 1117.92 944.922 1122.53 Q948.001 1127.11 948.001 1135.86 Q948.001 1144.59 944.922 1149.19 Q941.866 1153.78 936.056 1153.78 Q930.246 1153.78 927.167 1149.19 Q924.112 1144.59 924.112 1135.86 Q924.112 1127.11 927.167 1122.53 Q930.246 1117.92 936.056 1117.92 Z" fill="#000000" fill-rule="evenodd" fill-opacity="1" /><path clip-path="url(#clip080)" d="M956.218 1147.22 L961.102 1147.22 L961.102 1153.1 L956.218 1153.1 L956.218 1147.22 Z" fill="#000000" fill-rule="evenodd" fill-opacity="1" /><path clip-path="url(#clip080)" d="M981.866 1133.96 Q978.718 1133.96 976.866 1136.11 Q975.038 1138.27 975.038 1142.02 Q975.038 1145.74 976.866 1147.92 Q978.718 1150.07 981.866 1150.07 Q985.014 1150.07 986.843 1147.92 Q988.695 1145.74 988.695 1142.02 Q988.695 1138.27 986.843 1136.11 Q985.014 1133.96 981.866 1133.96 M991.149 1119.31 L991.149 1123.57 Q989.389 1122.73 987.584 1122.29 Q985.801 1121.85 984.042 1121.85 Q979.413 1121.85 976.959 1124.98 Q974.528 1128.1 974.181 1134.42 Q975.547 1132.41 977.607 1131.34 Q979.667 1130.26 982.144 1130.26 Q987.352 1130.26 990.362 1133.43 Q993.394 1136.58 993.394 1142.02 Q993.394 1147.34 990.246 1150.56 Q987.098 1153.78 981.866 1153.78 Q975.871 1153.78 972.7 1149.19 Q969.528 1144.59 969.528 1135.86 Q969.528 1127.66 973.417 1122.8 Q977.306 1117.92 983.857 1117.92 Q985.616 1117.92 987.399 1118.27 Q989.204 1118.61 991.149 1119.31 Z" fill="#000000" fill-rule="evenodd" fill-opacity="1" /><path clip-path="url(#clip080)" d="M1193.86 1121.62 Q1190.25 1121.62 1188.42 1125.19 Q1186.61 1128.73 1186.61 1135.86 Q1186.61 1142.97 1188.42 1146.53 Q1190.25 1150.07 1193.86 1150.07 Q1197.49 1150.07 1199.3 1146.53 Q1201.13 1142.97 1201.13 1135.86 Q1201.13 1128.73 1199.3 1125.19 Q1197.49 1121.62 1193.86 1121.62 M1193.86 1117.92 Q1199.67 1117.92 1202.72 1122.53 Q1205.8 1127.11 1205.8 1135.86 Q1205.8 1144.59 1202.72 1149.19 Q1199.67 1153.78 1193.86 1153.78 Q1188.05 1153.78 1184.97 1149.19 Q1181.91 1144.59 1181.91 1135.86 Q1181.91 1127.11 1184.97 1122.53 Q1188.05 1117.92 1193.86 1117.92 Z" fill="#000000" fill-rule="evenodd" fill-opacity="1" /><path clip-path="url(#clip080)" d="M1214.02 1147.22 L1218.91 1147.22 L1218.91 1153.1 L1214.02 1153.1 L1214.02 1147.22 Z" fill="#000000" fill-rule="evenodd" fill-opacity="1" /><path clip-path="url(#clip080)" d="M1227.91 1118.54 L1250.13 1118.54 L1250.13 1120.53 L1237.59 1153.1 L1232.7 1153.1 L1244.51 1122.48 L1227.91 1122.48 L1227.91 1118.54 Z" fill="#000000" fill-rule="evenodd" fill-opacity="1" /><path clip-path="url(#clip080)" d="M1450.72 1121.62 Q1447.11 1121.62 1445.28 1125.19 Q1443.48 1128.73 1443.48 1135.86 Q1443.48 1142.97 1445.28 1146.53 Q1447.11 1150.07 1450.72 1150.07 Q1454.36 1150.07 1456.16 1146.53 Q1457.99 1142.97 1457.99 1135.86 Q1457.99 1128.73 1456.16 1125.19 Q1454.36 1121.62 1450.72 1121.62 M1450.72 1117.92 Q1456.53 1117.92 1459.59 1122.53 Q1462.67 1127.11 1462.67 1135.86 Q1462.67 1144.59 1459.59 1149.19 Q1456.53 1153.78 1450.72 1153.78 Q1444.91 1153.78 1441.84 1149.19 Q1438.78 1144.59 1438.78 1135.86 Q1438.78 1127.11 1441.84 1122.53 Q1444.91 1117.92 1450.72 1117.92 Z" fill="#000000" fill-rule="evenodd" fill-opacity="1" /><path clip-path="url(#clip080)" d="M1470.89 1147.22 L1475.77 1147.22 L1475.77 1153.1 L1470.89 1153.1 L1470.89 1147.22 Z" fill="#000000" fill-rule="evenodd" fill-opacity="1" /><path clip-path="url(#clip080)" d="M1495.96 1136.69 Q1492.62 1136.69 1490.7 1138.47 Q1488.8 1140.26 1488.8 1143.38 Q1488.8 1146.51 1490.7 1148.29 Q1492.62 1150.07 1495.96 1150.07 Q1499.29 1150.07 1501.21 1148.29 Q1503.13 1146.48 1503.13 1143.38 Q1503.13 1140.26 1501.21 1138.47 Q1499.31 1136.69 1495.96 1136.69 M1491.28 1134.7 Q1488.27 1133.96 1486.58 1131.9 Q1484.91 1129.84 1484.91 1126.88 Q1484.91 1122.73 1487.85 1120.33 Q1490.82 1117.92 1495.96 1117.92 Q1501.12 1117.92 1504.06 1120.33 Q1507 1122.73 1507 1126.88 Q1507 1129.84 1505.31 1131.9 Q1503.64 1133.96 1500.66 1134.7 Q1504.03 1135.49 1505.91 1137.78 Q1507.81 1140.07 1507.81 1143.38 Q1507.81 1148.4 1504.73 1151.09 Q1501.67 1153.78 1495.96 1153.78 Q1490.24 1153.78 1487.16 1151.09 Q1484.1 1148.4 1484.1 1143.38 Q1484.1 1140.07 1486 1137.78 Q1487.9 1135.49 1491.28 1134.7 M1489.57 1127.32 Q1489.57 1130 1491.23 1131.51 Q1492.92 1133.01 1495.96 1133.01 Q1498.97 1133.01 1500.66 1131.51 Q1502.37 1130 1502.37 1127.32 Q1502.37 1124.63 1500.66 1123.13 Q1498.97 1121.62 1495.96 1121.62 Q1492.92 1121.62 1491.23 1123.13 Q1489.57 1124.63 1489.57 1127.32 Z" fill="#000000" fill-rule="evenodd" fill-opacity="1" /><path clip-path="url(#clip080)" d="M1708.04 1121.62 Q1704.43 1121.62 1702.6 1125.19 Q1700.8 1128.73 1700.8 1135.86 Q1700.8 1142.97 1702.6 1146.53 Q1704.43 1150.07 1708.04 1150.07 Q1711.68 1150.07 1713.48 1146.53 Q1715.31 1142.97 1715.31 1135.86 Q1715.31 1128.73 1713.48 1125.19 Q1711.68 1121.62 1708.04 1121.62 M1708.04 1117.92 Q1713.85 1117.92 1716.91 1122.53 Q1719.99 1127.11 1719.99 1135.86 Q1719.99 1144.59 1716.91 1149.19 Q1713.85 1153.78 1708.04 1153.78 Q1702.23 1153.78 1699.15 1149.19 Q1696.1 1144.59 1696.1 1135.86 Q1696.1 1127.11 1699.15 1122.53 Q1702.23 1117.92 1708.04 1117.92 Z" fill="#000000" fill-rule="evenodd" fill-opacity="1" /><path clip-path="url(#clip080)" d="M1728.2 1147.22 L1733.09 1147.22 L1733.09 1153.1 L1728.2 1153.1 L1728.2 1147.22 Z" fill="#000000" fill-rule="evenodd" fill-opacity="1" /><path clip-path="url(#clip080)" d="M1743.41 1152.39 L1743.41 1148.13 Q1745.17 1148.96 1746.98 1149.4 Q1748.78 1149.84 1750.52 1149.84 Q1755.15 1149.84 1757.58 1146.74 Q1760.03 1143.61 1760.38 1137.27 Q1759.04 1139.26 1756.98 1140.33 Q1754.92 1141.39 1752.42 1141.39 Q1747.23 1141.39 1744.2 1138.27 Q1741.19 1135.12 1741.19 1129.68 Q1741.19 1124.35 1744.34 1121.14 Q1747.49 1117.92 1752.72 1117.92 Q1758.71 1117.92 1761.86 1122.53 Q1765.03 1127.11 1765.03 1135.86 Q1765.03 1144.03 1761.14 1148.91 Q1757.28 1153.78 1750.73 1153.78 Q1748.97 1153.78 1747.16 1153.43 Q1745.36 1153.08 1743.41 1152.39 M1752.72 1137.73 Q1755.87 1137.73 1757.69 1135.58 Q1759.55 1133.43 1759.55 1129.68 Q1759.55 1125.95 1757.69 1123.8 Q1755.87 1121.62 1752.72 1121.62 Q1749.57 1121.62 1747.72 1123.8 Q1745.89 1125.95 1745.89 1129.68 Q1745.89 1133.43 1747.72 1135.58 Q1749.57 1137.73 1752.72 1137.73 Z" fill="#000000" fill-rule="evenodd" fill-opacity="1" /><polyline clip-path="url(#clip082)" style="stroke:#000000; stroke-linecap:round; stroke-linejoin:round; stroke-width:2; stroke-opacity:0.1; fill:none" points="108.177,1064.28 1952.76,1064.28 "/>
<polyline clip-path="url(#clip082)" style="stroke:#000000; stroke-linecap:round; stroke-linejoin:round; stroke-width:2; stroke-opacity:0.1; fill:none" points="108.177,870.671 1952.76,870.671 "/>
<polyline clip-path="url(#clip082)" style="stroke:#000000; stroke-linecap:round; stroke-linejoin:round; stroke-width:2; stroke-opacity:0.1; fill:none" points="108.177,677.06 1952.76,677.06 "/>
<polyline clip-path="url(#clip082)" style="stroke:#000000; stroke-linecap:round; stroke-linejoin:round; stroke-width:2; stroke-opacity:0.1; fill:none" points="108.177,483.449 1952.76,483.449 "/>
<polyline clip-path="url(#clip082)" style="stroke:#000000; stroke-linecap:round; stroke-linejoin:round; stroke-width:2; stroke-opacity:0.1; fill:none" points="108.177,289.838 1952.76,289.838 "/>
<polyline clip-path="url(#clip082)" style="stroke:#000000; stroke-linecap:round; stroke-linejoin:round; stroke-width:2; stroke-opacity:0.1; fill:none" points="108.177,96.2276 1952.76,96.2276 "/>
<polyline clip-path="url(#clip080)" style="stroke:#000000; stroke-linecap:round; stroke-linejoin:round; stroke-width:4; stroke-opacity:1; fill:none" points="108.177,1093.9 108.177,47.2441 "/>
<polyline clip-path="url(#clip080)" style="stroke:#000000; stroke-linecap:round; stroke-linejoin:round; stroke-width:4; stroke-opacity:1; fill:none" points="108.177,1064.28 127.075,1064.28 "/>
<polyline clip-path="url(#clip080)" style="stroke:#000000; stroke-linecap:round; stroke-linejoin:round; stroke-width:4; stroke-opacity:1; fill:none" points="108.177,870.671 127.075,870.671 "/>
<polyline clip-path="url(#clip080)" style="stroke:#000000; stroke-linecap:round; stroke-linejoin:round; stroke-width:4; stroke-opacity:1; fill:none" points="108.177,677.06 127.075,677.06 "/>
<polyline clip-path="url(#clip080)" style="stroke:#000000; stroke-linecap:round; stroke-linejoin:round; stroke-width:4; stroke-opacity:1; fill:none" points="108.177,483.449 127.075,483.449 "/>
<polyline clip-path="url(#clip080)" style="stroke:#000000; stroke-linecap:round; stroke-linejoin:round; stroke-width:4; stroke-opacity:1; fill:none" points="108.177,289.838 127.075,289.838 "/>
<polyline clip-path="url(#clip080)" style="stroke:#000000; stroke-linecap:round; stroke-linejoin:round; stroke-width:4; stroke-opacity:1; fill:none" points="108.177,96.2276 127.075,96.2276 "/>
<path clip-path="url(#clip080)" d="M66.2328 1050.08 Q62.6217 1050.08 60.793 1053.64 Q58.9875 1057.19 58.9875 1064.32 Q58.9875 1071.42 60.793 1074.99 Q62.6217 1078.53 66.2328 1078.53 Q69.867 1078.53 71.6726 1074.99 Q73.5013 1071.42 73.5013 1064.32 Q73.5013 1057.19 71.6726 1053.64 Q69.867 1050.08 66.2328 1050.08 M66.2328 1046.38 Q72.0429 1046.38 75.0985 1050.98 Q78.1772 1055.57 78.1772 1064.32 Q78.1772 1073.04 75.0985 1077.65 Q72.0429 1082.23 66.2328 1082.23 Q60.4226 1082.23 57.344 1077.65 Q54.2884 1073.04 54.2884 1064.32 Q54.2884 1055.57 57.344 1050.98 Q60.4226 1046.38 66.2328 1046.38 Z" fill="#000000" fill-rule="evenodd" fill-opacity="1" /><path clip-path="url(#clip080)" d="M58.2699 884.016 L65.9087 884.016 L65.9087 857.65 L57.5986 859.317 L57.5986 855.057 L65.8624 853.391 L70.5383 853.391 L70.5383 884.016 L78.1772 884.016 L78.1772 887.951 L58.2699 887.951 L58.2699 884.016 Z" fill="#000000" fill-rule="evenodd" fill-opacity="1" /><path clip-path="url(#clip080)" d="M61.8578 690.405 L78.1772 690.405 L78.1772 694.34 L56.2328 694.34 L56.2328 690.405 Q58.8949 687.65 63.4782 683.021 Q68.0846 678.368 69.2652 677.025 Q71.5105 674.502 72.3902 672.766 Q73.2929 671.007 73.2929 669.317 Q73.2929 666.562 71.3485 664.826 Q69.4272 663.09 66.3254 663.09 Q64.1263 663.09 61.6726 663.854 Q59.2421 664.618 56.4643 666.169 L56.4643 661.447 Q59.2884 660.312 61.7421 659.734 Q64.1958 659.155 66.2328 659.155 Q71.6031 659.155 74.7976 661.84 Q77.992 664.525 77.992 669.016 Q77.992 671.146 77.1818 673.067 Q76.3948 674.965 74.2883 677.558 Q73.7096 678.229 70.6078 681.446 Q67.5059 684.641 61.8578 690.405 Z" fill="#000000" fill-rule="evenodd" fill-opacity="1" /><path clip-path="url(#clip080)" d="M71.0476 482.095 Q74.404 482.813 76.279 485.081 Q78.1772 487.35 78.1772 490.683 Q78.1772 495.799 74.6587 498.6 Q71.1402 501.4 64.6587 501.4 Q62.4828 501.4 60.168 500.961 Q57.8764 500.544 55.4227 499.687 L55.4227 495.174 Q57.3671 496.308 59.6819 496.887 Q61.9967 497.465 64.5198 497.465 Q68.918 497.465 71.2096 495.729 Q73.5244 493.993 73.5244 490.683 Q73.5244 487.627 71.3717 485.914 Q69.242 484.178 65.4226 484.178 L61.3949 484.178 L61.3949 480.336 L65.6078 480.336 Q69.0569 480.336 70.8855 478.97 Q72.7142 477.581 72.7142 474.989 Q72.7142 472.327 70.8161 470.914 Q68.9411 469.479 65.4226 469.479 Q63.5013 469.479 61.3023 469.896 Q59.1032 470.313 56.4643 471.192 L56.4643 467.026 Q59.1264 466.285 61.4412 465.915 Q63.7791 465.544 65.8393 465.544 Q71.1633 465.544 74.2652 467.975 Q77.367 470.382 77.367 474.502 Q77.367 477.373 75.7235 479.364 Q74.08 481.331 71.0476 482.095 Z" fill="#000000" fill-rule="evenodd" fill-opacity="1" /><path clip-path="url(#clip080)" d="M68.5939 276.632 L56.7884 295.081 L68.5939 295.081 L68.5939 276.632 M67.367 272.558 L73.2466 272.558 L73.2466 295.081 L78.1772 295.081 L78.1772 298.97 L73.2466 298.97 L73.2466 307.118 L68.5939 307.118 L68.5939 298.97 L52.9921 298.97 L52.9921 294.456 L67.367 272.558 Z" fill="#000000" fill-rule="evenodd" fill-opacity="1" /><path clip-path="url(#clip080)" d="M57.2745 78.9476 L75.6309 78.9476 L75.6309 82.8828 L61.5569 82.8828 L61.5569 91.355 Q62.5754 91.0077 63.5939 90.8457 Q64.6124 90.6605 65.6309 90.6605 Q71.418 90.6605 74.7976 93.8318 Q78.1772 97.0031 78.1772 102.42 Q78.1772 107.998 74.705 111.1 Q71.2328 114.179 64.9134 114.179 Q62.7374 114.179 60.4689 113.809 Q58.2236 113.438 55.8162 112.697 L55.8162 107.998 Q57.8995 109.133 60.1217 109.688 Q62.3439 110.244 64.8208 110.244 Q68.8254 110.244 71.1633 108.137 Q73.5013 106.031 73.5013 102.42 Q73.5013 98.8086 71.1633 96.7022 Q68.8254 94.5957 64.8208 94.5957 Q62.9458 94.5957 61.0708 95.0123 Q59.2189 95.429 57.2745 96.3086 L57.2745 78.9476 Z" fill="#000000" fill-rule="evenodd" fill-opacity="1" /><path clip-path="url(#clip082)" d="M264.122 1060.41 L264.122 1064.28 L289.849 1064.28 L289.849 1060.41 L264.122 1060.41 L264.122 1060.41  Z" fill="#009af9" fill-rule="evenodd" fill-opacity="0.2"/>
<polyline clip-path="url(#clip082)" style="stroke:#000000; stroke-linecap:round; stroke-linejoin:round; stroke-width:4; stroke-opacity:0.2; fill:none" points="264.122,1060.41 264.122,1064.28 289.849,1064.28 289.849,1060.41 264.122,1060.41 "/>
<path clip-path="url(#clip082)" d="M289.849 1060.41 L289.849 1064.28 L315.576 1064.28 L315.576 1060.41 L289.849 1060.41 L289.849 1060.41  Z" fill="#009af9" fill-rule="evenodd" fill-opacity="0.2"/>
<polyline clip-path="url(#clip082)" style="stroke:#000000; stroke-linecap:round; stroke-linejoin:round; stroke-width:4; stroke-opacity:0.2; fill:none" points="289.849,1060.41 289.849,1064.28 315.576,1064.28 315.576,1060.41 289.849,1060.41 "/>
<path clip-path="url(#clip082)" d="M315.576 1064.28 L315.576 1064.28 L341.304 1064.28 L341.304 1064.28 L315.576 1064.28 L315.576 1064.28  Z" fill="#009af9" fill-rule="evenodd" fill-opacity="0.2"/>
<polyline clip-path="url(#clip082)" style="stroke:#000000; stroke-linecap:round; stroke-linejoin:round; stroke-width:4; stroke-opacity:0.2; fill:none" points="315.576,1064.28 315.576,1064.28 341.304,1064.28 315.576,1064.28 "/>
<path clip-path="url(#clip082)" d="M341.304 1060.41 L341.304 1064.28 L367.031 1064.28 L367.031 1060.41 L341.304 1060.41 L341.304 1060.41  Z" fill="#009af9" fill-rule="evenodd" fill-opacity="0.2"/>
<polyline clip-path="url(#clip082)" style="stroke:#000000; stroke-linecap:round; stroke-linejoin:round; stroke-width:4; stroke-opacity:0.2; fill:none" points="341.304,1060.41 341.304,1064.28 367.031,1064.28 367.031,1060.41 341.304,1060.41 "/>
<path clip-path="url(#clip082)" d="M367.031 1062.35 L367.031 1064.28 L392.758 1064.28 L392.758 1062.35 L367.031 1062.35 L367.031 1062.35  Z" fill="#009af9" fill-rule="evenodd" fill-opacity="0.2"/>
<polyline clip-path="url(#clip082)" style="stroke:#000000; stroke-linecap:round; stroke-linejoin:round; stroke-width:4; stroke-opacity:0.2; fill:none" points="367.031,1062.35 367.031,1064.28 392.758,1064.28 392.758,1062.35 367.031,1062.35 "/>
<path clip-path="url(#clip082)" d="M392.758 1060.41 L392.758 1064.28 L418.485 1064.28 L418.485 1060.41 L392.758 1060.41 L392.758 1060.41  Z" fill="#009af9" fill-rule="evenodd" fill-opacity="0.2"/>
<polyline clip-path="url(#clip082)" style="stroke:#000000; stroke-linecap:round; stroke-linejoin:round; stroke-width:4; stroke-opacity:0.2; fill:none" points="392.758,1060.41 392.758,1064.28 418.485,1064.28 418.485,1060.41 392.758,1060.41 "/>
<path clip-path="url(#clip082)" d="M418.485 1060.41 L418.485 1064.28 L444.212 1064.28 L444.212 1060.41 L418.485 1060.41 L418.485 1060.41  Z" fill="#009af9" fill-rule="evenodd" fill-opacity="0.2"/>
<polyline clip-path="url(#clip082)" style="stroke:#000000; stroke-linecap:round; stroke-linejoin:round; stroke-width:4; stroke-opacity:0.2; fill:none" points="418.485,1060.41 418.485,1064.28 444.212,1064.28 444.212,1060.41 418.485,1060.41 "/>
<path clip-path="url(#clip082)" d="M444.212 1054.6 L444.212 1064.28 L469.939 1064.28 L469.939 1054.6 L444.212 1054.6 L444.212 1054.6  Z" fill="#009af9" fill-rule="evenodd" fill-opacity="0.2"/>
<polyline clip-path="url(#clip082)" style="stroke:#000000; stroke-linecap:round; stroke-linejoin:round; stroke-width:4; stroke-opacity:0.2; fill:none" points="444.212,1054.6 444.212,1064.28 469.939,1064.28 469.939,1054.6 444.212,1054.6 "/>
<path clip-path="url(#clip082)" d="M469.939 1056.54 L469.939 1064.28 L495.666 1064.28 L495.666 1056.54 L469.939 1056.54 L469.939 1056.54  Z" fill="#009af9" fill-rule="evenodd" fill-opacity="0.2"/>
<polyline clip-path="url(#clip082)" style="stroke:#000000; stroke-linecap:round; stroke-linejoin:round; stroke-width:4; stroke-opacity:0.2; fill:none" points="469.939,1056.54 469.939,1064.28 495.666,1064.28 495.666,1056.54 469.939,1056.54 "/>
<path clip-path="url(#clip082)" d="M495.666 1056.54 L495.666 1064.28 L521.393 1064.28 L521.393 1056.54 L495.666 1056.54 L495.666 1056.54  Z" fill="#009af9" fill-rule="evenodd" fill-opacity="0.2"/>
<polyline clip-path="url(#clip082)" style="stroke:#000000; stroke-linecap:round; stroke-linejoin:round; stroke-width:4; stroke-opacity:0.2; fill:none" points="495.666,1056.54 495.666,1064.28 521.393,1064.28 521.393,1056.54 495.666,1056.54 "/>
<path clip-path="url(#clip082)" d="M521.393 1048.79 L521.393 1064.28 L547.12 1064.28 L547.12 1048.79 L521.393 1048.79 L521.393 1048.79  Z" fill="#009af9" fill-rule="evenodd" fill-opacity="0.2"/>
<polyline clip-path="url(#clip082)" style="stroke:#000000; stroke-linecap:round; stroke-linejoin:round; stroke-width:4; stroke-opacity:0.2; fill:none" points="521.393,1048.79 521.393,1064.28 547.12,1064.28 547.12,1048.79 521.393,1048.79 "/>
<path clip-path="url(#clip082)" d="M547.12 1046.86 L547.12 1064.28 L572.847 1064.28 L572.847 1046.86 L547.12 1046.86 L547.12 1046.86  Z" fill="#009af9" fill-rule="evenodd" fill-opacity="0.2"/>
<polyline clip-path="url(#clip082)" style="stroke:#000000; stroke-linecap:round; stroke-linejoin:round; stroke-width:4; stroke-opacity:0.2; fill:none" points="547.12,1046.86 547.12,1064.28 572.847,1064.28 572.847,1046.86 547.12,1046.86 "/>
<path clip-path="url(#clip082)" d="M572.847 1029.43 L572.847 1064.28 L598.574 1064.28 L598.574 1029.43 L572.847 1029.43 L572.847 1029.43  Z" fill="#009af9" fill-rule="evenodd" fill-opacity="0.2"/>
<polyline clip-path="url(#clip082)" style="stroke:#000000; stroke-linecap:round; stroke-linejoin:round; stroke-width:4; stroke-opacity:0.2; fill:none" points="572.847,1029.43 572.847,1064.28 598.574,1064.28 598.574,1029.43 572.847,1029.43 "/>
<path clip-path="url(#clip082)" d="M598.574 1035.24 L598.574 1064.28 L624.301 1064.28 L624.301 1035.24 L598.574 1035.24 L598.574 1035.24  Z" fill="#009af9" fill-rule="evenodd" fill-opacity="0.2"/>
<polyline clip-path="url(#clip082)" style="stroke:#000000; stroke-linecap:round; stroke-linejoin:round; stroke-width:4; stroke-opacity:0.2; fill:none" points="598.574,1035.24 598.574,1064.28 624.301,1064.28 624.301,1035.24 598.574,1035.24 "/>
<path clip-path="url(#clip082)" d="M624.301 1010.07 L624.301 1064.28 L650.028 1064.28 L650.028 1010.07 L624.301 1010.07 L624.301 1010.07  Z" fill="#009af9" fill-rule="evenodd" fill-opacity="0.2"/>
<polyline clip-path="url(#clip082)" style="stroke:#000000; stroke-linecap:round; stroke-linejoin:round; stroke-width:4; stroke-opacity:0.2; fill:none" points="624.301,1010.07 624.301,1064.28 650.028,1064.28 650.028,1010.07 624.301,1010.07 "/>
<path clip-path="url(#clip082)" d="M650.028 1010.07 L650.028 1064.28 L675.755 1064.28 L675.755 1010.07 L650.028 1010.07 L650.028 1010.07  Z" fill="#009af9" fill-rule="evenodd" fill-opacity="0.2"/>
<polyline clip-path="url(#clip082)" style="stroke:#000000; stroke-linecap:round; stroke-linejoin:round; stroke-width:4; stroke-opacity:0.2; fill:none" points="650.028,1010.07 650.028,1064.28 675.755,1064.28 675.755,1010.07 650.028,1010.07 "/>
<path clip-path="url(#clip082)" d="M675.755 1010.07 L675.755 1064.28 L701.482 1064.28 L701.482 1010.07 L675.755 1010.07 L675.755 1010.07  Z" fill="#009af9" fill-rule="evenodd" fill-opacity="0.2"/>
<polyline clip-path="url(#clip082)" style="stroke:#000000; stroke-linecap:round; stroke-linejoin:round; stroke-width:4; stroke-opacity:0.2; fill:none" points="675.755,1010.07 675.755,1064.28 701.482,1064.28 701.482,1010.07 675.755,1010.07 "/>
<path clip-path="url(#clip082)" d="M701.482 992.645 L701.482 1064.28 L727.209 1064.28 L727.209 992.645 L701.482 992.645 L701.482 992.645  Z" fill="#009af9" fill-rule="evenodd" fill-opacity="0.2"/>
<polyline clip-path="url(#clip082)" style="stroke:#000000; stroke-linecap:round; stroke-linejoin:round; stroke-width:4; stroke-opacity:0.2; fill:none" points="701.482,992.645 701.482,1064.28 727.209,1064.28 727.209,992.645 701.482,992.645 "/>
<path clip-path="url(#clip082)" d="M727.209 950.051 L727.209 1064.28 L752.936 1064.28 L752.936 950.051 L727.209 950.051 L727.209 950.051  Z" fill="#009af9" fill-rule="evenodd" fill-opacity="0.2"/>
<polyline clip-path="url(#clip082)" style="stroke:#000000; stroke-linecap:round; stroke-linejoin:round; stroke-width:4; stroke-opacity:0.2; fill:none" points="727.209,950.051 727.209,1064.28 752.936,1064.28 752.936,950.051 727.209,950.051 "/>
<path clip-path="url(#clip082)" d="M752.936 915.201 L752.936 1064.28 L778.664 1064.28 L778.664 915.201 L752.936 915.201 L752.936 915.201  Z" fill="#009af9" fill-rule="evenodd" fill-opacity="0.2"/>
<polyline clip-path="url(#clip082)" style="stroke:#000000; stroke-linecap:round; stroke-linejoin:round; stroke-width:4; stroke-opacity:0.2; fill:none" points="752.936,915.201 752.936,1064.28 778.664,1064.28 778.664,915.201 752.936,915.201 "/>
<path clip-path="url(#clip082)" d="M778.664 911.329 L778.664 1064.28 L804.391 1064.28 L804.391 911.329 L778.664 911.329 L778.664 911.329  Z" fill="#009af9" fill-rule="evenodd" fill-opacity="0.2"/>
<polyline clip-path="url(#clip082)" style="stroke:#000000; stroke-linecap:round; stroke-linejoin:round; stroke-width:4; stroke-opacity:0.2; fill:none" points="778.664,911.329 778.664,1064.28 804.391,1064.28 804.391,911.329 778.664,911.329 "/>
<path clip-path="url(#clip082)" d="M804.391 893.904 L804.391 1064.28 L830.118 1064.28 L830.118 893.904 L804.391 893.904 L804.391 893.904  Z" fill="#009af9" fill-rule="evenodd" fill-opacity="0.2"/>
<polyline clip-path="url(#clip082)" style="stroke:#000000; stroke-linecap:round; stroke-linejoin:round; stroke-width:4; stroke-opacity:0.2; fill:none" points="804.391,893.904 804.391,1064.28 830.118,1064.28 830.118,893.904 804.391,893.904 "/>
<path clip-path="url(#clip082)" d="M830.118 855.182 L830.118 1064.28 L855.845 1064.28 L855.845 855.182 L830.118 855.182 L830.118 855.182  Z" fill="#009af9" fill-rule="evenodd" fill-opacity="0.2"/>
<polyline clip-path="url(#clip082)" style="stroke:#000000; stroke-linecap:round; stroke-linejoin:round; stroke-width:4; stroke-opacity:0.2; fill:none" points="830.118,855.182 830.118,1064.28 855.845,1064.28 855.845,855.182 830.118,855.182 "/>
<path clip-path="url(#clip082)" d="M855.845 839.693 L855.845 1064.28 L881.572 1064.28 L881.572 839.693 L855.845 839.693 L855.845 839.693  Z" fill="#009af9" fill-rule="evenodd" fill-opacity="0.2"/>
<polyline clip-path="url(#clip082)" style="stroke:#000000; stroke-linecap:round; stroke-linejoin:round; stroke-width:4; stroke-opacity:0.2; fill:none" points="855.845,839.693 855.845,1064.28 881.572,1064.28 881.572,839.693 855.845,839.693 "/>
<path clip-path="url(#clip082)" d="M881.572 758.376 L881.572 1064.28 L907.299 1064.28 L907.299 758.376 L881.572 758.376 L881.572 758.376  Z" fill="#009af9" fill-rule="evenodd" fill-opacity="0.2"/>
<polyline clip-path="url(#clip082)" style="stroke:#000000; stroke-linecap:round; stroke-linejoin:round; stroke-width:4; stroke-opacity:0.2; fill:none" points="881.572,758.376 881.572,1064.28 907.299,1064.28 907.299,758.376 881.572,758.376 "/>
<path clip-path="url(#clip082)" d="M907.299 748.696 L907.299 1064.28 L933.026 1064.28 L933.026 748.696 L907.299 748.696 L907.299 748.696  Z" fill="#009af9" fill-rule="evenodd" fill-opacity="0.2"/>
<polyline clip-path="url(#clip082)" style="stroke:#000000; stroke-linecap:round; stroke-linejoin:round; stroke-width:4; stroke-opacity:0.2; fill:none" points="907.299,748.696 907.299,1064.28 933.026,1064.28 933.026,748.696 907.299,748.696 "/>
<path clip-path="url(#clip082)" d="M933.026 708.038 L933.026 1064.28 L958.753 1064.28 L958.753 708.038 L933.026 708.038 L933.026 708.038  Z" fill="#009af9" fill-rule="evenodd" fill-opacity="0.2"/>
<polyline clip-path="url(#clip082)" style="stroke:#000000; stroke-linecap:round; stroke-linejoin:round; stroke-width:4; stroke-opacity:0.2; fill:none" points="933.026,708.038 933.026,1064.28 958.753,1064.28 958.753,708.038 933.026,708.038 "/>
<path clip-path="url(#clip082)" d="M958.753 626.721 L958.753 1064.28 L984.48 1064.28 L984.48 626.721 L958.753 626.721 L958.753 626.721  Z" fill="#009af9" fill-rule="evenodd" fill-opacity="0.2"/>
<polyline clip-path="url(#clip082)" style="stroke:#000000; stroke-linecap:round; stroke-linejoin:round; stroke-width:4; stroke-opacity:0.2; fill:none" points="958.753,626.721 958.753,1064.28 984.48,1064.28 984.48,626.721 958.753,626.721 "/>
<path clip-path="url(#clip082)" d="M984.48 572.51 L984.48 1064.28 L1010.21 1064.28 L1010.21 572.51 L984.48 572.51 L984.48 572.51  Z" fill="#009af9" fill-rule="evenodd" fill-opacity="0.2"/>
<polyline clip-path="url(#clip082)" style="stroke:#000000; stroke-linecap:round; stroke-linejoin:round; stroke-width:4; stroke-opacity:0.2; fill:none" points="984.48,572.51 984.48,1064.28 1010.21,1064.28 1010.21,572.51 984.48,572.51 "/>
<path clip-path="url(#clip082)" d="M1010.21 514.427 L1010.21 1064.28 L1035.93 1064.28 L1035.93 514.427 L1010.21 514.427 L1010.21 514.427  Z" fill="#009af9" fill-rule="evenodd" fill-opacity="0.2"/>
<polyline clip-path="url(#clip082)" style="stroke:#000000; stroke-linecap:round; stroke-linejoin:round; stroke-width:4; stroke-opacity:0.2; fill:none" points="1010.21,514.427 1010.21,1064.28 1035.93,1064.28 1035.93,514.427 1010.21,514.427 "/>
<path clip-path="url(#clip082)" d="M1035.93 446.663 L1035.93 1064.28 L1061.66 1064.28 L1061.66 446.663 L1035.93 446.663 L1035.93 446.663  Z" fill="#009af9" fill-rule="evenodd" fill-opacity="0.2"/>
<polyline clip-path="url(#clip082)" style="stroke:#000000; stroke-linecap:round; stroke-linejoin:round; stroke-width:4; stroke-opacity:0.2; fill:none" points="1035.93,446.663 1035.93,1064.28 1061.66,1064.28 1061.66,446.663 1035.93,446.663 "/>
<path clip-path="url(#clip082)" d="M1061.66 388.58 L1061.66 1064.28 L1087.39 1064.28 L1087.39 388.58 L1061.66 388.58 L1061.66 388.58  Z" fill="#009af9" fill-rule="evenodd" fill-opacity="0.2"/>
<polyline clip-path="url(#clip082)" style="stroke:#000000; stroke-linecap:round; stroke-linejoin:round; stroke-width:4; stroke-opacity:0.2; fill:none" points="1061.66,388.58 1061.66,1064.28 1087.39,1064.28 1087.39,388.58 1061.66,388.58 "/>
<path clip-path="url(#clip082)" d="M1087.39 295.647 L1087.39 1064.28 L1113.12 1064.28 L1113.12 295.647 L1087.39 295.647 L1087.39 295.647  Z" fill="#009af9" fill-rule="evenodd" fill-opacity="0.2"/>
<polyline clip-path="url(#clip082)" style="stroke:#000000; stroke-linecap:round; stroke-linejoin:round; stroke-width:4; stroke-opacity:0.2; fill:none" points="1087.39,295.647 1087.39,1064.28 1113.12,1064.28 1113.12,295.647 1087.39,295.647 "/>
<path clip-path="url(#clip082)" d="M1113.12 291.774 L1113.12 1064.28 L1138.84 1064.28 L1138.84 291.774 L1113.12 291.774 L1113.12 291.774  Z" fill="#009af9" fill-rule="evenodd" fill-opacity="0.2"/>
<polyline clip-path="url(#clip082)" style="stroke:#000000; stroke-linecap:round; stroke-linejoin:round; stroke-width:4; stroke-opacity:0.2; fill:none" points="1113.12,291.774 1113.12,1064.28 1138.84,1064.28 1138.84,291.774 1113.12,291.774 "/>
<path clip-path="url(#clip082)" d="M1138.84 239.5 L1138.84 1064.28 L1164.57 1064.28 L1164.57 239.5 L1138.84 239.5 L1138.84 239.5  Z" fill="#009af9" fill-rule="evenodd" fill-opacity="0.2"/>
<polyline clip-path="url(#clip082)" style="stroke:#000000; stroke-linecap:round; stroke-linejoin:round; stroke-width:4; stroke-opacity:0.2; fill:none" points="1138.84,239.5 1138.84,1064.28 1164.57,1064.28 1164.57,239.5 1138.84,239.5 "/>
<path clip-path="url(#clip082)" d="M1164.57 136.886 L1164.57 1064.28 L1190.3 1064.28 L1190.3 136.886 L1164.57 136.886 L1164.57 136.886  Z" fill="#009af9" fill-rule="evenodd" fill-opacity="0.2"/>
<polyline clip-path="url(#clip082)" style="stroke:#000000; stroke-linecap:round; stroke-linejoin:round; stroke-width:4; stroke-opacity:0.2; fill:none" points="1164.57,136.886 1164.57,1064.28 1190.3,1064.28 1190.3,136.886 1164.57,136.886 "/>
<path clip-path="url(#clip082)" d="M1190.3 158.183 L1190.3 1064.28 L1216.02 1064.28 L1216.02 158.183 L1190.3 158.183 L1190.3 158.183  Z" fill="#009af9" fill-rule="evenodd" fill-opacity="0.2"/>
<polyline clip-path="url(#clip082)" style="stroke:#000000; stroke-linecap:round; stroke-linejoin:round; stroke-width:4; stroke-opacity:0.2; fill:none" points="1190.3,158.183 1190.3,1064.28 1216.02,1064.28 1216.02,158.183 1190.3,158.183 "/>
<path clip-path="url(#clip082)" d="M1216.02 76.8665 L1216.02 1064.28 L1241.75 1064.28 L1241.75 76.8665 L1216.02 76.8665 L1216.02 76.8665  Z" fill="#009af9" fill-rule="evenodd" fill-opacity="0.2"/>
<polyline clip-path="url(#clip082)" style="stroke:#000000; stroke-linecap:round; stroke-linejoin:round; stroke-width:4; stroke-opacity:0.2; fill:none" points="1216.02,76.8665 1216.02,1064.28 1241.75,1064.28 1241.75,76.8665 1216.02,76.8665 "/>
<path clip-path="url(#clip082)" d="M1241.75 239.5 L1241.75 1064.28 L1267.48 1064.28 L1267.48 239.5 L1241.75 239.5 L1241.75 239.5  Z" fill="#009af9" fill-rule="evenodd" fill-opacity="0.2"/>
<polyline clip-path="url(#clip082)" style="stroke:#000000; stroke-linecap:round; stroke-linejoin:round; stroke-width:4; stroke-opacity:0.2; fill:none" points="1241.75,239.5 1241.75,1064.28 1267.48,1064.28 1267.48,239.5 1241.75,239.5 "/>
<path clip-path="url(#clip082)" d="M1267.48 148.503 L1267.48 1064.28 L1293.2 1064.28 L1293.2 148.503 L1267.48 148.503 L1267.48 148.503  Z" fill="#009af9" fill-rule="evenodd" fill-opacity="0.2"/>
<polyline clip-path="url(#clip082)" style="stroke:#000000; stroke-linecap:round; stroke-linejoin:round; stroke-width:4; stroke-opacity:0.2; fill:none" points="1267.48,148.503 1267.48,1064.28 1293.2,1064.28 1293.2,148.503 1267.48,148.503 "/>
<path clip-path="url(#clip082)" d="M1293.2 150.439 L1293.2 1064.28 L1318.93 1064.28 L1318.93 150.439 L1293.2 150.439 L1293.2 150.439  Z" fill="#009af9" fill-rule="evenodd" fill-opacity="0.2"/>
<polyline clip-path="url(#clip082)" style="stroke:#000000; stroke-linecap:round; stroke-linejoin:round; stroke-width:4; stroke-opacity:0.2; fill:none" points="1293.2,150.439 1293.2,1064.28 1318.93,1064.28 1318.93,150.439 1293.2,150.439 "/>
<path clip-path="url(#clip082)" d="M1318.93 150.439 L1318.93 1064.28 L1344.66 1064.28 L1344.66 150.439 L1318.93 150.439 L1318.93 150.439  Z" fill="#009af9" fill-rule="evenodd" fill-opacity="0.2"/>
<polyline clip-path="url(#clip082)" style="stroke:#000000; stroke-linecap:round; stroke-linejoin:round; stroke-width:4; stroke-opacity:0.2; fill:none" points="1318.93,150.439 1318.93,1064.28 1344.66,1064.28 1344.66,150.439 1318.93,150.439 "/>
<path clip-path="url(#clip082)" d="M1344.66 251.116 L1344.66 1064.28 L1370.39 1064.28 L1370.39 251.116 L1344.66 251.116 L1344.66 251.116  Z" fill="#009af9" fill-rule="evenodd" fill-opacity="0.2"/>
<polyline clip-path="url(#clip082)" style="stroke:#000000; stroke-linecap:round; stroke-linejoin:round; stroke-width:4; stroke-opacity:0.2; fill:none" points="1344.66,251.116 1344.66,1064.28 1370.39,1064.28 1370.39,251.116 1344.66,251.116 "/>
<path clip-path="url(#clip082)" d="M1370.39 326.624 L1370.39 1064.28 L1396.11 1064.28 L1396.11 326.624 L1370.39 326.624 L1370.39 326.624  Z" fill="#009af9" fill-rule="evenodd" fill-opacity="0.2"/>
<polyline clip-path="url(#clip082)" style="stroke:#000000; stroke-linecap:round; stroke-linejoin:round; stroke-width:4; stroke-opacity:0.2; fill:none" points="1370.39,326.624 1370.39,1064.28 1396.11,1064.28 1396.11,326.624 1370.39,326.624 "/>
<path clip-path="url(#clip082)" d="M1396.11 415.685 L1396.11 1064.28 L1421.84 1064.28 L1421.84 415.685 L1396.11 415.685 L1396.11 415.685  Z" fill="#009af9" fill-rule="evenodd" fill-opacity="0.2"/>
<polyline clip-path="url(#clip082)" style="stroke:#000000; stroke-linecap:round; stroke-linejoin:round; stroke-width:4; stroke-opacity:0.2; fill:none" points="1396.11,415.685 1396.11,1064.28 1421.84,1064.28 1421.84,415.685 1396.11,415.685 "/>
<path clip-path="url(#clip082)" d="M1421.84 394.388 L1421.84 1064.28 L1447.57 1064.28 L1447.57 394.388 L1421.84 394.388 L1421.84 394.388  Z" fill="#009af9" fill-rule="evenodd" fill-opacity="0.2"/>
<polyline clip-path="url(#clip082)" style="stroke:#000000; stroke-linecap:round; stroke-linejoin:round; stroke-width:4; stroke-opacity:0.2; fill:none" points="1421.84,394.388 1421.84,1064.28 1447.57,1064.28 1447.57,394.388 1421.84,394.388 "/>
<path clip-path="url(#clip082)" d="M1447.57 508.619 L1447.57 1064.28 L1473.29 1064.28 L1473.29 508.619 L1447.57 508.619 L1447.57 508.619  Z" fill="#009af9" fill-rule="evenodd" fill-opacity="0.2"/>
<polyline clip-path="url(#clip082)" style="stroke:#000000; stroke-linecap:round; stroke-linejoin:round; stroke-width:4; stroke-opacity:0.2; fill:none" points="1447.57,508.619 1447.57,1064.28 1473.29,1064.28 1473.29,508.619 1447.57,508.619 "/>
<path clip-path="url(#clip082)" d="M1473.29 558.957 L1473.29 1064.28 L1499.02 1064.28 L1499.02 558.957 L1473.29 558.957 L1473.29 558.957  Z" fill="#009af9" fill-rule="evenodd" fill-opacity="0.2"/>
<polyline clip-path="url(#clip082)" style="stroke:#000000; stroke-linecap:round; stroke-linejoin:round; stroke-width:4; stroke-opacity:0.2; fill:none" points="1473.29,558.957 1473.29,1064.28 1499.02,1064.28 1499.02,558.957 1473.29,558.957 "/>
<path clip-path="url(#clip082)" d="M1499.02 665.443 L1499.02 1064.28 L1524.75 1064.28 L1524.75 665.443 L1499.02 665.443 L1499.02 665.443  Z" fill="#009af9" fill-rule="evenodd" fill-opacity="0.2"/>
<polyline clip-path="url(#clip082)" style="stroke:#000000; stroke-linecap:round; stroke-linejoin:round; stroke-width:4; stroke-opacity:0.2; fill:none" points="1499.02,665.443 1499.02,1064.28 1524.75,1064.28 1524.75,665.443 1499.02,665.443 "/>
<path clip-path="url(#clip082)" d="M1524.75 719.654 L1524.75 1064.28 L1550.48 1064.28 L1550.48 719.654 L1524.75 719.654 L1524.75 719.654  Z" fill="#009af9" fill-rule="evenodd" fill-opacity="0.2"/>
<polyline clip-path="url(#clip082)" style="stroke:#000000; stroke-linecap:round; stroke-linejoin:round; stroke-width:4; stroke-opacity:0.2; fill:none" points="1524.75,719.654 1524.75,1064.28 1550.48,1064.28 1550.48,719.654 1524.75,719.654 "/>
<path clip-path="url(#clip082)" d="M1550.48 818.396 L1550.48 1064.28 L1576.2 1064.28 L1576.2 818.396 L1550.48 818.396 L1550.48 818.396  Z" fill="#009af9" fill-rule="evenodd" fill-opacity="0.2"/>
<polyline clip-path="url(#clip082)" style="stroke:#000000; stroke-linecap:round; stroke-linejoin:round; stroke-width:4; stroke-opacity:0.2; fill:none" points="1550.48,818.396 1550.48,1064.28 1576.2,1064.28 1576.2,818.396 1550.48,818.396 "/>
<path clip-path="url(#clip082)" d="M1576.2 870.671 L1576.2 1064.28 L1601.93 1064.28 L1601.93 870.671 L1576.2 870.671 L1576.2 870.671  Z" fill="#009af9" fill-rule="evenodd" fill-opacity="0.2"/>
<polyline clip-path="url(#clip082)" style="stroke:#000000; stroke-linecap:round; stroke-linejoin:round; stroke-width:4; stroke-opacity:0.2; fill:none" points="1576.2,870.671 1576.2,1064.28 1601.93,1064.28 1601.93,870.671 1576.2,870.671 "/>
<path clip-path="url(#clip082)" d="M1601.93 940.371 L1601.93 1064.28 L1627.66 1064.28 L1627.66 940.371 L1601.93 940.371 L1601.93 940.371  Z" fill="#009af9" fill-rule="evenodd" fill-opacity="0.2"/>
<polyline clip-path="url(#clip082)" style="stroke:#000000; stroke-linecap:round; stroke-linejoin:round; stroke-width:4; stroke-opacity:0.2; fill:none" points="1601.93,940.371 1601.93,1064.28 1627.66,1064.28 1627.66,940.371 1601.93,940.371 "/>
<path clip-path="url(#clip082)" d="M1627.66 979.093 L1627.66 1064.28 L1653.38 1064.28 L1653.38 979.093 L1627.66 979.093 L1627.66 979.093  Z" fill="#009af9" fill-rule="evenodd" fill-opacity="0.2"/>
<polyline clip-path="url(#clip082)" style="stroke:#000000; stroke-linecap:round; stroke-linejoin:round; stroke-width:4; stroke-opacity:0.2; fill:none" points="1627.66,979.093 1627.66,1064.28 1653.38,1064.28 1653.38,979.093 1627.66,979.093 "/>
<path clip-path="url(#clip082)" d="M1653.38 1004.26 L1653.38 1064.28 L1679.11 1064.28 L1679.11 1004.26 L1653.38 1004.26 L1653.38 1004.26  Z" fill="#009af9" fill-rule="evenodd" fill-opacity="0.2"/>
<polyline clip-path="url(#clip082)" style="stroke:#000000; stroke-linecap:round; stroke-linejoin:round; stroke-width:4; stroke-opacity:0.2; fill:none" points="1653.38,1004.26 1653.38,1064.28 1679.11,1064.28 1679.11,1004.26 1653.38,1004.26 "/>
<path clip-path="url(#clip082)" d="M1679.11 1027.5 L1679.11 1064.28 L1704.84 1064.28 L1704.84 1027.5 L1679.11 1027.5 L1679.11 1027.5  Z" fill="#009af9" fill-rule="evenodd" fill-opacity="0.2"/>
<polyline clip-path="url(#clip082)" style="stroke:#000000; stroke-linecap:round; stroke-linejoin:round; stroke-width:4; stroke-opacity:0.2; fill:none" points="1679.11,1027.5 1679.11,1064.28 1704.84,1064.28 1704.84,1027.5 1679.11,1027.5 "/>
<path clip-path="url(#clip082)" d="M1704.84 1048.79 L1704.84 1064.28 L1730.56 1064.28 L1730.56 1048.79 L1704.84 1048.79 L1704.84 1048.79  Z" fill="#009af9" fill-rule="evenodd" fill-opacity="0.2"/>
<polyline clip-path="url(#clip082)" style="stroke:#000000; stroke-linecap:round; stroke-linejoin:round; stroke-width:4; stroke-opacity:0.2; fill:none" points="1704.84,1048.79 1704.84,1064.28 1730.56,1064.28 1730.56,1048.79 1704.84,1048.79 "/>
<path clip-path="url(#clip082)" d="M1730.56 1044.92 L1730.56 1064.28 L1756.29 1064.28 L1756.29 1044.92 L1730.56 1044.92 L1730.56 1044.92  Z" fill="#009af9" fill-rule="evenodd" fill-opacity="0.2"/>
<polyline clip-path="url(#clip082)" style="stroke:#000000; stroke-linecap:round; stroke-linejoin:round; stroke-width:4; stroke-opacity:0.2; fill:none" points="1730.56,1044.92 1730.56,1064.28 1756.29,1064.28 1756.29,1044.92 1730.56,1044.92 "/>
<path clip-path="url(#clip082)" d="M1756.29 1060.41 L1756.29 1064.28 L1782.02 1064.28 L1782.02 1060.41 L1756.29 1060.41 L1756.29 1060.41  Z" fill="#009af9" fill-rule="evenodd" fill-opacity="0.2"/>
<polyline clip-path="url(#clip082)" style="stroke:#000000; stroke-linecap:round; stroke-linejoin:round; stroke-width:4; stroke-opacity:0.2; fill:none" points="1756.29,1060.41 1756.29,1064.28 1782.02,1064.28 1782.02,1060.41 1756.29,1060.41 "/>
<circle clip-path="url(#clip082)" style="fill:#009af9; stroke:none; fill-opacity:0" cx="276.986" cy="1060.41" r="2"/>
<circle clip-path="url(#clip082)" style="fill:#009af9; stroke:none; fill-opacity:0" cx="302.713" cy="1060.41" r="2"/>
<circle clip-path="url(#clip082)" style="fill:#009af9; stroke:none; fill-opacity:0" cx="328.44" cy="1064.28" r="2"/>
<circle clip-path="url(#clip082)" style="fill:#009af9; stroke:none; fill-opacity:0" cx="354.167" cy="1060.41" r="2"/>
<circle clip-path="url(#clip082)" style="fill:#009af9; stroke:none; fill-opacity:0" cx="379.894" cy="1062.35" r="2"/>
<circle clip-path="url(#clip082)" style="fill:#009af9; stroke:none; fill-opacity:0" cx="405.621" cy="1060.41" r="2"/>
<circle clip-path="url(#clip082)" style="fill:#009af9; stroke:none; fill-opacity:0" cx="431.348" cy="1060.41" r="2"/>
<circle clip-path="url(#clip082)" style="fill:#009af9; stroke:none; fill-opacity:0" cx="457.075" cy="1054.6" r="2"/>
<circle clip-path="url(#clip082)" style="fill:#009af9; stroke:none; fill-opacity:0" cx="482.802" cy="1056.54" r="2"/>
<circle clip-path="url(#clip082)" style="fill:#009af9; stroke:none; fill-opacity:0" cx="508.529" cy="1056.54" r="2"/>
<circle clip-path="url(#clip082)" style="fill:#009af9; stroke:none; fill-opacity:0" cx="534.256" cy="1048.79" r="2"/>
<circle clip-path="url(#clip082)" style="fill:#009af9; stroke:none; fill-opacity:0" cx="559.984" cy="1046.86" r="2"/>
<circle clip-path="url(#clip082)" style="fill:#009af9; stroke:none; fill-opacity:0" cx="585.711" cy="1029.43" r="2"/>
<circle clip-path="url(#clip082)" style="fill:#009af9; stroke:none; fill-opacity:0" cx="611.438" cy="1035.24" r="2"/>
<circle clip-path="url(#clip082)" style="fill:#009af9; stroke:none; fill-opacity:0" cx="637.165" cy="1010.07" r="2"/>
<circle clip-path="url(#clip082)" style="fill:#009af9; stroke:none; fill-opacity:0" cx="662.892" cy="1010.07" r="2"/>
<circle clip-path="url(#clip082)" style="fill:#009af9; stroke:none; fill-opacity:0" cx="688.619" cy="1010.07" r="2"/>
<circle clip-path="url(#clip082)" style="fill:#009af9; stroke:none; fill-opacity:0" cx="714.346" cy="992.645" r="2"/>
<circle clip-path="url(#clip082)" style="fill:#009af9; stroke:none; fill-opacity:0" cx="740.073" cy="950.051" r="2"/>
<circle clip-path="url(#clip082)" style="fill:#009af9; stroke:none; fill-opacity:0" cx="765.8" cy="915.201" r="2"/>
<circle clip-path="url(#clip082)" style="fill:#009af9; stroke:none; fill-opacity:0" cx="791.527" cy="911.329" r="2"/>
<circle clip-path="url(#clip082)" style="fill:#009af9; stroke:none; fill-opacity:0" cx="817.254" cy="893.904" r="2"/>
<circle clip-path="url(#clip082)" style="fill:#009af9; stroke:none; fill-opacity:0" cx="842.981" cy="855.182" r="2"/>
<circle clip-path="url(#clip082)" style="fill:#009af9; stroke:none; fill-opacity:0" cx="868.708" cy="839.693" r="2"/>
<circle clip-path="url(#clip082)" style="fill:#009af9; stroke:none; fill-opacity:0" cx="894.435" cy="758.376" r="2"/>
<circle clip-path="url(#clip082)" style="fill:#009af9; stroke:none; fill-opacity:0" cx="920.162" cy="748.696" r="2"/>
<circle clip-path="url(#clip082)" style="fill:#009af9; stroke:none; fill-opacity:0" cx="945.889" cy="708.038" r="2"/>
<circle clip-path="url(#clip082)" style="fill:#009af9; stroke:none; fill-opacity:0" cx="971.616" cy="626.721" r="2"/>
<circle clip-path="url(#clip082)" style="fill:#009af9; stroke:none; fill-opacity:0" cx="997.343" cy="572.51" r="2"/>
<circle clip-path="url(#clip082)" style="fill:#009af9; stroke:none; fill-opacity:0" cx="1023.07" cy="514.427" r="2"/>
<circle clip-path="url(#clip082)" style="fill:#009af9; stroke:none; fill-opacity:0" cx="1048.8" cy="446.663" r="2"/>
<circle clip-path="url(#clip082)" style="fill:#009af9; stroke:none; fill-opacity:0" cx="1074.52" cy="388.58" r="2"/>
<circle clip-path="url(#clip082)" style="fill:#009af9; stroke:none; fill-opacity:0" cx="1100.25" cy="295.647" r="2"/>
<circle clip-path="url(#clip082)" style="fill:#009af9; stroke:none; fill-opacity:0" cx="1125.98" cy="291.774" r="2"/>
<circle clip-path="url(#clip082)" style="fill:#009af9; stroke:none; fill-opacity:0" cx="1151.71" cy="239.5" r="2"/>
<circle clip-path="url(#clip082)" style="fill:#009af9; stroke:none; fill-opacity:0" cx="1177.43" cy="136.886" r="2"/>
<circle clip-path="url(#clip082)" style="fill:#009af9; stroke:none; fill-opacity:0" cx="1203.16" cy="158.183" r="2"/>
<circle clip-path="url(#clip082)" style="fill:#009af9; stroke:none; fill-opacity:0" cx="1228.89" cy="76.8665" r="2"/>
<circle clip-path="url(#clip082)" style="fill:#009af9; stroke:none; fill-opacity:0" cx="1254.61" cy="239.5" r="2"/>
<circle clip-path="url(#clip082)" style="fill:#009af9; stroke:none; fill-opacity:0" cx="1280.34" cy="148.503" r="2"/>
<circle clip-path="url(#clip082)" style="fill:#009af9; stroke:none; fill-opacity:0" cx="1306.07" cy="150.439" r="2"/>
<circle clip-path="url(#clip082)" style="fill:#009af9; stroke:none; fill-opacity:0" cx="1331.8" cy="150.439" r="2"/>
<circle clip-path="url(#clip082)" style="fill:#009af9; stroke:none; fill-opacity:0" cx="1357.52" cy="251.116" r="2"/>
<circle clip-path="url(#clip082)" style="fill:#009af9; stroke:none; fill-opacity:0" cx="1383.25" cy="326.624" r="2"/>
<circle clip-path="url(#clip082)" style="fill:#009af9; stroke:none; fill-opacity:0" cx="1408.98" cy="415.685" r="2"/>
<circle clip-path="url(#clip082)" style="fill:#009af9; stroke:none; fill-opacity:0" cx="1434.7" cy="394.388" r="2"/>
<circle clip-path="url(#clip082)" style="fill:#009af9; stroke:none; fill-opacity:0" cx="1460.43" cy="508.619" r="2"/>
<circle clip-path="url(#clip082)" style="fill:#009af9; stroke:none; fill-opacity:0" cx="1486.16" cy="558.957" r="2"/>
<circle clip-path="url(#clip082)" style="fill:#009af9; stroke:none; fill-opacity:0" cx="1511.88" cy="665.443" r="2"/>
<circle clip-path="url(#clip082)" style="fill:#009af9; stroke:none; fill-opacity:0" cx="1537.61" cy="719.654" r="2"/>
<circle clip-path="url(#clip082)" style="fill:#009af9; stroke:none; fill-opacity:0" cx="1563.34" cy="818.396" r="2"/>
<circle clip-path="url(#clip082)" style="fill:#009af9; stroke:none; fill-opacity:0" cx="1589.07" cy="870.671" r="2"/>
<circle clip-path="url(#clip082)" style="fill:#009af9; stroke:none; fill-opacity:0" cx="1614.79" cy="940.371" r="2"/>
<circle clip-path="url(#clip082)" style="fill:#009af9; stroke:none; fill-opacity:0" cx="1640.52" cy="979.093" r="2"/>
<circle clip-path="url(#clip082)" style="fill:#009af9; stroke:none; fill-opacity:0" cx="1666.25" cy="1004.26" r="2"/>
<circle clip-path="url(#clip082)" style="fill:#009af9; stroke:none; fill-opacity:0" cx="1691.97" cy="1027.5" r="2"/>
<circle clip-path="url(#clip082)" style="fill:#009af9; stroke:none; fill-opacity:0" cx="1717.7" cy="1048.79" r="2"/>
<circle clip-path="url(#clip082)" style="fill:#009af9; stroke:none; fill-opacity:0" cx="1743.43" cy="1044.92" r="2"/>
<circle clip-path="url(#clip082)" style="fill:#009af9; stroke:none; fill-opacity:0" cx="1769.16" cy="1060.41" r="2"/>
<polyline clip-path="url(#clip082)" style="stroke:#e26f46; stroke-linecap:round; stroke-linejoin:round; stroke-width:4; stroke-opacity:1; fill:none" points="160.382,1064.28 169.127,1064.28 177.871,1064.28 186.616,1064.27 195.36,1064.26 204.105,1064.23 212.85,1064.18 221.594,1064.1 230.339,1063.95 239.083,1063.74 247.828,1063.46 256.572,1063.11 265.317,1062.73 274.062,1062.35 282.806,1062.01 291.551,1061.76 300.295,1061.61 309.04,1061.55 317.784,1061.56 326.529,1061.58 335.274,1061.58 344.018,1061.55 352.763,1061.48 361.507,1061.38 370.252,1061.26 378.996,1061.14 387.741,1061.01 396.486,1060.85 405.23,1060.62 413.975,1060.29 422.719,1059.83 431.464,1059.25 440.208,1058.58 448.953,1057.87 457.697,1057.16 466.442,1056.49 475.187,1055.84 483.931,1055.18 492.676,1054.46 501.42,1053.6 510.165,1052.57 518.909,1051.33 527.654,1049.86 536.399,1048.15 545.143,1046.21 553.888,1044.06 562.632,1041.75 571.377,1039.33 580.121,1036.85 588.866,1034.32 597.611,1031.71 606.355,1028.99 615.1,1026.12 623.844,1023.12 632.589,1020.06 641.333,1017.01 650.078,1014.01 658.822,1010.97 667.567,1007.74 676.312,1004.12 685.056,999.909 693.801,994.962 702.545,989.197 711.29,982.582 720.034,975.133 728.779,966.929 737.524,958.141 746.268,949.045 755.013,939.993 763.757,931.341 772.502,923.352 781.246,916.099 789.991,909.41 798.736,902.892 807.48,896.02 816.225,888.269 824.969,879.259 833.714,868.841 842.458,857.119 851.203,844.395 859.948,831.069 868.692,817.534 877.437,804.078 886.181,790.838 894.926,777.771 903.67,764.661 912.415,751.176 921.159,736.943 929.904,721.652 938.649,705.136 947.393,687.405 956.138,668.623 964.882,649.039 973.627,628.91 982.371,608.434 991.116,587.738 999.861,566.887 1008.61,545.93 1017.35,524.921 1026.09,503.919 1034.84,482.945 1043.58,461.952 1052.33,440.834 1061.07,419.505 1069.82,397.997 1078.56,376.532 1087.31,355.483 1096.05,335.238 1104.8,316.012 1113.54,297.711 1122.28,279.936 1131.03,262.156 1139.77,243.978 1148.52,225.405 1157.26,206.951 1166.01,189.562 1174.75,174.354 1183.5,162.293 1192.24,153.944 1200.99,149.369 1209.73,148.17 1218.47,149.606 1227.22,152.724 1235.96,156.483 1244.71,159.905 1253.45,162.263 1262.2,163.27 1270.94,163.164 1279.69,162.651 1288.43,162.688 1297.18,164.225 1305.92,168.011 1314.66,174.515 1323.41,183.96 1332.15,196.412 1340.9,211.838 1349.64,230.125 1358.39,251.015 1367.13,274.03 1375.88,298.418 1384.62,323.2 1393.37,347.347 1402.11,370.036 1410.86,390.896 1419.6,410.125 1428.34,428.415 1437.09,446.712 1445.83,465.91 1454.58,486.606 1463.32,508.992 1472.07,532.904 1480.81,557.966 1489.56,583.754 1498.3,609.918 1507.05,636.23 1515.79,662.573 1524.53,688.88 1533.28,715.075 1542.02,741.023 1550.77,766.539 1559.51,791.424 1568.26,815.507 1577,838.673 1585.75,860.85 1594.49,881.966 1603.24,901.924 1611.98,920.589 1620.72,937.811 1629.47,953.468 1638.21,967.498 1646.96,979.926 1655.7,990.86 1664.45,1000.48 1673.19,1008.97 1681.94,1016.52 1690.68,1023.25 1699.43,1029.21 1708.17,1034.44 1716.91,1038.95 1725.66,1042.83 1734.4,1046.19 1743.15,1049.16 1751.89,1051.84 1760.64,1054.29 1769.38,1056.5 1778.13,1058.42 1786.87,1060.04 1795.62,1061.34 1804.36,1062.33 1813.11,1063.04 1821.85,1063.54 1830.59,1063.86 1839.34,1064.05 1848.08,1064.17 1856.83,1064.23 1865.57,1064.26 1874.32,1064.27 1883.06,1064.28 1891.81,1064.28 1900.55,1064.28 "/>
<polyline clip-path="url(#clip082)" style="stroke:#3da44d; stroke-linecap:round; stroke-linejoin:round; stroke-width:16; stroke-opacity:1; fill:none" points="1308.11,1064.28 1308.11,76.8665 "/>
<path clip-path="url(#clip080)" d="M1342.65 237.653 L1891.27 237.653 L1891.27 82.1328 L1342.65 82.1328  Z" fill="#ffffff" fill-rule="evenodd" fill-opacity="1"/>
<polyline clip-path="url(#clip080)" style="stroke:#000000; stroke-linecap:round; stroke-linejoin:round; stroke-width:4; stroke-opacity:1; fill:none" points="1342.65,237.653 1891.27,237.653 1891.27,82.1328 1342.65,82.1328 1342.65,237.653 "/>
<polyline clip-path="url(#clip080)" style="stroke:#e26f46; stroke-linecap:round; stroke-linejoin:round; stroke-width:4; stroke-opacity:1; fill:none" points="1363.14,133.973 1486.11,133.973 "/>
<path clip-path="url(#clip080)" d="M1511.29 120.535 L1511.29 133.521 L1517.17 133.521 Q1520.43 133.521 1522.21 131.832 Q1523.99 130.142 1523.99 127.017 Q1523.99 123.915 1522.21 122.225 Q1520.43 120.535 1517.17 120.535 L1511.29 120.535 M1506.61 116.693 L1517.17 116.693 Q1522.98 116.693 1525.94 119.332 Q1528.92 121.947 1528.92 127.017 Q1528.92 132.132 1525.94 134.748 Q1522.98 137.364 1517.17 137.364 L1511.29 137.364 L1511.29 151.253 L1506.61 151.253 L1506.61 116.693 Z" fill="#000000" fill-rule="evenodd" fill-opacity="1" /><path clip-path="url(#clip080)" d="M1543.37 128.313 Q1539.94 128.313 1537.95 130.998 Q1535.96 133.66 1535.96 138.313 Q1535.96 142.966 1537.93 145.651 Q1539.92 148.313 1543.37 148.313 Q1546.77 148.313 1548.76 145.628 Q1550.75 142.943 1550.75 138.313 Q1550.75 133.707 1548.76 131.021 Q1546.77 128.313 1543.37 128.313 M1543.37 124.702 Q1548.92 124.702 1552.1 128.313 Q1555.27 131.924 1555.27 138.313 Q1555.27 144.679 1552.1 148.313 Q1548.92 151.924 1543.37 151.924 Q1537.79 151.924 1534.62 148.313 Q1531.47 144.679 1531.47 138.313 Q1531.47 131.924 1534.62 128.313 Q1537.79 124.702 1543.37 124.702 Z" fill="#000000" fill-rule="evenodd" fill-opacity="1" /><path clip-path="url(#clip080)" d="M1578.85 126.091 L1578.85 130.119 Q1577.05 129.193 1575.1 128.73 Q1573.16 128.267 1571.08 128.267 Q1567.91 128.267 1566.31 129.239 Q1564.73 130.211 1564.73 132.156 Q1564.73 133.637 1565.87 134.494 Q1567 135.327 1570.43 136.091 L1571.89 136.415 Q1576.42 137.387 1578.32 139.169 Q1580.24 140.929 1580.24 144.1 Q1580.24 147.711 1577.37 149.818 Q1574.53 151.924 1569.53 151.924 Q1567.44 151.924 1565.17 151.507 Q1562.93 151.114 1560.43 150.304 L1560.43 145.906 Q1562.79 147.132 1565.08 147.757 Q1567.37 148.359 1569.62 148.359 Q1572.63 148.359 1574.25 147.341 Q1575.87 146.299 1575.87 144.424 Q1575.87 142.688 1574.69 141.762 Q1573.53 140.836 1569.57 139.98 L1568.09 139.632 Q1564.13 138.799 1562.37 137.086 Q1560.61 135.35 1560.61 132.341 Q1560.61 128.683 1563.21 126.693 Q1565.8 124.702 1570.57 124.702 Q1572.93 124.702 1575.01 125.049 Q1577.1 125.396 1578.85 126.091 Z" fill="#000000" fill-rule="evenodd" fill-opacity="1" /><path clip-path="url(#clip080)" d="M1591.24 117.966 L1591.24 125.327 L1600.01 125.327 L1600.01 128.637 L1591.24 128.637 L1591.24 142.711 Q1591.24 145.882 1592.1 146.785 Q1592.98 147.688 1595.64 147.688 L1600.01 147.688 L1600.01 151.253 L1595.64 151.253 Q1590.71 151.253 1588.83 149.424 Q1586.96 147.572 1586.96 142.711 L1586.96 128.637 L1583.83 128.637 L1583.83 125.327 L1586.96 125.327 L1586.96 117.966 L1591.24 117.966 Z" fill="#000000" fill-rule="evenodd" fill-opacity="1" /><path clip-path="url(#clip080)" d="M1627.79 137.225 L1627.79 139.308 L1608.21 139.308 Q1608.48 143.706 1610.85 146.021 Q1613.23 148.313 1617.47 148.313 Q1619.92 148.313 1622.21 147.711 Q1624.53 147.109 1626.79 145.906 L1626.79 149.933 Q1624.5 150.906 1622.1 151.415 Q1619.69 151.924 1617.21 151.924 Q1611.01 151.924 1607.37 148.313 Q1603.76 144.702 1603.76 138.544 Q1603.76 132.179 1607.19 128.452 Q1610.64 124.702 1616.47 124.702 Q1621.7 124.702 1624.73 128.082 Q1627.79 131.438 1627.79 137.225 M1623.53 135.975 Q1623.48 132.48 1621.56 130.396 Q1619.66 128.313 1616.52 128.313 Q1612.95 128.313 1610.8 130.327 Q1608.67 132.341 1608.35 135.998 L1623.53 135.975 Z" fill="#000000" fill-rule="evenodd" fill-opacity="1" /><path clip-path="url(#clip080)" d="M1649.8 129.308 Q1649.09 128.892 1648.23 128.707 Q1647.4 128.498 1646.38 128.498 Q1642.77 128.498 1640.82 130.859 Q1638.9 133.197 1638.9 137.595 L1638.9 151.253 L1634.62 151.253 L1634.62 125.327 L1638.9 125.327 L1638.9 129.355 Q1640.24 126.994 1642.4 125.859 Q1644.55 124.702 1647.63 124.702 Q1648.07 124.702 1648.6 124.771 Q1649.13 124.818 1649.78 124.933 L1649.8 129.308 Z" fill="#000000" fill-rule="evenodd" fill-opacity="1" /><path clip-path="url(#clip080)" d="M1654.27 125.327 L1658.53 125.327 L1658.53 151.253 L1654.27 151.253 L1654.27 125.327 M1654.27 115.234 L1658.53 115.234 L1658.53 120.628 L1654.27 120.628 L1654.27 115.234 Z" fill="#000000" fill-rule="evenodd" fill-opacity="1" /><path clip-path="url(#clip080)" d="M1677.49 128.313 Q1674.06 128.313 1672.07 130.998 Q1670.08 133.66 1670.08 138.313 Q1670.08 142.966 1672.05 145.651 Q1674.04 148.313 1677.49 148.313 Q1680.89 148.313 1682.88 145.628 Q1684.87 142.943 1684.87 138.313 Q1684.87 133.707 1682.88 131.021 Q1680.89 128.313 1677.49 128.313 M1677.49 124.702 Q1683.04 124.702 1686.22 128.313 Q1689.39 131.924 1689.39 138.313 Q1689.39 144.679 1686.22 148.313 Q1683.04 151.924 1677.49 151.924 Q1671.91 151.924 1668.74 148.313 Q1665.59 144.679 1665.59 138.313 Q1665.59 131.924 1668.74 128.313 Q1671.91 124.702 1677.49 124.702 Z" fill="#000000" fill-rule="evenodd" fill-opacity="1" /><path clip-path="url(#clip080)" d="M1711.47 129.308 Q1710.75 128.892 1709.9 128.707 Q1709.06 128.498 1708.04 128.498 Q1704.43 128.498 1702.49 130.859 Q1700.57 133.197 1700.57 137.595 L1700.57 151.253 L1696.28 151.253 L1696.28 125.327 L1700.57 125.327 L1700.57 129.355 Q1701.91 126.994 1704.06 125.859 Q1706.22 124.702 1709.29 124.702 Q1709.73 124.702 1710.27 124.771 Q1710.8 124.818 1711.45 124.933 L1711.47 129.308 Z" fill="#000000" fill-rule="evenodd" fill-opacity="1" /><path clip-path="url(#clip080)" d="M1731.19 116.693 L1735.87 116.693 L1735.87 131.299 L1751.38 116.693 L1757.4 116.693 L1740.24 132.804 L1758.62 151.253 L1752.47 151.253 L1735.87 134.609 L1735.87 151.253 L1731.19 151.253 L1731.19 116.693 Z" fill="#000000" fill-rule="evenodd" fill-opacity="1" /><path clip-path="url(#clip080)" d="M1773.04 138.22 Q1767.88 138.22 1765.89 139.401 Q1763.9 140.582 1763.9 143.429 Q1763.9 145.697 1765.38 147.04 Q1766.89 148.359 1769.46 148.359 Q1773 148.359 1775.13 145.859 Q1777.28 143.336 1777.28 139.169 L1777.28 138.22 L1773.04 138.22 M1781.54 136.461 L1781.54 151.253 L1777.28 151.253 L1777.28 147.318 Q1775.82 149.679 1773.65 150.813 Q1771.47 151.924 1768.32 151.924 Q1764.34 151.924 1761.98 149.702 Q1759.64 147.456 1759.64 143.706 Q1759.64 139.332 1762.56 137.109 Q1765.5 134.887 1771.31 134.887 L1777.28 134.887 L1777.28 134.47 Q1777.28 131.531 1775.34 129.933 Q1773.41 128.313 1769.92 128.313 Q1767.7 128.313 1765.59 128.845 Q1763.48 129.378 1761.54 130.443 L1761.54 126.508 Q1763.88 125.605 1766.08 125.165 Q1768.28 124.702 1770.36 124.702 Q1775.98 124.702 1778.76 127.619 Q1781.54 130.535 1781.54 136.461 Z" fill="#000000" fill-rule="evenodd" fill-opacity="1" /><path clip-path="url(#clip080)" d="M1794.43 147.364 L1794.43 161.114 L1790.15 161.114 L1790.15 125.327 L1794.43 125.327 L1794.43 129.262 Q1795.78 126.947 1797.81 125.836 Q1799.87 124.702 1802.72 124.702 Q1807.44 124.702 1810.38 128.452 Q1813.34 132.202 1813.34 138.313 Q1813.34 144.424 1810.38 148.174 Q1807.44 151.924 1802.72 151.924 Q1799.87 151.924 1797.81 150.813 Q1795.78 149.679 1794.43 147.364 M1808.92 138.313 Q1808.92 133.614 1806.98 130.952 Q1805.06 128.267 1801.68 128.267 Q1798.3 128.267 1796.35 130.952 Q1794.43 133.614 1794.43 138.313 Q1794.43 143.012 1796.35 145.697 Q1798.3 148.359 1801.68 148.359 Q1805.06 148.359 1806.98 145.697 Q1808.92 143.012 1808.92 138.313 Z" fill="#000000" fill-rule="evenodd" fill-opacity="1" /><path clip-path="url(#clip080)" d="M1824.52 147.364 L1824.52 161.114 L1820.24 161.114 L1820.24 125.327 L1824.52 125.327 L1824.52 129.262 Q1825.87 126.947 1827.9 125.836 Q1829.96 124.702 1832.81 124.702 Q1837.53 124.702 1840.47 128.452 Q1843.44 132.202 1843.44 138.313 Q1843.44 144.424 1840.47 148.174 Q1837.53 151.924 1832.81 151.924 Q1829.96 151.924 1827.9 150.813 Q1825.87 149.679 1824.52 147.364 M1839.02 138.313 Q1839.02 133.614 1837.07 130.952 Q1835.15 128.267 1831.77 128.267 Q1828.39 128.267 1826.45 130.952 Q1824.52 133.614 1824.52 138.313 Q1824.52 143.012 1826.45 145.697 Q1828.39 148.359 1831.77 148.359 Q1835.15 148.359 1837.07 145.697 Q1839.02 143.012 1839.02 138.313 Z" fill="#000000" fill-rule="evenodd" fill-opacity="1" /><path clip-path="url(#clip080)" d="M1862.28 138.22 Q1857.12 138.22 1855.13 139.401 Q1853.14 140.582 1853.14 143.429 Q1853.14 145.697 1854.62 147.04 Q1856.12 148.359 1858.69 148.359 Q1862.23 148.359 1864.36 145.859 Q1866.52 143.336 1866.52 139.169 L1866.52 138.22 L1862.28 138.22 M1870.77 136.461 L1870.77 151.253 L1866.52 151.253 L1866.52 147.318 Q1865.06 149.679 1862.88 150.813 Q1860.71 151.924 1857.56 151.924 Q1853.58 151.924 1851.21 149.702 Q1848.88 147.456 1848.88 143.706 Q1848.88 139.332 1851.79 137.109 Q1854.73 134.887 1860.54 134.887 L1866.52 134.887 L1866.52 134.47 Q1866.52 131.531 1864.57 129.933 Q1862.65 128.313 1859.15 128.313 Q1856.93 128.313 1854.83 128.845 Q1852.72 129.378 1850.77 130.443 L1850.77 126.508 Q1853.11 125.605 1855.31 125.165 Q1857.51 124.702 1859.59 124.702 Q1865.22 124.702 1868 127.619 Q1870.77 130.535 1870.77 136.461 Z" fill="#000000" fill-rule="evenodd" fill-opacity="1" /><polyline clip-path="url(#clip080)" style="stroke:#3da44d; stroke-linecap:round; stroke-linejoin:round; stroke-width:16; stroke-opacity:1; fill:none" points="1363.14,185.813 1486.11,185.813 "/>
<path clip-path="url(#clip080)" d="M1506.61 168.533 L1526.47 168.533 L1526.47 172.468 L1511.29 172.468 L1511.29 182.653 L1524.99 182.653 L1524.99 186.588 L1511.29 186.588 L1511.29 203.093 L1506.61 203.093 L1506.61 168.533 Z" fill="#000000" fill-rule="evenodd" fill-opacity="1" /><path clip-path="url(#clip080)" d="M1545.27 181.148 Q1544.55 180.732 1543.69 180.547 Q1542.86 180.338 1541.84 180.338 Q1538.23 180.338 1536.29 182.699 Q1534.36 185.037 1534.36 189.435 L1534.36 203.093 L1530.08 203.093 L1530.08 177.167 L1534.36 177.167 L1534.36 181.195 Q1535.71 178.834 1537.86 177.699 Q1540.01 176.542 1543.09 176.542 Q1543.53 176.542 1544.06 176.611 Q1544.6 176.658 1545.24 176.773 L1545.27 181.148 Z" fill="#000000" fill-rule="evenodd" fill-opacity="1" /><path clip-path="url(#clip080)" d="M1570.87 189.065 L1570.87 191.148 L1551.29 191.148 Q1551.56 195.546 1553.92 197.861 Q1556.31 200.153 1560.54 200.153 Q1563 200.153 1565.29 199.551 Q1567.6 198.949 1569.87 197.746 L1569.87 201.773 Q1567.58 202.746 1565.17 203.255 Q1562.77 203.764 1560.29 203.764 Q1554.09 203.764 1550.45 200.153 Q1546.84 196.542 1546.84 190.384 Q1546.84 184.019 1550.27 180.292 Q1553.72 176.542 1559.55 176.542 Q1564.78 176.542 1567.81 179.922 Q1570.87 183.278 1570.87 189.065 M1566.61 187.815 Q1566.56 184.32 1564.64 182.236 Q1562.74 180.153 1559.6 180.153 Q1556.03 180.153 1553.88 182.167 Q1551.75 184.181 1551.42 187.838 L1566.61 187.815 Z" fill="#000000" fill-rule="evenodd" fill-opacity="1" /><path clip-path="url(#clip080)" d="M1580.41 190.153 Q1580.41 194.852 1582.33 197.537 Q1584.27 200.199 1587.65 200.199 Q1591.03 200.199 1592.98 197.537 Q1594.92 194.852 1594.92 190.153 Q1594.92 185.454 1592.98 182.792 Q1591.03 180.107 1587.65 180.107 Q1584.27 180.107 1582.33 182.792 Q1580.41 185.454 1580.41 190.153 M1594.92 199.204 Q1593.58 201.519 1591.52 202.653 Q1589.48 203.764 1586.61 203.764 Q1581.91 203.764 1578.95 200.014 Q1576.01 196.264 1576.01 190.153 Q1576.01 184.042 1578.95 180.292 Q1581.91 176.542 1586.61 176.542 Q1589.48 176.542 1591.52 177.676 Q1593.58 178.787 1594.92 181.102 L1594.92 177.167 L1599.18 177.167 L1599.18 212.954 L1594.92 212.954 L1594.92 199.204 Z" fill="#000000" fill-rule="evenodd" fill-opacity="1" /><path clip-path="url(#clip080)" d="M1623.21 168.533 L1627.88 168.533 L1627.88 183.139 L1643.39 168.533 L1649.41 168.533 L1632.26 184.644 L1650.64 203.093 L1644.48 203.093 L1627.88 186.449 L1627.88 203.093 L1623.21 203.093 L1623.21 168.533 Z" fill="#000000" fill-rule="evenodd" fill-opacity="1" /><path clip-path="url(#clip080)" d="M1665.06 190.06 Q1659.9 190.06 1657.91 191.241 Q1655.91 192.422 1655.91 195.269 Q1655.91 197.537 1657.4 198.88 Q1658.9 200.199 1661.47 200.199 Q1665.01 200.199 1667.14 197.699 Q1669.29 195.176 1669.29 191.009 L1669.29 190.06 L1665.06 190.06 M1673.55 188.301 L1673.55 203.093 L1669.29 203.093 L1669.29 199.158 Q1667.84 201.519 1665.66 202.653 Q1663.48 203.764 1660.34 203.764 Q1656.35 203.764 1653.99 201.542 Q1651.66 199.296 1651.66 195.546 Q1651.66 191.172 1654.57 188.949 Q1657.51 186.727 1663.32 186.727 L1669.29 186.727 L1669.29 186.31 Q1669.29 183.371 1667.35 181.773 Q1665.43 180.153 1661.93 180.153 Q1659.71 180.153 1657.6 180.685 Q1655.5 181.218 1653.55 182.283 L1653.55 178.348 Q1655.89 177.445 1658.09 177.005 Q1660.29 176.542 1662.37 176.542 Q1668 176.542 1670.78 179.459 Q1673.55 182.375 1673.55 188.301 Z" fill="#000000" fill-rule="evenodd" fill-opacity="1" /><path clip-path="url(#clip080)" d="M1686.45 199.204 L1686.45 212.954 L1682.16 212.954 L1682.16 177.167 L1686.45 177.167 L1686.45 181.102 Q1687.79 178.787 1689.83 177.676 Q1691.89 176.542 1694.73 176.542 Q1699.46 176.542 1702.4 180.292 Q1705.36 184.042 1705.36 190.153 Q1705.36 196.264 1702.4 200.014 Q1699.46 203.764 1694.73 203.764 Q1691.89 203.764 1689.83 202.653 Q1687.79 201.519 1686.45 199.204 M1700.94 190.153 Q1700.94 185.454 1698.99 182.792 Q1697.07 180.107 1693.69 180.107 Q1690.31 180.107 1688.37 182.792 Q1686.45 185.454 1686.45 190.153 Q1686.45 194.852 1688.37 197.537 Q1690.31 200.199 1693.69 200.199 Q1697.07 200.199 1698.99 197.537 Q1700.94 194.852 1700.94 190.153 Z" fill="#000000" fill-rule="evenodd" fill-opacity="1" /><path clip-path="url(#clip080)" d="M1716.54 199.204 L1716.54 212.954 L1712.26 212.954 L1712.26 177.167 L1716.54 177.167 L1716.54 181.102 Q1717.88 178.787 1719.92 177.676 Q1721.98 176.542 1724.83 176.542 Q1729.55 176.542 1732.49 180.292 Q1735.45 184.042 1735.45 190.153 Q1735.45 196.264 1732.49 200.014 Q1729.55 203.764 1724.83 203.764 Q1721.98 203.764 1719.92 202.653 Q1717.88 201.519 1716.54 199.204 M1731.03 190.153 Q1731.03 185.454 1729.09 182.792 Q1727.16 180.107 1723.78 180.107 Q1720.41 180.107 1718.46 182.792 Q1716.54 185.454 1716.54 190.153 Q1716.54 194.852 1718.46 197.537 Q1720.41 200.199 1723.78 200.199 Q1727.16 200.199 1729.09 197.537 Q1731.03 194.852 1731.03 190.153 Z" fill="#000000" fill-rule="evenodd" fill-opacity="1" /><path clip-path="url(#clip080)" d="M1754.29 190.06 Q1749.13 190.06 1747.14 191.241 Q1745.15 192.422 1745.15 195.269 Q1745.15 197.537 1746.63 198.88 Q1748.14 200.199 1750.71 200.199 Q1754.25 200.199 1756.38 197.699 Q1758.53 195.176 1758.53 191.009 L1758.53 190.06 L1754.29 190.06 M1762.79 188.301 L1762.79 203.093 L1758.53 203.093 L1758.53 199.158 Q1757.07 201.519 1754.9 202.653 Q1752.72 203.764 1749.57 203.764 Q1745.59 203.764 1743.23 201.542 Q1740.89 199.296 1740.89 195.546 Q1740.89 191.172 1743.81 188.949 Q1746.75 186.727 1752.56 186.727 L1758.53 186.727 L1758.53 186.31 Q1758.53 183.371 1756.59 181.773 Q1754.66 180.153 1751.17 180.153 Q1748.95 180.153 1746.84 180.685 Q1744.73 181.218 1742.79 182.283 L1742.79 178.348 Q1745.13 177.445 1747.33 177.005 Q1749.53 176.542 1751.61 176.542 Q1757.23 176.542 1760.01 179.459 Q1762.79 182.375 1762.79 188.301 Z" fill="#000000" fill-rule="evenodd" fill-opacity="1" /></svg>
