<?xml version="1.0" encoding="utf-8"?>
<svg xmlns="http://www.w3.org/2000/svg" xmlns:xlink="http://www.w3.org/1999/xlink" width="800" height="150" viewBox="0 0 3200 600">
<defs>
  <clipPath id="clip960">
    <rect x="0" y="0" width="3200" height="600"/>
  </clipPath>
</defs>
<path clip-path="url(#clip960)" d="M0 600 L3200 600 L3200 0 L0 0  Z" fill="#ffffff" fill-rule="evenodd" fill-opacity="1"/>
<defs>
  <clipPath id="clip961">
    <rect x="640" y="0" width="2241" height="600"/>
  </clipPath>
</defs>
<path clip-path="url(#clip960)" d="M120.177 521.288 L1515.71 521.288 L1515.71 47.2441 L120.177 47.2441  Z" fill="#ffffff" fill-rule="evenodd" fill-opacity="1"/>
<defs>
  <clipPath id="clip962">
    <rect x="120" y="47" width="1397" height="475"/>
  </clipPath>
</defs>
<polyline clip-path="url(#clip962)" style="stroke:#000000; stroke-linecap:round; stroke-linejoin:round; stroke-width:2; stroke-opacity:0.1; fill:none" points="236.979,521.288 236.979,47.2441 "/>
<polyline clip-path="url(#clip962)" style="stroke:#000000; stroke-linecap:round; stroke-linejoin:round; stroke-width:2; stroke-opacity:0.1; fill:none" points="508.678,521.288 508.678,47.2441 "/>
<polyline clip-path="url(#clip962)" style="stroke:#000000; stroke-linecap:round; stroke-linejoin:round; stroke-width:2; stroke-opacity:0.1; fill:none" points="780.376,521.288 780.376,47.2441 "/>
<polyline clip-path="url(#clip962)" style="stroke:#000000; stroke-linecap:round; stroke-linejoin:round; stroke-width:2; stroke-opacity:0.1; fill:none" points="1052.08,521.288 1052.08,47.2441 "/>
<polyline clip-path="url(#clip962)" style="stroke:#000000; stroke-linecap:round; stroke-linejoin:round; stroke-width:2; stroke-opacity:0.1; fill:none" points="1323.77,521.288 1323.77,47.2441 "/>
<polyline clip-path="url(#clip960)" style="stroke:#000000; stroke-linecap:round; stroke-linejoin:round; stroke-width:4; stroke-opacity:1; fill:none" points="120.177,521.288 1515.71,521.288 "/>
<polyline clip-path="url(#clip960)" style="stroke:#000000; stroke-linecap:round; stroke-linejoin:round; stroke-width:4; stroke-opacity:1; fill:none" points="236.979,521.288 236.979,502.39 "/>
<polyline clip-path="url(#clip960)" style="stroke:#000000; stroke-linecap:round; stroke-linejoin:round; stroke-width:4; stroke-opacity:1; fill:none" points="508.678,521.288 508.678,502.39 "/>
<polyline clip-path="url(#clip960)" style="stroke:#000000; stroke-linecap:round; stroke-linejoin:round; stroke-width:4; stroke-opacity:1; fill:none" points="780.376,521.288 780.376,502.39 "/>
<polyline clip-path="url(#clip960)" style="stroke:#000000; stroke-linecap:round; stroke-linejoin:round; stroke-width:4; stroke-opacity:1; fill:none" points="1052.08,521.288 1052.08,502.39 "/>
<polyline clip-path="url(#clip960)" style="stroke:#000000; stroke-linecap:round; stroke-linejoin:round; stroke-width:4; stroke-opacity:1; fill:none" points="1323.77,521.288 1323.77,502.39 "/>
<path clip-path="url(#clip960)" d="M215.162 558.607 Q211.551 558.607 209.722 562.171 Q207.916 565.713 207.916 572.843 Q207.916 579.949 209.722 583.514 Q211.551 587.055 215.162 587.055 Q218.796 587.055 220.602 583.514 Q222.43 579.949 222.43 572.843 Q222.43 565.713 220.602 562.171 Q218.796 558.607 215.162 558.607 M215.162 554.903 Q220.972 554.903 224.027 559.509 Q227.106 564.093 227.106 572.843 Q227.106 581.569 224.027 586.176 Q220.972 590.759 215.162 590.759 Q209.352 590.759 206.273 586.176 Q203.217 581.569 203.217 572.843 Q203.217 564.093 206.273 559.509 Q209.352 554.903 215.162 554.903 Z" fill="#000000" fill-rule="evenodd" fill-opacity="1" /><path clip-path="url(#clip960)" d="M235.324 584.208 L240.208 584.208 L240.208 590.088 L235.324 590.088 L235.324 584.208 Z" fill="#000000" fill-rule="evenodd" fill-opacity="1" /><path clip-path="url(#clip960)" d="M254.421 586.153 L270.74 586.153 L270.74 590.088 L248.796 590.088 L248.796 586.153 Q251.458 583.398 256.041 578.768 Q260.648 574.116 261.828 572.773 Q264.074 570.25 264.953 568.514 Q265.856 566.755 265.856 565.065 Q265.856 562.31 263.911 560.574 Q261.99 558.838 258.888 558.838 Q256.689 558.838 254.236 559.602 Q251.805 560.366 249.027 561.917 L249.027 557.195 Q251.851 556.06 254.305 555.482 Q256.759 554.903 258.796 554.903 Q264.166 554.903 267.361 557.588 Q270.555 560.273 270.555 564.764 Q270.555 566.894 269.745 568.815 Q268.958 570.713 266.851 573.306 Q266.273 573.977 263.171 577.194 Q260.069 580.389 254.421 586.153 Z" fill="#000000" fill-rule="evenodd" fill-opacity="1" /><path clip-path="url(#clip960)" d="M485.819 558.607 Q482.208 558.607 480.379 562.171 Q478.574 565.713 478.574 572.843 Q478.574 579.949 480.379 583.514 Q482.208 587.055 485.819 587.055 Q489.453 587.055 491.259 583.514 Q493.087 579.949 493.087 572.843 Q493.087 565.713 491.259 562.171 Q489.453 558.607 485.819 558.607 M485.819 554.903 Q491.629 554.903 494.685 559.509 Q497.763 564.093 497.763 572.843 Q497.763 581.569 494.685 586.176 Q491.629 590.759 485.819 590.759 Q480.009 590.759 476.93 586.176 Q473.875 581.569 473.875 572.843 Q473.875 564.093 476.93 559.509 Q480.009 554.903 485.819 554.903 Z" fill="#000000" fill-rule="evenodd" fill-opacity="1" /><path clip-path="url(#clip960)" d="M505.981 584.208 L510.865 584.208 L510.865 590.088 L505.981 590.088 L505.981 584.208 Z" fill="#000000" fill-rule="evenodd" fill-opacity="1" /><path clip-path="url(#clip960)" d="M533.897 559.602 L522.092 578.051 L533.897 578.051 L533.897 559.602 M532.671 555.528 L538.55 555.528 L538.55 578.051 L543.481 578.051 L543.481 581.94 L538.55 581.94 L538.55 590.088 L533.897 590.088 L533.897 581.94 L518.296 581.94 L518.296 577.426 L532.671 555.528 Z" fill="#000000" fill-rule="evenodd" fill-opacity="1" /><path clip-path="url(#clip960)" d="M757.68 558.607 Q754.069 558.607 752.24 562.171 Q750.434 565.713 750.434 572.843 Q750.434 579.949 752.24 583.514 Q754.069 587.055 757.68 587.055 Q761.314 587.055 763.12 583.514 Q764.948 579.949 764.948 572.843 Q764.948 565.713 763.12 562.171 Q761.314 558.607 757.68 558.607 M757.68 554.903 Q763.49 554.903 766.545 559.509 Q769.624 564.093 769.624 572.843 Q769.624 581.569 766.545 586.176 Q763.49 590.759 757.68 590.759 Q751.87 590.759 748.791 586.176 Q745.735 581.569 745.735 572.843 Q745.735 564.093 748.791 559.509 Q751.87 554.903 757.68 554.903 Z" fill="#000000" fill-rule="evenodd" fill-opacity="1" /><path clip-path="url(#clip960)" d="M777.842 584.208 L782.726 584.208 L782.726 590.088 L777.842 590.088 L777.842 584.208 Z" fill="#000000" fill-rule="evenodd" fill-opacity="1" /><path clip-path="url(#clip960)" d="M803.49 570.944 Q800.342 570.944 798.49 573.097 Q796.661 575.25 796.661 579 Q796.661 582.727 798.49 584.903 Q800.342 587.055 803.49 587.055 Q806.638 587.055 808.467 584.903 Q810.318 582.727 810.318 579 Q810.318 575.25 808.467 573.097 Q806.638 570.944 803.49 570.944 M812.772 556.292 L812.772 560.551 Q811.013 559.718 809.207 559.278 Q807.425 558.838 805.666 558.838 Q801.036 558.838 798.582 561.963 Q796.152 565.088 795.805 571.407 Q797.17 569.394 799.23 568.329 Q801.291 567.241 803.768 567.241 Q808.976 567.241 811.985 570.412 Q815.017 573.56 815.017 579 Q815.017 584.324 811.869 587.542 Q808.721 590.759 803.49 590.759 Q797.494 590.759 794.323 586.176 Q791.152 581.569 791.152 572.843 Q791.152 564.648 795.041 559.787 Q798.93 554.903 805.48 554.903 Q807.24 554.903 809.022 555.25 Q810.828 555.597 812.772 556.292 Z" fill="#000000" fill-rule="evenodd" fill-opacity="1" /><path clip-path="url(#clip960)" d="M1029.51 558.607 Q1025.89 558.607 1024.07 562.171 Q1022.26 565.713 1022.26 572.843 Q1022.26 579.949 1024.07 583.514 Q1025.89 587.055 1029.51 587.055 Q1033.14 587.055 1034.95 583.514 Q1036.77 579.949 1036.77 572.843 Q1036.77 565.713 1034.95 562.171 Q1033.14 558.607 1029.51 558.607 M1029.51 554.903 Q1035.32 554.903 1038.37 559.509 Q1041.45 564.093 1041.45 572.843 Q1041.45 581.569 1038.37 586.176 Q1035.32 590.759 1029.51 590.759 Q1023.7 590.759 1020.62 586.176 Q1017.56 581.569 1017.56 572.843 Q1017.56 564.093 1020.62 559.509 Q1023.7 554.903 1029.51 554.903 Z" fill="#000000" fill-rule="evenodd" fill-opacity="1" /><path clip-path="url(#clip960)" d="M1049.67 584.208 L1054.55 584.208 L1054.55 590.088 L1049.67 590.088 L1049.67 584.208 Z" fill="#000000" fill-rule="evenodd" fill-opacity="1" /><path clip-path="url(#clip960)" d="M1074.74 573.676 Q1071.4 573.676 1069.48 575.458 Q1067.58 577.241 1067.58 580.366 Q1067.58 583.491 1069.48 585.273 Q1071.4 587.055 1074.74 587.055 Q1078.07 587.055 1079.99 585.273 Q1081.91 583.468 1081.91 580.366 Q1081.91 577.241 1079.99 575.458 Q1078.09 573.676 1074.74 573.676 M1070.06 571.685 Q1067.05 570.944 1065.36 568.884 Q1063.7 566.824 1063.7 563.861 Q1063.7 559.718 1066.64 557.31 Q1069.6 554.903 1074.74 554.903 Q1079.9 554.903 1082.84 557.31 Q1085.78 559.718 1085.78 563.861 Q1085.78 566.824 1084.09 568.884 Q1082.42 570.944 1079.44 571.685 Q1082.82 572.472 1084.69 574.764 Q1086.59 577.056 1086.59 580.366 Q1086.59 585.389 1083.51 588.074 Q1080.45 590.759 1074.74 590.759 Q1069.02 590.759 1065.94 588.074 Q1062.89 585.389 1062.89 580.366 Q1062.89 577.056 1064.78 574.764 Q1066.68 572.472 1070.06 571.685 M1068.35 564.301 Q1068.35 566.986 1070.01 568.491 Q1071.7 569.995 1074.74 569.995 Q1077.75 569.995 1079.44 568.491 Q1081.15 566.986 1081.15 564.301 Q1081.15 561.616 1079.44 560.111 Q1077.75 558.607 1074.74 558.607 Q1071.7 558.607 1070.01 560.111 Q1068.35 561.616 1068.35 564.301 Z" fill="#000000" fill-rule="evenodd" fill-opacity="1" /><path clip-path="url(#clip960)" d="M1290.93 586.153 L1298.57 586.153 L1298.57 559.787 L1290.26 561.454 L1290.26 557.195 L1298.52 555.528 L1303.2 555.528 L1303.2 586.153 L1310.83 586.153 L1310.83 590.088 L1290.93 590.088 L1290.93 586.153 Z" fill="#000000" fill-rule="evenodd" fill-opacity="1" /><path clip-path="url(#clip960)" d="M1320.28 584.208 L1325.16 584.208 L1325.16 590.088 L1320.28 590.088 L1320.28 584.208 Z" fill="#000000" fill-rule="evenodd" fill-opacity="1" /><path clip-path="url(#clip960)" d="M1345.35 558.607 Q1341.74 558.607 1339.91 562.171 Q1338.1 565.713 1338.1 572.843 Q1338.1 579.949 1339.91 583.514 Q1341.74 587.055 1345.35 587.055 Q1348.98 587.055 1350.79 583.514 Q1352.62 579.949 1352.62 572.843 Q1352.62 565.713 1350.79 562.171 Q1348.98 558.607 1345.35 558.607 M1345.35 554.903 Q1351.16 554.903 1354.21 559.509 Q1357.29 564.093 1357.29 572.843 Q1357.29 581.569 1354.21 586.176 Q1351.16 590.759 1345.35 590.759 Q1339.54 590.759 1336.46 586.176 Q1333.4 581.569 1333.4 572.843 Q1333.4 564.093 1336.46 559.509 Q1339.54 554.903 1345.35 554.903 Z" fill="#000000" fill-rule="evenodd" fill-opacity="1" /><polyline clip-path="url(#clip962)" style="stroke:#000000; stroke-linecap:round; stroke-linejoin:round; stroke-width:2; stroke-opacity:0.1; fill:none" points="120.177,507.872 1515.71,507.872 "/>
<polyline clip-path="url(#clip962)" style="stroke:#000000; stroke-linecap:round; stroke-linejoin:round; stroke-width:2; stroke-opacity:0.1; fill:none" points="120.177,432.766 1515.71,432.766 "/>
<polyline clip-path="url(#clip962)" style="stroke:#000000; stroke-linecap:round; stroke-linejoin:round; stroke-width:2; stroke-opacity:0.1; fill:none" points="120.177,357.66 1515.71,357.66 "/>
<polyline clip-path="url(#clip962)" style="stroke:#000000; stroke-linecap:round; stroke-linejoin:round; stroke-width:2; stroke-opacity:0.1; fill:none" points="120.177,282.554 1515.71,282.554 "/>
<polyline clip-path="url(#clip962)" style="stroke:#000000; stroke-linecap:round; stroke-linejoin:round; stroke-width:2; stroke-opacity:0.1; fill:none" points="120.177,207.448 1515.71,207.448 "/>
<polyline clip-path="url(#clip962)" style="stroke:#000000; stroke-linecap:round; stroke-linejoin:round; stroke-width:2; stroke-opacity:0.1; fill:none" points="120.177,132.342 1515.71,132.342 "/>
<polyline clip-path="url(#clip962)" style="stroke:#000000; stroke-linecap:round; stroke-linejoin:round; stroke-width:2; stroke-opacity:0.1; fill:none" points="120.177,57.2359 1515.71,57.2359 "/>
<polyline clip-path="url(#clip960)" style="stroke:#000000; stroke-linecap:round; stroke-linejoin:round; stroke-width:4; stroke-opacity:1; fill:none" points="120.177,521.288 120.177,47.2441 "/>
<polyline clip-path="url(#clip960)" style="stroke:#000000; stroke-linecap:round; stroke-linejoin:round; stroke-width:4; stroke-opacity:1; fill:none" points="120.177,507.872 139.075,507.872 "/>
<polyline clip-path="url(#clip960)" style="stroke:#000000; stroke-linecap:round; stroke-linejoin:round; stroke-width:4; stroke-opacity:1; fill:none" points="120.177,432.766 139.075,432.766 "/>
<polyline clip-path="url(#clip960)" style="stroke:#000000; stroke-linecap:round; stroke-linejoin:round; stroke-width:4; stroke-opacity:1; fill:none" points="120.177,357.66 139.075,357.66 "/>
<polyline clip-path="url(#clip960)" style="stroke:#000000; stroke-linecap:round; stroke-linejoin:round; stroke-width:4; stroke-opacity:1; fill:none" points="120.177,282.554 139.075,282.554 "/>
<polyline clip-path="url(#clip960)" style="stroke:#000000; stroke-linecap:round; stroke-linejoin:round; stroke-width:4; stroke-opacity:1; fill:none" points="120.177,207.448 139.075,207.448 "/>
<polyline clip-path="url(#clip960)" style="stroke:#000000; stroke-linecap:round; stroke-linejoin:round; stroke-width:4; stroke-opacity:1; fill:none" points="120.177,132.342 139.075,132.342 "/>
<polyline clip-path="url(#clip960)" style="stroke:#000000; stroke-linecap:round; stroke-linejoin:round; stroke-width:4; stroke-opacity:1; fill:none" points="120.177,57.2359 139.075,57.2359 "/>
<path clip-path="url(#clip960)" d="M60.2328 493.67 Q56.6217 493.67 54.793 497.235 Q52.9875 500.777 52.9875 507.906 Q52.9875 515.013 54.793 518.578 Q56.6217 522.119 60.2328 522.119 Q63.867 522.119 65.6726 518.578 Q67.5013 515.013 67.5013 507.906 Q67.5013 500.777 65.6726 497.235 Q63.867 493.67 60.2328 493.67 M60.2328 489.967 Q66.0429 489.967 69.0985 494.573 Q72.1772 499.156 72.1772 507.906 Q72.1772 516.633 69.0985 521.24 Q66.0429 525.823 60.2328 525.823 Q54.4226 525.823 51.344 521.24 Q48.2884 516.633 48.2884 507.906 Q48.2884 499.156 51.344 494.573 Q54.4226 489.967 60.2328 489.967 Z" fill="#000000" fill-rule="evenodd" fill-opacity="1" /><path clip-path="url(#clip960)" d="M52.2699 446.11 L59.9087 446.11 L59.9087 419.745 L51.5986 421.412 L51.5986 417.152 L59.8624 415.486 L64.5383 415.486 L64.5383 446.11 L72.1772 446.11 L72.1772 450.046 L52.2699 450.046 L52.2699 446.11 Z" fill="#000000" fill-rule="evenodd" fill-opacity="1" /><path clip-path="url(#clip960)" d="M55.8578 371.005 L72.1772 371.005 L72.1772 374.94 L50.2328 374.94 L50.2328 371.005 Q52.8949 368.25 57.4782 363.62 Q62.0846 358.968 63.2652 357.625 Q65.5105 355.102 66.3902 353.366 Q67.2929 351.606 67.2929 349.917 Q67.2929 347.162 65.3485 345.426 Q63.4272 343.69 60.3254 343.69 Q58.1263 343.69 55.6726 344.454 Q53.2421 345.218 50.4643 346.769 L50.4643 342.046 Q53.2884 340.912 55.7421 340.333 Q58.1958 339.755 60.2328 339.755 Q65.6031 339.755 68.7976 342.44 Q71.992 345.125 71.992 349.616 Q71.992 351.745 71.1818 353.667 Q70.3948 355.565 68.2883 358.157 Q67.7096 358.829 64.6078 362.046 Q61.5059 365.241 55.8578 371.005 Z" fill="#000000" fill-rule="evenodd" fill-opacity="1" /><path clip-path="url(#clip960)" d="M65.0476 281.2 Q68.404 281.917 70.279 284.186 Q72.1772 286.454 72.1772 289.787 Q72.1772 294.903 68.6587 297.704 Q65.1402 300.505 58.6587 300.505 Q56.4828 300.505 54.168 300.065 Q51.8764 299.649 49.4227 298.792 L49.4227 294.278 Q51.3671 295.412 53.6819 295.991 Q55.9967 296.57 58.5198 296.57 Q62.918 296.57 65.2096 294.834 Q67.5244 293.098 67.5244 289.787 Q67.5244 286.732 65.3717 285.019 Q63.242 283.283 59.4226 283.283 L55.3949 283.283 L55.3949 279.44 L59.6078 279.44 Q63.0569 279.44 64.8855 278.075 Q66.7142 276.686 66.7142 274.093 Q66.7142 271.431 64.8161 270.019 Q62.9411 268.584 59.4226 268.584 Q57.5013 268.584 55.3023 269.001 Q53.1032 269.417 50.4643 270.297 L50.4643 266.13 Q53.1264 265.389 55.4412 265.019 Q57.7791 264.649 59.8393 264.649 Q65.1633 264.649 68.2652 267.079 Q71.367 269.487 71.367 273.607 Q71.367 276.477 69.7235 278.468 Q68.08 280.436 65.0476 281.2 Z" fill="#000000" fill-rule="evenodd" fill-opacity="1" /><path clip-path="url(#clip960)" d="M62.5939 194.242 L50.7884 212.691 L62.5939 212.691 L62.5939 194.242 M61.367 190.168 L67.2466 190.168 L67.2466 212.691 L72.1772 212.691 L72.1772 216.58 L67.2466 216.58 L67.2466 224.728 L62.5939 224.728 L62.5939 216.58 L46.9921 216.58 L46.9921 212.066 L61.367 190.168 Z" fill="#000000" fill-rule="evenodd" fill-opacity="1" /><path clip-path="url(#clip960)" d="M51.2745 115.062 L69.6309 115.062 L69.6309 118.997 L55.5569 118.997 L55.5569 127.469 Q56.5754 127.122 57.5939 126.96 Q58.6124 126.775 59.6309 126.775 Q65.418 126.775 68.7976 129.946 Q72.1772 133.117 72.1772 138.534 Q72.1772 144.113 68.705 147.214 Q65.2328 150.293 58.9134 150.293 Q56.7374 150.293 54.4689 149.923 Q52.2236 149.552 49.8162 148.812 L49.8162 144.113 Q51.8995 145.247 54.1217 145.802 Q56.3439 146.358 58.8208 146.358 Q62.8254 146.358 65.1633 144.251 Q67.5013 142.145 67.5013 138.534 Q67.5013 134.923 65.1633 132.816 Q62.8254 130.71 58.8208 130.71 Q56.9458 130.71 55.0708 131.127 Q53.2189 131.543 51.2745 132.423 L51.2745 115.062 Z" fill="#000000" fill-rule="evenodd" fill-opacity="1" /><path clip-path="url(#clip960)" d="M60.6495 55.3725 Q57.5013 55.3725 55.6495 57.5252 Q53.8208 59.678 53.8208 63.428 Q53.8208 67.1548 55.6495 69.3307 Q57.5013 71.4835 60.6495 71.4835 Q63.7976 71.4835 65.6263 69.3307 Q67.4781 67.1548 67.4781 63.428 Q67.4781 59.678 65.6263 57.5252 Q63.7976 55.3725 60.6495 55.3725 M69.9318 40.7198 L69.9318 44.979 Q68.1726 44.1457 66.367 43.7059 Q64.5846 43.2661 62.8254 43.2661 Q58.1958 43.2661 55.7421 46.391 Q53.3115 49.516 52.9643 55.8354 Q54.33 53.8215 56.3902 52.7567 Q58.4504 51.6688 60.9272 51.6688 Q66.1355 51.6688 69.1448 54.8401 Q72.1772 57.9882 72.1772 63.428 Q72.1772 68.752 69.029 71.9696 Q65.8809 75.1872 60.6495 75.1872 Q54.6541 75.1872 51.4828 70.6039 Q48.3116 65.9974 48.3116 57.2706 Q48.3116 49.0762 52.2004 44.2151 Q56.0893 39.3309 62.6402 39.3309 Q64.3994 39.3309 66.1818 39.6781 Q67.9874 40.0253 69.9318 40.7198 Z" fill="#000000" fill-rule="evenodd" fill-opacity="1" /><polyline clip-path="url(#clip962)" style="stroke:#009af9; stroke-linecap:round; stroke-linejoin:round; stroke-width:4; stroke-opacity:1; fill:none" points="159.673,507.871 166.289,507.869 172.905,507.859 179.521,507.819 186.136,507.695 192.752,507.37 199.368,506.664 205.984,505.356 212.599,503.237 219.215,500.111 225.831,495.734 232.447,489.769 239.063,481.831 245.678,471.61 252.294,458.895 258.91,443.527 265.526,425.444 272.141,404.864 278.757,382.31 285.373,358.265 291.989,332.804 298.604,305.811 305.22,277.702 311.836,249.774 318.452,223.537 325.068,199.604 331.683,177.338 338.299,155.476 344.915,133.068 351.531,110.322 358.146,89.1827 364.762,72.7606 371.378,63.3412 377.994,60.6604 384.609,62.4148 391.225,66.3347 397.841,71.4002 404.457,77.4068 411.073,84.3117 417.688,92.3654 424.304,102.265 430.92,114.557 437.536,128.937 444.151,144.421 450.767,160.141 457.383,175.737 463.999,191.114 470.614,206.231 477.23,221.314 483.846,236.872 490.462,253.038 497.078,268.907 503.693,282.912 510.309,294.102 516.925,303.125 523.541,311.833 530.156,321.797 536.772,333.217 543.388,345.221 550.004,356.939 556.619,368.032 563.235,378.428 569.851,387.939 576.467,396.267 583.083,403.236 589.698,408.966 596.314,413.84 602.93,418.307 609.546,422.666 616.161,426.991 622.777,431.234 629.393,435.453 636.009,439.928 642.624,445.008 649.24,450.763 655.856,456.816 662.472,462.528 669.088,467.382 675.703,471.212 682.319,474.173 688.935,476.575 695.551,478.741 702.166,480.904 708.782,483.084 715.398,485.058 722.014,486.567 728.629,487.574 735.245,488.284 741.861,488.928 748.477,489.576 755.093,490.182 761.708,490.777 768.324,491.561 774.94,492.789 781.556,494.568 788.171,496.725 794.787,498.852 801.403,500.509 808.019,501.46 814.634,501.779 821.25,501.773 827.866,501.75 834.482,501.848 841.098,502.042 847.713,502.261 854.329,502.456 860.945,502.611 867.561,502.727 874.176,502.814 880.792,502.874 887.408,502.923 894.024,503.014 900.639,503.214 907.255,503.551 913.871,503.986 920.487,504.436 927.103,504.805 933.718,505.024 940.334,505.082 946.95,505.038 953.566,504.993 960.181,505.027 966.797,505.176 973.413,505.437 980.029,505.781 986.644,506.147 993.26,506.451 999.876,506.643 1006.49,506.739 1013.11,506.799 1019.72,506.866 1026.34,506.936 1032.95,506.982 1039.57,506.998 1046.19,507.004 1052.8,507.019 1059.42,507.042 1066.03,507.07 1072.65,507.116 1079.27,507.196 1085.88,507.301 1092.5,507.396 1099.11,507.468 1105.73,507.532 1112.34,507.605 1118.96,507.675 1125.58,507.707 1132.19,507.667 1138.81,507.553 1145.42,507.411 1152.04,507.316 1158.65,507.326 1165.27,507.435 1171.89,507.585 1178.5,507.707 1185.12,507.761 1191.73,507.746 1198.35,507.683 1204.96,507.614 1211.58,507.583 1218.2,507.61 1224.81,507.682 1231.43,507.761 1238.04,507.819 1244.66,507.85 1251.28,507.857 1257.89,507.843 1264.51,507.805 1271.12,507.741 1277.74,507.664 1284.35,507.603 1290.97,507.59 1297.59,507.634 1304.2,507.709 1310.82,507.782 1317.43,507.832 1324.05,507.857 1330.66,507.867 1337.28,507.871 1343.9,507.871 1350.51,507.872 1357.13,507.872 1363.74,507.871 1370.36,507.871 1376.97,507.868 1383.59,507.86 1390.21,507.839 1396.82,507.795 1403.44,507.727 1410.05,507.65 1416.67,507.597 1423.29,507.596 1429.9,507.647 1436.52,507.724 1443.13,507.793 1449.75,507.837 1456.36,507.86 1462.98,507.868 1469.6,507.871 1476.21,507.871 "/>
<path clip-path="url(#clip960)" d="M1148.16 166.726 L1469.19 166.726 L1469.19 63.0456 L1148.16 63.0456  Z" fill="#ffffff" fill-rule="evenodd" fill-opacity="1"/>
<polyline clip-path="url(#clip960)" style="stroke:#000000; stroke-linecap:round; stroke-linejoin:round; stroke-width:4; stroke-opacity:1; fill:none" points="1148.16,166.726 1469.19,166.726 1469.19,63.0456 1148.16,63.0456 1148.16,166.726 "/>
<polyline clip-path="url(#clip960)" style="stroke:#009af9; stroke-linecap:round; stroke-linejoin:round; stroke-width:4; stroke-opacity:1; fill:none" points="1163.66,114.886 1256.7,114.886 "/>
<path clip-path="url(#clip960)" d="M1290.63 107.004 L1290.63 111.031 Q1288.82 110.105 1286.88 109.643 Q1284.93 109.18 1282.85 109.18 Q1279.68 109.18 1278.08 110.152 Q1276.51 111.124 1276.51 113.068 Q1276.51 114.55 1277.64 115.406 Q1278.78 116.24 1282.2 117.004 L1283.66 117.328 Q1288.2 118.3 1290.1 120.082 Q1292.02 121.842 1292.02 125.013 Q1292.02 128.624 1289.15 130.73 Q1286.3 132.837 1281.3 132.837 Q1279.22 132.837 1276.95 132.42 Q1274.7 132.027 1272.2 131.216 L1272.2 126.818 Q1274.56 128.045 1276.86 128.67 Q1279.15 129.272 1281.39 129.272 Q1284.4 129.272 1286.02 128.254 Q1287.64 127.212 1287.64 125.337 Q1287.64 123.601 1286.46 122.675 Q1285.31 121.749 1281.35 120.892 L1279.87 120.545 Q1275.91 119.712 1274.15 117.999 Q1272.39 116.263 1272.39 113.254 Q1272.39 109.596 1274.98 107.606 Q1277.57 105.615 1282.34 105.615 Q1284.7 105.615 1286.79 105.962 Q1288.87 106.309 1290.63 107.004 Z" fill="#000000" fill-rule="evenodd" fill-opacity="1" /><path clip-path="url(#clip960)" d="M1298.8 106.24 L1303.06 106.24 L1303.06 132.166 L1298.8 132.166 L1298.8 106.24 M1298.8 96.1472 L1303.06 96.1472 L1303.06 101.541 L1298.8 101.541 L1298.8 96.1472 Z" fill="#000000" fill-rule="evenodd" fill-opacity="1" /><path clip-path="url(#clip960)" d="M1329.03 118.902 Q1329.03 114.272 1327.11 111.726 Q1325.21 109.18 1321.76 109.18 Q1318.34 109.18 1316.42 111.726 Q1314.52 114.272 1314.52 118.902 Q1314.52 123.508 1316.42 126.054 Q1318.34 128.601 1321.76 128.601 Q1325.21 128.601 1327.11 126.054 Q1329.03 123.508 1329.03 118.902 M1333.29 128.948 Q1333.29 135.568 1330.35 138.786 Q1327.41 142.027 1321.35 142.027 Q1319.1 142.027 1317.11 141.679 Q1315.12 141.355 1313.24 140.661 L1313.24 136.517 Q1315.12 137.536 1316.95 138.022 Q1318.78 138.508 1320.68 138.508 Q1324.87 138.508 1326.95 136.309 Q1329.03 134.133 1329.03 129.712 L1329.03 127.605 Q1327.71 129.897 1325.65 131.031 Q1323.59 132.166 1320.72 132.166 Q1315.95 132.166 1313.04 128.531 Q1310.12 124.897 1310.12 118.902 Q1310.12 112.883 1313.04 109.249 Q1315.95 105.615 1320.72 105.615 Q1323.59 105.615 1325.65 106.749 Q1327.71 107.883 1329.03 110.175 L1329.03 106.24 L1333.29 106.24 L1333.29 128.948 Z" fill="#000000" fill-rule="evenodd" fill-opacity="1" /><path clip-path="url(#clip960)" d="M1362.25 111.217 Q1363.85 108.346 1366.07 106.981 Q1368.29 105.615 1371.3 105.615 Q1375.35 105.615 1377.55 108.462 Q1379.75 111.286 1379.75 116.517 L1379.75 132.166 L1375.47 132.166 L1375.47 116.656 Q1375.47 112.93 1374.15 111.124 Q1372.83 109.318 1370.12 109.318 Q1366.81 109.318 1364.89 111.518 Q1362.97 113.717 1362.97 117.513 L1362.97 132.166 L1358.68 132.166 L1358.68 116.656 Q1358.68 112.906 1357.36 111.124 Q1356.05 109.318 1353.29 109.318 Q1350.03 109.318 1348.11 111.541 Q1346.18 113.74 1346.18 117.513 L1346.18 132.166 L1341.9 132.166 L1341.9 106.24 L1346.18 106.24 L1346.18 110.268 Q1347.64 107.883 1349.68 106.749 Q1351.72 105.615 1354.52 105.615 Q1357.34 105.615 1359.31 107.05 Q1361.3 108.485 1362.25 111.217 Z" fill="#000000" fill-rule="evenodd" fill-opacity="1" /><path clip-path="url(#clip960)" d="M1400.03 119.133 Q1394.86 119.133 1392.87 120.314 Q1390.88 121.494 1390.88 124.342 Q1390.88 126.61 1392.36 127.953 Q1393.87 129.272 1396.44 129.272 Q1399.98 129.272 1402.11 126.772 Q1404.26 124.249 1404.26 120.082 L1404.26 119.133 L1400.03 119.133 M1408.52 117.374 L1408.52 132.166 L1404.26 132.166 L1404.26 128.23 Q1402.8 130.591 1400.63 131.726 Q1398.45 132.837 1395.3 132.837 Q1391.32 132.837 1388.96 130.615 Q1386.62 128.369 1386.62 124.619 Q1386.62 120.244 1389.54 118.022 Q1392.48 115.8 1398.29 115.8 L1404.26 115.8 L1404.26 115.383 Q1404.26 112.443 1402.32 110.846 Q1400.4 109.226 1396.9 109.226 Q1394.68 109.226 1392.57 109.758 Q1390.47 110.291 1388.52 111.355 L1388.52 107.42 Q1390.86 106.518 1393.06 106.078 Q1395.26 105.615 1397.34 105.615 Q1402.97 105.615 1405.74 108.531 Q1408.52 111.448 1408.52 117.374 Z" fill="#000000" fill-rule="evenodd" fill-opacity="1" /><path clip-path="url(#clip960)" d="M1433.78 128.23 L1441.42 128.23 L1441.42 101.865 L1433.11 103.531 L1433.11 99.2722 L1441.37 97.6056 L1446.05 97.6056 L1446.05 128.23 L1453.68 128.23 L1453.68 132.166 L1433.78 132.166 L1433.78 128.23 Z" fill="#000000" fill-rule="evenodd" fill-opacity="1" /><path clip-path="url(#clip960)" d="M1757.23 521.288 L3152.76 521.288 L3152.76 47.2441 L1757.23 47.2441  Z" fill="#ffffff" fill-rule="evenodd" fill-opacity="1"/>
<defs>
  <clipPath id="clip963">
    <rect x="1757" y="47" width="1397" height="475"/>
  </clipPath>
</defs>
<polyline clip-path="url(#clip963)" style="stroke:#000000; stroke-linecap:round; stroke-linejoin:round; stroke-width:2; stroke-opacity:0.1; fill:none" points="1876.99,521.288 1876.99,47.2441 "/>
<polyline clip-path="url(#clip963)" style="stroke:#000000; stroke-linecap:round; stroke-linejoin:round; stroke-width:2; stroke-opacity:0.1; fill:none" points="2131.76,521.288 2131.76,47.2441 "/>
<polyline clip-path="url(#clip963)" style="stroke:#000000; stroke-linecap:round; stroke-linejoin:round; stroke-width:2; stroke-opacity:0.1; fill:none" points="2386.53,521.288 2386.53,47.2441 "/>
<polyline clip-path="url(#clip963)" style="stroke:#000000; stroke-linecap:round; stroke-linejoin:round; stroke-width:2; stroke-opacity:0.1; fill:none" points="2641.3,521.288 2641.3,47.2441 "/>
<polyline clip-path="url(#clip963)" style="stroke:#000000; stroke-linecap:round; stroke-linejoin:round; stroke-width:2; stroke-opacity:0.1; fill:none" points="2896.07,521.288 2896.07,47.2441 "/>
<polyline clip-path="url(#clip963)" style="stroke:#000000; stroke-linecap:round; stroke-linejoin:round; stroke-width:2; stroke-opacity:0.1; fill:none" points="3150.84,521.288 3150.84,47.2441 "/>
<polyline clip-path="url(#clip960)" style="stroke:#000000; stroke-linecap:round; stroke-linejoin:round; stroke-width:4; stroke-opacity:1; fill:none" points="1757.23,521.288 3152.76,521.288 "/>
<polyline clip-path="url(#clip960)" style="stroke:#000000; stroke-linecap:round; stroke-linejoin:round; stroke-width:4; stroke-opacity:1; fill:none" points="1876.99,521.288 1876.99,502.39 "/>
<polyline clip-path="url(#clip960)" style="stroke:#000000; stroke-linecap:round; stroke-linejoin:round; stroke-width:4; stroke-opacity:1; fill:none" points="2131.76,521.288 2131.76,502.39 "/>
<polyline clip-path="url(#clip960)" style="stroke:#000000; stroke-linecap:round; stroke-linejoin:round; stroke-width:4; stroke-opacity:1; fill:none" points="2386.53,521.288 2386.53,502.39 "/>
<polyline clip-path="url(#clip960)" style="stroke:#000000; stroke-linecap:round; stroke-linejoin:round; stroke-width:4; stroke-opacity:1; fill:none" points="2641.3,521.288 2641.3,502.39 "/>
<polyline clip-path="url(#clip960)" style="stroke:#000000; stroke-linecap:round; stroke-linejoin:round; stroke-width:4; stroke-opacity:1; fill:none" points="2896.07,521.288 2896.07,502.39 "/>
<polyline clip-path="url(#clip960)" style="stroke:#000000; stroke-linecap:round; stroke-linejoin:round; stroke-width:4; stroke-opacity:1; fill:none" points="3150.84,521.288 3150.84,502.39 "/>
<path clip-path="url(#clip960)" d="M1867.27 555.528 L1885.62 555.528 L1885.62 559.463 L1871.55 559.463 L1871.55 567.935 Q1872.57 567.588 1873.58 567.426 Q1874.6 567.241 1875.62 567.241 Q1881.41 567.241 1884.79 570.412 Q1888.17 573.583 1888.17 579 Q1888.17 584.579 1884.7 587.68 Q1881.22 590.759 1874.9 590.759 Q1872.73 590.759 1870.46 590.389 Q1868.21 590.018 1865.81 589.278 L1865.81 584.579 Q1867.89 585.713 1870.11 586.268 Q1872.33 586.824 1874.81 586.824 Q1878.82 586.824 1881.15 584.718 Q1883.49 582.611 1883.49 579 Q1883.49 575.389 1881.15 573.282 Q1878.82 571.176 1874.81 571.176 Q1872.94 571.176 1871.06 571.593 Q1869.21 572.009 1867.27 572.889 L1867.27 555.528 Z" fill="#000000" fill-rule="evenodd" fill-opacity="1" /><path clip-path="url(#clip960)" d="M2106.45 586.153 L2114.08 586.153 L2114.08 559.787 L2105.77 561.454 L2105.77 557.195 L2114.04 555.528 L2118.71 555.528 L2118.71 586.153 L2126.35 586.153 L2126.35 590.088 L2106.45 590.088 L2106.45 586.153 Z" fill="#000000" fill-rule="evenodd" fill-opacity="1" /><path clip-path="url(#clip960)" d="M2145.8 558.607 Q2142.19 558.607 2140.36 562.171 Q2138.55 565.713 2138.55 572.843 Q2138.55 579.949 2140.36 583.514 Q2142.19 587.055 2145.8 587.055 Q2149.43 587.055 2151.24 583.514 Q2153.07 579.949 2153.07 572.843 Q2153.07 565.713 2151.24 562.171 Q2149.43 558.607 2145.8 558.607 M2145.8 554.903 Q2151.61 554.903 2154.66 559.509 Q2157.74 564.093 2157.74 572.843 Q2157.74 581.569 2154.66 586.176 Q2151.61 590.759 2145.8 590.759 Q2139.99 590.759 2136.91 586.176 Q2133.85 581.569 2133.85 572.843 Q2133.85 564.093 2136.91 559.509 Q2139.99 554.903 2145.8 554.903 Z" fill="#000000" fill-rule="evenodd" fill-opacity="1" /><path clip-path="url(#clip960)" d="M2361.71 586.153 L2369.35 586.153 L2369.35 559.787 L2361.04 561.454 L2361.04 557.195 L2369.31 555.528 L2373.98 555.528 L2373.98 586.153 L2381.62 586.153 L2381.62 590.088 L2361.71 590.088 L2361.71 586.153 Z" fill="#000000" fill-rule="evenodd" fill-opacity="1" /><path clip-path="url(#clip960)" d="M2391.11 555.528 L2409.47 555.528 L2409.47 559.463 L2395.39 559.463 L2395.39 567.935 Q2396.41 567.588 2397.43 567.426 Q2398.45 567.241 2399.47 567.241 Q2405.25 567.241 2408.63 570.412 Q2412.01 573.583 2412.01 579 Q2412.01 584.579 2408.54 587.68 Q2405.07 590.759 2398.75 590.759 Q2396.57 590.759 2394.31 590.389 Q2392.06 590.018 2389.65 589.278 L2389.65 584.579 Q2391.74 585.713 2393.96 586.268 Q2396.18 586.824 2398.66 586.824 Q2402.66 586.824 2405 584.718 Q2407.34 582.611 2407.34 579 Q2407.34 575.389 2405 573.282 Q2402.66 571.176 2398.66 571.176 Q2396.78 571.176 2394.91 571.593 Q2393.06 572.009 2391.11 572.889 L2391.11 555.528 Z" fill="#000000" fill-rule="evenodd" fill-opacity="1" /><path clip-path="url(#clip960)" d="M2620.07 586.153 L2636.39 586.153 L2636.39 590.088 L2614.45 590.088 L2614.45 586.153 Q2617.11 583.398 2621.69 578.768 Q2626.3 574.116 2627.48 572.773 Q2629.72 570.25 2630.6 568.514 Q2631.51 566.755 2631.51 565.065 Q2631.51 562.31 2629.56 560.574 Q2627.64 558.838 2624.54 558.838 Q2622.34 558.838 2619.89 559.602 Q2617.46 560.366 2614.68 561.917 L2614.68 557.195 Q2617.5 556.06 2619.96 555.482 Q2622.41 554.903 2624.45 554.903 Q2629.82 554.903 2633.01 557.588 Q2636.21 560.273 2636.21 564.764 Q2636.21 566.894 2635.4 568.815 Q2634.61 570.713 2632.5 573.306 Q2631.92 573.977 2628.82 577.194 Q2625.72 580.389 2620.07 586.153 Z" fill="#000000" fill-rule="evenodd" fill-opacity="1" /><path clip-path="url(#clip960)" d="M2656.21 558.607 Q2652.59 558.607 2650.77 562.171 Q2648.96 565.713 2648.96 572.843 Q2648.96 579.949 2650.77 583.514 Q2652.59 587.055 2656.21 587.055 Q2659.84 587.055 2661.65 583.514 Q2663.47 579.949 2663.47 572.843 Q2663.47 565.713 2661.65 562.171 Q2659.84 558.607 2656.21 558.607 M2656.21 554.903 Q2662.02 554.903 2665.07 559.509 Q2668.15 564.093 2668.15 572.843 Q2668.15 581.569 2665.07 586.176 Q2662.02 590.759 2656.21 590.759 Q2650.4 590.759 2647.32 586.176 Q2644.26 581.569 2644.26 572.843 Q2644.26 564.093 2647.32 559.509 Q2650.4 554.903 2656.21 554.903 Z" fill="#000000" fill-rule="evenodd" fill-opacity="1" /><path clip-path="url(#clip960)" d="M2875.34 586.153 L2891.66 586.153 L2891.66 590.088 L2869.71 590.088 L2869.71 586.153 Q2872.38 583.398 2876.96 578.768 Q2881.57 574.116 2882.75 572.773 Q2884.99 570.25 2885.87 568.514 Q2886.77 566.755 2886.77 565.065 Q2886.77 562.31 2884.83 560.574 Q2882.91 558.838 2879.81 558.838 Q2877.61 558.838 2875.15 559.602 Q2872.72 560.366 2869.95 561.917 L2869.95 557.195 Q2872.77 556.06 2875.22 555.482 Q2877.68 554.903 2879.71 554.903 Q2885.08 554.903 2888.28 557.588 Q2891.47 560.273 2891.47 564.764 Q2891.47 566.894 2890.66 568.815 Q2889.88 570.713 2887.77 573.306 Q2887.19 573.977 2884.09 577.194 Q2880.99 580.389 2875.34 586.153 Z" fill="#000000" fill-rule="evenodd" fill-opacity="1" /><path clip-path="url(#clip960)" d="M2901.52 555.528 L2919.88 555.528 L2919.88 559.463 L2905.8 559.463 L2905.8 567.935 Q2906.82 567.588 2907.84 567.426 Q2908.86 567.241 2909.88 567.241 Q2915.66 567.241 2919.04 570.412 Q2922.42 573.583 2922.42 579 Q2922.42 584.579 2918.95 587.68 Q2915.48 590.759 2909.16 590.759 Q2906.98 590.759 2904.71 590.389 Q2902.47 590.018 2900.06 589.278 L2900.06 584.579 Q2902.14 585.713 2904.37 586.268 Q2906.59 586.824 2909.07 586.824 Q2913.07 586.824 2915.41 584.718 Q2917.75 582.611 2917.75 579 Q2917.75 575.389 2915.41 573.282 Q2913.07 571.176 2909.07 571.176 Q2907.19 571.176 2905.32 571.593 Q2903.46 572.009 2901.52 572.889 L2901.52 555.528 Z" fill="#000000" fill-rule="evenodd" fill-opacity="1" /><path clip-path="url(#clip960)" d="M3139.68 571.454 Q3143.04 572.171 3144.91 574.44 Q3146.81 576.708 3146.81 580.042 Q3146.81 585.157 3143.29 587.958 Q3139.77 590.759 3133.29 590.759 Q3131.12 590.759 3128.8 590.319 Q3126.51 589.903 3124.06 589.046 L3124.06 584.532 Q3126 585.667 3128.32 586.245 Q3130.63 586.824 3133.15 586.824 Q3137.55 586.824 3139.84 585.088 Q3142.16 583.352 3142.16 580.042 Q3142.16 576.986 3140.01 575.273 Q3137.88 573.537 3134.06 573.537 L3130.03 573.537 L3130.03 569.694 L3134.24 569.694 Q3137.69 569.694 3139.52 568.329 Q3141.35 566.94 3141.35 564.347 Q3141.35 561.685 3139.45 560.273 Q3137.57 558.838 3134.06 558.838 Q3132.14 558.838 3129.94 559.255 Q3127.74 559.671 3125.1 560.551 L3125.1 556.384 Q3127.76 555.644 3130.07 555.273 Q3132.41 554.903 3134.47 554.903 Q3139.8 554.903 3142.9 557.333 Q3146 559.741 3146 563.861 Q3146 566.732 3144.36 568.722 Q3142.71 570.69 3139.68 571.454 Z" fill="#000000" fill-rule="evenodd" fill-opacity="1" /><path clip-path="url(#clip960)" d="M3165.68 558.607 Q3162.07 558.607 3160.24 562.171 Q3158.43 565.713 3158.43 572.843 Q3158.43 579.949 3160.24 583.514 Q3162.07 587.055 3165.68 587.055 Q3169.31 587.055 3171.12 583.514 Q3172.95 579.949 3172.95 572.843 Q3172.95 565.713 3171.12 562.171 Q3169.31 558.607 3165.68 558.607 M3165.68 554.903 Q3171.49 554.903 3174.54 559.509 Q3177.62 564.093 3177.62 572.843 Q3177.62 581.569 3174.54 586.176 Q3171.49 590.759 3165.68 590.759 Q3159.87 590.759 3156.79 586.176 Q3153.73 581.569 3153.73 572.843 Q3153.73 564.093 3156.79 559.509 Q3159.87 554.903 3165.68 554.903 Z" fill="#000000" fill-rule="evenodd" fill-opacity="1" /><polyline clip-path="url(#clip963)" style="stroke:#000000; stroke-linecap:round; stroke-linejoin:round; stroke-width:2; stroke-opacity:0.1; fill:none" points="1757.23,507.872 3152.76,507.872 "/>
<polyline clip-path="url(#clip963)" style="stroke:#000000; stroke-linecap:round; stroke-linejoin:round; stroke-width:2; stroke-opacity:0.1; fill:none" points="1757.23,411.114 3152.76,411.114 "/>
<polyline clip-path="url(#clip963)" style="stroke:#000000; stroke-linecap:round; stroke-linejoin:round; stroke-width:2; stroke-opacity:0.1; fill:none" points="1757.23,314.356 3152.76,314.356 "/>
<polyline clip-path="url(#clip963)" style="stroke:#000000; stroke-linecap:round; stroke-linejoin:round; stroke-width:2; stroke-opacity:0.1; fill:none" points="1757.23,217.598 3152.76,217.598 "/>
<polyline clip-path="url(#clip963)" style="stroke:#000000; stroke-linecap:round; stroke-linejoin:round; stroke-width:2; stroke-opacity:0.1; fill:none" points="1757.23,120.84 3152.76,120.84 "/>
<polyline clip-path="url(#clip960)" style="stroke:#000000; stroke-linecap:round; stroke-linejoin:round; stroke-width:4; stroke-opacity:1; fill:none" points="1757.23,521.288 1757.23,47.2441 "/>
<polyline clip-path="url(#clip960)" style="stroke:#000000; stroke-linecap:round; stroke-linejoin:round; stroke-width:4; stroke-opacity:1; fill:none" points="1757.23,507.872 1776.12,507.872 "/>
<polyline clip-path="url(#clip960)" style="stroke:#000000; stroke-linecap:round; stroke-linejoin:round; stroke-width:4; stroke-opacity:1; fill:none" points="1757.23,411.114 1776.12,411.114 "/>
<polyline clip-path="url(#clip960)" style="stroke:#000000; stroke-linecap:round; stroke-linejoin:round; stroke-width:4; stroke-opacity:1; fill:none" points="1757.23,314.356 1776.12,314.356 "/>
<polyline clip-path="url(#clip960)" style="stroke:#000000; stroke-linecap:round; stroke-linejoin:round; stroke-width:4; stroke-opacity:1; fill:none" points="1757.23,217.598 1776.12,217.598 "/>
<polyline clip-path="url(#clip960)" style="stroke:#000000; stroke-linecap:round; stroke-linejoin:round; stroke-width:4; stroke-opacity:1; fill:none" points="1757.23,120.84 1776.12,120.84 "/>
<path clip-path="url(#clip960)" d="M1621.89 493.67 Q1618.28 493.67 1616.45 497.235 Q1614.64 500.777 1614.64 507.906 Q1614.64 515.013 1616.45 518.578 Q1618.28 522.119 1621.89 522.119 Q1625.52 522.119 1627.33 518.578 Q1629.16 515.013 1629.16 507.906 Q1629.16 500.777 1627.33 497.235 Q1625.52 493.67 1621.89 493.67 M1621.89 489.967 Q1627.7 489.967 1630.75 494.573 Q1633.83 499.156 1633.83 507.906 Q1633.83 516.633 1630.75 521.24 Q1627.7 525.823 1621.89 525.823 Q1616.08 525.823 1613 521.24 Q1609.94 516.633 1609.94 507.906 Q1609.94 499.156 1613 494.573 Q1616.08 489.967 1621.89 489.967 Z" fill="#000000" fill-rule="evenodd" fill-opacity="1" /><path clip-path="url(#clip960)" d="M1642.05 519.272 L1646.93 519.272 L1646.93 525.152 L1642.05 525.152 L1642.05 519.272 Z" fill="#000000" fill-rule="evenodd" fill-opacity="1" /><path clip-path="url(#clip960)" d="M1667.12 493.67 Q1663.51 493.67 1661.68 497.235 Q1659.87 500.777 1659.87 507.906 Q1659.87 515.013 1661.68 518.578 Q1663.51 522.119 1667.12 522.119 Q1670.75 522.119 1672.56 518.578 Q1674.39 515.013 1674.39 507.906 Q1674.39 500.777 1672.56 497.235 Q1670.75 493.67 1667.12 493.67 M1667.12 489.967 Q1672.93 489.967 1675.99 494.573 Q1679.06 499.156 1679.06 507.906 Q1679.06 516.633 1675.99 521.24 Q1672.93 525.823 1667.12 525.823 Q1661.31 525.823 1658.23 521.24 Q1655.17 516.633 1655.17 507.906 Q1655.17 499.156 1658.23 494.573 Q1661.31 489.967 1667.12 489.967 Z" fill="#000000" fill-rule="evenodd" fill-opacity="1" /><path clip-path="url(#clip960)" d="M1697.28 493.67 Q1693.67 493.67 1691.84 497.235 Q1690.04 500.777 1690.04 507.906 Q1690.04 515.013 1691.84 518.578 Q1693.67 522.119 1697.28 522.119 Q1700.92 522.119 1702.72 518.578 Q1704.55 515.013 1704.55 507.906 Q1704.55 500.777 1702.72 497.235 Q1700.92 493.67 1697.28 493.67 M1697.28 489.967 Q1703.09 489.967 1706.15 494.573 Q1709.23 499.156 1709.23 507.906 Q1709.23 516.633 1706.15 521.24 Q1703.09 525.823 1697.28 525.823 Q1691.47 525.823 1688.39 521.24 Q1685.34 516.633 1685.34 507.906 Q1685.34 499.156 1688.39 494.573 Q1691.47 489.967 1697.28 489.967 Z" fill="#000000" fill-rule="evenodd" fill-opacity="1" /><path clip-path="url(#clip960)" d="M1622.88 396.912 Q1619.27 396.912 1617.44 400.477 Q1615.64 404.019 1615.64 411.148 Q1615.64 418.255 1617.44 421.82 Q1619.27 425.361 1622.88 425.361 Q1626.52 425.361 1628.32 421.82 Q1630.15 418.255 1630.15 411.148 Q1630.15 404.019 1628.32 400.477 Q1626.52 396.912 1622.88 396.912 M1622.88 393.209 Q1628.69 393.209 1631.75 397.815 Q1634.83 402.399 1634.83 411.148 Q1634.83 419.875 1631.75 424.482 Q1628.69 429.065 1622.88 429.065 Q1617.07 429.065 1613.99 424.482 Q1610.94 419.875 1610.94 411.148 Q1610.94 402.399 1613.99 397.815 Q1617.07 393.209 1622.88 393.209 Z" fill="#000000" fill-rule="evenodd" fill-opacity="1" /><path clip-path="url(#clip960)" d="M1643.05 422.514 L1647.93 422.514 L1647.93 428.394 L1643.05 428.394 L1643.05 422.514 Z" fill="#000000" fill-rule="evenodd" fill-opacity="1" /><path clip-path="url(#clip960)" d="M1668.11 396.912 Q1664.5 396.912 1662.67 400.477 Q1660.87 404.019 1660.87 411.148 Q1660.87 418.255 1662.67 421.82 Q1664.5 425.361 1668.11 425.361 Q1671.75 425.361 1673.55 421.82 Q1675.38 418.255 1675.38 411.148 Q1675.38 404.019 1673.55 400.477 Q1671.75 396.912 1668.11 396.912 M1668.11 393.209 Q1673.92 393.209 1676.98 397.815 Q1680.06 402.399 1680.06 411.148 Q1680.06 419.875 1676.98 424.482 Q1673.92 429.065 1668.11 429.065 Q1662.3 429.065 1659.23 424.482 Q1656.17 419.875 1656.17 411.148 Q1656.17 402.399 1659.23 397.815 Q1662.3 393.209 1668.11 393.209 Z" fill="#000000" fill-rule="evenodd" fill-opacity="1" /><path clip-path="url(#clip960)" d="M1688.32 393.834 L1706.68 393.834 L1706.68 397.769 L1692.61 397.769 L1692.61 406.241 Q1693.62 405.894 1694.64 405.732 Q1695.66 405.547 1696.68 405.547 Q1702.47 405.547 1705.85 408.718 Q1709.23 411.889 1709.23 417.306 Q1709.23 422.885 1705.75 425.986 Q1702.28 429.065 1695.96 429.065 Q1693.79 429.065 1691.52 428.695 Q1689.27 428.324 1686.86 427.584 L1686.86 422.885 Q1688.95 424.019 1691.17 424.574 Q1693.39 425.13 1695.87 425.13 Q1699.87 425.13 1702.21 423.023 Q1704.55 420.917 1704.55 417.306 Q1704.55 413.695 1702.21 411.588 Q1699.87 409.482 1695.87 409.482 Q1693.99 409.482 1692.12 409.899 Q1690.27 410.315 1688.32 411.195 L1688.32 393.834 Z" fill="#000000" fill-rule="evenodd" fill-opacity="1" /><path clip-path="url(#clip960)" d="M1621.89 300.155 Q1618.28 300.155 1616.45 303.719 Q1614.64 307.261 1614.64 314.391 Q1614.64 321.497 1616.45 325.062 Q1618.28 328.604 1621.89 328.604 Q1625.52 328.604 1627.33 325.062 Q1629.16 321.497 1629.16 314.391 Q1629.16 307.261 1627.33 303.719 Q1625.52 300.155 1621.89 300.155 M1621.89 296.451 Q1627.7 296.451 1630.75 301.057 Q1633.83 305.641 1633.83 314.391 Q1633.83 323.118 1630.75 327.724 Q1627.7 332.307 1621.89 332.307 Q1616.08 332.307 1613 327.724 Q1609.94 323.118 1609.94 314.391 Q1609.94 305.641 1613 301.057 Q1616.08 296.451 1621.89 296.451 Z" fill="#000000" fill-rule="evenodd" fill-opacity="1" /><path clip-path="url(#clip960)" d="M1642.05 325.756 L1646.93 325.756 L1646.93 331.636 L1642.05 331.636 L1642.05 325.756 Z" fill="#000000" fill-rule="evenodd" fill-opacity="1" /><path clip-path="url(#clip960)" d="M1657.93 327.701 L1665.57 327.701 L1665.57 301.335 L1657.26 303.002 L1657.26 298.743 L1665.52 297.076 L1670.2 297.076 L1670.2 327.701 L1677.84 327.701 L1677.84 331.636 L1657.93 331.636 L1657.93 327.701 Z" fill="#000000" fill-rule="evenodd" fill-opacity="1" /><path clip-path="url(#clip960)" d="M1697.28 300.155 Q1693.67 300.155 1691.84 303.719 Q1690.04 307.261 1690.04 314.391 Q1690.04 321.497 1691.84 325.062 Q1693.67 328.604 1697.28 328.604 Q1700.92 328.604 1702.72 325.062 Q1704.55 321.497 1704.55 314.391 Q1704.55 307.261 1702.72 303.719 Q1700.92 300.155 1697.28 300.155 M1697.28 296.451 Q1703.09 296.451 1706.15 301.057 Q1709.23 305.641 1709.23 314.391 Q1709.23 323.118 1706.15 327.724 Q1703.09 332.307 1697.28 332.307 Q1691.47 332.307 1688.39 327.724 Q1685.34 323.118 1685.34 314.391 Q1685.34 305.641 1688.39 301.057 Q1691.47 296.451 1697.28 296.451 Z" fill="#000000" fill-rule="evenodd" fill-opacity="1" /><path clip-path="url(#clip960)" d="M1622.88 203.397 Q1619.27 203.397 1617.44 206.962 Q1615.64 210.503 1615.64 217.633 Q1615.64 224.739 1617.44 228.304 Q1619.27 231.846 1622.88 231.846 Q1626.52 231.846 1628.32 228.304 Q1630.15 224.739 1630.15 217.633 Q1630.15 210.503 1628.32 206.962 Q1626.52 203.397 1622.88 203.397 M1622.88 199.693 Q1628.69 199.693 1631.75 204.3 Q1634.83 208.883 1634.83 217.633 Q1634.83 226.36 1631.75 230.966 Q1628.69 235.55 1622.88 235.55 Q1617.07 235.55 1613.99 230.966 Q1610.94 226.36 1610.94 217.633 Q1610.94 208.883 1613.99 204.3 Q1617.07 199.693 1622.88 199.693 Z" fill="#000000" fill-rule="evenodd" fill-opacity="1" /><path clip-path="url(#clip960)" d="M1643.05 228.999 L1647.93 228.999 L1647.93 234.878 L1643.05 234.878 L1643.05 228.999 Z" fill="#000000" fill-rule="evenodd" fill-opacity="1" /><path clip-path="url(#clip960)" d="M1658.92 230.943 L1666.56 230.943 L1666.56 204.577 L1658.25 206.244 L1658.25 201.985 L1666.52 200.318 L1671.19 200.318 L1671.19 230.943 L1678.83 230.943 L1678.83 234.878 L1658.92 234.878 L1658.92 230.943 Z" fill="#000000" fill-rule="evenodd" fill-opacity="1" /><path clip-path="url(#clip960)" d="M1688.32 200.318 L1706.68 200.318 L1706.68 204.253 L1692.61 204.253 L1692.61 212.726 Q1693.62 212.378 1694.64 212.216 Q1695.66 212.031 1696.68 212.031 Q1702.47 212.031 1705.85 215.202 Q1709.23 218.374 1709.23 223.79 Q1709.23 229.369 1705.75 232.471 Q1702.28 235.55 1695.96 235.55 Q1693.79 235.55 1691.52 235.179 Q1689.27 234.809 1686.86 234.068 L1686.86 229.369 Q1688.95 230.503 1691.17 231.059 Q1693.39 231.614 1695.87 231.614 Q1699.87 231.614 1702.21 229.508 Q1704.55 227.401 1704.55 223.79 Q1704.55 220.179 1702.21 218.073 Q1699.87 215.966 1695.87 215.966 Q1693.99 215.966 1692.12 216.383 Q1690.27 216.8 1688.32 217.679 L1688.32 200.318 Z" fill="#000000" fill-rule="evenodd" fill-opacity="1" /><path clip-path="url(#clip960)" d="M1621.89 106.639 Q1618.28 106.639 1616.45 110.204 Q1614.64 113.746 1614.64 120.875 Q1614.64 127.982 1616.45 131.546 Q1618.28 135.088 1621.89 135.088 Q1625.52 135.088 1627.33 131.546 Q1629.16 127.982 1629.16 120.875 Q1629.16 113.746 1627.33 110.204 Q1625.52 106.639 1621.89 106.639 M1621.89 102.935 Q1627.7 102.935 1630.75 107.542 Q1633.83 112.125 1633.83 120.875 Q1633.83 129.602 1630.75 134.208 Q1627.7 138.792 1621.89 138.792 Q1616.08 138.792 1613 134.208 Q1609.94 129.602 1609.94 120.875 Q1609.94 112.125 1613 107.542 Q1616.08 102.935 1621.89 102.935 Z" fill="#000000" fill-rule="evenodd" fill-opacity="1" /><path clip-path="url(#clip960)" d="M1642.05 132.241 L1646.93 132.241 L1646.93 138.12 L1642.05 138.12 L1642.05 132.241 Z" fill="#000000" fill-rule="evenodd" fill-opacity="1" /><path clip-path="url(#clip960)" d="M1661.15 134.185 L1677.47 134.185 L1677.47 138.12 L1655.52 138.12 L1655.52 134.185 Q1658.18 131.431 1662.77 126.801 Q1667.37 122.148 1668.55 120.806 Q1670.8 118.283 1671.68 116.547 Q1672.58 114.787 1672.58 113.097 Q1672.58 110.343 1670.64 108.607 Q1668.72 106.871 1665.61 106.871 Q1663.42 106.871 1660.96 107.635 Q1658.53 108.398 1655.75 109.949 L1655.75 105.227 Q1658.58 104.093 1661.03 103.514 Q1663.49 102.935 1665.52 102.935 Q1670.89 102.935 1674.09 105.621 Q1677.28 108.306 1677.28 112.797 Q1677.28 114.926 1676.47 116.847 Q1675.68 118.746 1673.58 121.338 Q1673 122.009 1669.9 125.227 Q1666.8 128.421 1661.15 134.185 Z" fill="#000000" fill-rule="evenodd" fill-opacity="1" /><path clip-path="url(#clip960)" d="M1697.28 106.639 Q1693.67 106.639 1691.84 110.204 Q1690.04 113.746 1690.04 120.875 Q1690.04 127.982 1691.84 131.546 Q1693.67 135.088 1697.28 135.088 Q1700.92 135.088 1702.72 131.546 Q1704.55 127.982 1704.55 120.875 Q1704.55 113.746 1702.72 110.204 Q1700.92 106.639 1697.28 106.639 M1697.28 102.935 Q1703.09 102.935 1706.15 107.542 Q1709.23 112.125 1709.23 120.875 Q1709.23 129.602 1706.15 134.208 Q1703.09 138.792 1697.28 138.792 Q1691.47 138.792 1688.39 134.208 Q1685.34 129.602 1685.34 120.875 Q1685.34 112.125 1688.39 107.542 Q1691.47 102.935 1697.28 102.935 Z" fill="#000000" fill-rule="evenodd" fill-opacity="1" /><polyline clip-path="url(#clip963)" style="stroke:#009af9; stroke-linecap:round; stroke-linejoin:round; stroke-width:4; stroke-opacity:1; fill:none" points="1796.72,507.871 1803.34,507.869 1809.95,507.857 1816.57,507.805 1823.18,507.632 1829.8,507.167 1836.42,506.15 1843.03,504.294 1849.65,501.323 1856.26,496.89 1862.88,490.469 1869.5,481.496 1876.11,469.679 1882.73,455.003 1889.34,437.314 1895.96,416.149 1902.57,391.221 1909.19,362.949 1915.81,332.329 1922.42,300.565 1929.04,269.124 1935.65,239.723 1942.27,213.503 1948.88,190.085 1955.5,167.848 1962.12,145.418 1968.73,123.037 1975.35,102.514 1981.96,85.7994 1988.58,73.6385 1995.19,65.685 2001.81,61.4688 2008.43,60.6604 2015.04,62.562 2021.66,66.0233 2028.27,70.1662 2034.89,75.0877 2041.51,81.7187 2048.12,91.006 2054.74,103.396 2061.35,119.063 2067.97,138.06 2074.58,159.795 2081.2,182.715 2087.82,204.914 2094.43,224.902 2101.05,241.838 2107.66,255.567 2114.28,266.722 2120.89,276.621 2127.51,286.807 2134.13,298.393 2140.74,311.456 2147.36,324.957 2153.97,337.444 2160.59,348.163 2167.2,357.677 2173.82,367.324 2180.44,378.04 2187.05,389.693 2193.67,401.361 2200.28,411.953 2206.9,420.729 2213.52,427.664 2220.13,433.443 2226.75,438.836 2233.36,443.996 2239.98,448.482 2246.59,451.909 2253.21,454.422 2259.83,456.554 2266.44,458.821 2273.06,461.482 2279.67,464.535 2286.29,467.796 2292.9,471.073 2299.52,474.363 2306.14,477.823 2312.75,481.444 2319.37,484.876 2325.98,487.671 2332.6,489.66 2339.21,491.023 2345.83,492.024 2352.45,492.771 2359.06,493.274 2365.68,493.659 2372.29,494.221 2378.91,495.194 2385.53,496.516 2392.14,497.849 2398.76,498.837 2405.37,499.372 2411.99,499.649 2418.6,499.987 2425.22,500.546 2431.84,501.21 2438.45,501.736 2445.07,501.97 2451.68,501.949 2458.3,501.848 2464.91,501.872 2471.53,502.135 2478.15,502.593 2484.76,503.117 2491.38,503.609 2497.99,504.037 2504.61,504.409 2511.22,504.75 2517.84,505.078 2524.46,505.386 2531.07,505.645 2537.69,505.839 2544.3,505.979 2550.92,506.09 2557.54,506.198 2564.15,506.326 2570.77,506.465 2577.38,506.567 2584,506.585 2590.61,506.545 2597.23,506.54 2603.85,506.622 2610.46,506.736 2617.08,506.8 2623.69,506.801 2630.31,506.794 2636.92,506.823 2643.54,506.896 2650.16,506.997 2656.77,507.113 2663.39,507.233 2670,507.35 2676.62,507.447 2683.23,507.507 2689.85,507.529 2696.47,507.544 2703.08,507.588 2709.7,507.662 2716.31,507.732 2722.93,507.76 2729.55,507.731 2736.16,507.664 2742.78,507.601 2749.39,507.586 2756.01,507.632 2762.62,507.712 2769.24,507.782 2775.86,507.815 2782.47,507.792 2789.09,507.703 2795.7,507.543 2802.32,507.342 2808.93,507.167 2815.55,507.094 2822.17,507.152 2828.78,507.294 2835.4,507.436 2842.01,507.515 2848.63,507.536 2855.24,507.551 2861.86,507.603 2868.48,507.688 2875.09,507.772 2881.71,507.829 2888.32,507.857 2894.94,507.868 2901.56,507.871 2908.17,507.871 2914.79,507.872 2921.4,507.872 2928.02,507.872 2934.63,507.872 2941.25,507.872 2947.87,507.872 2954.48,507.872 2961.1,507.872 2967.71,507.872 2974.33,507.872 2980.94,507.872 2987.56,507.872 2994.18,507.872 3000.79,507.871 3007.41,507.871 3014.02,507.869 3020.64,507.862 3027.25,507.837 3033.87,507.775 3040.49,507.657 3047.1,507.493 3053.72,507.344 3060.33,507.291 3066.95,507.37 3073.57,507.53 3080.18,507.689 3086.8,507.795 3093.41,507.846 3100.03,507.865 3106.64,507.87 3113.26,507.871 "/>
<path clip-path="url(#clip960)" d="M2785.58 166.726 L3106.24 166.726 L3106.24 63.0456 L2785.58 63.0456  Z" fill="#ffffff" fill-rule="evenodd" fill-opacity="1"/>
<polyline clip-path="url(#clip960)" style="stroke:#000000; stroke-linecap:round; stroke-linejoin:round; stroke-width:4; stroke-opacity:1; fill:none" points="2785.58,166.726 3106.24,166.726 3106.24,63.0456 2785.58,63.0456 2785.58,166.726 "/>
<polyline clip-path="url(#clip960)" style="stroke:#009af9; stroke-linecap:round; stroke-linejoin:round; stroke-width:4; stroke-opacity:1; fill:none" points="2801.08,114.886 2894.12,114.886 "/>
<path clip-path="url(#clip960)" d="M2928.05 107.004 L2928.05 111.031 Q2926.24 110.105 2924.3 109.643 Q2922.35 109.18 2920.27 109.18 Q2917.1 109.18 2915.5 110.152 Q2913.93 111.124 2913.93 113.068 Q2913.93 114.55 2915.06 115.406 Q2916.2 116.24 2919.62 117.004 L2921.08 117.328 Q2925.62 118.3 2927.52 120.082 Q2929.44 121.842 2929.44 125.013 Q2929.44 128.624 2926.57 130.73 Q2923.72 132.837 2918.72 132.837 Q2916.64 132.837 2914.37 132.42 Q2912.12 132.027 2909.62 131.216 L2909.62 126.818 Q2911.98 128.045 2914.27 128.67 Q2916.57 129.272 2918.81 129.272 Q2921.82 129.272 2923.44 128.254 Q2925.06 127.212 2925.06 125.337 Q2925.06 123.601 2923.88 122.675 Q2922.72 121.749 2918.77 120.892 L2917.28 120.545 Q2913.33 119.712 2911.57 117.999 Q2909.81 116.263 2909.81 113.254 Q2909.81 109.596 2912.4 107.606 Q2914.99 105.615 2919.76 105.615 Q2922.12 105.615 2924.21 105.962 Q2926.29 106.309 2928.05 107.004 Z" fill="#000000" fill-rule="evenodd" fill-opacity="1" /><path clip-path="url(#clip960)" d="M2936.22 106.24 L2940.48 106.24 L2940.48 132.166 L2936.22 132.166 L2936.22 106.24 M2936.22 96.1472 L2940.48 96.1472 L2940.48 101.541 L2936.22 101.541 L2936.22 96.1472 Z" fill="#000000" fill-rule="evenodd" fill-opacity="1" /><path clip-path="url(#clip960)" d="M2966.45 118.902 Q2966.45 114.272 2964.53 111.726 Q2962.63 109.18 2959.18 109.18 Q2955.76 109.18 2953.83 111.726 Q2951.94 114.272 2951.94 118.902 Q2951.94 123.508 2953.83 126.054 Q2955.76 128.601 2959.18 128.601 Q2962.63 128.601 2964.53 126.054 Q2966.45 123.508 2966.45 118.902 M2970.71 128.948 Q2970.71 135.568 2967.77 138.786 Q2964.83 142.027 2958.77 142.027 Q2956.52 142.027 2954.53 141.679 Q2952.54 141.355 2950.66 140.661 L2950.66 136.517 Q2952.54 137.536 2954.37 138.022 Q2956.2 138.508 2958.09 138.508 Q2962.28 138.508 2964.37 136.309 Q2966.45 134.133 2966.45 129.712 L2966.45 127.605 Q2965.13 129.897 2963.07 131.031 Q2961.01 132.166 2958.14 132.166 Q2953.37 132.166 2950.46 128.531 Q2947.54 124.897 2947.54 118.902 Q2947.54 112.883 2950.46 109.249 Q2953.37 105.615 2958.14 105.615 Q2961.01 105.615 2963.07 106.749 Q2965.13 107.883 2966.45 110.175 L2966.45 106.24 L2970.71 106.24 L2970.71 128.948 Z" fill="#000000" fill-rule="evenodd" fill-opacity="1" /><path clip-path="url(#clip960)" d="M2999.67 111.217 Q3001.27 108.346 3003.49 106.981 Q3005.71 105.615 3008.72 105.615 Q3012.77 105.615 3014.97 108.462 Q3017.17 111.286 3017.17 116.517 L3017.17 132.166 L3012.89 132.166 L3012.89 116.656 Q3012.89 112.93 3011.57 111.124 Q3010.25 109.318 3007.54 109.318 Q3004.23 109.318 3002.31 111.518 Q3000.39 113.717 3000.39 117.513 L3000.39 132.166 L2996.1 132.166 L2996.1 116.656 Q2996.1 112.906 2994.78 111.124 Q2993.46 109.318 2990.71 109.318 Q2987.45 109.318 2985.52 111.541 Q2983.6 113.74 2983.6 117.513 L2983.6 132.166 L2979.32 132.166 L2979.32 106.24 L2983.6 106.24 L2983.6 110.268 Q2985.06 107.883 2987.1 106.749 Q2989.14 105.615 2991.94 105.615 Q2994.76 105.615 2996.73 107.05 Q2998.72 108.485 2999.67 111.217 Z" fill="#000000" fill-rule="evenodd" fill-opacity="1" /><path clip-path="url(#clip960)" d="M3037.45 119.133 Q3032.28 119.133 3030.29 120.314 Q3028.3 121.494 3028.3 124.342 Q3028.3 126.61 3029.78 127.953 Q3031.29 129.272 3033.86 129.272 Q3037.4 129.272 3039.53 126.772 Q3041.68 124.249 3041.68 120.082 L3041.68 119.133 L3037.45 119.133 M3045.94 117.374 L3045.94 132.166 L3041.68 132.166 L3041.68 128.23 Q3040.22 130.591 3038.05 131.726 Q3035.87 132.837 3032.72 132.837 Q3028.74 132.837 3026.38 130.615 Q3024.04 128.369 3024.04 124.619 Q3024.04 120.244 3026.96 118.022 Q3029.9 115.8 3035.71 115.8 L3041.68 115.8 L3041.68 115.383 Q3041.68 112.443 3039.74 110.846 Q3037.82 109.226 3034.32 109.226 Q3032.1 109.226 3029.99 109.758 Q3027.89 110.291 3025.94 111.355 L3025.94 107.42 Q3028.28 106.518 3030.48 106.078 Q3032.68 105.615 3034.76 105.615 Q3040.39 105.615 3043.16 108.531 Q3045.94 111.448 3045.94 117.374 Z" fill="#000000" fill-rule="evenodd" fill-opacity="1" /><path clip-path="url(#clip960)" d="M3074.41 128.23 L3090.73 128.23 L3090.73 132.166 L3068.79 132.166 L3068.79 128.23 Q3071.45 125.476 3076.03 120.846 Q3080.64 116.193 3081.82 114.851 Q3084.07 112.328 3084.95 110.592 Q3085.85 108.832 3085.85 107.143 Q3085.85 104.388 3083.9 102.652 Q3081.98 100.916 3078.88 100.916 Q3076.68 100.916 3074.23 101.68 Q3071.8 102.443 3069.02 103.994 L3069.02 99.2722 Q3071.84 98.138 3074.3 97.5593 Q3076.75 96.9806 3078.79 96.9806 Q3084.16 96.9806 3087.35 99.6657 Q3090.55 102.351 3090.55 106.842 Q3090.55 108.971 3089.74 110.893 Q3088.95 112.791 3086.84 115.383 Q3086.26 116.055 3083.16 119.272 Q3080.06 122.467 3074.41 128.23 Z" fill="#000000" fill-rule="evenodd" fill-opacity="1" /></svg>
