<?xml version="1.0" encoding="utf-8"?>
<svg xmlns="http://www.w3.org/2000/svg" xmlns:xlink="http://www.w3.org/1999/xlink" width="500" height="500" viewBox="0 0 2000 2000">
<defs>
  <clipPath id="clip000">
    <rect x="0" y="0" width="2000" height="2000"/>
  </clipPath>
</defs>
<path clip-path="url(#clip000)" d="M0 2000 L2000 2000 L2000 0 L0 0  Z" fill="#ffffff" fill-rule="evenodd" fill-opacity="1"/>
<defs>
  <clipPath id="clip001">
    <rect x="400" y="200" width="1401" height="1401"/>
  </clipPath>
</defs>
<path clip-path="url(#clip000)" d="M269.302 778.14 L1952.76 778.14 L1952.76 153.712 L269.302 153.712  Z" fill="#ffffff" fill-rule="evenodd" fill-opacity="1"/>
<defs>
  <clipPath id="clip002">
    <rect x="269" y="153" width="1684" height="625"/>
  </clipPath>
</defs>
<polyline clip-path="url(#clip002)" style="stroke:#000000; stroke-linecap:round; stroke-linejoin:round; stroke-width:2; stroke-opacity:0.1; fill:none" points="316.947,778.14 316.947,153.712 "/>
<polyline clip-path="url(#clip002)" style="stroke:#000000; stroke-linecap:round; stroke-linejoin:round; stroke-width:2; stroke-opacity:0.1; fill:none" points="713.988,778.14 713.988,153.712 "/>
<polyline clip-path="url(#clip002)" style="stroke:#000000; stroke-linecap:round; stroke-linejoin:round; stroke-width:2; stroke-opacity:0.1; fill:none" points="1111.03,778.14 1111.03,153.712 "/>
<polyline clip-path="url(#clip002)" style="stroke:#000000; stroke-linecap:round; stroke-linejoin:round; stroke-width:2; stroke-opacity:0.1; fill:none" points="1508.07,778.14 1508.07,153.712 "/>
<polyline clip-path="url(#clip002)" style="stroke:#000000; stroke-linecap:round; stroke-linejoin:round; stroke-width:2; stroke-opacity:0.1; fill:none" points="1905.11,778.14 1905.11,153.712 "/>
<polyline clip-path="url(#clip000)" style="stroke:#000000; stroke-linecap:round; stroke-linejoin:round; stroke-width:4; stroke-opacity:1; fill:none" points="269.302,778.14 1952.76,778.14 "/>
<polyline clip-path="url(#clip000)" style="stroke:#000000; stroke-linecap:round; stroke-linejoin:round; stroke-width:4; stroke-opacity:1; fill:none" points="316.947,778.14 316.947,759.242 "/>
<polyline clip-path="url(#clip000)" style="stroke:#000000; stroke-linecap:round; stroke-linejoin:round; stroke-width:4; stroke-opacity:1; fill:none" points="713.988,778.14 713.988,759.242 "/>
<polyline clip-path="url(#clip000)" style="stroke:#000000; stroke-linecap:round; stroke-linejoin:round; stroke-width:4; stroke-opacity:1; fill:none" points="1111.03,778.14 1111.03,759.242 "/>
<polyline clip-path="url(#clip000)" style="stroke:#000000; stroke-linecap:round; stroke-linejoin:round; stroke-width:4; stroke-opacity:1; fill:none" points="1508.07,778.14 1508.07,759.242 "/>
<polyline clip-path="url(#clip000)" style="stroke:#000000; stroke-linecap:round; stroke-linejoin:round; stroke-width:4; stroke-opacity:1; fill:none" points="1905.11,778.14 1905.11,759.242 "/>
<path clip-path="url(#clip000)" d="M316.947 805.859 Q313.336 805.859 311.507 809.423 Q309.702 812.965 309.702 820.095 Q309.702 827.201 311.507 830.766 Q313.336 834.307 316.947 834.307 Q320.581 834.307 322.387 830.766 Q324.215 827.201 324.215 820.095 Q324.215 812.965 322.387 809.423 Q320.581 805.859 316.947 805.859 M316.947 802.155 Q322.757 802.155 325.813 806.761 Q328.891 811.345 328.891 820.095 Q328.891 828.821 325.813 833.428 Q322.757 838.011 316.947 838.011 Q311.137 838.011 308.058 833.428 Q305.003 828.821 305.003 820.095 Q305.003 811.345 308.058 806.761 Q311.137 802.155 316.947 802.155 Z" fill="#000000" fill-rule="evenodd" fill-opacity="1" /><path clip-path="url(#clip000)" d="M688.676 833.405 L696.314 833.405 L696.314 807.039 L688.004 808.706 L688.004 804.447 L696.268 802.78 L700.944 802.78 L700.944 833.405 L708.583 833.405 L708.583 837.34 L688.676 837.34 L688.676 833.405 Z" fill="#000000" fill-rule="evenodd" fill-opacity="1" /><path clip-path="url(#clip000)" d="M728.027 805.859 Q724.416 805.859 722.587 809.423 Q720.782 812.965 720.782 820.095 Q720.782 827.201 722.587 830.766 Q724.416 834.307 728.027 834.307 Q731.661 834.307 733.467 830.766 Q735.296 827.201 735.296 820.095 Q735.296 812.965 733.467 809.423 Q731.661 805.859 728.027 805.859 M728.027 802.155 Q733.837 802.155 736.893 806.761 Q739.972 811.345 739.972 820.095 Q739.972 828.821 736.893 833.428 Q733.837 838.011 728.027 838.011 Q722.217 838.011 719.138 833.428 Q716.083 828.821 716.083 820.095 Q716.083 811.345 719.138 806.761 Q722.217 802.155 728.027 802.155 Z" fill="#000000" fill-rule="evenodd" fill-opacity="1" /><path clip-path="url(#clip000)" d="M1089.8 833.405 L1106.12 833.405 L1106.12 837.34 L1084.18 837.34 L1084.18 833.405 Q1086.84 830.65 1091.42 826.02 Q1096.03 821.368 1097.21 820.025 Q1099.45 817.502 1100.33 815.766 Q1101.24 814.007 1101.24 812.317 Q1101.24 809.562 1099.29 807.826 Q1097.37 806.09 1094.27 806.09 Q1092.07 806.09 1089.62 806.854 Q1087.19 807.618 1084.41 809.169 L1084.41 804.447 Q1087.23 803.312 1089.69 802.734 Q1092.14 802.155 1094.18 802.155 Q1099.55 802.155 1102.74 804.84 Q1105.94 807.525 1105.94 812.016 Q1105.94 814.146 1105.13 816.067 Q1104.34 817.965 1102.23 820.558 Q1101.65 821.229 1098.55 824.446 Q1095.45 827.641 1089.8 833.405 Z" fill="#000000" fill-rule="evenodd" fill-opacity="1" /><path clip-path="url(#clip000)" d="M1125.94 805.859 Q1122.33 805.859 1120.5 809.423 Q1118.69 812.965 1118.69 820.095 Q1118.69 827.201 1120.5 830.766 Q1122.33 834.307 1125.94 834.307 Q1129.57 834.307 1131.38 830.766 Q1133.2 827.201 1133.2 820.095 Q1133.2 812.965 1131.38 809.423 Q1129.57 805.859 1125.94 805.859 M1125.94 802.155 Q1131.75 802.155 1134.8 806.761 Q1137.88 811.345 1137.88 820.095 Q1137.88 828.821 1134.8 833.428 Q1131.75 838.011 1125.94 838.011 Q1120.13 838.011 1117.05 833.428 Q1113.99 828.821 1113.99 820.095 Q1113.99 811.345 1117.05 806.761 Q1120.13 802.155 1125.94 802.155 Z" fill="#000000" fill-rule="evenodd" fill-opacity="1" /><path clip-path="url(#clip000)" d="M1496.91 818.706 Q1500.27 819.423 1502.14 821.692 Q1504.04 823.96 1504.04 827.294 Q1504.04 832.409 1500.52 835.21 Q1497.01 838.011 1490.52 838.011 Q1488.35 838.011 1486.03 837.571 Q1483.74 837.155 1481.29 836.298 L1481.29 831.784 Q1483.23 832.919 1485.55 833.497 Q1487.86 834.076 1490.38 834.076 Q1494.78 834.076 1497.07 832.34 Q1499.39 830.604 1499.39 827.294 Q1499.39 824.238 1497.24 822.525 Q1495.11 820.789 1491.29 820.789 L1487.26 820.789 L1487.26 816.946 L1491.47 816.946 Q1494.92 816.946 1496.75 815.581 Q1498.58 814.192 1498.58 811.599 Q1498.58 808.937 1496.68 807.525 Q1494.81 806.09 1491.29 806.09 Q1489.37 806.09 1487.17 806.507 Q1484.97 806.923 1482.33 807.803 L1482.33 803.636 Q1484.99 802.896 1487.31 802.525 Q1489.64 802.155 1491.7 802.155 Q1497.03 802.155 1500.13 804.585 Q1503.23 806.993 1503.23 811.113 Q1503.23 813.983 1501.59 815.974 Q1499.95 817.942 1496.91 818.706 Z" fill="#000000" fill-rule="evenodd" fill-opacity="1" /><path clip-path="url(#clip000)" d="M1522.91 805.859 Q1519.3 805.859 1517.47 809.423 Q1515.66 812.965 1515.66 820.095 Q1515.66 827.201 1517.47 830.766 Q1519.3 834.307 1522.91 834.307 Q1526.54 834.307 1528.35 830.766 Q1530.18 827.201 1530.18 820.095 Q1530.18 812.965 1528.35 809.423 Q1526.54 805.859 1522.91 805.859 M1522.91 802.155 Q1528.72 802.155 1531.77 806.761 Q1534.85 811.345 1534.85 820.095 Q1534.85 828.821 1531.77 833.428 Q1528.72 838.011 1522.91 838.011 Q1517.1 838.011 1514.02 833.428 Q1510.96 828.821 1510.96 820.095 Q1510.96 811.345 1514.02 806.761 Q1517.1 802.155 1522.91 802.155 Z" fill="#000000" fill-rule="evenodd" fill-opacity="1" /><path clip-path="url(#clip000)" d="M1893.28 806.854 L1881.48 825.303 L1893.28 825.303 L1893.28 806.854 M1892.06 802.78 L1897.94 802.78 L1897.94 825.303 L1902.87 825.303 L1902.87 829.192 L1897.94 829.192 L1897.94 837.34 L1893.28 837.34 L1893.28 829.192 L1877.68 829.192 L1877.68 824.678 L1892.06 802.78 Z" fill="#000000" fill-rule="evenodd" fill-opacity="1" /><path clip-path="url(#clip000)" d="M1920.6 805.859 Q1916.99 805.859 1915.16 809.423 Q1913.35 812.965 1913.35 820.095 Q1913.35 827.201 1915.16 830.766 Q1916.99 834.307 1920.6 834.307 Q1924.23 834.307 1926.04 830.766 Q1927.87 827.201 1927.87 820.095 Q1927.87 812.965 1926.04 809.423 Q1924.23 805.859 1920.6 805.859 M1920.6 802.155 Q1926.41 802.155 1929.46 806.761 Q1932.54 811.345 1932.54 820.095 Q1932.54 828.821 1929.46 833.428 Q1926.41 838.011 1920.6 838.011 Q1914.79 838.011 1911.71 833.428 Q1908.65 828.821 1908.65 820.095 Q1908.65 811.345 1911.71 806.761 Q1914.79 802.155 1920.6 802.155 Z" fill="#000000" fill-rule="evenodd" fill-opacity="1" /><path clip-path="url(#clip000)" d="M1058.37 869.484 L1064.8 869.484 L1064.8 911.593 L1087.94 911.593 L1087.94 917.004 L1058.37 917.004 L1058.37 869.484 Z" fill="#000000" fill-rule="evenodd" fill-opacity="1" /><path clip-path="url(#clip000)" d="M1110.63 899.084 Q1103.53 899.084 1100.8 900.708 Q1098.06 902.331 1098.06 906.246 Q1098.06 909.365 1100.1 911.211 Q1102.16 913.025 1105.7 913.025 Q1110.57 913.025 1113.5 909.588 Q1116.46 906.118 1116.46 900.389 L1116.46 899.084 L1110.63 899.084 M1122.31 896.665 L1122.31 917.004 L1116.46 917.004 L1116.46 911.593 Q1114.45 914.84 1111.46 916.399 Q1108.47 917.927 1104.14 917.927 Q1098.66 917.927 1095.42 914.871 Q1092.2 911.784 1092.2 906.628 Q1092.2 900.612 1096.21 897.557 Q1100.26 894.501 1108.24 894.501 L1116.46 894.501 L1116.46 893.928 Q1116.46 889.886 1113.78 887.69 Q1111.14 885.462 1106.33 885.462 Q1103.28 885.462 1100.38 886.194 Q1097.49 886.926 1094.81 888.39 L1094.81 882.979 Q1098.03 881.738 1101.05 881.133 Q1104.07 880.497 1106.94 880.497 Q1114.67 880.497 1118.49 884.507 Q1122.31 888.517 1122.31 896.665 Z" fill="#000000" fill-rule="evenodd" fill-opacity="1" /><path clip-path="url(#clip000)" d="M1157.83 898.766 Q1157.83 892.4 1155.19 888.899 Q1152.58 885.398 1147.84 885.398 Q1143.13 885.398 1140.49 888.899 Q1137.88 892.4 1137.88 898.766 Q1137.88 905.1 1140.49 908.601 Q1143.13 912.102 1147.84 912.102 Q1152.58 912.102 1155.19 908.601 Q1157.83 905.1 1157.83 898.766 M1163.69 912.58 Q1163.69 921.683 1159.65 926.107 Q1155.6 930.563 1147.27 930.563 Q1144.18 930.563 1141.44 930.085 Q1138.7 929.64 1136.13 928.685 L1136.13 922.988 Q1138.7 924.388 1141.22 925.056 Q1143.73 925.725 1146.34 925.725 Q1152.1 925.725 1154.97 922.701 Q1157.83 919.709 1157.83 913.63 L1157.83 910.734 Q1156.02 913.885 1153.19 915.444 Q1150.35 917.004 1146.41 917.004 Q1139.85 917.004 1135.84 912.007 Q1131.83 907.01 1131.83 898.766 Q1131.83 890.491 1135.84 885.494 Q1139.85 880.497 1146.41 880.497 Q1150.35 880.497 1153.19 882.056 Q1156.02 883.616 1157.83 886.767 L1157.83 881.356 L1163.69 881.356 L1163.69 912.58 Z" fill="#000000" fill-rule="evenodd" fill-opacity="1" /><polyline clip-path="url(#clip002)" style="stroke:#000000; stroke-linecap:round; stroke-linejoin:round; stroke-width:2; stroke-opacity:0.1; fill:none" points="269.302,743.623 1952.76,743.623 "/>
<polyline clip-path="url(#clip002)" style="stroke:#000000; stroke-linecap:round; stroke-linejoin:round; stroke-width:2; stroke-opacity:0.1; fill:none" points="269.302,600.563 1952.76,600.563 "/>
<polyline clip-path="url(#clip002)" style="stroke:#000000; stroke-linecap:round; stroke-linejoin:round; stroke-width:2; stroke-opacity:0.1; fill:none" points="269.302,457.504 1952.76,457.504 "/>
<polyline clip-path="url(#clip002)" style="stroke:#000000; stroke-linecap:round; stroke-linejoin:round; stroke-width:2; stroke-opacity:0.1; fill:none" points="269.302,314.444 1952.76,314.444 "/>
<polyline clip-path="url(#clip002)" style="stroke:#000000; stroke-linecap:round; stroke-linejoin:round; stroke-width:2; stroke-opacity:0.1; fill:none" points="269.302,171.385 1952.76,171.385 "/>
<polyline clip-path="url(#clip000)" style="stroke:#000000; stroke-linecap:round; stroke-linejoin:round; stroke-width:4; stroke-opacity:1; fill:none" points="269.302,778.14 269.302,153.712 "/>
<polyline clip-path="url(#clip000)" style="stroke:#000000; stroke-linecap:round; stroke-linejoin:round; stroke-width:4; stroke-opacity:1; fill:none" points="269.302,743.623 288.2,743.623 "/>
<polyline clip-path="url(#clip000)" style="stroke:#000000; stroke-linecap:round; stroke-linejoin:round; stroke-width:4; stroke-opacity:1; fill:none" points="269.302,600.563 288.2,600.563 "/>
<polyline clip-path="url(#clip000)" style="stroke:#000000; stroke-linecap:round; stroke-linejoin:round; stroke-width:4; stroke-opacity:1; fill:none" points="269.302,457.504 288.2,457.504 "/>
<polyline clip-path="url(#clip000)" style="stroke:#000000; stroke-linecap:round; stroke-linejoin:round; stroke-width:4; stroke-opacity:1; fill:none" points="269.302,314.444 288.2,314.444 "/>
<polyline clip-path="url(#clip000)" style="stroke:#000000; stroke-linecap:round; stroke-linejoin:round; stroke-width:4; stroke-opacity:1; fill:none" points="269.302,171.385 288.2,171.385 "/>
<path clip-path="url(#clip000)" d="M151.965 729.422 Q148.353 729.422 146.525 732.986 Q144.719 736.528 144.719 743.658 Q144.719 750.764 146.525 754.329 Q148.353 757.87 151.965 757.87 Q155.599 757.87 157.404 754.329 Q159.233 750.764 159.233 743.658 Q159.233 736.528 157.404 732.986 Q155.599 729.422 151.965 729.422 M151.965 725.718 Q157.775 725.718 160.83 730.324 Q163.909 734.908 163.909 743.658 Q163.909 752.384 160.83 756.991 Q157.775 761.574 151.965 761.574 Q146.154 761.574 143.076 756.991 Q140.02 752.384 140.02 743.658 Q140.02 734.908 143.076 730.324 Q146.154 725.718 151.965 725.718 Z" fill="#000000" fill-rule="evenodd" fill-opacity="1" /><path clip-path="url(#clip000)" d="M172.126 755.023 L177.011 755.023 L177.011 760.903 L172.126 760.903 L172.126 755.023 Z" fill="#000000" fill-rule="evenodd" fill-opacity="1" /><path clip-path="url(#clip000)" d="M197.196 729.422 Q193.585 729.422 191.756 732.986 Q189.95 736.528 189.95 743.658 Q189.95 750.764 191.756 754.329 Q193.585 757.87 197.196 757.87 Q200.83 757.87 202.636 754.329 Q204.464 750.764 204.464 743.658 Q204.464 736.528 202.636 732.986 Q200.83 729.422 197.196 729.422 M197.196 725.718 Q203.006 725.718 206.061 730.324 Q209.14 734.908 209.14 743.658 Q209.14 752.384 206.061 756.991 Q203.006 761.574 197.196 761.574 Q191.386 761.574 188.307 756.991 Q185.251 752.384 185.251 743.658 Q185.251 734.908 188.307 730.324 Q191.386 725.718 197.196 725.718 Z" fill="#000000" fill-rule="evenodd" fill-opacity="1" /><path clip-path="url(#clip000)" d="M227.358 729.422 Q223.747 729.422 221.918 732.986 Q220.112 736.528 220.112 743.658 Q220.112 750.764 221.918 754.329 Q223.747 757.87 227.358 757.87 Q230.992 757.87 232.797 754.329 Q234.626 750.764 234.626 743.658 Q234.626 736.528 232.797 732.986 Q230.992 729.422 227.358 729.422 M227.358 725.718 Q233.168 725.718 236.223 730.324 Q239.302 734.908 239.302 743.658 Q239.302 752.384 236.223 756.991 Q233.168 761.574 227.358 761.574 Q221.547 761.574 218.469 756.991 Q215.413 752.384 215.413 743.658 Q215.413 734.908 218.469 730.324 Q221.547 725.718 227.358 725.718 Z" fill="#000000" fill-rule="evenodd" fill-opacity="1" /><path clip-path="url(#clip000)" d="M152.96 586.362 Q149.349 586.362 147.52 589.927 Q145.715 593.468 145.715 600.598 Q145.715 607.704 147.52 611.269 Q149.349 614.811 152.96 614.811 Q156.594 614.811 158.4 611.269 Q160.228 607.704 160.228 600.598 Q160.228 593.468 158.4 589.927 Q156.594 586.362 152.96 586.362 M152.96 582.658 Q158.77 582.658 161.826 587.265 Q164.904 591.848 164.904 600.598 Q164.904 609.325 161.826 613.931 Q158.77 618.515 152.96 618.515 Q147.15 618.515 144.071 613.931 Q141.016 609.325 141.016 600.598 Q141.016 591.848 144.071 587.265 Q147.15 582.658 152.96 582.658 Z" fill="#000000" fill-rule="evenodd" fill-opacity="1" /><path clip-path="url(#clip000)" d="M173.122 611.964 L178.006 611.964 L178.006 617.843 L173.122 617.843 L173.122 611.964 Z" fill="#000000" fill-rule="evenodd" fill-opacity="1" /><path clip-path="url(#clip000)" d="M192.219 613.908 L208.538 613.908 L208.538 617.843 L186.594 617.843 L186.594 613.908 Q189.256 611.154 193.839 606.524 Q198.446 601.871 199.626 600.529 Q201.872 598.005 202.751 596.269 Q203.654 594.51 203.654 592.82 Q203.654 590.066 201.71 588.33 Q199.788 586.593 196.687 586.593 Q194.487 586.593 192.034 587.357 Q189.603 588.121 186.825 589.672 L186.825 584.95 Q189.65 583.816 192.103 583.237 Q194.557 582.658 196.594 582.658 Q201.964 582.658 205.159 585.343 Q208.353 588.029 208.353 592.519 Q208.353 594.649 207.543 596.57 Q206.756 598.468 204.649 601.061 Q204.071 601.732 200.969 604.95 Q197.867 608.144 192.219 613.908 Z" fill="#000000" fill-rule="evenodd" fill-opacity="1" /><path clip-path="url(#clip000)" d="M218.399 583.283 L236.756 583.283 L236.756 587.218 L222.682 587.218 L222.682 595.691 Q223.7 595.343 224.719 595.181 Q225.737 594.996 226.756 594.996 Q232.543 594.996 235.922 598.167 Q239.302 601.339 239.302 606.755 Q239.302 612.334 235.83 615.436 Q232.358 618.515 226.038 618.515 Q223.862 618.515 221.594 618.144 Q219.348 617.774 216.941 617.033 L216.941 612.334 Q219.024 613.468 221.247 614.024 Q223.469 614.579 225.946 614.579 Q229.95 614.579 232.288 612.473 Q234.626 610.366 234.626 606.755 Q234.626 603.144 232.288 601.038 Q229.95 598.931 225.946 598.931 Q224.071 598.931 222.196 599.348 Q220.344 599.765 218.399 600.644 L218.399 583.283 Z" fill="#000000" fill-rule="evenodd" fill-opacity="1" /><path clip-path="url(#clip000)" d="M151.965 443.302 Q148.353 443.302 146.525 446.867 Q144.719 450.409 144.719 457.538 Q144.719 464.645 146.525 468.21 Q148.353 471.751 151.965 471.751 Q155.599 471.751 157.404 468.21 Q159.233 464.645 159.233 457.538 Q159.233 450.409 157.404 446.867 Q155.599 443.302 151.965 443.302 M151.965 439.599 Q157.775 439.599 160.83 444.205 Q163.909 448.788 163.909 457.538 Q163.909 466.265 160.83 470.872 Q157.775 475.455 151.965 475.455 Q146.154 475.455 143.076 470.872 Q140.02 466.265 140.02 457.538 Q140.02 448.788 143.076 444.205 Q146.154 439.599 151.965 439.599 Z" fill="#000000" fill-rule="evenodd" fill-opacity="1" /><path clip-path="url(#clip000)" d="M172.126 468.904 L177.011 468.904 L177.011 474.784 L172.126 474.784 L172.126 468.904 Z" fill="#000000" fill-rule="evenodd" fill-opacity="1" /><path clip-path="url(#clip000)" d="M187.242 440.224 L205.599 440.224 L205.599 444.159 L191.525 444.159 L191.525 452.631 Q192.543 452.284 193.562 452.122 Q194.58 451.937 195.599 451.937 Q201.386 451.937 204.765 455.108 Q208.145 458.279 208.145 463.696 Q208.145 469.274 204.673 472.376 Q201.2 475.455 194.881 475.455 Q192.705 475.455 190.437 475.085 Q188.191 474.714 185.784 473.974 L185.784 469.274 Q187.867 470.409 190.089 470.964 Q192.312 471.52 194.788 471.52 Q198.793 471.52 201.131 469.413 Q203.469 467.307 203.469 463.696 Q203.469 460.085 201.131 457.978 Q198.793 455.872 194.788 455.872 Q192.913 455.872 191.038 456.288 Q189.187 456.705 187.242 457.585 L187.242 440.224 Z" fill="#000000" fill-rule="evenodd" fill-opacity="1" /><path clip-path="url(#clip000)" d="M227.358 443.302 Q223.747 443.302 221.918 446.867 Q220.112 450.409 220.112 457.538 Q220.112 464.645 221.918 468.21 Q223.747 471.751 227.358 471.751 Q230.992 471.751 232.797 468.21 Q234.626 464.645 234.626 457.538 Q234.626 450.409 232.797 446.867 Q230.992 443.302 227.358 443.302 M227.358 439.599 Q233.168 439.599 236.223 444.205 Q239.302 448.788 239.302 457.538 Q239.302 466.265 236.223 470.872 Q233.168 475.455 227.358 475.455 Q221.547 475.455 218.469 470.872 Q215.413 466.265 215.413 457.538 Q215.413 448.788 218.469 444.205 Q221.547 439.599 227.358 439.599 Z" fill="#000000" fill-rule="evenodd" fill-opacity="1" /><path clip-path="url(#clip000)" d="M152.96 300.243 Q149.349 300.243 147.52 303.808 Q145.715 307.349 145.715 314.479 Q145.715 321.585 147.52 325.15 Q149.349 328.692 152.96 328.692 Q156.594 328.692 158.4 325.15 Q160.228 321.585 160.228 314.479 Q160.228 307.349 158.4 303.808 Q156.594 300.243 152.96 300.243 M152.96 296.539 Q158.77 296.539 161.826 301.146 Q164.904 305.729 164.904 314.479 Q164.904 323.206 161.826 327.812 Q158.77 332.395 152.96 332.395 Q147.15 332.395 144.071 327.812 Q141.016 323.206 141.016 314.479 Q141.016 305.729 144.071 301.146 Q147.15 296.539 152.96 296.539 Z" fill="#000000" fill-rule="evenodd" fill-opacity="1" /><path clip-path="url(#clip000)" d="M173.122 325.845 L178.006 325.845 L178.006 331.724 L173.122 331.724 L173.122 325.845 Z" fill="#000000" fill-rule="evenodd" fill-opacity="1" /><path clip-path="url(#clip000)" d="M187.011 297.164 L209.233 297.164 L209.233 299.155 L196.687 331.724 L191.802 331.724 L203.608 301.099 L187.011 301.099 L187.011 297.164 Z" fill="#000000" fill-rule="evenodd" fill-opacity="1" /><path clip-path="url(#clip000)" d="M218.399 297.164 L236.756 297.164 L236.756 301.099 L222.682 301.099 L222.682 309.572 Q223.7 309.224 224.719 309.062 Q225.737 308.877 226.756 308.877 Q232.543 308.877 235.922 312.048 Q239.302 315.22 239.302 320.636 Q239.302 326.215 235.83 329.317 Q232.358 332.395 226.038 332.395 Q223.862 332.395 221.594 332.025 Q219.348 331.655 216.941 330.914 L216.941 326.215 Q219.024 327.349 221.247 327.905 Q223.469 328.46 225.946 328.46 Q229.95 328.46 232.288 326.354 Q234.626 324.247 234.626 320.636 Q234.626 317.025 232.288 314.919 Q229.95 312.812 225.946 312.812 Q224.071 312.812 222.196 313.229 Q220.344 313.646 218.399 314.525 L218.399 297.164 Z" fill="#000000" fill-rule="evenodd" fill-opacity="1" /><path clip-path="url(#clip000)" d="M142.775 184.729 L150.414 184.729 L150.414 158.364 L142.103 160.031 L142.103 155.771 L150.367 154.105 L155.043 154.105 L155.043 184.729 L162.682 184.729 L162.682 188.665 L142.775 188.665 L142.775 184.729 Z" fill="#000000" fill-rule="evenodd" fill-opacity="1" /><path clip-path="url(#clip000)" d="M172.126 182.785 L177.011 182.785 L177.011 188.665 L172.126 188.665 L172.126 182.785 Z" fill="#000000" fill-rule="evenodd" fill-opacity="1" /><path clip-path="url(#clip000)" d="M197.196 157.183 Q193.585 157.183 191.756 160.748 Q189.95 164.29 189.95 171.419 Q189.95 178.526 191.756 182.091 Q193.585 185.632 197.196 185.632 Q200.83 185.632 202.636 182.091 Q204.464 178.526 204.464 171.419 Q204.464 164.29 202.636 160.748 Q200.83 157.183 197.196 157.183 M197.196 153.48 Q203.006 153.48 206.061 158.086 Q209.14 162.669 209.14 171.419 Q209.14 180.146 206.061 184.753 Q203.006 189.336 197.196 189.336 Q191.386 189.336 188.307 184.753 Q185.251 180.146 185.251 171.419 Q185.251 162.669 188.307 158.086 Q191.386 153.48 197.196 153.48 Z" fill="#000000" fill-rule="evenodd" fill-opacity="1" /><path clip-path="url(#clip000)" d="M227.358 157.183 Q223.747 157.183 221.918 160.748 Q220.112 164.29 220.112 171.419 Q220.112 178.526 221.918 182.091 Q223.747 185.632 227.358 185.632 Q230.992 185.632 232.797 182.091 Q234.626 178.526 234.626 171.419 Q234.626 164.29 232.797 160.748 Q230.992 157.183 227.358 157.183 M227.358 153.48 Q233.168 153.48 236.223 158.086 Q239.302 162.669 239.302 171.419 Q239.302 180.146 236.223 184.753 Q233.168 189.336 227.358 189.336 Q221.547 189.336 218.469 184.753 Q215.413 180.146 215.413 171.419 Q215.413 162.669 218.469 158.086 Q221.547 153.48 227.358 153.48 Z" fill="#000000" fill-rule="evenodd" fill-opacity="1" /><path clip-path="url(#clip000)" d="M54.578 691.686 L78.2266 700.407 L78.2266 682.933 L54.578 691.686 M48.2442 695.314 L48.2442 688.025 L95.7642 669.915 L95.7642 676.599 L83.5738 680.928 L83.5738 702.348 L95.7642 706.677 L95.7642 713.456 L48.2442 695.314 Z" fill="#000000" fill-rule="evenodd" fill-opacity="1" /><path clip-path="url(#clip000)" d="M81.6959 663.836 L60.1162 663.836 L60.1162 657.979 L81.4731 657.979 Q86.5339 657.979 89.0802 656.006 Q91.5946 654.033 91.5946 650.086 Q91.5946 645.343 88.5709 642.606 Q85.5472 639.837 80.3273 639.837 L60.1162 639.837 L60.1162 633.981 L95.7642 633.981 L95.7642 639.837 L90.2896 639.837 Q93.5362 641.97 95.1276 644.802 Q96.6872 647.603 96.6872 651.327 Q96.6872 657.47 92.8678 660.653 Q89.0483 663.836 81.6959 663.836 M59.2568 649.099 L59.2568 649.099 Z" fill="#000000" fill-rule="evenodd" fill-opacity="1" /><path clip-path="url(#clip000)" d="M49.9947 616.125 L60.1162 616.125 L60.1162 604.062 L64.6677 604.062 L64.6677 616.125 L84.0194 616.125 Q88.3799 616.125 89.6213 614.947 Q90.8626 613.738 90.8626 610.077 L90.8626 604.062 L95.7642 604.062 L95.7642 610.077 Q95.7642 616.857 93.2497 619.435 Q90.7034 622.013 84.0194 622.013 L64.6677 622.013 L64.6677 626.31 L60.1162 626.31 L60.1162 622.013 L49.9947 622.013 L49.9947 616.125 Z" fill="#000000" fill-rule="evenodd" fill-opacity="1" /><path clip-path="url(#clip000)" d="M64.2221 582.546 Q64.2221 587.256 67.9142 589.994 Q71.5745 592.731 77.972 592.731 Q84.3695 592.731 88.0617 590.025 Q91.7219 587.288 91.7219 582.546 Q91.7219 577.867 88.0298 575.13 Q84.3377 572.392 77.972 572.392 Q71.6381 572.392 67.946 575.13 Q64.2221 577.867 64.2221 582.546 M59.2568 582.546 Q59.2568 574.907 64.2221 570.546 Q69.1873 566.186 77.972 566.186 Q86.7249 566.186 91.7219 570.546 Q96.6872 574.907 96.6872 582.546 Q96.6872 590.216 91.7219 594.577 Q86.7249 598.906 77.972 598.906 Q69.1873 598.906 64.2221 594.577 Q59.2568 590.216 59.2568 582.546 Z" fill="#000000" fill-rule="evenodd" fill-opacity="1" /><path clip-path="url(#clip000)" d="M61.4848 530.824 L66.9593 530.824 Q65.5907 533.307 64.9223 535.821 Q64.2221 538.304 64.2221 540.85 Q64.2221 546.548 67.8505 549.699 Q71.4472 552.85 77.972 552.85 Q84.4969 552.85 88.1253 549.699 Q91.7219 546.548 91.7219 540.85 Q91.7219 538.304 91.0535 535.821 Q90.3533 533.307 88.9847 530.824 L94.3955 530.824 Q95.5414 533.275 96.1143 535.917 Q96.6872 538.527 96.6872 541.487 Q96.6872 549.54 91.6264 554.282 Q86.5657 559.024 77.972 559.024 Q69.251 559.024 64.2539 554.25 Q59.2568 549.444 59.2568 541.105 Q59.2568 538.4 59.8297 535.821 Q60.3708 533.243 61.4848 530.824 Z" fill="#000000" fill-rule="evenodd" fill-opacity="1" /><path clip-path="url(#clip000)" d="M64.2221 506.826 Q64.2221 511.536 67.9142 514.274 Q71.5745 517.011 77.972 517.011 Q84.3695 517.011 88.0617 514.305 Q91.7219 511.568 91.7219 506.826 Q91.7219 502.147 88.0298 499.41 Q84.3377 496.672 77.972 496.672 Q71.6381 496.672 67.946 499.41 Q64.2221 502.147 64.2221 506.826 M59.2568 506.826 Q59.2568 499.187 64.2221 494.826 Q69.1873 490.466 77.972 490.466 Q86.7249 490.466 91.7219 494.826 Q96.6872 499.187 96.6872 506.826 Q96.6872 514.496 91.7219 518.857 Q86.7249 523.186 77.972 523.186 Q69.1873 523.186 64.2221 518.857 Q59.2568 514.496 59.2568 506.826 Z" fill="#000000" fill-rule="evenodd" fill-opacity="1" /><path clip-path="url(#clip000)" d="M65.5907 460.101 Q65.0178 461.088 64.7632 462.266 Q64.4767 463.412 64.4767 464.812 Q64.4767 469.777 67.7232 472.451 Q70.9379 475.093 76.9853 475.093 L95.7642 475.093 L95.7642 480.981 L60.1162 480.981 L60.1162 475.093 L65.6544 475.093 Q62.4079 473.247 60.8483 470.286 Q59.2568 467.326 59.2568 463.093 Q59.2568 462.489 59.3523 461.756 Q59.416 461.024 59.5751 460.133 L65.5907 460.101 Z" fill="#000000" fill-rule="evenodd" fill-opacity="1" /><path clip-path="url(#clip000)" d="M65.5907 434.448 Q65.0178 435.434 64.7632 436.612 Q64.4767 437.758 64.4767 439.158 Q64.4767 444.123 67.7232 446.797 Q70.9379 449.439 76.9853 449.439 L95.7642 449.439 L95.7642 455.327 L60.1162 455.327 L60.1162 449.439 L65.6544 449.439 Q62.4079 447.593 60.8483 444.633 Q59.2568 441.673 59.2568 437.439 Q59.2568 436.835 59.3523 436.103 Q59.416 435.371 59.5751 434.479 L65.5907 434.448 Z" fill="#000000" fill-rule="evenodd" fill-opacity="1" /><path clip-path="url(#clip000)" d="M76.4761 399.245 L79.3406 399.245 L79.3406 426.172 Q85.3881 425.79 88.5709 422.544 Q91.7219 419.265 91.7219 413.441 Q91.7219 410.067 90.8944 406.916 Q90.0669 403.733 88.4118 400.614 L93.9499 400.614 Q95.2867 403.765 95.987 407.075 Q96.6872 410.385 96.6872 413.791 Q96.6872 422.321 91.7219 427.318 Q86.7567 432.283 78.2903 432.283 Q69.5374 432.283 64.4131 427.573 Q59.2568 422.83 59.2568 414.809 Q59.2568 407.616 63.9038 403.447 Q68.5189 399.245 76.4761 399.245 M74.7573 405.102 Q69.9512 405.165 67.0866 407.807 Q64.2221 410.417 64.2221 414.746 Q64.2221 419.647 66.9912 422.607 Q69.7602 425.536 74.7892 425.981 L74.7573 405.102 Z" fill="#000000" fill-rule="evenodd" fill-opacity="1" /><path clip-path="url(#clip000)" d="M46.239 389.633 L46.239 383.777 L95.7642 383.777 L95.7642 389.633 L46.239 389.633 Z" fill="#000000" fill-rule="evenodd" fill-opacity="1" /><path clip-path="url(#clip000)" d="M77.8447 355.322 Q77.8447 362.42 79.4679 365.157 Q81.0912 367.894 85.0061 367.894 Q88.1253 367.894 89.9714 365.857 Q91.7856 363.788 91.7856 360.255 Q91.7856 355.385 88.3481 352.457 Q84.8788 349.497 79.1497 349.497 L77.8447 349.497 L77.8447 355.322 M75.4257 343.641 L95.7642 343.641 L95.7642 349.497 L90.3533 349.497 Q93.5998 351.502 95.1594 354.494 Q96.6872 357.486 96.6872 361.815 Q96.6872 367.289 93.6316 370.536 Q90.5443 373.751 85.3881 373.751 Q79.3725 373.751 76.3169 369.74 Q73.2614 365.698 73.2614 357.709 L73.2614 349.497 L72.6885 349.497 Q68.6462 349.497 66.4501 352.171 Q64.2221 354.813 64.2221 359.619 Q64.2221 362.674 64.9541 365.571 Q65.6862 368.467 67.1503 371.141 L61.7395 371.141 Q60.4981 367.926 59.8934 364.902 Q59.2568 361.879 59.2568 359.014 Q59.2568 351.28 63.2672 347.46 Q67.2776 343.641 75.4257 343.641 Z" fill="#000000" fill-rule="evenodd" fill-opacity="1" /><path clip-path="url(#clip000)" d="M49.9947 325.785 L60.1162 325.785 L60.1162 313.722 L64.6677 313.722 L64.6677 325.785 L84.0194 325.785 Q88.3799 325.785 89.6213 324.607 Q90.8626 323.398 90.8626 319.738 L90.8626 313.722 L95.7642 313.722 L95.7642 319.738 Q95.7642 326.517 93.2497 329.095 Q90.7034 331.673 84.0194 331.673 L64.6677 331.673 L64.6677 335.97 L60.1162 335.97 L60.1162 331.673 L49.9947 331.673 L49.9947 325.785 Z" fill="#000000" fill-rule="evenodd" fill-opacity="1" /><path clip-path="url(#clip000)" d="M60.1162 306.019 L60.1162 300.163 L95.7642 300.163 L95.7642 306.019 L60.1162 306.019 M46.239 306.019 L46.239 300.163 L53.655 300.163 L53.655 306.019 L46.239 306.019 Z" fill="#000000" fill-rule="evenodd" fill-opacity="1" /><path clip-path="url(#clip000)" d="M64.2221 274.095 Q64.2221 278.806 67.9142 281.543 Q71.5745 284.281 77.972 284.281 Q84.3695 284.281 88.0617 281.575 Q91.7219 278.838 91.7219 274.095 Q91.7219 269.417 88.0298 266.679 Q84.3377 263.942 77.972 263.942 Q71.6381 263.942 67.946 266.679 Q64.2221 269.417 64.2221 274.095 M59.2568 274.095 Q59.2568 266.457 64.2221 262.096 Q69.1873 257.736 77.972 257.736 Q86.7249 257.736 91.7219 262.096 Q96.6872 266.457 96.6872 274.095 Q96.6872 281.766 91.7219 286.127 Q86.7249 290.455 77.972 290.455 Q69.1873 290.455 64.2221 286.127 Q59.2568 281.766 59.2568 274.095 Z" fill="#000000" fill-rule="evenodd" fill-opacity="1" /><path clip-path="url(#clip000)" d="M74.2481 218.395 L95.7642 218.395 L95.7642 224.252 L74.439 224.252 Q69.3783 224.252 66.8638 226.225 Q64.3494 228.199 64.3494 232.145 Q64.3494 236.888 67.3731 239.625 Q70.3968 242.362 75.6167 242.362 L95.7642 242.362 L95.7642 248.251 L60.1162 248.251 L60.1162 242.362 L65.6544 242.362 Q62.4397 240.262 60.8483 237.429 Q59.2568 234.564 59.2568 230.84 Q59.2568 224.698 63.0763 221.547 Q66.8638 218.395 74.2481 218.395 Z" fill="#000000" fill-rule="evenodd" fill-opacity="1" /><path clip-path="url(#clip000)" d="M1087.47 35.9153 Q1090.27 30.8922 1094.16 28.5022 Q1098.05 26.1121 1103.31 26.1121 Q1110.4 26.1121 1114.25 31.0947 Q1118.1 36.0368 1118.1 45.1919 L1118.1 72.576 L1110.6 72.576 L1110.6 45.4349 Q1110.6 38.913 1108.29 35.7533 Q1105.99 32.5936 1101.25 32.5936 Q1095.45 32.5936 1092.09 36.4419 Q1088.73 40.2903 1088.73 46.9338 L1088.73 72.576 L1081.23 72.576 L1081.23 45.4349 Q1081.23 38.8725 1078.93 35.7533 Q1076.62 32.5936 1071.8 32.5936 Q1066.08 32.5936 1062.72 36.4824 Q1059.36 40.3308 1059.36 46.9338 L1059.36 72.576 L1051.87 72.576 L1051.87 27.2059 L1059.36 27.2059 L1059.36 34.2544 Q1061.91 30.082 1065.48 28.0971 Q1069.04 26.1121 1073.94 26.1121 Q1078.89 26.1121 1082.33 28.6237 Q1085.81 31.1352 1087.47 35.9153 Z" fill="#000000" fill-rule="evenodd" fill-opacity="1" /><path clip-path="url(#clip000)" d="M1132.19 54.671 L1132.19 27.2059 L1139.65 27.2059 L1139.65 54.3874 Q1139.65 60.8284 1142.16 64.0691 Q1144.67 67.2693 1149.69 67.2693 Q1155.73 67.2693 1159.21 63.421 Q1162.74 59.5726 1162.74 52.9291 L1162.74 27.2059 L1170.19 27.2059 L1170.19 72.576 L1162.74 72.576 L1162.74 65.6084 Q1160.02 69.7404 1156.42 71.7658 Q1152.85 73.7508 1148.11 73.7508 Q1140.3 73.7508 1136.25 68.8897 Q1132.19 64.0286 1132.19 54.671 M1150.95 26.1121 L1150.95 26.1121 Z" fill="#000000" fill-rule="evenodd" fill-opacity="1" /><polyline clip-path="url(#clip002)" style="stroke:#009af9; stroke-linecap:round; stroke-linejoin:round; stroke-width:4; stroke-opacity:1; fill:none" points="316.947,171.385 356.651,708.266 396.355,746.562 436.059,736.93 475.763,743.397 515.467,743.848 555.172,748.215 594.876,747.974 634.58,742.406 674.284,742.48 713.988,740.475 753.692,746.854 793.396,745.496 833.1,747.881 872.804,738.544 912.508,757.348 952.213,742.001 991.917,738.013 1031.62,744.934 1071.32,740.229 1111.03,733.287 1150.73,739.416 1190.44,742.068 1230.14,752.467 1269.85,735.1 1309.55,741.719 1349.25,753.906 1388.96,740.329 1428.66,741.088 1468.37,743.156 1508.07,751.868 1547.77,744.462 1587.48,746.156 1627.18,733.085 1666.89,740.796 1706.59,741.982 1746.29,743.144 1786,745.614 1825.7,756.988 1865.41,760.467 1905.11,743.512 "/>
<path clip-path="url(#clip000)" d="M269.302 1778.14 L1952.76 1778.14 L1952.76 1153.71 L269.302 1153.71  Z" fill="#ffffff" fill-rule="evenodd" fill-opacity="1"/>
<defs>
  <clipPath id="clip003">
    <rect x="269" y="1153" width="1684" height="625"/>
  </clipPath>
</defs>
<polyline clip-path="url(#clip003)" style="stroke:#000000; stroke-linecap:round; stroke-linejoin:round; stroke-width:2; stroke-opacity:0.1; fill:none" points="316.947,1778.14 316.947,1153.71 "/>
<polyline clip-path="url(#clip003)" style="stroke:#000000; stroke-linecap:round; stroke-linejoin:round; stroke-width:2; stroke-opacity:0.1; fill:none" points="713.988,1778.14 713.988,1153.71 "/>
<polyline clip-path="url(#clip003)" style="stroke:#000000; stroke-linecap:round; stroke-linejoin:round; stroke-width:2; stroke-opacity:0.1; fill:none" points="1111.03,1778.14 1111.03,1153.71 "/>
<polyline clip-path="url(#clip003)" style="stroke:#000000; stroke-linecap:round; stroke-linejoin:round; stroke-width:2; stroke-opacity:0.1; fill:none" points="1508.07,1778.14 1508.07,1153.71 "/>
<polyline clip-path="url(#clip003)" style="stroke:#000000; stroke-linecap:round; stroke-linejoin:round; stroke-width:2; stroke-opacity:0.1; fill:none" points="1905.11,1778.14 1905.11,1153.71 "/>
<polyline clip-path="url(#clip000)" style="stroke:#000000; stroke-linecap:round; stroke-linejoin:round; stroke-width:4; stroke-opacity:1; fill:none" points="269.302,1778.14 1952.76,1778.14 "/>
<polyline clip-path="url(#clip000)" style="stroke:#000000; stroke-linecap:round; stroke-linejoin:round; stroke-width:4; stroke-opacity:1; fill:none" points="316.947,1778.14 316.947,1759.24 "/>
<polyline clip-path="url(#clip000)" style="stroke:#000000; stroke-linecap:round; stroke-linejoin:round; stroke-width:4; stroke-opacity:1; fill:none" points="713.988,1778.14 713.988,1759.24 "/>
<polyline clip-path="url(#clip000)" style="stroke:#000000; stroke-linecap:round; stroke-linejoin:round; stroke-width:4; stroke-opacity:1; fill:none" points="1111.03,1778.14 1111.03,1759.24 "/>
<polyline clip-path="url(#clip000)" style="stroke:#000000; stroke-linecap:round; stroke-linejoin:round; stroke-width:4; stroke-opacity:1; fill:none" points="1508.07,1778.14 1508.07,1759.24 "/>
<polyline clip-path="url(#clip000)" style="stroke:#000000; stroke-linecap:round; stroke-linejoin:round; stroke-width:4; stroke-opacity:1; fill:none" points="1905.11,1778.14 1905.11,1759.24 "/>
<path clip-path="url(#clip000)" d="M316.947 1805.86 Q313.336 1805.86 311.507 1809.42 Q309.702 1812.96 309.702 1820.09 Q309.702 1827.2 311.507 1830.77 Q313.336 1834.31 316.947 1834.31 Q320.581 1834.31 322.387 1830.77 Q324.215 1827.2 324.215 1820.09 Q324.215 1812.96 322.387 1809.42 Q320.581 1805.86 316.947 1805.86 M316.947 1802.15 Q322.757 1802.15 325.813 1806.76 Q328.891 1811.34 328.891 1820.09 Q328.891 1828.82 325.813 1833.43 Q322.757 1838.01 316.947 1838.01 Q311.137 1838.01 308.058 1833.43 Q305.003 1828.82 305.003 1820.09 Q305.003 1811.34 308.058 1806.76 Q311.137 1802.15 316.947 1802.15 Z" fill="#000000" fill-rule="evenodd" fill-opacity="1" /><path clip-path="url(#clip000)" d="M688.676 1833.4 L696.314 1833.4 L696.314 1807.04 L688.004 1808.71 L688.004 1804.45 L696.268 1802.78 L700.944 1802.78 L700.944 1833.4 L708.583 1833.4 L708.583 1837.34 L688.676 1837.34 L688.676 1833.4 Z" fill="#000000" fill-rule="evenodd" fill-opacity="1" /><path clip-path="url(#clip000)" d="M728.027 1805.86 Q724.416 1805.86 722.587 1809.42 Q720.782 1812.96 720.782 1820.09 Q720.782 1827.2 722.587 1830.77 Q724.416 1834.31 728.027 1834.31 Q731.661 1834.31 733.467 1830.77 Q735.296 1827.2 735.296 1820.09 Q735.296 1812.96 733.467 1809.42 Q731.661 1805.86 728.027 1805.86 M728.027 1802.15 Q733.837 1802.15 736.893 1806.76 Q739.972 1811.34 739.972 1820.09 Q739.972 1828.82 736.893 1833.43 Q733.837 1838.01 728.027 1838.01 Q722.217 1838.01 719.138 1833.43 Q716.083 1828.82 716.083 1820.09 Q716.083 1811.34 719.138 1806.76 Q722.217 1802.15 728.027 1802.15 Z" fill="#000000" fill-rule="evenodd" fill-opacity="1" /><path clip-path="url(#clip000)" d="M1089.8 1833.4 L1106.12 1833.4 L1106.12 1837.34 L1084.18 1837.34 L1084.18 1833.4 Q1086.84 1830.65 1091.42 1826.02 Q1096.03 1821.37 1097.21 1820.03 Q1099.45 1817.5 1100.33 1815.77 Q1101.24 1814.01 1101.24 1812.32 Q1101.24 1809.56 1099.29 1807.83 Q1097.37 1806.09 1094.27 1806.09 Q1092.07 1806.09 1089.62 1806.85 Q1087.19 1807.62 1084.41 1809.17 L1084.41 1804.45 Q1087.23 1803.31 1089.69 1802.73 Q1092.14 1802.15 1094.18 1802.15 Q1099.55 1802.15 1102.74 1804.84 Q1105.94 1807.53 1105.94 1812.02 Q1105.94 1814.15 1105.13 1816.07 Q1104.34 1817.96 1102.23 1820.56 Q1101.65 1821.23 1098.55 1824.45 Q1095.45 1827.64 1089.8 1833.4 Z" fill="#000000" fill-rule="evenodd" fill-opacity="1" /><path clip-path="url(#clip000)" d="M1125.94 1805.86 Q1122.33 1805.86 1120.5 1809.42 Q1118.69 1812.96 1118.69 1820.09 Q1118.69 1827.2 1120.5 1830.77 Q1122.33 1834.31 1125.94 1834.31 Q1129.57 1834.31 1131.38 1830.77 Q1133.2 1827.2 1133.2 1820.09 Q1133.2 1812.96 1131.38 1809.42 Q1129.57 1805.86 1125.94 1805.86 M1125.94 1802.15 Q1131.75 1802.15 1134.8 1806.76 Q1137.88 1811.34 1137.88 1820.09 Q1137.88 1828.82 1134.8 1833.43 Q1131.75 1838.01 1125.94 1838.01 Q1120.13 1838.01 1117.05 1833.43 Q1113.99 1828.82 1113.99 1820.09 Q1113.99 1811.34 1117.05 1806.76 Q1120.13 1802.15 1125.94 1802.15 Z" fill="#000000" fill-rule="evenodd" fill-opacity="1" /><path clip-path="url(#clip000)" d="M1496.91 1818.71 Q1500.27 1819.42 1502.14 1821.69 Q1504.04 1823.96 1504.04 1827.29 Q1504.04 1832.41 1500.52 1835.21 Q1497.01 1838.01 1490.52 1838.01 Q1488.35 1838.01 1486.03 1837.57 Q1483.74 1837.15 1481.29 1836.3 L1481.29 1831.78 Q1483.23 1832.92 1485.55 1833.5 Q1487.86 1834.08 1490.38 1834.08 Q1494.78 1834.08 1497.07 1832.34 Q1499.39 1830.6 1499.39 1827.29 Q1499.39 1824.24 1497.24 1822.53 Q1495.11 1820.79 1491.29 1820.79 L1487.26 1820.79 L1487.26 1816.95 L1491.47 1816.95 Q1494.92 1816.95 1496.75 1815.58 Q1498.58 1814.19 1498.58 1811.6 Q1498.58 1808.94 1496.68 1807.53 Q1494.81 1806.09 1491.29 1806.09 Q1489.37 1806.09 1487.17 1806.51 Q1484.97 1806.92 1482.33 1807.8 L1482.33 1803.64 Q1484.99 1802.9 1487.31 1802.53 Q1489.64 1802.15 1491.7 1802.15 Q1497.03 1802.15 1500.13 1804.59 Q1503.23 1806.99 1503.23 1811.11 Q1503.23 1813.98 1501.59 1815.97 Q1499.95 1817.94 1496.91 1818.71 Z" fill="#000000" fill-rule="evenodd" fill-opacity="1" /><path clip-path="url(#clip000)" d="M1522.91 1805.86 Q1519.3 1805.86 1517.47 1809.42 Q1515.66 1812.96 1515.66 1820.09 Q1515.66 1827.2 1517.47 1830.77 Q1519.3 1834.31 1522.91 1834.31 Q1526.54 1834.31 1528.35 1830.77 Q1530.18 1827.2 1530.18 1820.09 Q1530.18 1812.96 1528.35 1809.42 Q1526.54 1805.86 1522.91 1805.86 M1522.91 1802.15 Q1528.72 1802.15 1531.77 1806.76 Q1534.85 1811.34 1534.85 1820.09 Q1534.85 1828.82 1531.77 1833.43 Q1528.72 1838.01 1522.91 1838.01 Q1517.1 1838.01 1514.02 1833.43 Q1510.96 1828.82 1510.96 1820.09 Q1510.96 1811.34 1514.02 1806.76 Q1517.1 1802.15 1522.91 1802.15 Z" fill="#000000" fill-rule="evenodd" fill-opacity="1" /><path clip-path="url(#clip000)" d="M1893.28 1806.85 L1881.48 1825.3 L1893.28 1825.3 L1893.28 1806.85 M1892.06 1802.78 L1897.94 1802.78 L1897.94 1825.3 L1902.87 1825.3 L1902.87 1829.19 L1897.94 1829.19 L1897.94 1837.34 L1893.28 1837.34 L1893.28 1829.19 L1877.68 1829.19 L1877.68 1824.68 L1892.06 1802.78 Z" fill="#000000" fill-rule="evenodd" fill-opacity="1" /><path clip-path="url(#clip000)" d="M1920.6 1805.86 Q1916.99 1805.86 1915.16 1809.42 Q1913.35 1812.96 1913.35 1820.09 Q1913.35 1827.2 1915.16 1830.77 Q1916.99 1834.31 1920.6 1834.31 Q1924.23 1834.31 1926.04 1830.77 Q1927.87 1827.2 1927.87 1820.09 Q1927.87 1812.96 1926.04 1809.42 Q1924.23 1805.86 1920.6 1805.86 M1920.6 1802.15 Q1926.41 1802.15 1929.46 1806.76 Q1932.54 1811.34 1932.54 1820.09 Q1932.54 1828.82 1929.46 1833.43 Q1926.41 1838.01 1920.6 1838.01 Q1914.79 1838.01 1911.71 1833.43 Q1908.65 1828.82 1908.65 1820.09 Q1908.65 1811.34 1911.71 1806.76 Q1914.79 1802.15 1920.6 1802.15 Z" fill="#000000" fill-rule="evenodd" fill-opacity="1" /><path clip-path="url(#clip000)" d="M1058.37 1869.48 L1064.8 1869.48 L1064.8 1911.59 L1087.94 1911.59 L1087.94 1917 L1058.37 1917 L1058.37 1869.48 Z" fill="#000000" fill-rule="evenodd" fill-opacity="1" /><path clip-path="url(#clip000)" d="M1110.63 1899.08 Q1103.53 1899.08 1100.8 1900.71 Q1098.06 1902.33 1098.06 1906.25 Q1098.06 1909.36 1100.1 1911.21 Q1102.16 1913.03 1105.7 1913.03 Q1110.57 1913.03 1113.5 1909.59 Q1116.46 1906.12 1116.46 1900.39 L1116.46 1899.08 L1110.63 1899.08 M1122.31 1896.67 L1122.31 1917 L1116.46 1917 L1116.46 1911.59 Q1114.45 1914.84 1111.46 1916.4 Q1108.47 1917.93 1104.14 1917.93 Q1098.66 1917.93 1095.42 1914.87 Q1092.2 1911.78 1092.2 1906.63 Q1092.2 1900.61 1096.21 1897.56 Q1100.26 1894.5 1108.24 1894.5 L1116.46 1894.5 L1116.46 1893.93 Q1116.46 1889.89 1113.78 1887.69 Q1111.14 1885.46 1106.33 1885.46 Q1103.28 1885.46 1100.38 1886.19 Q1097.49 1886.93 1094.81 1888.39 L1094.81 1882.98 Q1098.03 1881.74 1101.05 1881.13 Q1104.07 1880.5 1106.94 1880.5 Q1114.67 1880.5 1118.49 1884.51 Q1122.31 1888.52 1122.31 1896.67 Z" fill="#000000" fill-rule="evenodd" fill-opacity="1" /><path clip-path="url(#clip000)" d="M1157.83 1898.77 Q1157.83 1892.4 1155.19 1888.9 Q1152.58 1885.4 1147.84 1885.4 Q1143.13 1885.4 1140.49 1888.9 Q1137.88 1892.4 1137.88 1898.77 Q1137.88 1905.1 1140.49 1908.6 Q1143.13 1912.1 1147.84 1912.1 Q1152.58 1912.1 1155.19 1908.6 Q1157.83 1905.1 1157.83 1898.77 M1163.69 1912.58 Q1163.69 1921.68 1159.65 1926.11 Q1155.6 1930.56 1147.27 1930.56 Q1144.18 1930.56 1141.44 1930.09 Q1138.7 1929.64 1136.13 1928.68 L1136.13 1922.99 Q1138.7 1924.39 1141.22 1925.06 Q1143.73 1925.72 1146.34 1925.72 Q1152.1 1925.72 1154.97 1922.7 Q1157.83 1919.71 1157.83 1913.63 L1157.83 1910.73 Q1156.02 1913.88 1153.19 1915.44 Q1150.35 1917 1146.41 1917 Q1139.85 1917 1135.84 1912.01 Q1131.83 1907.01 1131.83 1898.77 Q1131.83 1890.49 1135.84 1885.49 Q1139.85 1880.5 1146.41 1880.5 Q1150.35 1880.5 1153.19 1882.06 Q1156.02 1883.62 1157.83 1886.77 L1157.83 1881.36 L1163.69 1881.36 L1163.69 1912.58 Z" fill="#000000" fill-rule="evenodd" fill-opacity="1" /><polyline clip-path="url(#clip003)" style="stroke:#000000; stroke-linecap:round; stroke-linejoin:round; stroke-width:2; stroke-opacity:0.1; fill:none" points="269.302,1747.64 1952.76,1747.64 "/>
<polyline clip-path="url(#clip003)" style="stroke:#000000; stroke-linecap:round; stroke-linejoin:round; stroke-width:2; stroke-opacity:0.1; fill:none" points="269.302,1603.57 1952.76,1603.57 "/>
<polyline clip-path="url(#clip003)" style="stroke:#000000; stroke-linecap:round; stroke-linejoin:round; stroke-width:2; stroke-opacity:0.1; fill:none" points="269.302,1459.51 1952.76,1459.51 "/>
<polyline clip-path="url(#clip003)" style="stroke:#000000; stroke-linecap:round; stroke-linejoin:round; stroke-width:2; stroke-opacity:0.1; fill:none" points="269.302,1315.45 1952.76,1315.45 "/>
<polyline clip-path="url(#clip003)" style="stroke:#000000; stroke-linecap:round; stroke-linejoin:round; stroke-width:2; stroke-opacity:0.1; fill:none" points="269.302,1171.38 1952.76,1171.38 "/>
<polyline clip-path="url(#clip000)" style="stroke:#000000; stroke-linecap:round; stroke-linejoin:round; stroke-width:4; stroke-opacity:1; fill:none" points="269.302,1778.14 269.302,1153.71 "/>
<polyline clip-path="url(#clip000)" style="stroke:#000000; stroke-linecap:round; stroke-linejoin:round; stroke-width:4; stroke-opacity:1; fill:none" points="269.302,1747.64 288.2,1747.64 "/>
<polyline clip-path="url(#clip000)" style="stroke:#000000; stroke-linecap:round; stroke-linejoin:round; stroke-width:4; stroke-opacity:1; fill:none" points="269.302,1603.57 288.2,1603.57 "/>
<polyline clip-path="url(#clip000)" style="stroke:#000000; stroke-linecap:round; stroke-linejoin:round; stroke-width:4; stroke-opacity:1; fill:none" points="269.302,1459.51 288.2,1459.51 "/>
<polyline clip-path="url(#clip000)" style="stroke:#000000; stroke-linecap:round; stroke-linejoin:round; stroke-width:4; stroke-opacity:1; fill:none" points="269.302,1315.45 288.2,1315.45 "/>
<polyline clip-path="url(#clip000)" style="stroke:#000000; stroke-linecap:round; stroke-linejoin:round; stroke-width:4; stroke-opacity:1; fill:none" points="269.302,1171.38 288.2,1171.38 "/>
<path clip-path="url(#clip000)" d="M151.965 1733.43 Q148.353 1733.43 146.525 1737 Q144.719 1740.54 144.719 1747.67 Q144.719 1754.78 146.525 1758.34 Q148.353 1761.88 151.965 1761.88 Q155.599 1761.88 157.404 1758.34 Q159.233 1754.78 159.233 1747.67 Q159.233 1740.54 157.404 1737 Q155.599 1733.43 151.965 1733.43 M151.965 1729.73 Q157.775 1729.73 160.83 1734.34 Q163.909 1738.92 163.909 1747.67 Q163.909 1756.4 160.83 1761 Q157.775 1765.59 151.965 1765.59 Q146.154 1765.59 143.076 1761 Q140.02 1756.4 140.02 1747.67 Q140.02 1738.92 143.076 1734.34 Q146.154 1729.73 151.965 1729.73 Z" fill="#000000" fill-rule="evenodd" fill-opacity="1" /><path clip-path="url(#clip000)" d="M172.126 1759.04 L177.011 1759.04 L177.011 1764.92 L172.126 1764.92 L172.126 1759.04 Z" fill="#000000" fill-rule="evenodd" fill-opacity="1" /><path clip-path="url(#clip000)" d="M197.196 1733.43 Q193.585 1733.43 191.756 1737 Q189.95 1740.54 189.95 1747.67 Q189.95 1754.78 191.756 1758.34 Q193.585 1761.88 197.196 1761.88 Q200.83 1761.88 202.636 1758.34 Q204.464 1754.78 204.464 1747.67 Q204.464 1740.54 202.636 1737 Q200.83 1733.43 197.196 1733.43 M197.196 1729.73 Q203.006 1729.73 206.061 1734.34 Q209.14 1738.92 209.14 1747.67 Q209.14 1756.4 206.061 1761 Q203.006 1765.59 197.196 1765.59 Q191.386 1765.59 188.307 1761 Q185.251 1756.4 185.251 1747.67 Q185.251 1738.92 188.307 1734.34 Q191.386 1729.73 197.196 1729.73 Z" fill="#000000" fill-rule="evenodd" fill-opacity="1" /><path clip-path="url(#clip000)" d="M227.358 1733.43 Q223.747 1733.43 221.918 1737 Q220.112 1740.54 220.112 1747.67 Q220.112 1754.78 221.918 1758.34 Q223.747 1761.88 227.358 1761.88 Q230.992 1761.88 232.797 1758.34 Q234.626 1754.78 234.626 1747.67 Q234.626 1740.54 232.797 1737 Q230.992 1733.43 227.358 1733.43 M227.358 1729.73 Q233.168 1729.73 236.223 1734.34 Q239.302 1738.92 239.302 1747.67 Q239.302 1756.4 236.223 1761 Q233.168 1765.59 227.358 1765.59 Q221.547 1765.59 218.469 1761 Q215.413 1756.4 215.413 1747.67 Q215.413 1738.92 218.469 1734.34 Q221.547 1729.73 227.358 1729.73 Z" fill="#000000" fill-rule="evenodd" fill-opacity="1" /><path clip-path="url(#clip000)" d="M152.96 1589.37 Q149.349 1589.37 147.52 1592.94 Q145.715 1596.48 145.715 1603.61 Q145.715 1610.71 147.52 1614.28 Q149.349 1617.82 152.96 1617.82 Q156.594 1617.82 158.4 1614.28 Q160.228 1610.71 160.228 1603.61 Q160.228 1596.48 158.4 1592.94 Q156.594 1589.37 152.96 1589.37 M152.96 1585.67 Q158.77 1585.67 161.826 1590.27 Q164.904 1594.86 164.904 1603.61 Q164.904 1612.33 161.826 1616.94 Q158.77 1621.52 152.96 1621.52 Q147.15 1621.52 144.071 1616.94 Q141.016 1612.33 141.016 1603.61 Q141.016 1594.86 144.071 1590.27 Q147.15 1585.67 152.96 1585.67 Z" fill="#000000" fill-rule="evenodd" fill-opacity="1" /><path clip-path="url(#clip000)" d="M173.122 1614.97 L178.006 1614.97 L178.006 1620.85 L173.122 1620.85 L173.122 1614.97 Z" fill="#000000" fill-rule="evenodd" fill-opacity="1" /><path clip-path="url(#clip000)" d="M192.219 1616.92 L208.538 1616.92 L208.538 1620.85 L186.594 1620.85 L186.594 1616.92 Q189.256 1614.16 193.839 1609.53 Q198.446 1604.88 199.626 1603.54 Q201.872 1601.02 202.751 1599.28 Q203.654 1597.52 203.654 1595.83 Q203.654 1593.08 201.71 1591.34 Q199.788 1589.6 196.687 1589.6 Q194.487 1589.6 192.034 1590.37 Q189.603 1591.13 186.825 1592.68 L186.825 1587.96 Q189.65 1586.83 192.103 1586.25 Q194.557 1585.67 196.594 1585.67 Q201.964 1585.67 205.159 1588.35 Q208.353 1591.04 208.353 1595.53 Q208.353 1597.66 207.543 1599.58 Q206.756 1601.48 204.649 1604.07 Q204.071 1604.74 200.969 1607.96 Q197.867 1611.15 192.219 1616.92 Z" fill="#000000" fill-rule="evenodd" fill-opacity="1" /><path clip-path="url(#clip000)" d="M218.399 1586.29 L236.756 1586.29 L236.756 1590.23 L222.682 1590.23 L222.682 1598.7 Q223.7 1598.35 224.719 1598.19 Q225.737 1598.01 226.756 1598.01 Q232.543 1598.01 235.922 1601.18 Q239.302 1604.35 239.302 1609.77 Q239.302 1615.34 235.83 1618.45 Q232.358 1621.52 226.038 1621.52 Q223.862 1621.52 221.594 1621.15 Q219.348 1620.78 216.941 1620.04 L216.941 1615.34 Q219.024 1616.48 221.247 1617.03 Q223.469 1617.59 225.946 1617.59 Q229.95 1617.59 232.288 1615.48 Q234.626 1613.38 234.626 1609.77 Q234.626 1606.15 232.288 1604.05 Q229.95 1601.94 225.946 1601.94 Q224.071 1601.94 222.196 1602.36 Q220.344 1602.77 218.399 1603.65 L218.399 1586.29 Z" fill="#000000" fill-rule="evenodd" fill-opacity="1" /><path clip-path="url(#clip000)" d="M151.965 1445.31 Q148.353 1445.31 146.525 1448.87 Q144.719 1452.42 144.719 1459.55 Q144.719 1466.65 146.525 1470.22 Q148.353 1473.76 151.965 1473.76 Q155.599 1473.76 157.404 1470.22 Q159.233 1466.65 159.233 1459.55 Q159.233 1452.42 157.404 1448.87 Q155.599 1445.31 151.965 1445.31 M151.965 1441.61 Q157.775 1441.61 160.83 1446.21 Q163.909 1450.8 163.909 1459.55 Q163.909 1468.27 160.83 1472.88 Q157.775 1477.46 151.965 1477.46 Q146.154 1477.46 143.076 1472.88 Q140.02 1468.27 140.02 1459.55 Q140.02 1450.8 143.076 1446.21 Q146.154 1441.61 151.965 1441.61 Z" fill="#000000" fill-rule="evenodd" fill-opacity="1" /><path clip-path="url(#clip000)" d="M172.126 1470.91 L177.011 1470.91 L177.011 1476.79 L172.126 1476.79 L172.126 1470.91 Z" fill="#000000" fill-rule="evenodd" fill-opacity="1" /><path clip-path="url(#clip000)" d="M187.242 1442.23 L205.599 1442.23 L205.599 1446.17 L191.525 1446.17 L191.525 1454.64 Q192.543 1454.29 193.562 1454.13 Q194.58 1453.94 195.599 1453.94 Q201.386 1453.94 204.765 1457.11 Q208.145 1460.29 208.145 1465.7 Q208.145 1471.28 204.673 1474.38 Q201.2 1477.46 194.881 1477.46 Q192.705 1477.46 190.437 1477.09 Q188.191 1476.72 185.784 1475.98 L185.784 1471.28 Q187.867 1472.42 190.089 1472.97 Q192.312 1473.53 194.788 1473.53 Q198.793 1473.53 201.131 1471.42 Q203.469 1469.31 203.469 1465.7 Q203.469 1462.09 201.131 1459.98 Q198.793 1457.88 194.788 1457.88 Q192.913 1457.88 191.038 1458.3 Q189.187 1458.71 187.242 1459.59 L187.242 1442.23 Z" fill="#000000" fill-rule="evenodd" fill-opacity="1" /><path clip-path="url(#clip000)" d="M227.358 1445.31 Q223.747 1445.31 221.918 1448.87 Q220.112 1452.42 220.112 1459.55 Q220.112 1466.65 221.918 1470.22 Q223.747 1473.76 227.358 1473.76 Q230.992 1473.76 232.797 1470.22 Q234.626 1466.65 234.626 1459.55 Q234.626 1452.42 232.797 1448.87 Q230.992 1445.31 227.358 1445.31 M227.358 1441.61 Q233.168 1441.61 236.223 1446.21 Q239.302 1450.8 239.302 1459.55 Q239.302 1468.27 236.223 1472.88 Q233.168 1477.46 227.358 1477.46 Q221.547 1477.46 218.469 1472.88 Q215.413 1468.27 215.413 1459.55 Q215.413 1450.8 218.469 1446.21 Q221.547 1441.61 227.358 1441.61 Z" fill="#000000" fill-rule="evenodd" fill-opacity="1" /><path clip-path="url(#clip000)" d="M152.96 1301.25 Q149.349 1301.25 147.52 1304.81 Q145.715 1308.35 145.715 1315.48 Q145.715 1322.59 147.52 1326.15 Q149.349 1329.7 152.96 1329.7 Q156.594 1329.7 158.4 1326.15 Q160.228 1322.59 160.228 1315.48 Q160.228 1308.35 158.4 1304.81 Q156.594 1301.25 152.96 1301.25 M152.96 1297.54 Q158.77 1297.54 161.826 1302.15 Q164.904 1306.73 164.904 1315.48 Q164.904 1324.21 161.826 1328.82 Q158.77 1333.4 152.96 1333.4 Q147.15 1333.4 144.071 1328.82 Q141.016 1324.21 141.016 1315.48 Q141.016 1306.73 144.071 1302.15 Q147.15 1297.54 152.96 1297.54 Z" fill="#000000" fill-rule="evenodd" fill-opacity="1" /><path clip-path="url(#clip000)" d="M173.122 1326.85 L178.006 1326.85 L178.006 1332.73 L173.122 1332.73 L173.122 1326.85 Z" fill="#000000" fill-rule="evenodd" fill-opacity="1" /><path clip-path="url(#clip000)" d="M187.011 1298.17 L209.233 1298.17 L209.233 1300.16 L196.687 1332.73 L191.802 1332.73 L203.608 1302.1 L187.011 1302.1 L187.011 1298.17 Z" fill="#000000" fill-rule="evenodd" fill-opacity="1" /><path clip-path="url(#clip000)" d="M218.399 1298.17 L236.756 1298.17 L236.756 1302.1 L222.682 1302.1 L222.682 1310.57 Q223.7 1310.23 224.719 1310.07 Q225.737 1309.88 226.756 1309.88 Q232.543 1309.88 235.922 1313.05 Q239.302 1316.22 239.302 1321.64 Q239.302 1327.22 235.83 1330.32 Q232.358 1333.4 226.038 1333.4 Q223.862 1333.4 221.594 1333.03 Q219.348 1332.66 216.941 1331.92 L216.941 1327.22 Q219.024 1328.35 221.247 1328.91 Q223.469 1329.46 225.946 1329.46 Q229.95 1329.46 232.288 1327.36 Q234.626 1325.25 234.626 1321.64 Q234.626 1318.03 232.288 1315.92 Q229.95 1313.82 225.946 1313.82 Q224.071 1313.82 222.196 1314.23 Q220.344 1314.65 218.399 1315.53 L218.399 1298.17 Z" fill="#000000" fill-rule="evenodd" fill-opacity="1" /><path clip-path="url(#clip000)" d="M142.775 1184.73 L150.414 1184.73 L150.414 1158.36 L142.103 1160.03 L142.103 1155.77 L150.367 1154.1 L155.043 1154.1 L155.043 1184.73 L162.682 1184.73 L162.682 1188.66 L142.775 1188.66 L142.775 1184.73 Z" fill="#000000" fill-rule="evenodd" fill-opacity="1" /><path clip-path="url(#clip000)" d="M172.126 1182.79 L177.011 1182.79 L177.011 1188.66 L172.126 1188.66 L172.126 1182.79 Z" fill="#000000" fill-rule="evenodd" fill-opacity="1" /><path clip-path="url(#clip000)" d="M197.196 1157.18 Q193.585 1157.18 191.756 1160.75 Q189.95 1164.29 189.95 1171.42 Q189.95 1178.53 191.756 1182.09 Q193.585 1185.63 197.196 1185.63 Q200.83 1185.63 202.636 1182.09 Q204.464 1178.53 204.464 1171.42 Q204.464 1164.29 202.636 1160.75 Q200.83 1157.18 197.196 1157.18 M197.196 1153.48 Q203.006 1153.48 206.061 1158.09 Q209.14 1162.67 209.14 1171.42 Q209.14 1180.15 206.061 1184.75 Q203.006 1189.34 197.196 1189.34 Q191.386 1189.34 188.307 1184.75 Q185.251 1180.15 185.251 1171.42 Q185.251 1162.67 188.307 1158.09 Q191.386 1153.48 197.196 1153.48 Z" fill="#000000" fill-rule="evenodd" fill-opacity="1" /><path clip-path="url(#clip000)" d="M227.358 1157.18 Q223.747 1157.18 221.918 1160.75 Q220.112 1164.29 220.112 1171.42 Q220.112 1178.53 221.918 1182.09 Q223.747 1185.63 227.358 1185.63 Q230.992 1185.63 232.797 1182.09 Q234.626 1178.53 234.626 1171.42 Q234.626 1164.29 232.797 1160.75 Q230.992 1157.18 227.358 1157.18 M227.358 1153.48 Q233.168 1153.48 236.223 1158.09 Q239.302 1162.67 239.302 1171.42 Q239.302 1180.15 236.223 1184.75 Q233.168 1189.34 227.358 1189.34 Q221.547 1189.34 218.469 1184.75 Q215.413 1180.15 215.413 1171.42 Q215.413 1162.67 218.469 1158.09 Q221.547 1153.48 227.358 1153.48 Z" fill="#000000" fill-rule="evenodd" fill-opacity="1" /><path clip-path="url(#clip000)" d="M54.578 1691.69 L78.2266 1700.41 L78.2266 1682.93 L54.578 1691.69 M48.2442 1695.31 L48.2442 1688.03 L95.7642 1669.92 L95.7642 1676.6 L83.5738 1680.93 L83.5738 1702.35 L95.7642 1706.68 L95.7642 1713.46 L48.2442 1695.31 Z" fill="#000000" fill-rule="evenodd" fill-opacity="1" /><path clip-path="url(#clip000)" d="M81.6959 1663.84 L60.1162 1663.84 L60.1162 1657.98 L81.4731 1657.98 Q86.5339 1657.98 89.0802 1656.01 Q91.5946 1654.03 91.5946 1650.09 Q91.5946 1645.34 88.5709 1642.61 Q85.5472 1639.84 80.3273 1639.84 L60.1162 1639.84 L60.1162 1633.98 L95.7642 1633.98 L95.7642 1639.84 L90.2896 1639.84 Q93.5362 1641.97 95.1276 1644.8 Q96.6872 1647.6 96.6872 1651.33 Q96.6872 1657.47 92.8678 1660.65 Q89.0483 1663.84 81.6959 1663.84 M59.2568 1649.1 L59.2568 1649.1 Z" fill="#000000" fill-rule="evenodd" fill-opacity="1" /><path clip-path="url(#clip000)" d="M49.9947 1616.12 L60.1162 1616.12 L60.1162 1604.06 L64.6677 1604.06 L64.6677 1616.12 L84.0194 1616.12 Q88.3799 1616.12 89.6213 1614.95 Q90.8626 1613.74 90.8626 1610.08 L90.8626 1604.06 L95.7642 1604.06 L95.7642 1610.08 Q95.7642 1616.86 93.2497 1619.43 Q90.7034 1622.01 84.0194 1622.01 L64.6677 1622.01 L64.6677 1626.31 L60.1162 1626.31 L60.1162 1622.01 L49.9947 1622.01 L49.9947 1616.12 Z" fill="#000000" fill-rule="evenodd" fill-opacity="1" /><path clip-path="url(#clip000)" d="M64.2221 1582.55 Q64.2221 1587.26 67.9142 1589.99 Q71.5745 1592.73 77.972 1592.73 Q84.3695 1592.73 88.0617 1590.03 Q91.7219 1587.29 91.7219 1582.55 Q91.7219 1577.87 88.0298 1575.13 Q84.3377 1572.39 77.972 1572.39 Q71.6381 1572.39 67.946 1575.13 Q64.2221 1577.87 64.2221 1582.55 M59.2568 1582.55 Q59.2568 1574.91 64.2221 1570.55 Q69.1873 1566.19 77.972 1566.19 Q86.7249 1566.19 91.7219 1570.55 Q96.6872 1574.91 96.6872 1582.55 Q96.6872 1590.22 91.7219 1594.58 Q86.7249 1598.91 77.972 1598.91 Q69.1873 1598.91 64.2221 1594.58 Q59.2568 1590.22 59.2568 1582.55 Z" fill="#000000" fill-rule="evenodd" fill-opacity="1" /><path clip-path="url(#clip000)" d="M61.4848 1530.82 L66.9593 1530.82 Q65.5907 1533.31 64.9223 1535.82 Q64.2221 1538.3 64.2221 1540.85 Q64.2221 1546.55 67.8505 1549.7 Q71.4472 1552.85 77.972 1552.85 Q84.4969 1552.85 88.1253 1549.7 Q91.7219 1546.55 91.7219 1540.85 Q91.7219 1538.3 91.0535 1535.82 Q90.3533 1533.31 88.9847 1530.82 L94.3955 1530.82 Q95.5414 1533.28 96.1143 1535.92 Q96.6872 1538.53 96.6872 1541.49 Q96.6872 1549.54 91.6264 1554.28 Q86.5657 1559.02 77.972 1559.02 Q69.251 1559.02 64.2539 1554.25 Q59.2568 1549.44 59.2568 1541.1 Q59.2568 1538.4 59.8297 1535.82 Q60.3708 1533.24 61.4848 1530.82 Z" fill="#000000" fill-rule="evenodd" fill-opacity="1" /><path clip-path="url(#clip000)" d="M64.2221 1506.83 Q64.2221 1511.54 67.9142 1514.27 Q71.5745 1517.01 77.972 1517.01 Q84.3695 1517.01 88.0617 1514.31 Q91.7219 1511.57 91.7219 1506.83 Q91.7219 1502.15 88.0298 1499.41 Q84.3377 1496.67 77.972 1496.67 Q71.6381 1496.67 67.946 1499.41 Q64.2221 1502.15 64.2221 1506.83 M59.2568 1506.83 Q59.2568 1499.19 64.2221 1494.83 Q69.1873 1490.47 77.972 1490.47 Q86.7249 1490.47 91.7219 1494.83 Q96.6872 1499.19 96.6872 1506.83 Q96.6872 1514.5 91.7219 1518.86 Q86.7249 1523.19 77.972 1523.19 Q69.1873 1523.19 64.2221 1518.86 Q59.2568 1514.5 59.2568 1506.83 Z" fill="#000000" fill-rule="evenodd" fill-opacity="1" /><path clip-path="url(#clip000)" d="M65.5907 1460.1 Q65.0178 1461.09 64.7632 1462.27 Q64.4767 1463.41 64.4767 1464.81 Q64.4767 1469.78 67.7232 1472.45 Q70.9379 1475.09 76.9853 1475.09 L95.7642 1475.09 L95.7642 1480.98 L60.1162 1480.98 L60.1162 1475.09 L65.6544 1475.09 Q62.4079 1473.25 60.8483 1470.29 Q59.2568 1467.33 59.2568 1463.09 Q59.2568 1462.49 59.3523 1461.76 Q59.416 1461.02 59.5751 1460.13 L65.5907 1460.1 Z" fill="#000000" fill-rule="evenodd" fill-opacity="1" /><path clip-path="url(#clip000)" d="M65.5907 1434.45 Q65.0178 1435.43 64.7632 1436.61 Q64.4767 1437.76 64.4767 1439.16 Q64.4767 1444.12 67.7232 1446.8 Q70.9379 1449.44 76.9853 1449.44 L95.7642 1449.44 L95.7642 1455.33 L60.1162 1455.33 L60.1162 1449.44 L65.6544 1449.44 Q62.4079 1447.59 60.8483 1444.63 Q59.2568 1441.67 59.2568 1437.44 Q59.2568 1436.83 59.3523 1436.1 Q59.416 1435.37 59.5751 1434.48 L65.5907 1434.45 Z" fill="#000000" fill-rule="evenodd" fill-opacity="1" /><path clip-path="url(#clip000)" d="M76.4761 1399.25 L79.3406 1399.25 L79.3406 1426.17 Q85.3881 1425.79 88.5709 1422.54 Q91.7219 1419.27 91.7219 1413.44 Q91.7219 1410.07 90.8944 1406.92 Q90.0669 1403.73 88.4118 1400.61 L93.9499 1400.61 Q95.2867 1403.76 95.987 1407.08 Q96.6872 1410.39 96.6872 1413.79 Q96.6872 1422.32 91.7219 1427.32 Q86.7567 1432.28 78.2903 1432.28 Q69.5374 1432.28 64.4131 1427.57 Q59.2568 1422.83 59.2568 1414.81 Q59.2568 1407.62 63.9038 1403.45 Q68.5189 1399.25 76.4761 1399.25 M74.7573 1405.1 Q69.9512 1405.17 67.0866 1407.81 Q64.2221 1410.42 64.2221 1414.75 Q64.2221 1419.65 66.9912 1422.61 Q69.7602 1425.54 74.7892 1425.98 L74.7573 1405.1 Z" fill="#000000" fill-rule="evenodd" fill-opacity="1" /><path clip-path="url(#clip000)" d="M46.239 1389.63 L46.239 1383.78 L95.7642 1383.78 L95.7642 1389.63 L46.239 1389.63 Z" fill="#000000" fill-rule="evenodd" fill-opacity="1" /><path clip-path="url(#clip000)" d="M77.8447 1355.32 Q77.8447 1362.42 79.4679 1365.16 Q81.0912 1367.89 85.0061 1367.89 Q88.1253 1367.89 89.9714 1365.86 Q91.7856 1363.79 91.7856 1360.26 Q91.7856 1355.39 88.3481 1352.46 Q84.8788 1349.5 79.1497 1349.5 L77.8447 1349.5 L77.8447 1355.32 M75.4257 1343.64 L95.7642 1343.64 L95.7642 1349.5 L90.3533 1349.5 Q93.5998 1351.5 95.1594 1354.49 Q96.6872 1357.49 96.6872 1361.81 Q96.6872 1367.29 93.6316 1370.54 Q90.5443 1373.75 85.3881 1373.75 Q79.3725 1373.75 76.3169 1369.74 Q73.2614 1365.7 73.2614 1357.71 L73.2614 1349.5 L72.6885 1349.5 Q68.6462 1349.5 66.4501 1352.17 Q64.2221 1354.81 64.2221 1359.62 Q64.2221 1362.67 64.9541 1365.57 Q65.6862 1368.47 67.1503 1371.14 L61.7395 1371.14 Q60.4981 1367.93 59.8934 1364.9 Q59.2568 1361.88 59.2568 1359.01 Q59.2568 1351.28 63.2672 1347.46 Q67.2776 1343.64 75.4257 1343.64 Z" fill="#000000" fill-rule="evenodd" fill-opacity="1" /><path clip-path="url(#clip000)" d="M49.9947 1325.78 L60.1162 1325.78 L60.1162 1313.72 L64.6677 1313.72 L64.6677 1325.78 L84.0194 1325.78 Q88.3799 1325.78 89.6213 1324.61 Q90.8626 1323.4 90.8626 1319.74 L90.8626 1313.72 L95.7642 1313.72 L95.7642 1319.74 Q95.7642 1326.52 93.2497 1329.1 Q90.7034 1331.67 84.0194 1331.67 L64.6677 1331.67 L64.6677 1335.97 L60.1162 1335.97 L60.1162 1331.67 L49.9947 1331.67 L49.9947 1325.78 Z" fill="#000000" fill-rule="evenodd" fill-opacity="1" /><path clip-path="url(#clip000)" d="M60.1162 1306.02 L60.1162 1300.16 L95.7642 1300.16 L95.7642 1306.02 L60.1162 1306.02 M46.239 1306.02 L46.239 1300.16 L53.655 1300.16 L53.655 1306.02 L46.239 1306.02 Z" fill="#000000" fill-rule="evenodd" fill-opacity="1" /><path clip-path="url(#clip000)" d="M64.2221 1274.1 Q64.2221 1278.81 67.9142 1281.54 Q71.5745 1284.28 77.972 1284.28 Q84.3695 1284.28 88.0617 1281.58 Q91.7219 1278.84 91.7219 1274.1 Q91.7219 1269.42 88.0298 1266.68 Q84.3377 1263.94 77.972 1263.94 Q71.6381 1263.94 67.946 1266.68 Q64.2221 1269.42 64.2221 1274.1 M59.2568 1274.1 Q59.2568 1266.46 64.2221 1262.1 Q69.1873 1257.74 77.972 1257.74 Q86.7249 1257.74 91.7219 1262.1 Q96.6872 1266.46 96.6872 1274.1 Q96.6872 1281.77 91.7219 1286.13 Q86.7249 1290.46 77.972 1290.46 Q69.1873 1290.46 64.2221 1286.13 Q59.2568 1281.77 59.2568 1274.1 Z" fill="#000000" fill-rule="evenodd" fill-opacity="1" /><path clip-path="url(#clip000)" d="M74.2481 1218.4 L95.7642 1218.4 L95.7642 1224.25 L74.439 1224.25 Q69.3783 1224.25 66.8638 1226.23 Q64.3494 1228.2 64.3494 1232.15 Q64.3494 1236.89 67.3731 1239.63 Q70.3968 1242.36 75.6167 1242.36 L95.7642 1242.36 L95.7642 1248.25 L60.1162 1248.25 L60.1162 1242.36 L65.6544 1242.36 Q62.4397 1240.26 60.8483 1237.43 Q59.2568 1234.56 59.2568 1230.84 Q59.2568 1224.7 63.0763 1221.55 Q66.8638 1218.4 74.2481 1218.4 Z" fill="#000000" fill-rule="evenodd" fill-opacity="1" /><path clip-path="url(#clip000)" d="M1024 1028.54 L1024 1035.59 Q1020.84 1033.97 1017.43 1033.16 Q1014.03 1032.35 1010.38 1032.35 Q1004.83 1032.35 1002.04 1034.05 Q999.285 1035.75 999.285 1039.16 Q999.285 1041.75 1001.27 1043.25 Q1003.25 1044.71 1009.25 1046.04 L1011.8 1046.61 Q1019.74 1048.31 1023.06 1051.43 Q1026.43 1054.51 1026.43 1060.06 Q1026.43 1066.38 1021.4 1070.06 Q1016.42 1073.75 1007.67 1073.75 Q1004.02 1073.75 1000.05 1073.02 Q996.125 1072.33 991.75 1070.92 L991.75 1063.22 Q995.882 1065.37 999.892 1066.46 Q1003.9 1067.51 1007.83 1067.51 Q1013.1 1067.51 1015.93 1065.73 Q1018.77 1063.91 1018.77 1060.63 Q1018.77 1057.59 1016.7 1055.97 Q1014.68 1054.35 1007.75 1052.85 L1005.16 1052.24 Q998.232 1050.78 995.153 1047.78 Q992.074 1044.75 992.074 1039.48 Q992.074 1033.08 996.611 1029.6 Q1001.15 1026.11 1009.49 1026.11 Q1013.62 1026.11 1017.27 1026.72 Q1020.92 1027.33 1024 1028.54 Z" fill="#000000" fill-rule="evenodd" fill-opacity="1" /><path clip-path="url(#clip000)" d="M1038.29 1027.21 L1045.75 1027.21 L1045.75 1072.58 L1038.29 1072.58 L1038.29 1027.21 M1038.29 1009.54 L1045.75 1009.54 L1045.75 1018.98 L1038.29 1018.98 L1038.29 1009.54 Z" fill="#000000" fill-rule="evenodd" fill-opacity="1" /><path clip-path="url(#clip000)" d="M1091.2 1049.36 Q1091.2 1041.26 1087.84 1036.81 Q1084.52 1032.35 1078.48 1032.35 Q1072.48 1032.35 1069.12 1036.81 Q1065.8 1041.26 1065.8 1049.36 Q1065.8 1057.43 1069.12 1061.88 Q1072.48 1066.34 1078.48 1066.34 Q1084.52 1066.34 1087.84 1061.88 Q1091.2 1057.43 1091.2 1049.36 M1098.65 1066.95 Q1098.65 1078.53 1093.51 1084.16 Q1088.36 1089.83 1077.75 1089.83 Q1073.82 1089.83 1070.34 1089.23 Q1066.85 1088.66 1063.57 1087.44 L1063.57 1080.19 Q1066.85 1081.97 1070.05 1082.82 Q1073.25 1083.68 1076.58 1083.68 Q1083.91 1083.68 1087.55 1079.83 Q1091.2 1076.02 1091.2 1068.28 L1091.2 1064.6 Q1088.89 1068.61 1085.29 1070.59 Q1081.68 1072.58 1076.66 1072.58 Q1068.31 1072.58 1063.21 1066.22 Q1058.1 1059.86 1058.1 1049.36 Q1058.1 1038.83 1063.21 1032.47 Q1068.31 1026.11 1076.66 1026.11 Q1081.68 1026.11 1085.29 1028.1 Q1088.89 1030.08 1091.2 1034.09 L1091.2 1027.21 L1098.65 1027.21 L1098.65 1066.95 Z" fill="#000000" fill-rule="evenodd" fill-opacity="1" /><path clip-path="url(#clip000)" d="M1149.33 1035.92 Q1152.13 1030.89 1156.01 1028.5 Q1159.9 1026.11 1165.17 1026.11 Q1172.26 1026.11 1176.11 1031.09 Q1179.96 1036.04 1179.96 1045.19 L1179.96 1072.58 L1172.46 1072.58 L1172.46 1045.43 Q1172.46 1038.91 1170.15 1035.75 Q1167.84 1032.59 1163.1 1032.59 Q1157.31 1032.59 1153.95 1036.44 Q1150.59 1040.29 1150.59 1046.93 L1150.59 1072.58 L1143.09 1072.58 L1143.09 1045.43 Q1143.09 1038.87 1140.78 1035.75 Q1138.47 1032.59 1133.65 1032.59 Q1127.94 1032.59 1124.58 1036.48 Q1121.22 1040.33 1121.22 1046.93 L1121.22 1072.58 L1113.72 1072.58 L1113.72 1027.21 L1121.22 1027.21 L1121.22 1034.25 Q1123.77 1030.08 1127.33 1028.1 Q1130.9 1026.11 1135.8 1026.11 Q1140.74 1026.11 1144.19 1028.62 Q1147.67 1031.14 1149.33 1035.92 Z" fill="#000000" fill-rule="evenodd" fill-opacity="1" /><path clip-path="url(#clip000)" d="M1215.44 1049.77 Q1206.41 1049.77 1202.92 1051.84 Q1199.44 1053.9 1199.44 1058.88 Q1199.44 1062.85 1202.03 1065.2 Q1204.67 1067.51 1209.16 1067.51 Q1215.36 1067.51 1219.09 1063.14 Q1222.85 1058.72 1222.85 1051.43 L1222.85 1049.77 L1215.44 1049.77 M1230.31 1046.69 L1230.31 1072.58 L1222.85 1072.58 L1222.85 1065.69 Q1220.3 1069.82 1216.49 1071.81 Q1212.69 1073.75 1207.18 1073.75 Q1200.21 1073.75 1196.08 1069.86 Q1191.99 1065.93 1191.99 1059.37 Q1191.99 1051.71 1197.09 1047.82 Q1202.24 1043.94 1212.4 1043.94 L1222.85 1043.94 L1222.85 1043.21 Q1222.85 1038.06 1219.45 1035.27 Q1216.09 1032.43 1209.97 1032.43 Q1206.08 1032.43 1202.4 1033.36 Q1198.71 1034.29 1195.31 1036.16 L1195.31 1029.27 Q1199.4 1027.69 1203.25 1026.92 Q1207.1 1026.11 1210.74 1026.11 Q1220.59 1026.11 1225.45 1031.22 Q1230.31 1036.32 1230.31 1046.69 Z" fill="#000000" fill-rule="evenodd" fill-opacity="1" /><polyline clip-path="url(#clip003)" style="stroke:#009af9; stroke-linecap:round; stroke-linejoin:round; stroke-width:4; stroke-opacity:1; fill:none" points="316.947,1171.38 356.651,1699.28 396.355,1744.8 436.059,1752.89 475.763,1753.52 515.467,1748.07 555.172,1745.25 594.876,1737.87 634.58,1734.31 674.284,1750.19 713.988,1741.14 753.692,1740.5 793.396,1749.18 833.1,1756.53 872.804,1750.12 912.508,1750.72 952.213,1748.2 991.917,1749.32 1031.62,1750.7 1071.32,1751.04 1111.03,1749.37 1150.73,1744.2 1190.44,1758.98 1230.14,1760.47 1269.85,1756.49 1309.55,1744.08 1349.25,1744.96 1388.96,1743.69 1428.66,1757.98 1468.37,1744.6 1508.07,1742.95 1547.77,1752.09 1587.48,1755.87 1627.18,1739.81 1666.89,1739.28 1706.59,1743.88 1746.29,1750.75 1786,1743.37 1825.7,1742.75 1865.41,1743.68 1905.11,1745.41 "/>
</svg>
