<?xml version="1.0" encoding="utf-8"?>
<svg xmlns="http://www.w3.org/2000/svg" xmlns:xlink="http://www.w3.org/1999/xlink" width="800" height="150" viewBox="0 0 3200 600">
<defs>
  <clipPath id="clip120">
    <rect x="0" y="0" width="3200" height="600"/>
  </clipPath>
</defs>
<path clip-path="url(#clip120)" d="M0 600 L3200 600 L3200 0 L0 0  Z" fill="#ffffff" fill-rule="evenodd" fill-opacity="1"/>
<defs>
  <clipPath id="clip121">
    <rect x="640" y="0" width="2241" height="600"/>
  </clipPath>
</defs>
<path clip-path="url(#clip120)" d="M194.76 521.288 L3152.76 521.288 L3152.76 47.2441 L194.76 47.2441  Z" fill="#ffffff" fill-rule="evenodd" fill-opacity="1"/>
<defs>
  <clipPath id="clip122">
    <rect x="194" y="47" width="2959" height="475"/>
  </clipPath>
</defs>
<polyline clip-path="url(#clip122)" style="stroke:#000000; stroke-linecap:round; stroke-linejoin:round; stroke-width:2; stroke-opacity:0.1; fill:none" points="532.482,521.288 532.482,47.2441 "/>
<polyline clip-path="url(#clip122)" style="stroke:#000000; stroke-linecap:round; stroke-linejoin:round; stroke-width:2; stroke-opacity:0.1; fill:none" points="1087.8,521.288 1087.8,47.2441 "/>
<polyline clip-path="url(#clip122)" style="stroke:#000000; stroke-linecap:round; stroke-linejoin:round; stroke-width:2; stroke-opacity:0.1; fill:none" points="1643.12,521.288 1643.12,47.2441 "/>
<polyline clip-path="url(#clip122)" style="stroke:#000000; stroke-linecap:round; stroke-linejoin:round; stroke-width:2; stroke-opacity:0.1; fill:none" points="2198.44,521.288 2198.44,47.2441 "/>
<polyline clip-path="url(#clip122)" style="stroke:#000000; stroke-linecap:round; stroke-linejoin:round; stroke-width:2; stroke-opacity:0.1; fill:none" points="2753.76,521.288 2753.76,47.2441 "/>
<polyline clip-path="url(#clip120)" style="stroke:#000000; stroke-linecap:round; stroke-linejoin:round; stroke-width:4; stroke-opacity:1; fill:none" points="194.76,521.288 3152.76,521.288 "/>
<polyline clip-path="url(#clip120)" style="stroke:#000000; stroke-linecap:round; stroke-linejoin:round; stroke-width:4; stroke-opacity:1; fill:none" points="532.482,521.288 532.482,502.39 "/>
<polyline clip-path="url(#clip120)" style="stroke:#000000; stroke-linecap:round; stroke-linejoin:round; stroke-width:4; stroke-opacity:1; fill:none" points="1087.8,521.288 1087.8,502.39 "/>
<polyline clip-path="url(#clip120)" style="stroke:#000000; stroke-linecap:round; stroke-linejoin:round; stroke-width:4; stroke-opacity:1; fill:none" points="1643.12,521.288 1643.12,502.39 "/>
<polyline clip-path="url(#clip120)" style="stroke:#000000; stroke-linecap:round; stroke-linejoin:round; stroke-width:4; stroke-opacity:1; fill:none" points="2198.44,521.288 2198.44,502.39 "/>
<polyline clip-path="url(#clip120)" style="stroke:#000000; stroke-linecap:round; stroke-linejoin:round; stroke-width:4; stroke-opacity:1; fill:none" points="2753.76,521.288 2753.76,502.39 "/>
<path clip-path="url(#clip120)" d="M506.336 555.528 L528.559 555.528 L528.559 557.519 L516.012 590.088 L511.128 590.088 L522.934 559.463 L506.336 559.463 L506.336 555.528 Z" fill="#000000" fill-rule="evenodd" fill-opacity="1" /><path clip-path="url(#clip120)" d="M537.725 555.528 L556.082 555.528 L556.082 559.463 L542.008 559.463 L542.008 567.935 Q543.026 567.588 544.045 567.426 Q545.063 567.241 546.082 567.241 Q551.869 567.241 555.248 570.412 Q558.628 573.583 558.628 579 Q558.628 584.579 555.156 587.68 Q551.683 590.759 545.364 590.759 Q543.188 590.759 540.92 590.389 Q538.674 590.018 536.267 589.278 L536.267 584.579 Q538.35 585.713 540.572 586.268 Q542.795 586.824 545.271 586.824 Q549.276 586.824 551.614 584.718 Q553.952 582.611 553.952 579 Q553.952 575.389 551.614 573.282 Q549.276 571.176 545.271 571.176 Q543.396 571.176 541.521 571.593 Q539.67 572.009 537.725 572.889 L537.725 555.528 Z" fill="#000000" fill-rule="evenodd" fill-opacity="1" /><path clip-path="url(#clip120)" d="M1047.41 586.153 L1055.05 586.153 L1055.05 559.787 L1046.74 561.454 L1046.74 557.195 L1055 555.528 L1059.68 555.528 L1059.68 586.153 L1067.31 586.153 L1067.31 590.088 L1047.41 590.088 L1047.41 586.153 Z" fill="#000000" fill-rule="evenodd" fill-opacity="1" /><path clip-path="url(#clip120)" d="M1086.76 558.607 Q1083.15 558.607 1081.32 562.171 Q1079.51 565.713 1079.51 572.843 Q1079.51 579.949 1081.32 583.514 Q1083.15 587.055 1086.76 587.055 Q1090.39 587.055 1092.2 583.514 Q1094.03 579.949 1094.03 572.843 Q1094.03 565.713 1092.2 562.171 Q1090.39 558.607 1086.76 558.607 M1086.76 554.903 Q1092.57 554.903 1095.62 559.509 Q1098.7 564.093 1098.7 572.843 Q1098.7 581.569 1095.62 586.176 Q1092.57 590.759 1086.76 590.759 Q1080.95 590.759 1077.87 586.176 Q1074.81 581.569 1074.81 572.843 Q1074.81 564.093 1077.87 559.509 Q1080.95 554.903 1086.76 554.903 Z" fill="#000000" fill-rule="evenodd" fill-opacity="1" /><path clip-path="url(#clip120)" d="M1116.92 558.607 Q1113.31 558.607 1111.48 562.171 Q1109.68 565.713 1109.68 572.843 Q1109.68 579.949 1111.48 583.514 Q1113.31 587.055 1116.92 587.055 Q1120.55 587.055 1122.36 583.514 Q1124.19 579.949 1124.19 572.843 Q1124.19 565.713 1122.36 562.171 Q1120.55 558.607 1116.92 558.607 M1116.92 554.903 Q1122.73 554.903 1125.79 559.509 Q1128.86 564.093 1128.86 572.843 Q1128.86 581.569 1125.79 586.176 Q1122.73 590.759 1116.92 590.759 Q1111.11 590.759 1108.03 586.176 Q1104.98 581.569 1104.98 572.843 Q1104.98 564.093 1108.03 559.509 Q1111.11 554.903 1116.92 554.903 Z" fill="#000000" fill-rule="evenodd" fill-opacity="1" /><path clip-path="url(#clip120)" d="M1603.22 586.153 L1610.86 586.153 L1610.86 559.787 L1602.55 561.454 L1602.55 557.195 L1610.82 555.528 L1615.49 555.528 L1615.49 586.153 L1623.13 586.153 L1623.13 590.088 L1603.22 590.088 L1603.22 586.153 Z" fill="#000000" fill-rule="evenodd" fill-opacity="1" /><path clip-path="url(#clip120)" d="M1636.6 586.153 L1652.92 586.153 L1652.92 590.088 L1630.98 590.088 L1630.98 586.153 Q1633.64 583.398 1638.22 578.768 Q1642.83 574.116 1644.01 572.773 Q1646.26 570.25 1647.13 568.514 Q1648.04 566.755 1648.04 565.065 Q1648.04 562.31 1646.09 560.574 Q1644.17 558.838 1641.07 558.838 Q1638.87 558.838 1636.42 559.602 Q1633.99 560.366 1631.21 561.917 L1631.21 557.195 Q1634.03 556.06 1636.49 555.482 Q1638.94 554.903 1640.98 554.903 Q1646.35 554.903 1649.54 557.588 Q1652.74 560.273 1652.74 564.764 Q1652.74 566.894 1651.93 568.815 Q1651.14 570.713 1649.03 573.306 Q1648.45 573.977 1645.35 577.194 Q1642.25 580.389 1636.6 586.153 Z" fill="#000000" fill-rule="evenodd" fill-opacity="1" /><path clip-path="url(#clip120)" d="M1662.78 555.528 L1681.14 555.528 L1681.14 559.463 L1667.07 559.463 L1667.07 567.935 Q1668.08 567.588 1669.1 567.426 Q1670.12 567.241 1671.14 567.241 Q1676.93 567.241 1680.31 570.412 Q1683.69 573.583 1683.69 579 Q1683.69 584.579 1680.21 587.68 Q1676.74 590.759 1670.42 590.759 Q1668.25 590.759 1665.98 590.389 Q1663.73 590.018 1661.32 589.278 L1661.32 584.579 Q1663.41 585.713 1665.63 586.268 Q1667.85 586.824 1670.33 586.824 Q1674.33 586.824 1676.67 584.718 Q1679.01 582.611 1679.01 579 Q1679.01 575.389 1676.67 573.282 Q1674.33 571.176 1670.33 571.176 Q1668.45 571.176 1666.58 571.593 Q1664.73 572.009 1662.78 572.889 L1662.78 555.528 Z" fill="#000000" fill-rule="evenodd" fill-opacity="1" /><path clip-path="url(#clip120)" d="M2158.04 586.153 L2165.68 586.153 L2165.68 559.787 L2157.37 561.454 L2157.37 557.195 L2165.64 555.528 L2170.31 555.528 L2170.31 586.153 L2177.95 586.153 L2177.95 590.088 L2158.04 590.088 L2158.04 586.153 Z" fill="#000000" fill-rule="evenodd" fill-opacity="1" /><path clip-path="url(#clip120)" d="M2187.44 555.528 L2205.8 555.528 L2205.8 559.463 L2191.72 559.463 L2191.72 567.935 Q2192.74 567.588 2193.76 567.426 Q2194.78 567.241 2195.8 567.241 Q2201.58 567.241 2204.96 570.412 Q2208.34 573.583 2208.34 579 Q2208.34 584.579 2204.87 587.68 Q2201.4 590.759 2195.08 590.759 Q2192.9 590.759 2190.64 590.389 Q2188.39 590.018 2185.98 589.278 L2185.98 584.579 Q2188.07 585.713 2190.29 586.268 Q2192.51 586.824 2194.99 586.824 Q2198.99 586.824 2201.33 584.718 Q2203.67 582.611 2203.67 579 Q2203.67 575.389 2201.33 573.282 Q2198.99 571.176 2194.99 571.176 Q2193.11 571.176 2191.24 571.593 Q2189.39 572.009 2187.44 572.889 L2187.44 555.528 Z" fill="#000000" fill-rule="evenodd" fill-opacity="1" /><path clip-path="url(#clip120)" d="M2227.56 558.607 Q2223.95 558.607 2222.12 562.171 Q2220.31 565.713 2220.31 572.843 Q2220.31 579.949 2222.12 583.514 Q2223.95 587.055 2227.56 587.055 Q2231.19 587.055 2233 583.514 Q2234.83 579.949 2234.83 572.843 Q2234.83 565.713 2233 562.171 Q2231.19 558.607 2227.56 558.607 M2227.56 554.903 Q2233.37 554.903 2236.42 559.509 Q2239.5 564.093 2239.5 572.843 Q2239.5 581.569 2236.42 586.176 Q2233.37 590.759 2227.56 590.759 Q2221.75 590.759 2218.67 586.176 Q2215.61 581.569 2215.61 572.843 Q2215.61 564.093 2218.67 559.509 Q2221.75 554.903 2227.56 554.903 Z" fill="#000000" fill-rule="evenodd" fill-opacity="1" /><path clip-path="url(#clip120)" d="M2713.86 586.153 L2721.5 586.153 L2721.5 559.787 L2713.19 561.454 L2713.19 557.195 L2721.45 555.528 L2726.13 555.528 L2726.13 586.153 L2733.77 586.153 L2733.77 590.088 L2713.86 590.088 L2713.86 586.153 Z" fill="#000000" fill-rule="evenodd" fill-opacity="1" /><path clip-path="url(#clip120)" d="M2742.03 555.528 L2764.25 555.528 L2764.25 557.519 L2751.71 590.088 L2746.82 590.088 L2758.63 559.463 L2742.03 559.463 L2742.03 555.528 Z" fill="#000000" fill-rule="evenodd" fill-opacity="1" /><path clip-path="url(#clip120)" d="M2773.42 555.528 L2791.78 555.528 L2791.78 559.463 L2777.7 559.463 L2777.7 567.935 Q2778.72 567.588 2779.74 567.426 Q2780.76 567.241 2781.78 567.241 Q2787.56 567.241 2790.94 570.412 Q2794.32 573.583 2794.32 579 Q2794.32 584.579 2790.85 587.68 Q2787.38 590.759 2781.06 590.759 Q2778.88 590.759 2776.61 590.389 Q2774.37 590.018 2771.96 589.278 L2771.96 584.579 Q2774.04 585.713 2776.27 586.268 Q2778.49 586.824 2780.97 586.824 Q2784.97 586.824 2787.31 584.718 Q2789.65 582.611 2789.65 579 Q2789.65 575.389 2787.31 573.282 Q2784.97 571.176 2780.97 571.176 Q2779.09 571.176 2777.22 571.593 Q2775.36 572.009 2773.42 572.889 L2773.42 555.528 Z" fill="#000000" fill-rule="evenodd" fill-opacity="1" /><polyline clip-path="url(#clip122)" style="stroke:#000000; stroke-linecap:round; stroke-linejoin:round; stroke-width:2; stroke-opacity:0.1; fill:none" points="194.76,507.872 3152.76,507.872 "/>
<polyline clip-path="url(#clip122)" style="stroke:#000000; stroke-linecap:round; stroke-linejoin:round; stroke-width:2; stroke-opacity:0.1; fill:none" points="194.76,434.377 3152.76,434.377 "/>
<polyline clip-path="url(#clip122)" style="stroke:#000000; stroke-linecap:round; stroke-linejoin:round; stroke-width:2; stroke-opacity:0.1; fill:none" points="194.76,360.882 3152.76,360.882 "/>
<polyline clip-path="url(#clip122)" style="stroke:#000000; stroke-linecap:round; stroke-linejoin:round; stroke-width:2; stroke-opacity:0.1; fill:none" points="194.76,287.387 3152.76,287.387 "/>
<polyline clip-path="url(#clip122)" style="stroke:#000000; stroke-linecap:round; stroke-linejoin:round; stroke-width:2; stroke-opacity:0.1; fill:none" points="194.76,213.892 3152.76,213.892 "/>
<polyline clip-path="url(#clip122)" style="stroke:#000000; stroke-linecap:round; stroke-linejoin:round; stroke-width:2; stroke-opacity:0.1; fill:none" points="194.76,140.398 3152.76,140.398 "/>
<polyline clip-path="url(#clip122)" style="stroke:#000000; stroke-linecap:round; stroke-linejoin:round; stroke-width:2; stroke-opacity:0.1; fill:none" points="194.76,66.9029 3152.76,66.9029 "/>
<polyline clip-path="url(#clip120)" style="stroke:#000000; stroke-linecap:round; stroke-linejoin:round; stroke-width:4; stroke-opacity:1; fill:none" points="194.76,521.288 194.76,47.2441 "/>
<polyline clip-path="url(#clip120)" style="stroke:#000000; stroke-linecap:round; stroke-linejoin:round; stroke-width:4; stroke-opacity:1; fill:none" points="194.76,507.872 213.658,507.872 "/>
<polyline clip-path="url(#clip120)" style="stroke:#000000; stroke-linecap:round; stroke-linejoin:round; stroke-width:4; stroke-opacity:1; fill:none" points="194.76,434.377 213.658,434.377 "/>
<polyline clip-path="url(#clip120)" style="stroke:#000000; stroke-linecap:round; stroke-linejoin:round; stroke-width:4; stroke-opacity:1; fill:none" points="194.76,360.882 213.658,360.882 "/>
<polyline clip-path="url(#clip120)" style="stroke:#000000; stroke-linecap:round; stroke-linejoin:round; stroke-width:4; stroke-opacity:1; fill:none" points="194.76,287.387 213.658,287.387 "/>
<polyline clip-path="url(#clip120)" style="stroke:#000000; stroke-linecap:round; stroke-linejoin:round; stroke-width:4; stroke-opacity:1; fill:none" points="194.76,213.892 213.658,213.892 "/>
<polyline clip-path="url(#clip120)" style="stroke:#000000; stroke-linecap:round; stroke-linejoin:round; stroke-width:4; stroke-opacity:1; fill:none" points="194.76,140.398 213.658,140.398 "/>
<polyline clip-path="url(#clip120)" style="stroke:#000000; stroke-linecap:round; stroke-linejoin:round; stroke-width:4; stroke-opacity:1; fill:none" points="194.76,66.9029 213.658,66.9029 "/>
<path clip-path="url(#clip120)" d="M59.4226 493.67 Q55.8115 493.67 53.9828 497.235 Q52.1773 500.777 52.1773 507.906 Q52.1773 515.013 53.9828 518.578 Q55.8115 522.119 59.4226 522.119 Q63.0569 522.119 64.8624 518.578 Q66.6911 515.013 66.6911 507.906 Q66.6911 500.777 64.8624 497.235 Q63.0569 493.67 59.4226 493.67 M59.4226 489.967 Q65.2328 489.967 68.2883 494.573 Q71.367 499.156 71.367 507.906 Q71.367 516.633 68.2883 521.24 Q65.2328 525.823 59.4226 525.823 Q53.6125 525.823 50.5338 521.24 Q47.4782 516.633 47.4782 507.906 Q47.4782 499.156 50.5338 494.573 Q53.6125 489.967 59.4226 489.967 Z" fill="#000000" fill-rule="evenodd" fill-opacity="1" /><path clip-path="url(#clip120)" d="M79.5845 519.272 L84.4688 519.272 L84.4688 525.152 L79.5845 525.152 L79.5845 519.272 Z" fill="#000000" fill-rule="evenodd" fill-opacity="1" /><path clip-path="url(#clip120)" d="M104.654 493.67 Q101.043 493.67 99.2141 497.235 Q97.4085 500.777 97.4085 507.906 Q97.4085 515.013 99.2141 518.578 Q101.043 522.119 104.654 522.119 Q108.288 522.119 110.094 518.578 Q111.922 515.013 111.922 507.906 Q111.922 500.777 110.094 497.235 Q108.288 493.67 104.654 493.67 M104.654 489.967 Q110.464 489.967 113.52 494.573 Q116.598 499.156 116.598 507.906 Q116.598 516.633 113.52 521.24 Q110.464 525.823 104.654 525.823 Q98.8437 525.823 95.765 521.24 Q92.7095 516.633 92.7095 507.906 Q92.7095 499.156 95.765 494.573 Q98.8437 489.967 104.654 489.967 Z" fill="#000000" fill-rule="evenodd" fill-opacity="1" /><path clip-path="url(#clip120)" d="M134.816 493.67 Q131.205 493.67 129.376 497.235 Q127.57 500.777 127.57 507.906 Q127.57 515.013 129.376 518.578 Q131.205 522.119 134.816 522.119 Q138.45 522.119 140.256 518.578 Q142.084 515.013 142.084 507.906 Q142.084 500.777 140.256 497.235 Q138.45 493.67 134.816 493.67 M134.816 489.967 Q140.626 489.967 143.681 494.573 Q146.76 499.156 146.76 507.906 Q146.76 516.633 143.681 521.24 Q140.626 525.823 134.816 525.823 Q129.006 525.823 125.927 521.24 Q122.871 516.633 122.871 507.906 Q122.871 499.156 125.927 494.573 Q129.006 489.967 134.816 489.967 Z" fill="#000000" fill-rule="evenodd" fill-opacity="1" /><path clip-path="url(#clip120)" d="M61.0198 420.175 Q57.4087 420.175 55.58 423.74 Q53.7745 427.282 53.7745 434.411 Q53.7745 441.518 55.58 445.083 Q57.4087 448.624 61.0198 448.624 Q64.6541 448.624 66.4596 445.083 Q68.2883 441.518 68.2883 434.411 Q68.2883 427.282 66.4596 423.74 Q64.6541 420.175 61.0198 420.175 M61.0198 416.472 Q66.83 416.472 69.8855 421.078 Q72.9642 425.662 72.9642 434.411 Q72.9642 443.138 69.8855 447.745 Q66.83 452.328 61.0198 452.328 Q55.2097 452.328 52.131 447.745 Q49.0754 443.138 49.0754 434.411 Q49.0754 425.662 52.131 421.078 Q55.2097 416.472 61.0198 416.472 Z" fill="#000000" fill-rule="evenodd" fill-opacity="1" /><path clip-path="url(#clip120)" d="M81.1818 445.777 L86.066 445.777 L86.066 451.657 L81.1818 451.657 L81.1818 445.777 Z" fill="#000000" fill-rule="evenodd" fill-opacity="1" /><path clip-path="url(#clip120)" d="M106.251 420.175 Q102.64 420.175 100.811 423.74 Q99.0057 427.282 99.0057 434.411 Q99.0057 441.518 100.811 445.083 Q102.64 448.624 106.251 448.624 Q109.885 448.624 111.691 445.083 Q113.52 441.518 113.52 434.411 Q113.52 427.282 111.691 423.74 Q109.885 420.175 106.251 420.175 M106.251 416.472 Q112.061 416.472 115.117 421.078 Q118.195 425.662 118.195 434.411 Q118.195 443.138 115.117 447.745 Q112.061 452.328 106.251 452.328 Q100.441 452.328 97.3622 447.745 Q94.3067 443.138 94.3067 434.411 Q94.3067 425.662 97.3622 421.078 Q100.441 416.472 106.251 416.472 Z" fill="#000000" fill-rule="evenodd" fill-opacity="1" /><path clip-path="url(#clip120)" d="M130.441 447.722 L146.76 447.722 L146.76 451.657 L124.816 451.657 L124.816 447.722 Q127.478 444.967 132.061 440.337 Q136.668 435.685 137.848 434.342 Q140.093 431.819 140.973 430.083 Q141.876 428.324 141.876 426.634 Q141.876 423.879 139.931 422.143 Q138.01 420.407 134.908 420.407 Q132.709 420.407 130.256 421.171 Q127.825 421.935 125.047 423.486 L125.047 418.763 Q127.871 417.629 130.325 417.05 Q132.779 416.472 134.816 416.472 Q140.186 416.472 143.38 419.157 Q146.575 421.842 146.575 426.333 Q146.575 428.462 145.765 430.384 Q144.978 432.282 142.871 434.874 Q142.293 435.546 139.191 438.763 Q136.089 441.958 130.441 447.722 Z" fill="#000000" fill-rule="evenodd" fill-opacity="1" /><path clip-path="url(#clip120)" d="M58.9365 346.681 Q55.3254 346.681 53.4967 350.245 Q51.6912 353.787 51.6912 360.917 Q51.6912 368.023 53.4967 371.588 Q55.3254 375.13 58.9365 375.13 Q62.5707 375.13 64.3763 371.588 Q66.205 368.023 66.205 360.917 Q66.205 353.787 64.3763 350.245 Q62.5707 346.681 58.9365 346.681 M58.9365 342.977 Q64.7467 342.977 67.8022 347.583 Q70.8809 352.167 70.8809 360.917 Q70.8809 369.644 67.8022 374.25 Q64.7467 378.833 58.9365 378.833 Q53.1264 378.833 50.0477 374.25 Q46.9921 369.644 46.9921 360.917 Q46.9921 352.167 50.0477 347.583 Q53.1264 342.977 58.9365 342.977 Z" fill="#000000" fill-rule="evenodd" fill-opacity="1" /><path clip-path="url(#clip120)" d="M79.0984 372.282 L83.9827 372.282 L83.9827 378.162 L79.0984 378.162 L79.0984 372.282 Z" fill="#000000" fill-rule="evenodd" fill-opacity="1" /><path clip-path="url(#clip120)" d="M104.168 346.681 Q100.557 346.681 98.728 350.245 Q96.9224 353.787 96.9224 360.917 Q96.9224 368.023 98.728 371.588 Q100.557 375.13 104.168 375.13 Q107.802 375.13 109.608 371.588 Q111.436 368.023 111.436 360.917 Q111.436 353.787 109.608 350.245 Q107.802 346.681 104.168 346.681 M104.168 342.977 Q109.978 342.977 113.033 347.583 Q116.112 352.167 116.112 360.917 Q116.112 369.644 113.033 374.25 Q109.978 378.833 104.168 378.833 Q98.3576 378.833 95.2789 374.25 Q92.2234 369.644 92.2234 360.917 Q92.2234 352.167 95.2789 347.583 Q98.3576 342.977 104.168 342.977 Z" fill="#000000" fill-rule="evenodd" fill-opacity="1" /><path clip-path="url(#clip120)" d="M137.177 347.676 L125.371 366.125 L137.177 366.125 L137.177 347.676 M135.95 343.602 L141.83 343.602 L141.83 366.125 L146.76 366.125 L146.76 370.014 L141.83 370.014 L141.83 378.162 L137.177 378.162 L137.177 370.014 L121.575 370.014 L121.575 365.5 L135.95 343.602 Z" fill="#000000" fill-rule="evenodd" fill-opacity="1" /><path clip-path="url(#clip120)" d="M59.2606 273.186 Q55.6495 273.186 53.8208 276.751 Q52.0152 280.292 52.0152 287.422 Q52.0152 294.528 53.8208 298.093 Q55.6495 301.635 59.2606 301.635 Q62.8948 301.635 64.7004 298.093 Q66.5291 294.528 66.5291 287.422 Q66.5291 280.292 64.7004 276.751 Q62.8948 273.186 59.2606 273.186 M59.2606 269.482 Q65.0707 269.482 68.1263 274.089 Q71.205 278.672 71.205 287.422 Q71.205 296.149 68.1263 300.755 Q65.0707 305.339 59.2606 305.339 Q53.4504 305.339 50.3717 300.755 Q47.3162 296.149 47.3162 287.422 Q47.3162 278.672 50.3717 274.089 Q53.4504 269.482 59.2606 269.482 Z" fill="#000000" fill-rule="evenodd" fill-opacity="1" /><path clip-path="url(#clip120)" d="M79.4225 298.788 L84.3067 298.788 L84.3067 304.667 L79.4225 304.667 L79.4225 298.788 Z" fill="#000000" fill-rule="evenodd" fill-opacity="1" /><path clip-path="url(#clip120)" d="M104.492 273.186 Q100.881 273.186 99.052 276.751 Q97.2465 280.292 97.2465 287.422 Q97.2465 294.528 99.052 298.093 Q100.881 301.635 104.492 301.635 Q108.126 301.635 109.932 298.093 Q111.76 294.528 111.76 287.422 Q111.76 280.292 109.932 276.751 Q108.126 273.186 104.492 273.186 M104.492 269.482 Q110.302 269.482 113.358 274.089 Q116.436 278.672 116.436 287.422 Q116.436 296.149 113.358 300.755 Q110.302 305.339 104.492 305.339 Q98.6817 305.339 95.603 300.755 Q92.5474 296.149 92.5474 287.422 Q92.5474 278.672 95.603 274.089 Q98.6817 269.482 104.492 269.482 Z" fill="#000000" fill-rule="evenodd" fill-opacity="1" /><path clip-path="url(#clip120)" d="M135.232 285.524 Q132.084 285.524 130.232 287.677 Q128.404 289.829 128.404 293.579 Q128.404 297.306 130.232 299.482 Q132.084 301.635 135.232 301.635 Q138.381 301.635 140.209 299.482 Q142.061 297.306 142.061 293.579 Q142.061 289.829 140.209 287.677 Q138.381 285.524 135.232 285.524 M144.515 270.871 L144.515 275.13 Q142.756 274.297 140.95 273.857 Q139.168 273.417 137.408 273.417 Q132.779 273.417 130.325 276.542 Q127.894 279.667 127.547 285.987 Q128.913 283.973 130.973 282.908 Q133.033 281.82 135.51 281.82 Q140.718 281.82 143.728 284.991 Q146.76 288.14 146.76 293.579 Q146.76 298.903 143.612 302.121 Q140.464 305.339 135.232 305.339 Q129.237 305.339 126.066 300.755 Q122.894 296.149 122.894 287.422 Q122.894 279.228 126.783 274.366 Q130.672 269.482 137.223 269.482 Q138.982 269.482 140.765 269.829 Q142.57 270.177 144.515 270.871 Z" fill="#000000" fill-rule="evenodd" fill-opacity="1" /><path clip-path="url(#clip120)" d="M59.5152 199.691 Q55.9041 199.691 54.0754 203.256 Q52.2699 206.798 52.2699 213.927 Q52.2699 221.034 54.0754 224.598 Q55.9041 228.14 59.5152 228.14 Q63.1494 228.14 64.955 224.598 Q66.7837 221.034 66.7837 213.927 Q66.7837 206.798 64.955 203.256 Q63.1494 199.691 59.5152 199.691 M59.5152 195.987 Q65.3254 195.987 68.3809 200.594 Q71.4596 205.177 71.4596 213.927 Q71.4596 222.654 68.3809 227.26 Q65.3254 231.844 59.5152 231.844 Q53.7051 231.844 50.6264 227.26 Q47.5708 222.654 47.5708 213.927 Q47.5708 205.177 50.6264 200.594 Q53.7051 195.987 59.5152 195.987 Z" fill="#000000" fill-rule="evenodd" fill-opacity="1" /><path clip-path="url(#clip120)" d="M79.6771 225.293 L84.5614 225.293 L84.5614 231.172 L79.6771 231.172 L79.6771 225.293 Z" fill="#000000" fill-rule="evenodd" fill-opacity="1" /><path clip-path="url(#clip120)" d="M104.746 199.691 Q101.135 199.691 99.3067 203.256 Q97.5011 206.798 97.5011 213.927 Q97.5011 221.034 99.3067 224.598 Q101.135 228.14 104.746 228.14 Q108.381 228.14 110.186 224.598 Q112.015 221.034 112.015 213.927 Q112.015 206.798 110.186 203.256 Q108.381 199.691 104.746 199.691 M104.746 195.987 Q110.557 195.987 113.612 200.594 Q116.691 205.177 116.691 213.927 Q116.691 222.654 113.612 227.26 Q110.557 231.844 104.746 231.844 Q98.9363 231.844 95.8576 227.26 Q92.8021 222.654 92.8021 213.927 Q92.8021 205.177 95.8576 200.594 Q98.9363 195.987 104.746 195.987 Z" fill="#000000" fill-rule="evenodd" fill-opacity="1" /><path clip-path="url(#clip120)" d="M134.908 214.76 Q131.575 214.76 129.654 216.543 Q127.756 218.325 127.756 221.45 Q127.756 224.575 129.654 226.358 Q131.575 228.14 134.908 228.14 Q138.242 228.14 140.163 226.358 Q142.084 224.552 142.084 221.45 Q142.084 218.325 140.163 216.543 Q138.265 214.76 134.908 214.76 M130.232 212.77 Q127.223 212.029 125.533 209.969 Q123.867 207.909 123.867 204.946 Q123.867 200.802 126.807 198.395 Q129.769 195.987 134.908 195.987 Q140.07 195.987 143.01 198.395 Q145.95 200.802 145.95 204.946 Q145.95 207.909 144.26 209.969 Q142.593 212.029 139.607 212.77 Q142.987 213.557 144.862 215.848 Q146.76 218.14 146.76 221.45 Q146.76 226.473 143.681 229.159 Q140.626 231.844 134.908 231.844 Q129.191 231.844 126.112 229.159 Q123.057 226.473 123.057 221.45 Q123.057 218.14 124.955 215.848 Q126.853 213.557 130.232 212.77 M128.519 205.386 Q128.519 208.071 130.186 209.575 Q131.876 211.08 134.908 211.08 Q137.918 211.08 139.607 209.575 Q141.32 208.071 141.32 205.386 Q141.32 202.7 139.607 201.196 Q137.918 199.691 134.908 199.691 Q131.876 199.691 130.186 201.196 Q128.519 202.7 128.519 205.386 Z" fill="#000000" fill-rule="evenodd" fill-opacity="1" /><path clip-path="url(#clip120)" d="M59.4226 126.196 Q55.8115 126.196 53.9828 129.761 Q52.1773 133.303 52.1773 140.432 Q52.1773 147.539 53.9828 151.104 Q55.8115 154.645 59.4226 154.645 Q63.0569 154.645 64.8624 151.104 Q66.6911 147.539 66.6911 140.432 Q66.6911 133.303 64.8624 129.761 Q63.0569 126.196 59.4226 126.196 M59.4226 122.493 Q65.2328 122.493 68.2883 127.099 Q71.367 131.682 71.367 140.432 Q71.367 149.159 68.2883 153.766 Q65.2328 158.349 59.4226 158.349 Q53.6125 158.349 50.5338 153.766 Q47.4782 149.159 47.4782 140.432 Q47.4782 131.682 50.5338 127.099 Q53.6125 122.493 59.4226 122.493 Z" fill="#000000" fill-rule="evenodd" fill-opacity="1" /><path clip-path="url(#clip120)" d="M79.5845 151.798 L84.4688 151.798 L84.4688 157.678 L79.5845 157.678 L79.5845 151.798 Z" fill="#000000" fill-rule="evenodd" fill-opacity="1" /><path clip-path="url(#clip120)" d="M95.4641 153.743 L103.103 153.743 L103.103 127.377 L94.7928 129.044 L94.7928 124.784 L103.057 123.118 L107.733 123.118 L107.733 153.743 L115.371 153.743 L115.371 157.678 L95.4641 157.678 L95.4641 153.743 Z" fill="#000000" fill-rule="evenodd" fill-opacity="1" /><path clip-path="url(#clip120)" d="M134.816 126.196 Q131.205 126.196 129.376 129.761 Q127.57 133.303 127.57 140.432 Q127.57 147.539 129.376 151.104 Q131.205 154.645 134.816 154.645 Q138.45 154.645 140.256 151.104 Q142.084 147.539 142.084 140.432 Q142.084 133.303 140.256 129.761 Q138.45 126.196 134.816 126.196 M134.816 122.493 Q140.626 122.493 143.681 127.099 Q146.76 131.682 146.76 140.432 Q146.76 149.159 143.681 153.766 Q140.626 158.349 134.816 158.349 Q129.006 158.349 125.927 153.766 Q122.871 149.159 122.871 140.432 Q122.871 131.682 125.927 127.099 Q129.006 122.493 134.816 122.493 Z" fill="#000000" fill-rule="evenodd" fill-opacity="1" /><path clip-path="url(#clip120)" d="M61.0198 52.7016 Q57.4087 52.7016 55.58 56.2664 Q53.7745 59.808 53.7745 66.9376 Q53.7745 74.0441 55.58 77.6089 Q57.4087 81.1505 61.0198 81.1505 Q64.6541 81.1505 66.4596 77.6089 Q68.2883 74.0441 68.2883 66.9376 Q68.2883 59.808 66.4596 56.2664 Q64.6541 52.7016 61.0198 52.7016 M61.0198 48.9979 Q66.83 48.9979 69.8855 53.6044 Q72.9642 58.1877 72.9642 66.9376 Q72.9642 75.6644 69.8855 80.2709 Q66.83 84.8542 61.0198 84.8542 Q55.2097 84.8542 52.131 80.2709 Q49.0754 75.6644 49.0754 66.9376 Q49.0754 58.1877 52.131 53.6044 Q55.2097 48.9979 61.0198 48.9979 Z" fill="#000000" fill-rule="evenodd" fill-opacity="1" /><path clip-path="url(#clip120)" d="M81.1818 78.3033 L86.066 78.3033 L86.066 84.1829 L81.1818 84.1829 L81.1818 78.3033 Z" fill="#000000" fill-rule="evenodd" fill-opacity="1" /><path clip-path="url(#clip120)" d="M97.0613 80.2477 L104.7 80.2477 L104.7 53.8821 L96.39 55.5488 L96.39 51.2896 L104.654 49.6229 L109.33 49.6229 L109.33 80.2477 L116.969 80.2477 L116.969 84.1829 L97.0613 84.1829 L97.0613 80.2477 Z" fill="#000000" fill-rule="evenodd" fill-opacity="1" /><path clip-path="url(#clip120)" d="M130.441 80.2477 L146.76 80.2477 L146.76 84.1829 L124.816 84.1829 L124.816 80.2477 Q127.478 77.4931 132.061 72.8635 Q136.668 68.2108 137.848 66.8682 Q140.093 64.345 140.973 62.6089 Q141.876 60.8497 141.876 59.1599 Q141.876 56.4053 139.931 54.6692 Q138.01 52.9331 134.908 52.9331 Q132.709 52.9331 130.256 53.6969 Q127.825 54.4608 125.047 56.0118 L125.047 51.2896 Q127.871 50.1553 130.325 49.5766 Q132.779 48.9979 134.816 48.9979 Q140.186 48.9979 143.38 51.6831 Q146.575 54.3682 146.575 58.859 Q146.575 60.9886 145.765 62.9099 Q144.978 64.808 142.871 67.4006 Q142.293 68.0719 139.191 71.2894 Q136.089 74.4839 130.441 80.2477 Z" fill="#000000" fill-rule="evenodd" fill-opacity="1" /><polyline clip-path="url(#clip122)" style="stroke:#009af9; stroke-linecap:round; stroke-linejoin:round; stroke-width:4; stroke-opacity:1; fill:none" points="278.477,507.871 285.412,507.87 292.346,507.862 299.281,507.833 306.216,507.774 313.15,507.718 320.085,507.719 327.02,507.764 333.955,507.776 340.889,507.72 347.824,507.651 354.759,507.624 361.693,507.628 368.628,507.64 375.563,507.651 382.497,507.68 389.432,507.748 396.367,507.819 403.301,507.85 410.236,507.835 417.171,507.78 424.106,507.722 431.04,507.718 437.975,507.771 444.91,507.817 451.844,507.781 458.779,507.594 465.714,507.247 472.648,506.914 479.583,506.843 486.518,507.035 493.452,507.255 500.387,507.352 507.322,507.374 514.257,507.426 521.191,507.534 528.126,507.633 535.061,507.656 541.995,507.599 548.93,507.453 555.865,507.169 562.799,506.804 569.734,506.483 576.669,506.322 583.603,506.414 590.538,506.636 597.473,506.743 604.408,506.725 611.342,506.76 618.277,506.814 625.212,506.579 632.146,505.874 639.081,504.988 646.016,504.515 652.95,504.574 659.885,504.522 666.82,503.909 673.754,503.002 680.689,502.367 687.624,502.324 694.559,502.595 701.493,502.664 708.428,502.373 715.363,501.768 722.297,500.848 729.232,499.451 736.167,497.272 743.101,494.397 750.036,491.793 756.971,490.585 763.905,490.347 770.84,488.904 777.775,484.778 784.71,479.074 791.644,473.758 798.579,468.994 805.514,463.527 812.448,456.829 819.383,449.517 826.318,442.375 833.252,435.48 840.187,427.978 847.122,418.208 854.056,404.318 860.991,386.442 867.926,367.899 874.861,352.086 881.795,338.072 888.73,320.604 895.665,295.667 902.599,265.289 909.534,235.472 916.469,210.752 923.403,190.186 930.338,169.322 937.273,146.673 944.207,124.463 951.142,104.844 958.077,87.9066 965.012,74.8575 971.946,70.2197 978.881,74.6917 985.816,82.6263 992.75,90.3355 999.685,99.6275 1006.62,113.238 1013.55,131.251 1020.49,152.069 1027.42,175.969 1034.36,204.132 1041.29,234.184 1048.23,262.31 1055.16,287.315 1062.1,309.538 1069.03,329.437 1075.97,347.679 1082.9,364.311 1089.84,379.086 1096.77,392.821 1103.71,406.081 1110.64,417.828 1117.57,427.192 1124.51,435.365 1131.44,443.829 1138.38,452.298 1145.31,460.189 1152.25,466.919 1159.18,471.581 1166.12,474.916 1173.05,478.599 1179.99,482.849 1186.92,486.948 1193.86,490.194 1200.79,492.267 1207.73,493.848 1214.66,495.593 1221.6,497.165 1228.53,498.107 1235.46,498.498 1242.4,498.986 1249.33,500.163 1256.27,501.615 1263.2,502.571 1270.14,503.036 1277.07,503.412 1284.01,503.749 1290.94,503.926 1297.88,504.075 1304.81,504.425 1311.75,504.83 1318.68,504.942 1325.62,504.836 1332.55,504.822 1339.48,504.935 1346.42,505.048 1353.35,505.194 1360.29,505.505 1367.22,505.921 1374.16,506.122 1381.09,506.055 1388.03,506.073 1394.96,506.277 1401.9,506.422 1408.83,506.434 1415.77,506.485 1422.7,506.629 1429.64,506.713 1436.57,506.713 1443.51,506.854 1450.44,507.175 1457.37,507.44 1464.31,507.542 1471.24,507.56 1478.18,507.547 1485.11,507.476 1492.05,507.344 1498.98,507.25 1505.92,507.28 1512.85,507.374 1519.79,507.443 1526.72,507.495 1533.66,507.576 1540.59,507.695 1547.53,507.799 1554.46,507.853 1561.4,507.868 1568.33,507.871 1575.26,507.872 1582.2,507.871 1589.13,507.87 1596.07,507.863 1603,507.836 1609.94,507.779 1616.87,507.721 1623.81,507.718 1630.74,507.774 1637.68,507.833 1644.61,507.862 1651.55,507.87 1658.48,507.871 "/>
<polyline clip-path="url(#clip122)" style="stroke:#e26f46; stroke-linecap:round; stroke-linejoin:round; stroke-width:4; stroke-opacity:1; fill:none" points="518.092,507.871 526.101,507.869 534.11,507.855 542.118,507.809 550.127,507.737 558.136,507.714 566.145,507.773 574.154,507.84 582.162,507.866 590.171,507.871 598.18,507.871 606.189,507.871 614.197,507.867 622.206,507.841 630.215,507.776 638.224,507.716 646.233,507.735 654.241,507.805 662.25,507.853 670.259,507.858 678.268,507.804 686.276,507.666 694.285,507.55 702.294,507.608 710.303,507.754 718.312,507.842 726.32,507.858 734.329,507.807 742.338,507.646 750.347,507.407 758.356,507.222 766.364,507.21 774.373,507.37 782.382,507.573 790.391,507.733 798.399,507.814 806.408,507.77 814.417,507.575 822.426,507.304 830.435,507.197 838.443,507.315 846.452,507.395 854.461,507.321 862.47,507.271 870.479,507.365 878.487,507.44 886.496,507.302 894.505,506.985 902.514,506.708 910.522,506.717 918.531,506.876 926.54,506.788 934.549,506.378 942.558,505.922 950.566,505.656 958.575,505.494 966.584,505.114 974.593,504.547 982.602,504.207 990.61,503.922 998.619,503.382 1006.63,502.83 1014.64,502.392 1022.65,502.246 1030.65,502.332 1038.66,501.932 1046.67,500.734 1054.68,498.885 1062.69,496.511 1070.7,494.3 1078.71,493.001 1086.72,492.077 1094.72,490.541 1102.73,488.124 1110.74,484.725 1118.75,479.596 1126.76,472.799 1134.77,465.941 1142.78,459.996 1150.79,454.149 1158.79,447.126 1166.8,437.997 1174.81,426.234 1182.82,412.481 1190.83,396.809 1198.84,377.078 1206.85,353.85 1214.86,330.25 1222.87,305.719 1230.87,278.025 1238.88,247.825 1246.89,217.141 1254.9,188.613 1262.91,164.868 1270.92,145.237 1278.93,125.332 1286.94,103.485 1294.94,83.1206 1302.95,67.662 1310.96,60.6604 1318.97,67.17 1326.98,85.5779 1334.99,106.886 1343,128.217 1351.01,152.448 1359.01,178.753 1367.02,203.632 1375.03,229.751 1383.04,262.059 1391.05,295.756 1399.06,323.585 1407.07,346.163 1415.08,366.195 1423.08,383.432 1431.09,398.435 1439.1,411.882 1447.11,423.539 1455.12,433.405 1463.13,441.389 1471.14,449.089 1479.15,458.287 1487.15,467.805 1495.16,476.037 1503.17,482.763 1511.18,487.373 1519.19,489.662 1527.2,490.847 1535.21,492.495 1543.22,495.079 1551.23,497.473 1559.23,498.785 1567.24,499.307 1575.25,499.948 1583.26,501.28 1591.27,502.705 1599.28,503.711 1607.29,504.539 1615.3,505.128 1623.3,505.312 1631.31,505.512 1639.32,505.876 1647.33,505.996 1655.34,505.971 1663.35,506.025 1671.36,505.941 1679.37,505.683 1687.37,505.574 1695.38,505.584 1703.39,505.634 1711.4,506.016 1719.41,506.669 1727.42,507.121 1735.43,507.22 1743.44,507.122 1751.44,506.923 1759.45,506.777 1767.46,506.796 1775.47,506.951 1783.48,507.273 1791.49,507.623 1799.5,507.8 1807.51,507.793 1815.52,507.634 1823.52,507.432 1831.53,507.395 1839.54,507.516 1847.55,507.631 1855.56,507.715 1863.57,507.753 1871.58,507.724 1879.59,507.713 1887.59,507.775 1895.6,507.841 1903.61,507.867 1911.62,507.871 1919.63,507.869 1927.64,507.852 1935.65,507.802 1943.66,507.732 1951.66,507.718 1959.67,507.78 1967.68,507.843 1975.69,507.867 1983.7,507.871 1991.71,507.872 1999.72,507.872 2007.73,507.872 2015.73,507.872 2023.74,507.872 2031.75,507.872 2039.76,507.871 2047.77,507.866 2055.78,507.84 2063.79,507.773 2071.8,507.714 2079.8,507.737 2087.81,507.809 2095.82,507.855 2103.83,507.869 2111.84,507.871 "/>
<polyline clip-path="url(#clip122)" style="stroke:#3da44d; stroke-linecap:round; stroke-linejoin:round; stroke-width:4; stroke-opacity:1; fill:none" points="1521.94,507.871 1529.72,507.87 1537.49,507.861 1545.27,507.822 1553.04,507.747 1560.82,507.705 1568.59,507.753 1576.37,507.827 1584.14,507.863 1591.91,507.871 1599.69,507.871 1607.46,507.872 1615.24,507.871 1623.01,507.868 1630.79,507.851 1638.56,507.801 1646.33,507.734 1654.11,507.717 1661.88,507.774 1669.66,507.837 1677.43,507.862 1685.21,507.85 1692.98,507.802 1700.75,507.735 1708.53,507.717 1716.3,507.773 1724.08,507.834 1731.85,507.846 1739.63,507.803 1747.4,507.736 1755.18,507.716 1762.95,507.771 1770.72,507.836 1778.5,507.863 1786.27,507.851 1794.05,507.764 1801.82,507.567 1809.6,507.385 1817.37,507.377 1825.14,507.414 1832.92,507.379 1840.69,507.418 1848.47,507.542 1856.24,507.542 1864.02,507.409 1871.79,507.361 1879.56,507.408 1887.34,507.378 1895.11,507.285 1902.89,507.28 1910.66,507.361 1918.44,507.336 1926.21,507.088 1933.99,506.797 1941.76,506.614 1949.53,506.366 1957.31,505.947 1965.08,505.52 1972.86,505.276 1980.63,505.077 1988.41,504.635 1996.18,504.057 2003.95,503.56 2011.73,503.072 2019.5,502.546 2027.28,501.903 2035.05,500.772 2042.83,499.213 2050.6,497.858 2058.37,496.865 2066.15,495.553 2073.92,493.356 2081.7,490.535 2089.47,487.773 2097.25,485.45 2105.02,483.362 2112.79,480.746 2120.57,477.148 2128.34,472.466 2136.12,466.404 2143.89,458.941 2151.67,450.958 2159.44,443.682 2167.22,435.87 2174.99,424.728 2182.76,409.282 2190.54,390.626 2198.31,371.497 2206.09,353.334 2213.86,333.369 2221.64,309.402 2229.41,283.777 2237.18,257.02 2244.96,227.379 2252.73,198.953 2260.51,176.218 2268.28,156.793 2276.06,137.012 2283.83,115.856 2291.6,95.675 2299.38,80.4712 2307.15,73.1883 2314.93,74.3359 2322.7,82.3941 2330.48,97.0477 2338.25,116.237 2346.03,136.539 2353.8,159.337 2361.57,187.047 2369.35,217.084 2377.12,244.986 2384.9,269.912 2392.67,292.542 2400.45,314.346 2408.22,337.379 2415.99,360.609 2423.77,381.813 2431.54,400.231 2439.32,416.099 2447.09,429.277 2454.87,439.34 2462.64,447.133 2470.41,454.363 2478.19,461.632 2485.96,468.147 2493.74,473.333 2501.51,477.859 2509.29,482.556 2517.06,486.357 2524.84,488.036 2532.61,488.734 2540.38,490.282 2548.16,493.066 2555.93,496.079 2563.71,498.353 2571.48,499.85 2579.26,500.72 2587.03,501.056 2594.8,501.263 2602.58,501.723 2610.35,502.612 2618.13,503.824 2625.9,504.926 2633.68,505.549 2641.45,505.79 2649.22,505.871 2657,505.731 2664.77,505.519 2672.55,505.624 2680.32,506.037 2688.1,506.378 2695.87,506.583 2703.64,506.764 2711.42,506.838 2719.19,506.856 2726.97,506.872 2734.74,506.775 2742.52,506.674 2750.29,506.849 2758.07,507.291 2765.84,507.65 2773.61,507.742 2781.39,507.682 2789.16,507.585 2796.94,507.469 2804.71,507.395 2812.49,507.444 2820.26,507.5 2828.03,507.418 2835.81,507.284 2843.58,507.264 2851.36,507.406 2859.13,507.63 2866.91,507.786 2874.68,507.811 2882.45,507.748 2890.23,507.703 2898,507.75 2905.78,507.826 2913.55,507.863 2921.33,507.871 2929.1,507.871 2936.88,507.872 2944.65,507.872 2952.42,507.872 2960.2,507.872 2967.97,507.872 2975.75,507.872 2983.52,507.872 2991.3,507.871 2999.07,507.871 3006.84,507.863 3014.62,507.827 3022.39,507.753 3030.17,507.705 3037.94,507.747 3045.72,507.822 3053.49,507.861 3061.26,507.87 3069.04,507.871 "/>
<path clip-path="url(#clip120)" d="M2705.35 270.406 L3054.16 270.406 L3054.16 63.0456 L2705.35 63.0456  Z" fill="#ffffff" fill-rule="evenodd" fill-opacity="1"/>
<polyline clip-path="url(#clip120)" style="stroke:#000000; stroke-linecap:round; stroke-linejoin:round; stroke-width:4; stroke-opacity:1; fill:none" points="2705.35,270.406 3054.16,270.406 3054.16,63.0456 2705.35,63.0456 2705.35,270.406 "/>
<polyline clip-path="url(#clip120)" style="stroke:#009af9; stroke-linecap:round; stroke-linejoin:round; stroke-width:4; stroke-opacity:1; fill:none" points="2738.21,114.886 2935.41,114.886 "/>
<path clip-path="url(#clip120)" d="M2982.12 134.573 Q2980.32 139.203 2978.6 140.615 Q2976.89 142.027 2974.02 142.027 L2970.62 142.027 L2970.62 138.462 L2973.12 138.462 Q2974.88 138.462 2975.85 137.628 Q2976.82 136.795 2978 133.693 L2978.77 131.749 L2968.28 106.24 L2972.79 106.24 L2980.9 126.517 L2989 106.24 L2993.51 106.24 L2982.12 134.573 Z" fill="#000000" fill-rule="evenodd" fill-opacity="1" /><path clip-path="url(#clip120)" d="M3000.8 128.23 L3008.44 128.23 L3008.44 101.865 L3000.13 103.531 L3000.13 99.2722 L3008.4 97.6056 L3013.07 97.6056 L3013.07 128.23 L3020.71 128.23 L3020.71 132.166 L3000.8 132.166 L3000.8 128.23 Z" fill="#000000" fill-rule="evenodd" fill-opacity="1" /><polyline clip-path="url(#clip120)" style="stroke:#e26f46; stroke-linecap:round; stroke-linejoin:round; stroke-width:4; stroke-opacity:1; fill:none" points="2738.21,166.726 2935.41,166.726 "/>
<path clip-path="url(#clip120)" d="M2982.12 186.413 Q2980.32 191.043 2978.6 192.455 Q2976.89 193.867 2974.02 193.867 L2970.62 193.867 L2970.62 190.302 L2973.12 190.302 Q2974.88 190.302 2975.85 189.468 Q2976.82 188.635 2978 185.533 L2978.77 183.589 L2968.28 158.08 L2972.79 158.08 L2980.9 178.357 L2989 158.08 L2993.51 158.08 L2982.12 186.413 Z" fill="#000000" fill-rule="evenodd" fill-opacity="1" /><path clip-path="url(#clip120)" d="M3004.02 180.07 L3020.34 180.07 L3020.34 184.006 L2998.4 184.006 L2998.4 180.07 Q3001.06 177.316 3005.64 172.686 Q3010.25 168.033 3011.43 166.691 Q3013.67 164.168 3014.55 162.432 Q3015.46 160.672 3015.46 158.983 Q3015.46 156.228 3013.51 154.492 Q3011.59 152.756 3008.49 152.756 Q3006.29 152.756 3003.84 153.52 Q3001.41 154.283 2998.63 155.834 L2998.63 151.112 Q3001.45 149.978 3003.91 149.399 Q3006.36 148.821 3008.4 148.821 Q3013.77 148.821 3016.96 151.506 Q3020.16 154.191 3020.16 158.682 Q3020.16 160.811 3019.34 162.733 Q3018.56 164.631 3016.45 167.223 Q3015.87 167.895 3012.77 171.112 Q3009.67 174.307 3004.02 180.07 Z" fill="#000000" fill-rule="evenodd" fill-opacity="1" /><polyline clip-path="url(#clip120)" style="stroke:#3da44d; stroke-linecap:round; stroke-linejoin:round; stroke-width:4; stroke-opacity:1; fill:none" points="2738.21,218.566 2935.41,218.566 "/>
<path clip-path="url(#clip120)" d="M2982.12 238.253 Q2980.32 242.883 2978.6 244.295 Q2976.89 245.707 2974.02 245.707 L2970.62 245.707 L2970.62 242.142 L2973.12 242.142 Q2974.88 242.142 2975.85 241.308 Q2976.82 240.475 2978 237.373 L2978.77 235.429 L2968.28 209.92 L2972.79 209.92 L2980.9 230.197 L2989 209.92 L2993.51 209.92 L2982.12 238.253 Z" fill="#000000" fill-rule="evenodd" fill-opacity="1" /><path clip-path="url(#clip120)" d="M3014.16 217.211 Q3017.52 217.929 3019.39 220.197 Q3021.29 222.466 3021.29 225.799 Q3021.29 230.915 3017.77 233.716 Q3014.25 236.517 3007.77 236.517 Q3005.6 236.517 3003.28 236.077 Q3000.99 235.66 2998.53 234.804 L2998.53 230.29 Q3000.48 231.424 3002.79 232.003 Q3005.11 232.582 3007.63 232.582 Q3012.03 232.582 3014.32 230.846 Q3016.64 229.109 3016.64 225.799 Q3016.64 222.744 3014.48 221.031 Q3012.35 219.295 3008.53 219.295 L3004.51 219.295 L3004.51 215.452 L3008.72 215.452 Q3012.17 215.452 3014 214.086 Q3015.83 212.698 3015.83 210.105 Q3015.83 207.443 3013.93 206.031 Q3012.05 204.596 3008.53 204.596 Q3006.61 204.596 3004.41 205.012 Q3002.22 205.429 2999.58 206.309 L2999.58 202.142 Q3002.24 201.401 3004.55 201.031 Q3006.89 200.661 3008.95 200.661 Q3014.28 200.661 3017.38 203.091 Q3020.48 205.498 3020.48 209.619 Q3020.48 212.489 3018.84 214.48 Q3017.19 216.448 3014.16 217.211 Z" fill="#000000" fill-rule="evenodd" fill-opacity="1" /></svg>
